  0
SECTION
  2
HEADER
  9
$ACADVER
  1
AC1009
  9
$EXTMIN
 10
0.0
 20
0.0
 30
0.0
  9
$EXTMAX
 10
1000.0
 20
1000.0
 30
0.0
  9
$FILLMODE
 70
 0
  9
$SPLFRAME
 70
 1
  0
ENDSEC
  0
SECTION
  2
TABLES
  0
TABLE
  2
LAYER
 70
1
  0
LAYER
  2
0
 70
     0
 62
     7
  6
CONTINUOUS
  0
ENDTAB
  0
ENDSEC
  0
SECTION
  2
ENTITIES
  0
POLYLINE
  8
0
 62
     0
 66
     1
 10
0
 20
0
 30
0.0
 40
25.4
 41
25.4
  0
VERTEX
  8
0
 10
992.176
 20
155.168
 30
0.0
 40
0.352778
 41
0.352778
  0
VERTEX
  8
0
 10
996.176
 20
110.167
 30
0.0
 40
0.352778
 41
0.352778
  0
SEQEND
 8
0
  0
POLYLINE
  8
0
 62
     0
 66
     1
 10
0
 20
0
 30
0.0
 40
25.4
 41
25.4
  0
VERTEX
  8
0
 10
992.176
 20
45.1675
 30
0.0
 40
0.352778
 41
0.352778
  0
VERTEX
  8
0
 10
996.176
 20
0.167481
 30
0.0
 40
0.352778
 41
0.352778
  0
SEQEND
 8
0
  0
POLYLINE
  8
0
 62
     0
 66
     1
 10
0
 20
0
 30
0.0
 40
25.4
 41
25.4
  0
VERTEX
  8
0
 10
575.178
 20
155.185
 30
0.0
 40
0.352778
 41
0.352778
  0
VERTEX
  8
0
 10
575.178
 20
205.185
 30
0.0
 40
0.352778
 41
0.352778
  0
VERTEX
  8
0
 10
0.176378
 20
205.185
 30
0.0
 40
0.352778
 41
0.352778
  0
VERTEX
  8
0
 10
0.176378
 20
155.185
 30
0.0
 40
0.352778
 41
0.352778
  0
VERTEX
  8
0
 10
1000.18
 20
155.185
 30
0.0
 40
0.352778
 41
0.352778
  0
SEQEND
 8
0
  0
POLYLINE
  8
0
 62
     0
 66
     1
 10
0
 20
0
 30
0.0
 40
25.4
 41
25.4
  0
VERTEX
  8
0
 10
1000.18
 20
155.168
 30
0.0
 40
0.352778
 41
0.352778
  0
VERTEX
  8
0
 10
996.176
 20
200.168
 30
0.0
 40
0.352778
 41
0.352778
  0
VERTEX
  8
0
 10
579.176
 20
200.168
 30
0.0
 40
0.352778
 41
0.352778
  0
VERTEX
  8
0
 10
571.176
 20
110.167
 30
0.0
 40
0.352778
 41
0.352778
  0
SEQEND
 8
0
  0
POLYLINE
  8
0
 62
     0
 66
     1
 10
0
 20
0
 30
0.0
 40
25.4
 41
25.4
  0
VERTEX
  8
0
 10
150.176
 20
155.185
 30
0.0
 40
0.352778
 41
0.352778
  0
VERTEX
  8
0
 10
154.176
 20
110.185
 30
0.0
 40
0.352778
 41
0.352778
  0
VERTEX
  8
0
 10
996.176
 20
110.185
 30
0.0
 40
0.352778
 41
0.352778
  0
SEQEND
 8
0
  0
POLYLINE
  8
0
 62
     0
 66
     1
 10
0
 20
0
 30
0.0
 40
25.4
 41
25.4
  0
VERTEX
  8
0
 10
575.178
 20
45.1846
 30
0.0
 40
0.352778
 41
0.352778
  0
VERTEX
  8
0
 10
575.178
 20
95.1847
 30
0.0
 40
0.352778
 41
0.352778
  0
VERTEX
  8
0
 10
0.176378
 20
95.1847
 30
0.0
 40
0.352778
 41
0.352778
  0
VERTEX
  8
0
 10
0.176378
 20
45.1846
 30
0.0
 40
0.352778
 41
0.352778
  0
VERTEX
  8
0
 10
1000.18
 20
45.1846
 30
0.0
 40
0.352778
 41
0.352778
  0
SEQEND
 8
0
  0
POLYLINE
  8
0
 62
     0
 66
     1
 10
0
 20
0
 30
0.0
 40
25.4
 41
25.4
  0
VERTEX
  8
0
 10
1000.18
 20
45.1675
 30
0.0
 40
0.352778
 41
0.352778
  0
VERTEX
  8
0
 10
996.176
 20
90.1676
 30
0.0
 40
0.352778
 41
0.352778
  0
VERTEX
  8
0
 10
579.176
 20
90.1676
 30
0.0
 40
0.352778
 41
0.352778
  0
VERTEX
  8
0
 10
571.176
 20
0.167426
 30
0.0
 40
0.352778
 41
0.352778
  0
SEQEND
 8
0
  0
POLYLINE
  8
0
 62
     0
 66
     1
 10
0
 20
0
 30
0.0
 40
25.4
 41
25.4
  0
VERTEX
  8
0
 10
150.176
 20
45.1846
 30
0.0
 40
0.352778
 41
0.352778
  0
VERTEX
  8
0
 10
154.176
 20
0.184571
 30
0.0
 40
0.352778
 41
0.352778
  0
VERTEX
  8
0
 10
996.176
 20
0.184571
 30
0.0
 40
0.352778
 41
0.352778
  0
SEQEND
 8
0
  0
ENDSEC
  0
EOF
