  0
SECTION
  2
HEADER
  9
$ACADVER
  1
AC1009
  9
$EXTMIN
 10
0.0
 20
0.0
 30
0.0
  9
$EXTMAX
 10
1000.0
 20
1000.0
 30
0.0
  9
$FILLMODE
 70
 0
  9
$SPLFRAME
 70
 1
  0
ENDSEC
  0
SECTION
  2
TABLES
  0
TABLE
  2
LAYER
 70
1
  0
LAYER
  2
0
 70
     0
 62
     7
  6
CONTINUOUS
  0
ENDTAB
  0
ENDSEC
  0
SECTION
  2
ENTITIES
  0
POLYLINE
  8
0
 62
     0
 66
     1
 10
0
 20
0
 30
0.0
 70
     1
 40
0
 41
0
  0
VERTEX
  8
0
 10
142.749
 20
165.767
 30
0.0
 40
0
 41
0
  0
VERTEX
  8
0
 10
86.6632
 20
22.3421
 30
0.0
 40
0
 41
0
  0
VERTEX
  8
0
 10
0
 20
0.00320096
 30
0.0
 40
0
 41
0
  0
VERTEX
  8
0
 10
0
 20
158.183
 30
0.0
 40
0
 41
0
  0
VERTEX
  8
0
 10
43.0033
 20
165.767
 30
0.0
 40
0
 41
0
  0
VERTEX
  8
0
 10
43.0033
 20
638.765
 30
0.0
 40
0
 41
0
  0
VERTEX
  8
0
 10
0
 20
646.347
 30
0.0
 40
0
 41
0
  0
VERTEX
  8
0
 10
0
 20
804.528
 30
0.0
 40
0
 41
0
  0
VERTEX
  8
0
 10
86.6632
 20
782.189
 30
0.0
 40
0
 41
0
  0
VERTEX
  8
0
 10
142.749
 20
638.765
 30
0.0
 40
0
 41
0
  0
VERTEX
  8
0
 10
148.229
 20
614.765
 30
0.0
 40
0
 41
0
  0
VERTEX
  8
0
 10
148.575
 20
613.981
 30
0.0
 40
0
 41
0
  0
VERTEX
  8
0
 10
149.603
 20
611.622
 30
0.0
 40
0
 41
0
  0
VERTEX
  8
0
 10
150.954
 20
608.472
 30
0.0
 40
0
 41
0
  0
VERTEX
  8
0
 10
152.286
 20
605.314
 30
0.0
 40
0
 41
0
  0
VERTEX
  8
0
 10
153.597
 20
602.149
 30
0.0
 40
0
 41
0
  0
VERTEX
  8
0
 10
154.886
 20
598.975
 30
0.0
 40
0
 41
0
  0
VERTEX
  8
0
 10
156.156
 20
595.796
 30
0.0
 40
0
 41
0
  0
VERTEX
  8
0
 10
157.403
 20
592.607
 30
0.0
 40
0
 41
0
  0
VERTEX
  8
0
 10
158.629
 20
589.412
 30
0.0
 40
0
 41
0
  0
VERTEX
  8
0
 10
159.835
 20
586.21
 30
0.0
 40
0
 41
0
  0
VERTEX
  8
0
 10
161.019
 20
583.001
 30
0.0
 40
0
 41
0
  0
VERTEX
  8
0
 10
162.182
 20
579.785
 30
0.0
 40
0
 41
0
  0
VERTEX
  8
0
 10
163.325
 20
576.563
 30
0.0
 40
0
 41
0
  0
VERTEX
  8
0
 10
164.446
 20
573.333
 30
0.0
 40
0
 41
0
  0
VERTEX
  8
0
 10
165.546
 20
570.097
 30
0.0
 40
0
 41
0
  0
VERTEX
  8
0
 10
166.624
 20
566.854
 30
0.0
 40
0
 41
0
  0
VERTEX
  8
0
 10
167.681
 20
563.606
 30
0.0
 40
0
 41
0
  0
VERTEX
  8
0
 10
168.717
 20
560.351
 30
0.0
 40
0
 41
0
  0
VERTEX
  8
0
 10
169.732
 20
557.09
 30
0.0
 40
0
 41
0
  0
VERTEX
  8
0
 10
170.725
 20
553.822
 30
0.0
 40
0
 41
0
  0
VERTEX
  8
0
 10
171.697
 20
550.55
 30
0.0
 40
0
 41
0
  0
VERTEX
  8
0
 10
172.647
 20
547.271
 30
0.0
 40
0
 41
0
  0
VERTEX
  8
0
 10
173.576
 20
543.986
 30
0.0
 40
0
 41
0
  0
VERTEX
  8
0
 10
174.485
 20
540.696
 30
0.0
 40
0
 41
0
  0
VERTEX
  8
0
 10
175.371
 20
537.4
 30
0.0
 40
0
 41
0
  0
VERTEX
  8
0
 10
176.236
 20
534.099
 30
0.0
 40
0
 41
0
  0
VERTEX
  8
0
 10
177.079
 20
530.792
 30
0.0
 40
0
 41
0
  0
VERTEX
  8
0
 10
177.901
 20
527.481
 30
0.0
 40
0
 41
0
  0
VERTEX
  8
0
 10
178.701
 20
524.164
 30
0.0
 40
0
 41
0
  0
VERTEX
  8
0
 10
179.481
 20
520.842
 30
0.0
 40
0
 41
0
  0
VERTEX
  8
0
 10
180.237
 20
517.515
 30
0.0
 40
0
 41
0
  0
VERTEX
  8
0
 10
180.974
 20
514.185
 30
0.0
 40
0
 41
0
  0
VERTEX
  8
0
 10
181.688
 20
510.849
 30
0.0
 40
0
 41
0
  0
VERTEX
  8
0
 10
182.381
 20
507.507
 30
0.0
 40
0
 41
0
  0
VERTEX
  8
0
 10
183.051
 20
504.162
 30
0.0
 40
0
 41
0
  0
VERTEX
  8
0
 10
183.701
 20
500.813
 30
0.0
 40
0
 41
0
  0
VERTEX
  8
0
 10
184.328
 20
497.46
 30
0.0
 40
0
 41
0
  0
VERTEX
  8
0
 10
184.935
 20
494.101
 30
0.0
 40
0
 41
0
  0
VERTEX
  8
0
 10
185.518
 20
490.74
 30
0.0
 40
0
 41
0
  0
VERTEX
  8
0
 10
186.081
 20
487.374
 30
0.0
 40
0
 41
0
  0
VERTEX
  8
0
 10
186.621
 20
484.004
 30
0.0
 40
0
 41
0
  0
VERTEX
  8
0
 10
187.14
 20
480.632
 30
0.0
 40
0
 41
0
  0
VERTEX
  8
0
 10
187.638
 20
477.254
 30
0.0
 40
0
 41
0
  0
VERTEX
  8
0
 10
188.112
 20
473.874
 30
0.0
 40
0
 41
0
  0
VERTEX
  8
0
 10
188.565
 20
470.49
 30
0.0
 40
0
 41
0
  0
VERTEX
  8
0
 10
188.997
 20
467.104
 30
0.0
 40
0
 41
0
  0
VERTEX
  8
0
 10
189.407
 20
463.714
 30
0.0
 40
0
 41
0
  0
VERTEX
  8
0
 10
189.794
 20
460.319
 30
0.0
 40
0
 41
0
  0
VERTEX
  8
0
 10
190.16
 20
456.924
 30
0.0
 40
0
 41
0
  0
VERTEX
  8
0
 10
190.503
 20
453.525
 30
0.0
 40
0
 41
0
  0
VERTEX
  8
0
 10
190.825
 20
450.122
 30
0.0
 40
0
 41
0
  0
VERTEX
  8
0
 10
191.124
 20
446.718
 30
0.0
 40
0
 41
0
  0
VERTEX
  8
0
 10
191.401
 20
443.311
 30
0.0
 40
0
 41
0
  0
VERTEX
  8
0
 10
191.657
 20
439.901
 30
0.0
 40
0
 41
0
  0
VERTEX
  8
0
 10
191.89
 20
436.49
 30
0.0
 40
0
 41
0
  0
VERTEX
  8
0
 10
192.101
 20
433.075
 30
0.0
 40
0
 41
0
  0
VERTEX
  8
0
 10
192.29
 20
429.66
 30
0.0
 40
0
 41
0
  0
VERTEX
  8
0
 10
192.457
 20
426.242
 30
0.0
 40
0
 41
0
  0
VERTEX
  8
0
 10
192.601
 20
422.821
 30
0.0
 40
0
 41
0
  0
VERTEX
  8
0
 10
192.725
 20
419.399
 30
0.0
 40
0
 41
0
  0
VERTEX
  8
0
 10
192.825
 20
415.975
 30
0.0
 40
0
 41
0
  0
VERTEX
  8
0
 10
192.903
 20
412.55
 30
0.0
 40
0
 41
0
  0
VERTEX
  8
0
 10
192.958
 20
409.124
 30
0.0
 40
0
 41
0
  0
VERTEX
  8
0
 10
192.992
 20
405.694
 30
0.0
 40
0
 41
0
  0
VERTEX
  8
0
 10
193.003
 20
403.122
 30
0.0
 40
0
 41
0
  0
VERTEX
  8
0
 10
193.003
 20
402.265
 30
0.0
 40
0
 41
0
  0
VERTEX
  8
0
 10
193.003
 20
401.408
 30
0.0
 40
0
 41
0
  0
VERTEX
  8
0
 10
192.992
 20
398.836
 30
0.0
 40
0
 41
0
  0
VERTEX
  8
0
 10
192.958
 20
395.408
 30
0.0
 40
0
 41
0
  0
VERTEX
  8
0
 10
192.903
 20
391.981
 30
0.0
 40
0
 41
0
  0
VERTEX
  8
0
 10
192.825
 20
388.556
 30
0.0
 40
0
 41
0
  0
VERTEX
  8
0
 10
192.725
 20
385.132
 30
0.0
 40
0
 41
0
  0
VERTEX
  8
0
 10
192.601
 20
381.71
 30
0.0
 40
0
 41
0
  0
VERTEX
  8
0
 10
192.457
 20
378.29
 30
0.0
 40
0
 41
0
  0
VERTEX
  8
0
 10
192.29
 20
374.872
 30
0.0
 40
0
 41
0
  0
VERTEX
  8
0
 10
192.101
 20
371.456
 30
0.0
 40
0
 41
0
  0
VERTEX
  8
0
 10
191.89
 20
368.042
 30
0.0
 40
0
 41
0
  0
VERTEX
  8
0
 10
191.657
 20
364.629
 30
0.0
 40
0
 41
0
  0
VERTEX
  8
0
 10
191.401
 20
361.219
 30
0.0
 40
0
 41
0
  0
VERTEX
  8
0
 10
191.124
 20
357.813
 30
0.0
 40
0
 41
0
  0
VERTEX
  8
0
 10
190.825
 20
354.408
 30
0.0
 40
0
 41
0
  0
VERTEX
  8
0
 10
190.503
 20
351.007
 30
0.0
 40
0
 41
0
  0
VERTEX
  8
0
 10
190.16
 20
347.607
 30
0.0
 40
0
 41
0
  0
VERTEX
  8
0
 10
189.794
 20
344.211
 30
0.0
 40
0
 41
0
  0
VERTEX
  8
0
 10
189.407
 20
340.818
 30
0.0
 40
0
 41
0
  0
VERTEX
  8
0
 10
188.997
 20
337.428
 30
0.0
 40
0
 41
0
  0
VERTEX
  8
0
 10
188.565
 20
334.04
 30
0.0
 40
0
 41
0
  0
VERTEX
  8
0
 10
188.112
 20
330.657
 30
0.0
 40
0
 41
0
  0
VERTEX
  8
0
 10
187.638
 20
327.276
 30
0.0
 40
0
 41
0
  0
VERTEX
  8
0
 10
187.14
 20
323.9
 30
0.0
 40
0
 41
0
  0
VERTEX
  8
0
 10
186.621
 20
320.526
 30
0.0
 40
0
 41
0
  0
VERTEX
  8
0
 10
186.081
 20
317.157
 30
0.0
 40
0
 41
0
  0
VERTEX
  8
0
 10
185.518
 20
313.792
 30
0.0
 40
0
 41
0
  0
VERTEX
  8
0
 10
184.935
 20
310.429
 30
0.0
 40
0
 41
0
  0
VERTEX
  8
0
 10
184.328
 20
307.072
 30
0.0
 40
0
 41
0
  0
VERTEX
  8
0
 10
183.701
 20
303.718
 30
0.0
 40
0
 41
0
  0
VERTEX
  8
0
 10
183.051
 20
300.368
 30
0.0
 40
0
 41
0
  0
VERTEX
  8
0
 10
182.381
 20
297.024
 30
0.0
 40
0
 41
0
  0
VERTEX
  8
0
 10
181.688
 20
293.683
 30
0.0
 40
0
 41
0
  0
VERTEX
  8
0
 10
180.974
 20
290.347
 30
0.0
 40
0
 41
0
  0
VERTEX
  8
0
 10
180.237
 20
287.015
 30
0.0
 40
0
 41
0
  0
VERTEX
  8
0
 10
179.481
 20
283.689
 30
0.0
 40
0
 41
0
  0
VERTEX
  8
0
 10
178.701
 20
280.367
 30
0.0
 40
0
 41
0
  0
VERTEX
  8
0
 10
177.901
 20
277.05
 30
0.0
 40
0
 41
0
  0
VERTEX
  8
0
 10
177.079
 20
273.739
 30
0.0
 40
0
 41
0
  0
VERTEX
  8
0
 10
176.236
 20
270.432
 30
0.0
 40
0
 41
0
  0
VERTEX
  8
0
 10
175.371
 20
267.131
 30
0.0
 40
0
 41
0
  0
VERTEX
  8
0
 10
174.485
 20
263.835
 30
0.0
 40
0
 41
0
  0
VERTEX
  8
0
 10
173.576
 20
260.544
 30
0.0
 40
0
 41
0
  0
VERTEX
  8
0
 10
172.647
 20
257.261
 30
0.0
 40
0
 41
0
  0
VERTEX
  8
0
 10
171.697
 20
253.982
 30
0.0
 40
0
 41
0
  0
VERTEX
  8
0
 10
170.725
 20
250.708
 30
0.0
 40
0
 41
0
  0
VERTEX
  8
0
 10
169.732
 20
247.442
 30
0.0
 40
0
 41
0
  0
VERTEX
  8
0
 10
168.717
 20
244.181
 30
0.0
 40
0
 41
0
  0
VERTEX
  8
0
 10
167.681
 20
240.925
 30
0.0
 40
0
 41
0
  0
VERTEX
  8
0
 10
166.624
 20
237.676
 30
0.0
 40
0
 41
0
  0
VERTEX
  8
0
 10
165.546
 20
234.433
 30
0.0
 40
0
 41
0
  0
VERTEX
  8
0
 10
164.446
 20
231.197
 30
0.0
 40
0
 41
0
  0
VERTEX
  8
0
 10
163.325
 20
227.968
 30
0.0
 40
0
 41
0
  0
VERTEX
  8
0
 10
162.182
 20
224.746
 30
0.0
 40
0
 41
0
  0
VERTEX
  8
0
 10
161.019
 20
221.529
 30
0.0
 40
0
 41
0
  0
VERTEX
  8
0
 10
159.835
 20
218.321
 30
0.0
 40
0
 41
0
  0
VERTEX
  8
0
 10
158.629
 20
215.118
 30
0.0
 40
0
 41
0
  0
VERTEX
  8
0
 10
157.403
 20
211.924
 30
0.0
 40
0
 41
0
  0
VERTEX
  8
0
 10
156.156
 20
208.736
 30
0.0
 40
0
 41
0
  0
VERTEX
  8
0
 10
154.886
 20
205.556
 30
0.0
 40
0
 41
0
  0
VERTEX
  8
0
 10
153.597
 20
202.382
 30
0.0
 40
0
 41
0
  0
VERTEX
  8
0
 10
152.286
 20
199.217
 30
0.0
 40
0
 41
0
  0
VERTEX
  8
0
 10
150.954
 20
196.058
 30
0.0
 40
0
 41
0
  0
VERTEX
  8
0
 10
149.603
 20
192.908
 30
0.0
 40
0
 41
0
  0
VERTEX
  8
0
 10
148.575
 20
190.551
 30
0.0
 40
0
 41
0
  0
VERTEX
  8
0
 10
148.229
 20
189.767
 30
0.0
 40
0
 41
0
  0
VERTEX
  8
0
 10
142.749
 20
165.767
 30
0.0
 40
0
 41
0
  0
SEQEND
 8
0
  0
POLYLINE
  8
0
 62
     0
 66
     1
 10
0
 20
0
 30
0.0
 70
     1
 40
0
 41
0
  0
VERTEX
  8
0
 10
160.321
 20
416.329
 30
0.0
 40
0
 41
0
  0
VERTEX
  8
0
 10
160.36
 20
416.329
 30
0.0
 40
0
 41
0
  0
VERTEX
  8
0
 10
160.475
 20
416.322
 30
0.0
 40
0
 41
0
  0
VERTEX
  8
0
 10
160.625
 20
416.299
 30
0.0
 40
0
 41
0
  0
VERTEX
  8
0
 10
160.769
 20
416.263
 30
0.0
 40
0
 41
0
  0
VERTEX
  8
0
 10
160.908
 20
416.211
 30
0.0
 40
0
 41
0
  0
VERTEX
  8
0
 10
161.039
 20
416.147
 30
0.0
 40
0
 41
0
  0
VERTEX
  8
0
 10
161.164
 20
416.072
 30
0.0
 40
0
 41
0
  0
VERTEX
  8
0
 10
161.279
 20
415.986
 30
0.0
 40
0
 41
0
  0
VERTEX
  8
0
 10
161.386
 20
415.889
 30
0.0
 40
0
 41
0
  0
VERTEX
  8
0
 10
161.483
 20
415.782
 30
0.0
 40
0
 41
0
  0
VERTEX
  8
0
 10
161.571
 20
415.665
 30
0.0
 40
0
 41
0
  0
VERTEX
  8
0
 10
161.646
 20
415.542
 30
0.0
 40
0
 41
0
  0
VERTEX
  8
0
 10
161.71
 20
415.41
 30
0.0
 40
0
 41
0
  0
VERTEX
  8
0
 10
161.76
 20
415.271
 30
0.0
 40
0
 41
0
  0
VERTEX
  8
0
 10
161.797
 20
415.126
 30
0.0
 40
0
 41
0
  0
VERTEX
  8
0
 10
161.821
 20
414.976
 30
0.0
 40
0
 41
0
  0
VERTEX
  8
0
 10
161.828
 20
414.861
 30
0.0
 40
0
 41
0
  0
VERTEX
  8
0
 10
161.828
 20
414.822
 30
0.0
 40
0
 41
0
  0
VERTEX
  8
0
 10
161.828
 20
414.785
 30
0.0
 40
0
 41
0
  0
VERTEX
  8
0
 10
161.821
 20
414.669
 30
0.0
 40
0
 41
0
  0
VERTEX
  8
0
 10
161.797
 20
414.519
 30
0.0
 40
0
 41
0
  0
VERTEX
  8
0
 10
161.76
 20
414.375
 30
0.0
 40
0
 41
0
  0
VERTEX
  8
0
 10
161.71
 20
414.236
 30
0.0
 40
0
 41
0
  0
VERTEX
  8
0
 10
161.646
 20
414.104
 30
0.0
 40
0
 41
0
  0
VERTEX
  8
0
 10
161.571
 20
413.981
 30
0.0
 40
0
 41
0
  0
VERTEX
  8
0
 10
161.483
 20
413.864
 30
0.0
 40
0
 41
0
  0
VERTEX
  8
0
 10
161.386
 20
413.757
 30
0.0
 40
0
 41
0
  0
VERTEX
  8
0
 10
161.279
 20
413.66
 30
0.0
 40
0
 41
0
  0
VERTEX
  8
0
 10
161.164
 20
413.574
 30
0.0
 40
0
 41
0
  0
VERTEX
  8
0
 10
161.039
 20
413.497
 30
0.0
 40
0
 41
0
  0
VERTEX
  8
0
 10
160.908
 20
413.435
 30
0.0
 40
0
 41
0
  0
VERTEX
  8
0
 10
160.769
 20
413.383
 30
0.0
 40
0
 41
0
  0
VERTEX
  8
0
 10
160.625
 20
413.347
 30
0.0
 40
0
 41
0
  0
VERTEX
  8
0
 10
160.475
 20
413.324
 30
0.0
 40
0
 41
0
  0
VERTEX
  8
0
 10
160.36
 20
413.317
 30
0.0
 40
0
 41
0
  0
VERTEX
  8
0
 10
160.321
 20
413.317
 30
0.0
 40
0
 41
0
  0
VERTEX
  8
0
 10
160.283
 20
413.317
 30
0.0
 40
0
 41
0
  0
VERTEX
  8
0
 10
160.167
 20
413.324
 30
0.0
 40
0
 41
0
  0
VERTEX
  8
0
 10
160.018
 20
413.347
 30
0.0
 40
0
 41
0
  0
VERTEX
  8
0
 10
159.874
 20
413.383
 30
0.0
 40
0
 41
0
  0
VERTEX
  8
0
 10
159.735
 20
413.435
 30
0.0
 40
0
 41
0
  0
VERTEX
  8
0
 10
159.603
 20
413.497
 30
0.0
 40
0
 41
0
  0
VERTEX
  8
0
 10
159.479
 20
413.574
 30
0.0
 40
0
 41
0
  0
VERTEX
  8
0
 10
159.362
 20
413.66
 30
0.0
 40
0
 41
0
  0
VERTEX
  8
0
 10
159.256
 20
413.757
 30
0.0
 40
0
 41
0
  0
VERTEX
  8
0
 10
159.158
 20
413.864
 30
0.0
 40
0
 41
0
  0
VERTEX
  8
0
 10
159.072
 20
413.981
 30
0.0
 40
0
 41
0
  0
VERTEX
  8
0
 10
158.996
 20
414.104
 30
0.0
 40
0
 41
0
  0
VERTEX
  8
0
 10
158.933
 20
414.236
 30
0.0
 40
0
 41
0
  0
VERTEX
  8
0
 10
158.882
 20
414.375
 30
0.0
 40
0
 41
0
  0
VERTEX
  8
0
 10
158.844
 20
414.519
 30
0.0
 40
0
 41
0
  0
VERTEX
  8
0
 10
158.822
 20
414.669
 30
0.0
 40
0
 41
0
  0
VERTEX
  8
0
 10
158.814
 20
414.785
 30
0.0
 40
0
 41
0
  0
VERTEX
  8
0
 10
158.814
 20
414.822
 30
0.0
 40
0
 41
0
  0
VERTEX
  8
0
 10
158.814
 20
414.861
 30
0.0
 40
0
 41
0
  0
VERTEX
  8
0
 10
158.822
 20
414.976
 30
0.0
 40
0
 41
0
  0
VERTEX
  8
0
 10
158.844
 20
415.126
 30
0.0
 40
0
 41
0
  0
VERTEX
  8
0
 10
158.882
 20
415.271
 30
0.0
 40
0
 41
0
  0
VERTEX
  8
0
 10
158.933
 20
415.41
 30
0.0
 40
0
 41
0
  0
VERTEX
  8
0
 10
158.996
 20
415.542
 30
0.0
 40
0
 41
0
  0
VERTEX
  8
0
 10
159.072
 20
415.665
 30
0.0
 40
0
 41
0
  0
VERTEX
  8
0
 10
159.158
 20
415.782
 30
0.0
 40
0
 41
0
  0
VERTEX
  8
0
 10
159.256
 20
415.889
 30
0.0
 40
0
 41
0
  0
VERTEX
  8
0
 10
159.362
 20
415.986
 30
0.0
 40
0
 41
0
  0
VERTEX
  8
0
 10
159.479
 20
416.072
 30
0.0
 40
0
 41
0
  0
VERTEX
  8
0
 10
159.603
 20
416.147
 30
0.0
 40
0
 41
0
  0
VERTEX
  8
0
 10
159.735
 20
416.211
 30
0.0
 40
0
 41
0
  0
VERTEX
  8
0
 10
159.874
 20
416.263
 30
0.0
 40
0
 41
0
  0
VERTEX
  8
0
 10
160.018
 20
416.299
 30
0.0
 40
0
 41
0
  0
VERTEX
  8
0
 10
160.167
 20
416.322
 30
0.0
 40
0
 41
0
  0
VERTEX
  8
0
 10
160.283
 20
416.329
 30
0.0
 40
0
 41
0
  0
VERTEX
  8
0
 10
160.321
 20
416.329
 30
0.0
 40
0
 41
0
  0
SEQEND
 8
0
  0
POLYLINE
  8
0
 62
     0
 66
     1
 10
0
 20
0
 30
0.0
 70
     1
 40
0
 41
0
  0
VERTEX
  8
0
 10
59.8621
 20
416.329
 30
0.0
 40
0
 41
0
  0
VERTEX
  8
0
 10
59.9006
 20
416.329
 30
0.0
 40
0
 41
0
  0
VERTEX
  8
0
 10
60.0161
 20
416.322
 30
0.0
 40
0
 41
0
  0
VERTEX
  8
0
 10
60.1657
 20
416.299
 30
0.0
 40
0
 41
0
  0
VERTEX
  8
0
 10
60.3101
 20
416.263
 30
0.0
 40
0
 41
0
  0
VERTEX
  8
0
 10
60.4486
 20
416.211
 30
0.0
 40
0
 41
0
  0
VERTEX
  8
0
 10
60.5804
 20
416.147
 30
0.0
 40
0
 41
0
  0
VERTEX
  8
0
 10
60.7046
 20
416.072
 30
0.0
 40
0
 41
0
  0
VERTEX
  8
0
 10
60.8206
 20
415.986
 30
0.0
 40
0
 41
0
  0
VERTEX
  8
0
 10
60.9276
 20
415.889
 30
0.0
 40
0
 41
0
  0
VERTEX
  8
0
 10
61.0249
 20
415.782
 30
0.0
 40
0
 41
0
  0
VERTEX
  8
0
 10
61.1117
 20
415.665
 30
0.0
 40
0
 41
0
  0
VERTEX
  8
0
 10
61.1871
 20
415.542
 30
0.0
 40
0
 41
0
  0
VERTEX
  8
0
 10
61.2506
 20
415.41
 30
0.0
 40
0
 41
0
  0
VERTEX
  8
0
 10
61.3012
 20
415.271
 30
0.0
 40
0
 41
0
  0
VERTEX
  8
0
 10
61.3383
 20
415.126
 30
0.0
 40
0
 41
0
  0
VERTEX
  8
0
 10
61.3611
 20
414.976
 30
0.0
 40
0
 41
0
  0
VERTEX
  8
0
 10
61.369
 20
414.861
 30
0.0
 40
0
 41
0
  0
VERTEX
  8
0
 10
61.369
 20
414.822
 30
0.0
 40
0
 41
0
  0
VERTEX
  8
0
 10
61.369
 20
414.785
 30
0.0
 40
0
 41
0
  0
VERTEX
  8
0
 10
61.3611
 20
414.669
 30
0.0
 40
0
 41
0
  0
VERTEX
  8
0
 10
61.3383
 20
414.519
 30
0.0
 40
0
 41
0
  0
VERTEX
  8
0
 10
61.3012
 20
414.375
 30
0.0
 40
0
 41
0
  0
VERTEX
  8
0
 10
61.2506
 20
414.236
 30
0.0
 40
0
 41
0
  0
VERTEX
  8
0
 10
61.1871
 20
414.104
 30
0.0
 40
0
 41
0
  0
VERTEX
  8
0
 10
61.1117
 20
413.981
 30
0.0
 40
0
 41
0
  0
VERTEX
  8
0
 10
61.0249
 20
413.864
 30
0.0
 40
0
 41
0
  0
VERTEX
  8
0
 10
60.9276
 20
413.757
 30
0.0
 40
0
 41
0
  0
VERTEX
  8
0
 10
60.8206
 20
413.66
 30
0.0
 40
0
 41
0
  0
VERTEX
  8
0
 10
60.7046
 20
413.574
 30
0.0
 40
0
 41
0
  0
VERTEX
  8
0
 10
60.5804
 20
413.497
 30
0.0
 40
0
 41
0
  0
VERTEX
  8
0
 10
60.4486
 20
413.435
 30
0.0
 40
0
 41
0
  0
VERTEX
  8
0
 10
60.3101
 20
413.383
 30
0.0
 40
0
 41
0
  0
VERTEX
  8
0
 10
60.1657
 20
413.347
 30
0.0
 40
0
 41
0
  0
VERTEX
  8
0
 10
60.0161
 20
413.324
 30
0.0
 40
0
 41
0
  0
VERTEX
  8
0
 10
59.9006
 20
413.317
 30
0.0
 40
0
 41
0
  0
VERTEX
  8
0
 10
59.8621
 20
413.317
 30
0.0
 40
0
 41
0
  0
VERTEX
  8
0
 10
59.8236
 20
413.317
 30
0.0
 40
0
 41
0
  0
VERTEX
  8
0
 10
59.7081
 20
413.324
 30
0.0
 40
0
 41
0
  0
VERTEX
  8
0
 10
59.5583
 20
413.347
 30
0.0
 40
0
 41
0
  0
VERTEX
  8
0
 10
59.4139
 20
413.383
 30
0.0
 40
0
 41
0
  0
VERTEX
  8
0
 10
59.2756
 20
413.435
 30
0.0
 40
0
 41
0
  0
VERTEX
  8
0
 10
59.1438
 20
413.497
 30
0.0
 40
0
 41
0
  0
VERTEX
  8
0
 10
59.0196
 20
413.574
 30
0.0
 40
0
 41
0
  0
VERTEX
  8
0
 10
58.9035
 20
413.66
 30
0.0
 40
0
 41
0
  0
VERTEX
  8
0
 10
58.7965
 20
413.757
 30
0.0
 40
0
 41
0
  0
VERTEX
  8
0
 10
58.6993
 20
413.864
 30
0.0
 40
0
 41
0
  0
VERTEX
  8
0
 10
58.6125
 20
413.981
 30
0.0
 40
0
 41
0
  0
VERTEX
  8
0
 10
58.5371
 20
414.104
 30
0.0
 40
0
 41
0
  0
VERTEX
  8
0
 10
58.4736
 20
414.236
 30
0.0
 40
0
 41
0
  0
VERTEX
  8
0
 10
58.4229
 20
414.375
 30
0.0
 40
0
 41
0
  0
VERTEX
  8
0
 10
58.3858
 20
414.519
 30
0.0
 40
0
 41
0
  0
VERTEX
  8
0
 10
58.3629
 20
414.669
 30
0.0
 40
0
 41
0
  0
VERTEX
  8
0
 10
58.3551
 20
414.785
 30
0.0
 40
0
 41
0
  0
VERTEX
  8
0
 10
58.3551
 20
414.822
 30
0.0
 40
0
 41
0
  0
VERTEX
  8
0
 10
58.3551
 20
414.861
 30
0.0
 40
0
 41
0
  0
VERTEX
  8
0
 10
58.3629
 20
414.976
 30
0.0
 40
0
 41
0
  0
VERTEX
  8
0
 10
58.3858
 20
415.126
 30
0.0
 40
0
 41
0
  0
VERTEX
  8
0
 10
58.4229
 20
415.271
 30
0.0
 40
0
 41
0
  0
VERTEX
  8
0
 10
58.4736
 20
415.41
 30
0.0
 40
0
 41
0
  0
VERTEX
  8
0
 10
58.5371
 20
415.542
 30
0.0
 40
0
 41
0
  0
VERTEX
  8
0
 10
58.6125
 20
415.665
 30
0.0
 40
0
 41
0
  0
VERTEX
  8
0
 10
58.6993
 20
415.782
 30
0.0
 40
0
 41
0
  0
VERTEX
  8
0
 10
58.7965
 20
415.889
 30
0.0
 40
0
 41
0
  0
VERTEX
  8
0
 10
58.9035
 20
415.986
 30
0.0
 40
0
 41
0
  0
VERTEX
  8
0
 10
59.0196
 20
416.072
 30
0.0
 40
0
 41
0
  0
VERTEX
  8
0
 10
59.1438
 20
416.147
 30
0.0
 40
0
 41
0
  0
VERTEX
  8
0
 10
59.2756
 20
416.211
 30
0.0
 40
0
 41
0
  0
VERTEX
  8
0
 10
59.4139
 20
416.263
 30
0.0
 40
0
 41
0
  0
VERTEX
  8
0
 10
59.5583
 20
416.299
 30
0.0
 40
0
 41
0
  0
VERTEX
  8
0
 10
59.7081
 20
416.322
 30
0.0
 40
0
 41
0
  0
VERTEX
  8
0
 10
59.8236
 20
416.329
 30
0.0
 40
0
 41
0
  0
VERTEX
  8
0
 10
59.8621
 20
416.329
 30
0.0
 40
0
 41
0
  0
SEQEND
 8
0
  0
POLYLINE
  8
0
 62
     0
 66
     1
 10
0
 20
0
 30
0.0
 70
     1
 40
0
 41
0
  0
VERTEX
  8
0
 10
160.321
 20
391.215
 30
0.0
 40
0
 41
0
  0
VERTEX
  8
0
 10
160.36
 20
391.215
 30
0.0
 40
0
 41
0
  0
VERTEX
  8
0
 10
160.475
 20
391.207
 30
0.0
 40
0
 41
0
  0
VERTEX
  8
0
 10
160.625
 20
391.185
 30
0.0
 40
0
 41
0
  0
VERTEX
  8
0
 10
160.769
 20
391.147
 30
0.0
 40
0
 41
0
  0
VERTEX
  8
0
 10
160.908
 20
391.097
 30
0.0
 40
0
 41
0
  0
VERTEX
  8
0
 10
161.039
 20
391.033
 30
0.0
 40
0
 41
0
  0
VERTEX
  8
0
 10
161.164
 20
390.958
 30
0.0
 40
0
 41
0
  0
VERTEX
  8
0
 10
161.279
 20
390.871
 30
0.0
 40
0
 41
0
  0
VERTEX
  8
0
 10
161.386
 20
390.774
 30
0.0
 40
0
 41
0
  0
VERTEX
  8
0
 10
161.483
 20
390.667
 30
0.0
 40
0
 41
0
  0
VERTEX
  8
0
 10
161.571
 20
390.55
 30
0.0
 40
0
 41
0
  0
VERTEX
  8
0
 10
161.646
 20
390.426
 30
0.0
 40
0
 41
0
  0
VERTEX
  8
0
 10
161.71
 20
390.294
 30
0.0
 40
0
 41
0
  0
VERTEX
  8
0
 10
161.76
 20
390.157
 30
0.0
 40
0
 41
0
  0
VERTEX
  8
0
 10
161.797
 20
390.013
 30
0.0
 40
0
 41
0
  0
VERTEX
  8
0
 10
161.821
 20
389.862
 30
0.0
 40
0
 41
0
  0
VERTEX
  8
0
 10
161.828
 20
389.747
 30
0.0
 40
0
 41
0
  0
VERTEX
  8
0
 10
161.828
 20
389.708
 30
0.0
 40
0
 41
0
  0
VERTEX
  8
0
 10
161.828
 20
389.669
 30
0.0
 40
0
 41
0
  0
VERTEX
  8
0
 10
161.821
 20
389.554
 30
0.0
 40
0
 41
0
  0
VERTEX
  8
0
 10
161.797
 20
389.404
 30
0.0
 40
0
 41
0
  0
VERTEX
  8
0
 10
161.76
 20
389.26
 30
0.0
 40
0
 41
0
  0
VERTEX
  8
0
 10
161.71
 20
389.122
 30
0.0
 40
0
 41
0
  0
VERTEX
  8
0
 10
161.646
 20
388.99
 30
0.0
 40
0
 41
0
  0
VERTEX
  8
0
 10
161.571
 20
388.865
 30
0.0
 40
0
 41
0
  0
VERTEX
  8
0
 10
161.483
 20
388.75
 30
0.0
 40
0
 41
0
  0
VERTEX
  8
0
 10
161.386
 20
388.643
 30
0.0
 40
0
 41
0
  0
VERTEX
  8
0
 10
161.279
 20
388.546
 30
0.0
 40
0
 41
0
  0
VERTEX
  8
0
 10
161.164
 20
388.458
 30
0.0
 40
0
 41
0
  0
VERTEX
  8
0
 10
161.039
 20
388.383
 30
0.0
 40
0
 41
0
  0
VERTEX
  8
0
 10
160.908
 20
388.319
 30
0.0
 40
0
 41
0
  0
VERTEX
  8
0
 10
160.769
 20
388.269
 30
0.0
 40
0
 41
0
  0
VERTEX
  8
0
 10
160.625
 20
388.232
 30
0.0
 40
0
 41
0
  0
VERTEX
  8
0
 10
160.475
 20
388.21
 30
0.0
 40
0
 41
0
  0
VERTEX
  8
0
 10
160.36
 20
388.201
 30
0.0
 40
0
 41
0
  0
VERTEX
  8
0
 10
160.321
 20
388.201
 30
0.0
 40
0
 41
0
  0
VERTEX
  8
0
 10
160.283
 20
388.201
 30
0.0
 40
0
 41
0
  0
VERTEX
  8
0
 10
160.167
 20
388.21
 30
0.0
 40
0
 41
0
  0
VERTEX
  8
0
 10
160.018
 20
388.232
 30
0.0
 40
0
 41
0
  0
VERTEX
  8
0
 10
159.874
 20
388.269
 30
0.0
 40
0
 41
0
  0
VERTEX
  8
0
 10
159.735
 20
388.319
 30
0.0
 40
0
 41
0
  0
VERTEX
  8
0
 10
159.603
 20
388.383
 30
0.0
 40
0
 41
0
  0
VERTEX
  8
0
 10
159.479
 20
388.458
 30
0.0
 40
0
 41
0
  0
VERTEX
  8
0
 10
159.362
 20
388.546
 30
0.0
 40
0
 41
0
  0
VERTEX
  8
0
 10
159.256
 20
388.643
 30
0.0
 40
0
 41
0
  0
VERTEX
  8
0
 10
159.158
 20
388.75
 30
0.0
 40
0
 41
0
  0
VERTEX
  8
0
 10
159.072
 20
388.865
 30
0.0
 40
0
 41
0
  0
VERTEX
  8
0
 10
158.996
 20
388.99
 30
0.0
 40
0
 41
0
  0
VERTEX
  8
0
 10
158.933
 20
389.122
 30
0.0
 40
0
 41
0
  0
VERTEX
  8
0
 10
158.882
 20
389.26
 30
0.0
 40
0
 41
0
  0
VERTEX
  8
0
 10
158.844
 20
389.404
 30
0.0
 40
0
 41
0
  0
VERTEX
  8
0
 10
158.822
 20
389.554
 30
0.0
 40
0
 41
0
  0
VERTEX
  8
0
 10
158.814
 20
389.669
 30
0.0
 40
0
 41
0
  0
VERTEX
  8
0
 10
158.814
 20
389.708
 30
0.0
 40
0
 41
0
  0
VERTEX
  8
0
 10
158.814
 20
389.747
 30
0.0
 40
0
 41
0
  0
VERTEX
  8
0
 10
158.822
 20
389.862
 30
0.0
 40
0
 41
0
  0
VERTEX
  8
0
 10
158.844
 20
390.013
 30
0.0
 40
0
 41
0
  0
VERTEX
  8
0
 10
158.882
 20
390.157
 30
0.0
 40
0
 41
0
  0
VERTEX
  8
0
 10
158.933
 20
390.294
 30
0.0
 40
0
 41
0
  0
VERTEX
  8
0
 10
158.996
 20
390.426
 30
0.0
 40
0
 41
0
  0
VERTEX
  8
0
 10
159.072
 20
390.55
 30
0.0
 40
0
 41
0
  0
VERTEX
  8
0
 10
159.158
 20
390.667
 30
0.0
 40
0
 41
0
  0
VERTEX
  8
0
 10
159.256
 20
390.774
 30
0.0
 40
0
 41
0
  0
VERTEX
  8
0
 10
159.362
 20
390.871
 30
0.0
 40
0
 41
0
  0
VERTEX
  8
0
 10
159.479
 20
390.958
 30
0.0
 40
0
 41
0
  0
VERTEX
  8
0
 10
159.603
 20
391.033
 30
0.0
 40
0
 41
0
  0
VERTEX
  8
0
 10
159.735
 20
391.097
 30
0.0
 40
0
 41
0
  0
VERTEX
  8
0
 10
159.874
 20
391.147
 30
0.0
 40
0
 41
0
  0
VERTEX
  8
0
 10
160.018
 20
391.185
 30
0.0
 40
0
 41
0
  0
VERTEX
  8
0
 10
160.167
 20
391.207
 30
0.0
 40
0
 41
0
  0
VERTEX
  8
0
 10
160.283
 20
391.215
 30
0.0
 40
0
 41
0
  0
VERTEX
  8
0
 10
160.321
 20
391.215
 30
0.0
 40
0
 41
0
  0
SEQEND
 8
0
  0
POLYLINE
  8
0
 62
     0
 66
     1
 10
0
 20
0
 30
0.0
 70
     1
 40
0
 41
0
  0
VERTEX
  8
0
 10
59.8621
 20
391.215
 30
0.0
 40
0
 41
0
  0
VERTEX
  8
0
 10
59.9006
 20
391.215
 30
0.0
 40
0
 41
0
  0
VERTEX
  8
0
 10
60.0161
 20
391.207
 30
0.0
 40
0
 41
0
  0
VERTEX
  8
0
 10
60.1657
 20
391.185
 30
0.0
 40
0
 41
0
  0
VERTEX
  8
0
 10
60.3101
 20
391.147
 30
0.0
 40
0
 41
0
  0
VERTEX
  8
0
 10
60.4486
 20
391.097
 30
0.0
 40
0
 41
0
  0
VERTEX
  8
0
 10
60.5804
 20
391.033
 30
0.0
 40
0
 41
0
  0
VERTEX
  8
0
 10
60.7046
 20
390.958
 30
0.0
 40
0
 41
0
  0
VERTEX
  8
0
 10
60.8206
 20
390.871
 30
0.0
 40
0
 41
0
  0
VERTEX
  8
0
 10
60.9276
 20
390.774
 30
0.0
 40
0
 41
0
  0
VERTEX
  8
0
 10
61.0249
 20
390.667
 30
0.0
 40
0
 41
0
  0
VERTEX
  8
0
 10
61.1117
 20
390.55
 30
0.0
 40
0
 41
0
  0
VERTEX
  8
0
 10
61.1871
 20
390.426
 30
0.0
 40
0
 41
0
  0
VERTEX
  8
0
 10
61.2506
 20
390.294
 30
0.0
 40
0
 41
0
  0
VERTEX
  8
0
 10
61.3012
 20
390.157
 30
0.0
 40
0
 41
0
  0
VERTEX
  8
0
 10
61.3383
 20
390.013
 30
0.0
 40
0
 41
0
  0
VERTEX
  8
0
 10
61.3611
 20
389.862
 30
0.0
 40
0
 41
0
  0
VERTEX
  8
0
 10
61.369
 20
389.747
 30
0.0
 40
0
 41
0
  0
VERTEX
  8
0
 10
61.369
 20
389.708
 30
0.0
 40
0
 41
0
  0
VERTEX
  8
0
 10
61.369
 20
389.669
 30
0.0
 40
0
 41
0
  0
VERTEX
  8
0
 10
61.3611
 20
389.554
 30
0.0
 40
0
 41
0
  0
VERTEX
  8
0
 10
61.3383
 20
389.404
 30
0.0
 40
0
 41
0
  0
VERTEX
  8
0
 10
61.3012
 20
389.26
 30
0.0
 40
0
 41
0
  0
VERTEX
  8
0
 10
61.2506
 20
389.122
 30
0.0
 40
0
 41
0
  0
VERTEX
  8
0
 10
61.1871
 20
388.99
 30
0.0
 40
0
 41
0
  0
VERTEX
  8
0
 10
61.1117
 20
388.865
 30
0.0
 40
0
 41
0
  0
VERTEX
  8
0
 10
61.0249
 20
388.75
 30
0.0
 40
0
 41
0
  0
VERTEX
  8
0
 10
60.9276
 20
388.643
 30
0.0
 40
0
 41
0
  0
VERTEX
  8
0
 10
60.8206
 20
388.546
 30
0.0
 40
0
 41
0
  0
VERTEX
  8
0
 10
60.7046
 20
388.458
 30
0.0
 40
0
 41
0
  0
VERTEX
  8
0
 10
60.5804
 20
388.383
 30
0.0
 40
0
 41
0
  0
VERTEX
  8
0
 10
60.4486
 20
388.319
 30
0.0
 40
0
 41
0
  0
VERTEX
  8
0
 10
60.3101
 20
388.269
 30
0.0
 40
0
 41
0
  0
VERTEX
  8
0
 10
60.1657
 20
388.232
 30
0.0
 40
0
 41
0
  0
VERTEX
  8
0
 10
60.0161
 20
388.21
 30
0.0
 40
0
 41
0
  0
VERTEX
  8
0
 10
59.9006
 20
388.201
 30
0.0
 40
0
 41
0
  0
VERTEX
  8
0
 10
59.8621
 20
388.201
 30
0.0
 40
0
 41
0
  0
VERTEX
  8
0
 10
59.8236
 20
388.201
 30
0.0
 40
0
 41
0
  0
VERTEX
  8
0
 10
59.7081
 20
388.21
 30
0.0
 40
0
 41
0
  0
VERTEX
  8
0
 10
59.5583
 20
388.232
 30
0.0
 40
0
 41
0
  0
VERTEX
  8
0
 10
59.4139
 20
388.269
 30
0.0
 40
0
 41
0
  0
VERTEX
  8
0
 10
59.2756
 20
388.319
 30
0.0
 40
0
 41
0
  0
VERTEX
  8
0
 10
59.1438
 20
388.383
 30
0.0
 40
0
 41
0
  0
VERTEX
  8
0
 10
59.0196
 20
388.458
 30
0.0
 40
0
 41
0
  0
VERTEX
  8
0
 10
58.9035
 20
388.546
 30
0.0
 40
0
 41
0
  0
VERTEX
  8
0
 10
58.7965
 20
388.643
 30
0.0
 40
0
 41
0
  0
VERTEX
  8
0
 10
58.6993
 20
388.75
 30
0.0
 40
0
 41
0
  0
VERTEX
  8
0
 10
58.6125
 20
388.865
 30
0.0
 40
0
 41
0
  0
VERTEX
  8
0
 10
58.5371
 20
388.99
 30
0.0
 40
0
 41
0
  0
VERTEX
  8
0
 10
58.4736
 20
389.122
 30
0.0
 40
0
 41
0
  0
VERTEX
  8
0
 10
58.4229
 20
389.26
 30
0.0
 40
0
 41
0
  0
VERTEX
  8
0
 10
58.3858
 20
389.404
 30
0.0
 40
0
 41
0
  0
VERTEX
  8
0
 10
58.3629
 20
389.554
 30
0.0
 40
0
 41
0
  0
VERTEX
  8
0
 10
58.3551
 20
389.669
 30
0.0
 40
0
 41
0
  0
VERTEX
  8
0
 10
58.3551
 20
389.708
 30
0.0
 40
0
 41
0
  0
VERTEX
  8
0
 10
58.3551
 20
389.747
 30
0.0
 40
0
 41
0
  0
VERTEX
  8
0
 10
58.3629
 20
389.862
 30
0.0
 40
0
 41
0
  0
VERTEX
  8
0
 10
58.3858
 20
390.013
 30
0.0
 40
0
 41
0
  0
VERTEX
  8
0
 10
58.4229
 20
390.157
 30
0.0
 40
0
 41
0
  0
VERTEX
  8
0
 10
58.4736
 20
390.294
 30
0.0
 40
0
 41
0
  0
VERTEX
  8
0
 10
58.5371
 20
390.426
 30
0.0
 40
0
 41
0
  0
VERTEX
  8
0
 10
58.6125
 20
390.55
 30
0.0
 40
0
 41
0
  0
VERTEX
  8
0
 10
58.6993
 20
390.667
 30
0.0
 40
0
 41
0
  0
VERTEX
  8
0
 10
58.7965
 20
390.774
 30
0.0
 40
0
 41
0
  0
VERTEX
  8
0
 10
58.9035
 20
390.871
 30
0.0
 40
0
 41
0
  0
VERTEX
  8
0
 10
59.0196
 20
390.958
 30
0.0
 40
0
 41
0
  0
VERTEX
  8
0
 10
59.1438
 20
391.033
 30
0.0
 40
0
 41
0
  0
VERTEX
  8
0
 10
59.2756
 20
391.097
 30
0.0
 40
0
 41
0
  0
VERTEX
  8
0
 10
59.4139
 20
391.147
 30
0.0
 40
0
 41
0
  0
VERTEX
  8
0
 10
59.5583
 20
391.185
 30
0.0
 40
0
 41
0
  0
VERTEX
  8
0
 10
59.7081
 20
391.207
 30
0.0
 40
0
 41
0
  0
VERTEX
  8
0
 10
59.8236
 20
391.215
 30
0.0
 40
0
 41
0
  0
VERTEX
  8
0
 10
59.8621
 20
391.215
 30
0.0
 40
0
 41
0
  0
SEQEND
 8
0
  0
POLYLINE
  8
0
 62
     0
 66
     1
 10
0
 20
0
 30
0.0
 70
     1
 40
0
 41
0
  0
VERTEX
  8
0
 10
40.6814
 20
665.939
 30
0.0
 40
0
 41
0
  0
VERTEX
  8
0
 10
40.5982
 20
665.849
 30
0.0
 40
0
 41
0
  0
VERTEX
  8
0
 10
40.3576
 20
665.574
 30
0.0
 40
0
 41
0
  0
VERTEX
  8
0
 10
40.0533
 20
665.194
 30
0.0
 40
0
 41
0
  0
VERTEX
  8
0
 10
39.7689
 20
664.801
 30
0.0
 40
0
 41
0
  0
VERTEX
  8
0
 10
39.5046
 20
664.397
 30
0.0
 40
0
 41
0
  0
VERTEX
  8
0
 10
39.2606
 20
663.982
 30
0.0
 40
0
 41
0
  0
VERTEX
  8
0
 10
39.0372
 20
663.556
 30
0.0
 40
0
 41
0
  0
VERTEX
  8
0
 10
38.8349
 20
663.119
 30
0.0
 40
0
 41
0
  0
VERTEX
  8
0
 10
38.6538
 20
662.674
 30
0.0
 40
0
 41
0
  0
VERTEX
  8
0
 10
38.4942
 20
662.221
 30
0.0
 40
0
 41
0
  0
VERTEX
  8
0
 10
38.3565
 20
661.761
 30
0.0
 40
0
 41
0
  0
VERTEX
  8
0
 10
38.2411
 20
661.293
 30
0.0
 40
0
 41
0
  0
VERTEX
  8
0
 10
38.1481
 20
660.821
 30
0.0
 40
0
 41
0
  0
VERTEX
  8
0
 10
38.0778
 20
660.343
 30
0.0
 40
0
 41
0
  0
VERTEX
  8
0
 10
38.0307
 20
659.86
 30
0.0
 40
0
 41
0
  0
VERTEX
  8
0
 10
38.0068
 20
659.375
 30
0.0
 40
0
 41
0
  0
VERTEX
  8
0
 10
38.0038
 20
659.008
 30
0.0
 40
0
 41
0
  0
VERTEX
  8
0
 10
38.0068
 20
658.886
 30
0.0
 40
0
 41
0
  0
VERTEX
  8
0
 10
38.0097
 20
658.764
 30
0.0
 40
0
 41
0
  0
VERTEX
  8
0
 10
38.0304
 20
658.399
 30
0.0
 40
0
 41
0
  0
VERTEX
  8
0
 10
38.0776
 20
657.915
 30
0.0
 40
0
 41
0
  0
VERTEX
  8
0
 10
38.1481
 20
657.435
 30
0.0
 40
0
 41
0
  0
VERTEX
  8
0
 10
38.2414
 20
656.961
 30
0.0
 40
0
 41
0
  0
VERTEX
  8
0
 10
38.3571
 20
656.493
 30
0.0
 40
0
 41
0
  0
VERTEX
  8
0
 10
38.495
 20
656.032
 30
0.0
 40
0
 41
0
  0
VERTEX
  8
0
 10
38.6547
 20
655.579
 30
0.0
 40
0
 41
0
  0
VERTEX
  8
0
 10
38.836
 20
655.133
 30
0.0
 40
0
 41
0
  0
VERTEX
  8
0
 10
39.0385
 20
654.699
 30
0.0
 40
0
 41
0
  0
VERTEX
  8
0
 10
39.2617
 20
654.272
 30
0.0
 40
0
 41
0
  0
VERTEX
  8
0
 10
39.5053
 20
653.857
 30
0.0
 40
0
 41
0
  0
VERTEX
  8
0
 10
39.7692
 20
653.454
 30
0.0
 40
0
 41
0
  0
VERTEX
  8
0
 10
40.0526
 20
653.063
 30
0.0
 40
0
 41
0
  0
VERTEX
  8
0
 10
40.3558
 20
652.685
 30
0.0
 40
0
 41
0
  0
VERTEX
  8
0
 10
40.6781
 20
652.321
 30
0.0
 40
0
 41
0
  0
VERTEX
  8
0
 10
40.9317
 20
652.057
 30
0.0
 40
0
 41
0
  0
VERTEX
  8
0
 10
41.019
 20
651.971
 30
0.0
 40
0
 41
0
  0
VERTEX
  8
0
 10
41.1062
 20
651.886
 30
0.0
 40
0
 41
0
  0
VERTEX
  8
0
 10
41.3765
 20
651.639
 30
0.0
 40
0
 41
0
  0
VERTEX
  8
0
 10
41.7485
 20
651.325
 30
0.0
 40
0
 41
0
  0
VERTEX
  8
0
 10
42.1336
 20
651.032
 30
0.0
 40
0
 41
0
  0
VERTEX
  8
0
 10
42.5315
 20
650.758
 30
0.0
 40
0
 41
0
  0
VERTEX
  8
0
 10
42.9413
 20
650.504
 30
0.0
 40
0
 41
0
  0
VERTEX
  8
0
 10
43.3619
 20
650.271
 30
0.0
 40
0
 41
0
  0
VERTEX
  8
0
 10
43.7929
 20
650.057
 30
0.0
 40
0
 41
0
  0
VERTEX
  8
0
 10
44.2333
 20
649.865
 30
0.0
 40
0
 41
0
  0
VERTEX
  8
0
 10
44.6825
 20
649.694
 30
0.0
 40
0
 41
0
  0
VERTEX
  8
0
 10
45.1397
 20
649.546
 30
0.0
 40
0
 41
0
  0
VERTEX
  8
0
 10
45.6039
 20
649.419
 30
0.0
 40
0
 41
0
  0
VERTEX
  8
0
 10
46.0746
 20
649.315
 30
0.0
 40
0
 41
0
  0
VERTEX
  8
0
 10
46.5507
 20
649.233
 30
0.0
 40
0
 41
0
  0
VERTEX
  8
0
 10
47.0315
 20
649.175
 30
0.0
 40
0
 41
0
  0
VERTEX
  8
0
 10
47.5165
 20
649.139
 30
0.0
 40
0
 41
0
  0
VERTEX
  8
0
 10
47.8826
 20
649.128
 30
0.0
 40
0
 41
0
  0
VERTEX
  8
0
 10
48.0047
 20
649.128
 30
0.0
 40
0
 41
0
  0
VERTEX
  8
0
 10
92.4736
 20
649.128
 30
0.0
 40
0
 41
0
  0
VERTEX
  8
0
 10
92.5976
 20
649.128
 30
0.0
 40
0
 41
0
  0
VERTEX
  8
0
 10
92.9694
 20
649.139
 30
0.0
 40
0
 41
0
  0
VERTEX
  8
0
 10
93.4621
 20
649.176
 30
0.0
 40
0
 41
0
  0
VERTEX
  8
0
 10
93.9504
 20
649.238
 30
0.0
 40
0
 41
0
  0
VERTEX
  8
0
 10
94.4338
 20
649.321
 30
0.0
 40
0
 41
0
  0
VERTEX
  8
0
 10
94.9112
 20
649.429
 30
0.0
 40
0
 41
0
  0
VERTEX
  8
0
 10
95.3822
 20
649.56
 30
0.0
 40
0
 41
0
  0
VERTEX
  8
0
 10
95.8456
 20
649.713
 30
0.0
 40
0
 41
0
  0
VERTEX
  8
0
 10
96.3007
 20
649.889
 30
0.0
 40
0
 41
0
  0
VERTEX
  8
0
 10
96.7468
 20
650.086
 30
0.0
 40
0
 41
0
  0
VERTEX
  8
0
 10
97.1829
 20
650.306
 30
0.0
 40
0
 41
0
  0
VERTEX
  8
0
 10
97.6082
 20
650.546
 30
0.0
 40
0
 41
0
  0
VERTEX
  8
0
 10
98.0221
 20
650.807
 30
0.0
 40
0
 41
0
  0
VERTEX
  8
0
 10
98.4235
 20
651.09
 30
0.0
 40
0
 41
0
  0
VERTEX
  8
0
 10
98.8117
 20
651.392
 30
0.0
 40
0
 41
0
  0
VERTEX
  8
0
 10
99.1858
 20
651.714
 30
0.0
 40
0
 41
0
  0
VERTEX
  8
0
 10
99.4576
 20
651.969
 30
0.0
 40
0
 41
0
  0
VERTEX
  8
0
 10
99.5453
 20
652.057
 30
0.0
 40
0
 41
0
  0
VERTEX
  8
0
 10
99.6329
 20
652.144
 30
0.0
 40
0
 41
0
  0
VERTEX
  8
0
 10
99.8872
 20
652.415
 30
0.0
 40
0
 41
0
  0
VERTEX
  8
0
 10
100.21
 20
652.79
 30
0.0
 40
0
 41
0
  0
VERTEX
  8
0
 10
100.512
 20
653.178
 30
0.0
 40
0
 41
0
  0
VERTEX
  8
0
 10
100.794
 20
653.579
 30
0.0
 40
0
 41
0
  0
VERTEX
  8
0
 10
101.056
 20
653.993
 30
0.0
 40
0
 41
0
  0
VERTEX
  8
0
 10
101.296
 20
654.418
 30
0.0
 40
0
 41
0
  0
VERTEX
  8
0
 10
101.515
 20
654.854
 30
0.0
 40
0
 41
0
  0
VERTEX
  8
0
 10
101.713
 20
655.301
 30
0.0
 40
0
 41
0
  0
VERTEX
  8
0
 10
101.889
 20
655.756
 30
0.0
 40
0
 41
0
  0
VERTEX
  8
0
 10
102.042
 20
656.219
 30
0.0
 40
0
 41
0
  0
VERTEX
  8
0
 10
102.173
 20
656.69
 30
0.0
 40
0
 41
0
  0
VERTEX
  8
0
 10
102.28
 20
657.168
 30
0.0
 40
0
 41
0
  0
VERTEX
  8
0
 10
102.365
 20
657.651
 30
0.0
 40
0
 41
0
  0
VERTEX
  8
0
 10
102.425
 20
658.139
 30
0.0
 40
0
 41
0
  0
VERTEX
  8
0
 10
102.462
 20
658.632
 30
0.0
 40
0
 41
0
  0
VERTEX
  8
0
 10
102.474
 20
659.004
 30
0.0
 40
0
 41
0
  0
VERTEX
  8
0
 10
102.474
 20
659.128
 30
0.0
 40
0
 41
0
  0
VERTEX
  8
0
 10
102.474
 20
706.944
 30
0.0
 40
0
 41
0
  0
VERTEX
  8
0
 10
102.474
 20
707.069
 30
0.0
 40
0
 41
0
  0
VERTEX
  8
0
 10
102.462
 20
707.447
 30
0.0
 40
0
 41
0
  0
VERTEX
  8
0
 10
102.424
 20
707.949
 30
0.0
 40
0
 41
0
  0
VERTEX
  8
0
 10
102.361
 20
708.443
 30
0.0
 40
0
 41
0
  0
VERTEX
  8
0
 10
102.274
 20
708.935
 30
0.0
 40
0
 41
0
  0
VERTEX
  8
0
 10
102.163
 20
709.418
 30
0.0
 40
0
 41
0
  0
VERTEX
  8
0
 10
102.029
 20
709.896
 30
0.0
 40
0
 41
0
  0
VERTEX
  8
0
 10
101.871
 20
710.365
 30
0.0
 40
0
 41
0
  0
VERTEX
  8
0
 10
101.69
 20
710.826
 30
0.0
 40
0
 41
0
  0
VERTEX
  8
0
 10
101.486
 20
711.279
 30
0.0
 40
0
 41
0
  0
VERTEX
  8
0
 10
101.261
 20
711.719
 30
0.0
 40
0
 41
0
  0
VERTEX
  8
0
 10
101.013
 20
712.15
 30
0.0
 40
0
 41
0
  0
VERTEX
  8
0
 10
100.744
 20
712.567
 30
0.0
 40
0
 41
0
  0
VERTEX
  8
0
 10
100.453
 20
712.972
 30
0.0
 40
0
 41
0
  0
VERTEX
  8
0
 10
100.142
 20
713.364
 30
0.0
 40
0
 41
0
  0
VERTEX
  8
0
 10
99.8108
 20
713.74
 30
0.0
 40
0
 41
0
  0
VERTEX
  8
0
 10
99.5493
 20
714.012
 30
0.0
 40
0
 41
0
  0
VERTEX
  8
0
 10
99.4593
 20
714.1
 30
0.0
 40
0
 41
0
  0
VERTEX
  8
0
 10
99.3692
 20
714.189
 30
0.0
 40
0
 41
0
  0
VERTEX
  8
0
 10
99.09
 20
714.443
 30
0.0
 40
0
 41
0
  0
VERTEX
  8
0
 10
98.7056
 20
714.765
 30
0.0
 40
0
 41
0
  0
VERTEX
  8
0
 10
98.3071
 20
715.067
 30
0.0
 40
0
 41
0
  0
VERTEX
  8
0
 10
97.8953
 20
715.347
 30
0.0
 40
0
 41
0
  0
VERTEX
  8
0
 10
97.4711
 20
715.607
 30
0.0
 40
0
 41
0
  0
VERTEX
  8
0
 10
97.0354
 20
715.844
 30
0.0
 40
0
 41
0
  0
VERTEX
  8
0
 10
96.5889
 20
716.058
 30
0.0
 40
0
 41
0
  0
VERTEX
  8
0
 10
96.1326
 20
716.251
 30
0.0
 40
0
 41
0
  0
VERTEX
  8
0
 10
95.6674
 20
716.421
 30
0.0
 40
0
 41
0
  0
VERTEX
  8
0
 10
95.194
 20
716.568
 30
0.0
 40
0
 41
0
  0
VERTEX
  8
0
 10
94.7133
 20
716.69
 30
0.0
 40
0
 41
0
  0
VERTEX
  8
0
 10
94.2264
 20
716.79
 30
0.0
 40
0
 41
0
  0
VERTEX
  8
0
 10
93.7339
 20
716.865
 30
0.0
 40
0
 41
0
  0
VERTEX
  8
0
 10
93.2367
 20
716.915
 30
0.0
 40
0
 41
0
  0
VERTEX
  8
0
 10
92.7358
 20
716.942
 30
0.0
 40
0
 41
0
  0
VERTEX
  8
0
 10
92.3578
 20
716.944
 30
0.0
 40
0
 41
0
  0
VERTEX
  8
0
 10
92.2319
 20
716.942
 30
0.0
 40
0
 41
0
  0
VERTEX
  8
0
 10
92.106
 20
716.939
 30
0.0
 40
0
 41
0
  0
VERTEX
  8
0
 10
91.7286
 20
716.917
 30
0.0
 40
0
 41
0
  0
VERTEX
  8
0
 10
91.2296
 20
716.867
 30
0.0
 40
0
 41
0
  0
VERTEX
  8
0
 10
90.7354
 20
716.793
 30
0.0
 40
0
 41
0
  0
VERTEX
  8
0
 10
90.2471
 20
716.694
 30
0.0
 40
0
 41
0
  0
VERTEX
  8
0
 10
89.7656
 20
716.571
 30
0.0
 40
0
 41
0
  0
VERTEX
  8
0
 10
89.2914
 20
716.425
 30
0.0
 40
0
 41
0
  0
VERTEX
  8
0
 10
88.8257
 20
716.256
 30
0.0
 40
0
 41
0
  0
VERTEX
  8
0
 10
88.3692
 20
716.064
 30
0.0
 40
0
 41
0
  0
VERTEX
  8
0
 10
87.9226
 20
715.85
 30
0.0
 40
0
 41
0
  0
VERTEX
  8
0
 10
87.4871
 20
715.613
 30
0.0
 40
0
 41
0
  0
VERTEX
  8
0
 10
87.0633
 20
715.356
 30
0.0
 40
0
 41
0
  0
VERTEX
  8
0
 10
86.6521
 20
715.076
 30
0.0
 40
0
 41
0
  0
VERTEX
  8
0
 10
86.2544
 20
714.776
 30
0.0
 40
0
 41
0
  0
VERTEX
  8
0
 10
85.871
 20
714.456
 30
0.0
 40
0
 41
0
  0
VERTEX
  8
0
 10
85.5026
 20
714.115
 30
0.0
 40
0
 41
0
  0
VERTEX
  8
0
 10
85.2361
 20
713.847
 30
0.0
 40
0
 41
0
  0
VERTEX
  8
0
 10
85.1503
 20
713.754
 30
0.0
 40
0
 41
0
  0
VERTEX
  8
0
 10
40.6814
 20
665.939
 30
0.0
 40
0
 41
0
  0
SEQEND
 8
0
  0
POLYLINE
  8
0
 62
     0
 66
     1
 10
0
 20
0
 30
0.0
 70
     1
 40
0
 41
0
  0
VERTEX
  8
0
 10
32.8892
 20
776.306
 30
0.0
 40
0
 41
0
  0
VERTEX
  8
0
 10
32.7522
 20
776.332
 30
0.0
 40
0
 41
0
  0
VERTEX
  8
0
 10
32.3383
 20
776.397
 30
0.0
 40
0
 41
0
  0
VERTEX
  8
0
 10
31.7863
 20
776.457
 30
0.0
 40
0
 41
0
  0
VERTEX
  8
0
 10
31.2343
 20
776.488
 30
0.0
 40
0
 41
0
  0
VERTEX
  8
0
 10
30.6835
 20
776.486
 30
0.0
 40
0
 41
0
  0
VERTEX
  8
0
 10
30.1351
 20
776.456
 30
0.0
 40
0
 41
0
  0
VERTEX
  8
0
 10
29.5906
 20
776.394
 30
0.0
 40
0
 41
0
  0
VERTEX
  8
0
 10
29.0508
 20
776.304
 30
0.0
 40
0
 41
0
  0
VERTEX
  8
0
 10
28.5174
 20
776.183
 30
0.0
 40
0
 41
0
  0
VERTEX
  8
0
 10
27.9911
 20
776.035
 30
0.0
 40
0
 41
0
  0
VERTEX
  8
0
 10
27.4735
 20
775.858
 30
0.0
 40
0
 41
0
  0
VERTEX
  8
0
 10
26.9656
 20
775.651
 30
0.0
 40
0
 41
0
  0
VERTEX
  8
0
 10
26.4686
 20
775.418
 30
0.0
 40
0
 41
0
  0
VERTEX
  8
0
 10
25.9839
 20
775.157
 30
0.0
 40
0
 41
0
  0
VERTEX
  8
0
 10
25.5126
 20
774.868
 30
0.0
 40
0
 41
0
  0
VERTEX
  8
0
 10
25.0561
 20
774.551
 30
0.0
 40
0
 41
0
  0
VERTEX
  8
0
 10
24.7229
 20
774.297
 30
0.0
 40
0
 41
0
  0
VERTEX
  8
0
 10
24.6153
 20
774.208
 30
0.0
 40
0
 41
0
  0
VERTEX
  8
0
 10
24.5075
 20
774.119
 30
0.0
 40
0
 41
0
  0
VERTEX
  8
0
 10
24.1943
 20
773.842
 30
0.0
 40
0
 41
0
  0
VERTEX
  8
0
 10
23.7967
 20
773.454
 30
0.0
 40
0
 41
0
  0
VERTEX
  8
0
 10
23.4228
 20
773.047
 30
0.0
 40
0
 41
0
  0
VERTEX
  8
0
 10
23.0732
 20
772.621
 30
0.0
 40
0
 41
0
  0
VERTEX
  8
0
 10
22.7485
 20
772.178
 30
0.0
 40
0
 41
0
  0
VERTEX
  8
0
 10
22.4493
 20
771.719
 30
0.0
 40
0
 41
0
  0
VERTEX
  8
0
 10
22.1761
 20
771.244
 30
0.0
 40
0
 41
0
  0
VERTEX
  8
0
 10
21.9293
 20
770.757
 30
0.0
 40
0
 41
0
  0
VERTEX
  8
0
 10
21.7096
 20
770.257
 30
0.0
 40
0
 41
0
  0
VERTEX
  8
0
 10
21.5174
 20
769.744
 30
0.0
 40
0
 41
0
  0
VERTEX
  8
0
 10
21.3532
 20
769.221
 30
0.0
 40
0
 41
0
  0
VERTEX
  8
0
 10
21.2178
 20
768.689
 30
0.0
 40
0
 41
0
  0
VERTEX
  8
0
 10
21.1114
 20
768.149
 30
0.0
 40
0
 41
0
  0
VERTEX
  8
0
 10
21.0349
 20
767.601
 30
0.0
 40
0
 41
0
  0
VERTEX
  8
0
 10
20.9885
 20
767.047
 30
0.0
 40
0
 41
0
  0
VERTEX
  8
0
 10
20.9729
 20
766.629
 30
0.0
 40
0
 41
0
  0
VERTEX
  8
0
 10
20.9729
 20
766.489
 30
0.0
 40
0
 41
0
  0
VERTEX
  8
0
 10
20.9729
 20
714.704
 30
0.0
 40
0
 41
0
  0
VERTEX
  8
0
 10
20.9729
 20
714.575
 30
0.0
 40
0
 41
0
  0
VERTEX
  8
0
 10
20.9865
 20
714.185
 30
0.0
 40
0
 41
0
  0
VERTEX
  8
0
 10
21.0268
 20
713.668
 30
0.0
 40
0
 41
0
  0
VERTEX
  8
0
 10
21.0935
 20
713.157
 30
0.0
 40
0
 41
0
  0
VERTEX
  8
0
 10
21.1863
 20
712.65
 30
0.0
 40
0
 41
0
  0
VERTEX
  8
0
 10
21.3044
 20
712.151
 30
0.0
 40
0
 41
0
  0
VERTEX
  8
0
 10
21.4479
 20
711.66
 30
0.0
 40
0
 41
0
  0
VERTEX
  8
0
 10
21.6161
 20
711.176
 30
0.0
 40
0
 41
0
  0
VERTEX
  8
0
 10
21.8085
 20
710.703
 30
0.0
 40
0
 41
0
  0
VERTEX
  8
0
 10
22.025
 20
710.24
 30
0.0
 40
0
 41
0
  0
VERTEX
  8
0
 10
22.2649
 20
709.789
 30
0.0
 40
0
 41
0
  0
VERTEX
  8
0
 10
22.5281
 20
709.349
 30
0.0
 40
0
 41
0
  0
VERTEX
  8
0
 10
22.8137
 20
708.922
 30
0.0
 40
0
 41
0
  0
VERTEX
  8
0
 10
23.1218
 20
708.511
 30
0.0
 40
0
 41
0
  0
VERTEX
  8
0
 10
23.4517
 20
708.114
 30
0.0
 40
0
 41
0
  0
VERTEX
  8
0
 10
23.8032
 20
707.733
 30
0.0
 40
0
 41
0
  0
VERTEX
  8
0
 10
24.0803
 20
707.458
 30
0.0
 40
0
 41
0
  0
VERTEX
  8
0
 10
24.1757
 20
707.369
 30
0.0
 40
0
 41
0
  0
VERTEX
  8
0
 10
24.2711
 20
707.282
 30
0.0
 40
0
 41
0
  0
VERTEX
  8
0
 10
24.5665
 20
707.026
 30
0.0
 40
0
 41
0
  0
VERTEX
  8
0
 10
24.9728
 20
706.704
 30
0.0
 40
0
 41
0
  0
VERTEX
  8
0
 10
25.3935
 20
706.406
 30
0.0
 40
0
 41
0
  0
VERTEX
  8
0
 10
25.8275
 20
706.129
 30
0.0
 40
0
 41
0
  0
VERTEX
  8
0
 10
26.274
 20
705.876
 30
0.0
 40
0
 41
0
  0
VERTEX
  8
0
 10
26.7321
 20
705.649
 30
0.0
 40
0
 41
0
  0
VERTEX
  8
0
 10
27.2007
 20
705.443
 30
0.0
 40
0
 41
0
  0
VERTEX
  8
0
 10
27.6788
 20
705.262
 30
0.0
 40
0
 41
0
  0
VERTEX
  8
0
 10
28.1656
 20
705.107
 30
0.0
 40
0
 41
0
  0
VERTEX
  8
0
 10
28.6599
 20
704.975
 30
0.0
 40
0
 41
0
  0
VERTEX
  8
0
 10
29.161
 20
704.869
 30
0.0
 40
0
 41
0
  0
VERTEX
  8
0
 10
29.6676
 20
704.79
 30
0.0
 40
0
 41
0
  0
VERTEX
  8
0
 10
30.1792
 20
704.736
 30
0.0
 40
0
 41
0
  0
VERTEX
  8
0
 10
30.6944
 20
704.708
 30
0.0
 40
0
 41
0
  0
VERTEX
  8
0
 10
31.2125
 20
704.707
 30
0.0
 40
0
 41
0
  0
VERTEX
  8
0
 10
31.6028
 20
704.724
 30
0.0
 40
0
 41
0
  0
VERTEX
  8
0
 10
31.7325
 20
704.733
 30
0.0
 40
0
 41
0
  0
VERTEX
  8
0
 10
31.8622
 20
704.743
 30
0.0
 40
0
 41
0
  0
VERTEX
  8
0
 10
32.2504
 20
704.786
 30
0.0
 40
0
 41
0
  0
VERTEX
  8
0
 10
32.7624
 20
704.865
 30
0.0
 40
0
 41
0
  0
VERTEX
  8
0
 10
33.2675
 20
704.971
 30
0.0
 40
0
 41
0
  0
VERTEX
  8
0
 10
33.7649
 20
705.101
 30
0.0
 40
0
 41
0
  0
VERTEX
  8
0
 10
34.2538
 20
705.257
 30
0.0
 40
0
 41
0
  0
VERTEX
  8
0
 10
34.7331
 20
705.438
 30
0.0
 40
0
 41
0
  0
VERTEX
  8
0
 10
35.2019
 20
705.642
 30
0.0
 40
0
 41
0
  0
VERTEX
  8
0
 10
35.6594
 20
705.869
 30
0.0
 40
0
 41
0
  0
VERTEX
  8
0
 10
36.1047
 20
706.121
 30
0.0
 40
0
 41
0
  0
VERTEX
  8
0
 10
36.5369
 20
706.394
 30
0.0
 40
0
 41
0
  0
VERTEX
  8
0
 10
36.955
 20
706.69
 30
0.0
 40
0
 41
0
  0
VERTEX
  8
0
 10
37.3582
 20
707.007
 30
0.0
 40
0
 41
0
  0
VERTEX
  8
0
 10
37.7456
 20
707.346
 30
0.0
 40
0
 41
0
  0
VERTEX
  8
0
 10
38.1161
 20
707.704
 30
0.0
 40
0
 41
0
  0
VERTEX
  8
0
 10
38.469
 20
708.083
 30
0.0
 40
0
 41
0
  0
VERTEX
  8
0
 10
38.7225
 20
708.381
 30
0.0
 40
0
 41
0
  0
VERTEX
  8
0
 10
38.8033
 20
708.483
 30
0.0
 40
0
 41
0
  0
VERTEX
  8
0
 10
74.43
 20
753.315
 30
0.0
 40
0
 41
0
  0
VERTEX
  8
0
 10
74.5314
 20
753.443
 30
0.0
 40
0
 41
0
  0
VERTEX
  8
0
 10
74.8189
 20
753.839
 30
0.0
 40
0
 41
0
  0
VERTEX
  8
0
 10
75.1703
 20
754.382
 30
0.0
 40
0
 41
0
  0
VERTEX
  8
0
 10
75.4839
 20
754.943
 30
0.0
 40
0
 41
0
  0
VERTEX
  8
0
 10
75.7594
 20
755.521
 30
0.0
 40
0
 41
0
  0
VERTEX
  8
0
 10
75.9967
 20
756.113
 30
0.0
 40
0
 41
0
  0
VERTEX
  8
0
 10
76.1951
 20
756.717
 30
0.0
 40
0
 41
0
  0
VERTEX
  8
0
 10
76.3547
 20
757.331
 30
0.0
 40
0
 41
0
  0
VERTEX
  8
0
 10
76.4749
 20
757.953
 30
0.0
 40
0
 41
0
  0
VERTEX
  8
0
 10
76.5554
 20
758.582
 30
0.0
 40
0
 41
0
  0
VERTEX
  8
0
 10
76.596
 20
759.215
 30
0.0
 40
0
 41
0
  0
VERTEX
  8
0
 10
76.5964
 20
759.85
 30
0.0
 40
0
 41
0
  0
VERTEX
  8
0
 10
76.5562
 20
760.486
 30
0.0
 40
0
 41
0
  0
VERTEX
  8
0
 10
76.4751
 20
761.121
 30
0.0
 40
0
 41
0
  0
VERTEX
  8
0
 10
76.3529
 20
761.753
 30
0.0
 40
0
 41
0
  0
VERTEX
  8
0
 10
76.189
 20
762.379
 30
0.0
 40
0
 41
0
  0
VERTEX
  8
0
 10
76.0399
 20
762.844
 30
0.0
 40
0
 41
0
  0
VERTEX
  8
0
 10
75.9835
 20
762.997
 30
0.0
 40
0
 41
0
  0
VERTEX
  8
0
 10
75.9271
 20
763.15
 30
0.0
 40
0
 41
0
  0
VERTEX
  8
0
 10
75.7381
 20
763.601
 30
0.0
 40
0
 41
0
  0
VERTEX
  8
0
 10
75.4563
 20
764.183
 30
0.0
 40
0
 41
0
  0
VERTEX
  8
0
 10
75.1393
 20
764.743
 30
0.0
 40
0
 41
0
  0
VERTEX
  8
0
 10
74.7889
 20
765.279
 30
0.0
 40
0
 41
0
  0
VERTEX
  8
0
 10
74.4065
 20
765.789
 30
0.0
 40
0
 41
0
  0
VERTEX
  8
0
 10
73.9935
 20
766.272
 30
0.0
 40
0
 41
0
  0
VERTEX
  8
0
 10
73.5515
 20
766.728
 30
0.0
 40
0
 41
0
  0
VERTEX
  8
0
 10
73.0821
 20
767.153
 30
0.0
 40
0
 41
0
  0
VERTEX
  8
0
 10
72.5865
 20
767.549
 30
0.0
 40
0
 41
0
  0
VERTEX
  8
0
 10
72.0665
 20
767.912
 30
0.0
 40
0
 41
0
  0
VERTEX
  8
0
 10
71.5235
 20
768.243
 30
0.0
 40
0
 41
0
  0
VERTEX
  8
0
 10
70.959
 20
768.539
 30
0.0
 40
0
 41
0
  0
VERTEX
  8
0
 10
70.3744
 20
768.799
 30
0.0
 40
0
 41
0
  0
VERTEX
  8
0
 10
69.7714
 20
769.022
 30
0.0
 40
0
 41
0
  0
VERTEX
  8
0
 10
69.1514
 20
769.207
 30
0.0
 40
0
 41
0
  0
VERTEX
  8
0
 10
68.6757
 20
769.322
 30
0.0
 40
0
 41
0
  0
VERTEX
  8
0
 10
68.5158
 20
769.353
 30
0.0
 40
0
 41
0
  0
VERTEX
  8
0
 10
32.8892
 20
776.306
 30
0.0
 40
0
 41
0
  0
SEQEND
 8
0
  0
POLYLINE
  8
0
 62
     0
 66
     1
 10
0
 20
0
 30
0.0
 70
     1
 40
0
 41
0
  0
VERTEX
  8
0
 10
56.7207
 20
219.496
 30
0.0
 40
0
 41
0
  0
VERTEX
  8
0
 10
56.7125
 20
219.367
 30
0.0
 40
0
 41
0
  0
VERTEX
  8
0
 10
56.7013
 20
218.978
 30
0.0
 40
0
 41
0
  0
VERTEX
  8
0
 10
56.7085
 20
218.461
 30
0.0
 40
0
 41
0
  0
VERTEX
  8
0
 10
56.7421
 20
217.949
 30
0.0
 40
0
 41
0
  0
VERTEX
  8
0
 10
56.8018
 20
217.439
 30
0.0
 40
0
 41
0
  0
VERTEX
  8
0
 10
56.8871
 20
216.935
 30
0.0
 40
0
 41
0
  0
VERTEX
  8
0
 10
56.9978
 20
216.436
 30
0.0
 40
0
 41
0
  0
VERTEX
  8
0
 10
57.1333
 20
215.944
 30
0.0
 40
0
 41
0
  0
VERTEX
  8
0
 10
57.2936
 20
215.461
 30
0.0
 40
0
 41
0
  0
VERTEX
  8
0
 10
57.4782
 20
214.986
 30
0.0
 40
0
 41
0
  0
VERTEX
  8
0
 10
57.6867
 20
214.521
 30
0.0
 40
0
 41
0
  0
VERTEX
  8
0
 10
57.9189
 20
214.067
 30
0.0
 40
0
 41
0
  0
VERTEX
  8
0
 10
58.1743
 20
213.624
 30
0.0
 40
0
 41
0
  0
VERTEX
  8
0
 10
58.4526
 20
213.193
 30
0.0
 40
0
 41
0
  0
VERTEX
  8
0
 10
58.7536
 20
212.776
 30
0.0
 40
0
 41
0
  0
VERTEX
  8
0
 10
59.0769
 20
212.374
 30
0.0
 40
0
 41
0
  0
VERTEX
  8
0
 10
59.3333
 20
212.081
 30
0.0
 40
0
 41
0
  0
VERTEX
  8
0
 10
59.4221
 20
211.986
 30
0.0
 40
0
 41
0
  0
VERTEX
  8
0
 10
59.5108
 20
211.892
 30
0.0
 40
0
 41
0
  0
VERTEX
  8
0
 10
59.7868
 20
211.617
 30
0.0
 40
0
 41
0
  0
VERTEX
  8
0
 10
60.1682
 20
211.269
 30
0.0
 40
0
 41
0
  0
VERTEX
  8
0
 10
60.5654
 20
210.942
 30
0.0
 40
0
 41
0
  0
VERTEX
  8
0
 10
60.9775
 20
210.638
 30
0.0
 40
0
 41
0
  0
VERTEX
  8
0
 10
61.4035
 20
210.354
 30
0.0
 40
0
 41
0
  0
VERTEX
  8
0
 10
61.8425
 20
210.094
 30
0.0
 40
0
 41
0
  0
VERTEX
  8
0
 10
62.2936
 20
209.857
 30
0.0
 40
0
 41
0
  0
VERTEX
  8
0
 10
62.756
 20
209.642
 30
0.0
 40
0
 41
0
  0
VERTEX
  8
0
 10
63.2285
 20
209.451
 30
0.0
 40
0
 41
0
  0
VERTEX
  8
0
 10
63.7104
 20
209.285
 30
0.0
 40
0
 41
0
  0
VERTEX
  8
0
 10
64.2008
 20
209.143
 30
0.0
 40
0
 41
0
  0
VERTEX
  8
0
 10
64.6986
 20
209.026
 30
0.0
 40
0
 41
0
  0
VERTEX
  8
0
 10
65.2031
 20
208.935
 30
0.0
 40
0
 41
0
  0
VERTEX
  8
0
 10
65.7131
 20
208.869
 30
0.0
 40
0
 41
0
  0
VERTEX
  8
0
 10
66.2279
 20
208.829
 30
0.0
 40
0
 41
0
  0
VERTEX
  8
0
 10
66.6168
 20
208.815
 30
0.0
 40
0
 41
0
  0
VERTEX
  8
0
 10
66.7465
 20
208.815
 30
0.0
 40
0
 41
0
  0
VERTEX
  8
0
 10
120.768
 20
208.815
 30
0.0
 40
0
 41
0
  0
VERTEX
  8
0
 10
120.978
 20
208.815
 30
0.0
 40
0
 41
0
  0
VERTEX
  8
0
 10
121.608
 20
208.851
 30
0.0
 40
0
 41
0
  0
VERTEX
  8
0
 10
122.438
 20
208.956
 30
0.0
 40
0
 41
0
  0
VERTEX
  8
0
 10
123.254
 20
209.128
 30
0.0
 40
0
 41
0
  0
VERTEX
  8
0
 10
124.051
 20
209.367
 30
0.0
 40
0
 41
0
  0
VERTEX
  8
0
 10
124.826
 20
209.672
 30
0.0
 40
0
 41
0
  0
VERTEX
  8
0
 10
125.574
 20
210.04
 30
0.0
 40
0
 41
0
  0
VERTEX
  8
0
 10
126.291
 20
210.469
 30
0.0
 40
0
 41
0
  0
VERTEX
  8
0
 10
126.808
 20
210.832
 30
0.0
 40
0
 41
0
  0
VERTEX
  8
0
 10
126.973
 20
210.961
 30
0.0
 40
0
 41
0
  0
VERTEX
  8
0
 10
127.056
 20
211.026
 30
0.0
 40
0
 41
0
  0
VERTEX
  8
0
 10
127.299
 20
211.229
 30
0.0
 40
0
 41
0
  0
VERTEX
  8
0
 10
127.612
 20
211.508
 30
0.0
 40
0
 41
0
  0
VERTEX
  8
0
 10
127.913
 20
211.8
 30
0.0
 40
0
 41
0
  0
VERTEX
  8
0
 10
128.2
 20
212.103
 30
0.0
 40
0
 41
0
  0
VERTEX
  8
0
 10
128.475
 20
212.418
 30
0.0
 40
0
 41
0
  0
VERTEX
  8
0
 10
128.735
 20
212.743
 30
0.0
 40
0
 41
0
  0
VERTEX
  8
0
 10
128.982
 20
213.078
 30
0.0
 40
0
 41
0
  0
VERTEX
  8
0
 10
129.214
 20
213.424
 30
0.0
 40
0
 41
0
  0
VERTEX
  8
0
 10
129.432
 20
213.778
 30
0.0
 40
0
 41
0
  0
VERTEX
  8
0
 10
129.636
 20
214.142
 30
0.0
 40
0
 41
0
  0
VERTEX
  8
0
 10
129.824
 20
214.513
 30
0.0
 40
0
 41
0
  0
VERTEX
  8
0
 10
129.997
 20
214.893
 30
0.0
 40
0
 41
0
  0
VERTEX
  8
0
 10
130.154
 20
215.281
 30
0.0
 40
0
 41
0
  0
VERTEX
  8
0
 10
130.295
 20
215.674
 30
0.0
 40
0
 41
0
  0
VERTEX
  8
0
 10
130.42
 20
216.075
 30
0.0
 40
0
 41
0
  0
VERTEX
  8
0
 10
130.503
 20
216.381
 30
0.0
 40
0
 41
0
  0
VERTEX
  8
0
 10
130.528
 20
216.482
 30
0.0
 40
0
 41
0
  0
VERTEX
  8
0
 10
146.775
 20
267.093
 30
0.0
 40
0
 41
0
  0
VERTEX
  8
0
 10
146.821
 20
267.235
 30
0.0
 40
0
 41
0
  0
VERTEX
  8
0
 10
146.94
 20
267.668
 30
0.0
 40
0
 41
0
  0
VERTEX
  8
0
 10
147.071
 20
268.25
 30
0.0
 40
0
 41
0
  0
VERTEX
  8
0
 10
147.167
 20
268.835
 30
0.0
 40
0
 41
0
  0
VERTEX
  8
0
 10
147.228
 20
269.422
 30
0.0
 40
0
 41
0
  0
VERTEX
  8
0
 10
147.254
 20
270.01
 30
0.0
 40
0
 41
0
  0
VERTEX
  8
0
 10
147.246
 20
270.596
 30
0.0
 40
0
 41
0
  0
VERTEX
  8
0
 10
147.204
 20
271.181
 30
0.0
 40
0
 41
0
  0
VERTEX
  8
0
 10
147.128
 20
271.761
 30
0.0
 40
0
 41
0
  0
VERTEX
  8
0
 10
147.018
 20
272.336
 30
0.0
 40
0
 41
0
  0
VERTEX
  8
0
 10
146.874
 20
272.904
 30
0.0
 40
0
 41
0
  0
VERTEX
  8
0
 10
146.697
 20
273.464
 30
0.0
 40
0
 41
0
  0
VERTEX
  8
0
 10
146.489
 20
274.014
 30
0.0
 40
0
 41
0
  0
VERTEX
  8
0
 10
146.246
 20
274.551
 30
0.0
 40
0
 41
0
  0
VERTEX
  8
0
 10
145.972
 20
275.076
 30
0.0
 40
0
 41
0
  0
VERTEX
  8
0
 10
145.665
 20
275.588
 30
0.0
 40
0
 41
0
  0
VERTEX
  8
0
 10
145.414
 20
275.961
 30
0.0
 40
0
 41
0
  0
VERTEX
  8
0
 10
145.326
 20
276.082
 30
0.0
 40
0
 41
0
  0
VERTEX
  8
0
 10
145.237
 20
276.203
 30
0.0
 40
0
 41
0
  0
VERTEX
  8
0
 10
144.958
 20
276.556
 30
0.0
 40
0
 41
0
  0
VERTEX
  8
0
 10
144.567
 20
277.004
 30
0.0
 40
0
 41
0
  0
VERTEX
  8
0
 10
144.15
 20
277.426
 30
0.0
 40
0
 41
0
  0
VERTEX
  8
0
 10
143.711
 20
277.821
 30
0.0
 40
0
 41
0
  0
VERTEX
  8
0
 10
143.251
 20
278.189
 30
0.0
 40
0
 41
0
  0
VERTEX
  8
0
 10
142.774
 20
278.528
 30
0.0
 40
0
 41
0
  0
VERTEX
  8
0
 10
142.276
 20
278.838
 30
0.0
 40
0
 41
0
  0
VERTEX
  8
0
 10
141.763
 20
279.118
 30
0.0
 40
0
 41
0
  0
VERTEX
  8
0
 10
141.233
 20
279.368
 30
0.0
 40
0
 41
0
  0
VERTEX
  8
0
 10
140.689
 20
279.588
 30
0.0
 40
0
 41
0
  0
VERTEX
  8
0
 10
140.133
 20
279.774
 30
0.0
 40
0
 41
0
  0
VERTEX
  8
0
 10
139.565
 20
279.929
 30
0.0
 40
0
 41
0
  0
VERTEX
  8
0
 10
138.987
 20
280.05
 30
0.0
 40
0
 41
0
  0
VERTEX
  8
0
 10
138.402
 20
280.138
 30
0.0
 40
0
 41
0
  0
VERTEX
  8
0
 10
137.809
 20
280.192
 30
0.0
 40
0
 41
0
  0
VERTEX
  8
0
 10
137.359
 20
280.208
 30
0.0
 40
0
 41
0
  0
VERTEX
  8
0
 10
137.209
 20
280.208
 30
0.0
 40
0
 41
0
  0
VERTEX
  8
0
 10
74.005
 20
280.208
 30
0.0
 40
0
 41
0
  0
VERTEX
  8
0
 10
73.8679
 20
280.231
 30
0.0
 40
0
 41
0
  0
VERTEX
  8
0
 10
73.4542
 20
280.282
 30
0.0
 40
0
 41
0
  0
VERTEX
  8
0
 10
72.9032
 20
280.322
 30
0.0
 40
0
 41
0
  0
VERTEX
  8
0
 10
72.3532
 20
280.335
 30
0.0
 40
0
 41
0
  0
VERTEX
  8
0
 10
71.8054
 20
280.315
 30
0.0
 40
0
 41
0
  0
VERTEX
  8
0
 10
71.2611
 20
280.267
 30
0.0
 40
0
 41
0
  0
VERTEX
  8
0
 10
70.7213
 20
280.189
 30
0.0
 40
0
 41
0
  0
VERTEX
  8
0
 10
70.1872
 20
280.082
 30
0.0
 40
0
 41
0
  0
VERTEX
  8
0
 10
69.6601
 20
279.947
 30
0.0
 40
0
 41
0
  0
VERTEX
  8
0
 10
69.1411
 20
279.783
 30
0.0
 40
0
 41
0
  0
VERTEX
  8
0
 10
68.6314
 20
279.592
 30
0.0
 40
0
 41
0
  0
VERTEX
  8
0
 10
68.1322
 20
279.372
 30
0.0
 40
0
 41
0
  0
VERTEX
  8
0
 10
67.6446
 20
279.125
 30
0.0
 40
0
 41
0
  0
VERTEX
  8
0
 10
67.1697
 20
278.851
 30
0.0
 40
0
 41
0
  0
VERTEX
  8
0
 10
66.709
 20
278.55
 30
0.0
 40
0
 41
0
  0
VERTEX
  8
0
 10
66.2633
 20
278.224
 30
0.0
 40
0
 41
0
  0
VERTEX
  8
0
 10
65.9389
 20
277.963
 30
0.0
 40
0
 41
0
  0
VERTEX
  8
0
 10
65.8342
 20
277.871
 30
0.0
 40
0
 41
0
  0
VERTEX
  8
0
 10
65.7293
 20
277.781
 30
0.0
 40
0
 41
0
  0
VERTEX
  8
0
 10
65.425
 20
277.496
 30
0.0
 40
0
 41
0
  0
VERTEX
  8
0
 10
65.0393
 20
277.1
 30
0.0
 40
0
 41
0
  0
VERTEX
  8
0
 10
64.6775
 20
276.685
 30
0.0
 40
0
 41
0
  0
VERTEX
  8
0
 10
64.3401
 20
276.253
 30
0.0
 40
0
 41
0
  0
VERTEX
  8
0
 10
64.0278
 20
275.804
 30
0.0
 40
0
 41
0
  0
VERTEX
  8
0
 10
63.7408
 20
275.342
 30
0.0
 40
0
 41
0
  0
VERTEX
  8
0
 10
63.4797
 20
274.862
 30
0.0
 40
0
 41
0
  0
VERTEX
  8
0
 10
63.2451
 20
274.372
 30
0.0
 40
0
 41
0
  0
VERTEX
  8
0
 10
63.0375
 20
273.869
 30
0.0
 40
0
 41
0
  0
VERTEX
  8
0
 10
62.8572
 20
273.356
 30
0.0
 40
0
 41
0
  0
VERTEX
  8
0
 10
62.7049
 20
272.832
 30
0.0
 40
0
 41
0
  0
VERTEX
  8
0
 10
62.5808
 20
272.299
 30
0.0
 40
0
 41
0
  0
VERTEX
  8
0
 10
62.4858
 20
271.76
 30
0.0
 40
0
 41
0
  0
VERTEX
  8
0
 10
62.4203
 20
271.213
 30
0.0
 40
0
 41
0
  0
VERTEX
  8
0
 10
62.3846
 20
270.661
 30
0.0
 40
0
 41
0
  0
VERTEX
  8
0
 10
62.3768
 20
270.244
 30
0.0
 40
0
 41
0
  0
VERTEX
  8
0
 10
62.3794
 20
270.106
 30
0.0
 40
0
 41
0
  0
VERTEX
  8
0
 10
56.7207
 20
219.496
 30
0.0
 40
0
 41
0
  0
SEQEND
 8
0
  0
POLYLINE
  8
0
 62
     0
 66
     1
 10
0
 20
0
 30
0.0
 70
     1
 40
0
 41
0
  0
VERTEX
  8
0
 10
61.2246
 20
449.61
 30
0.0
 40
0
 41
0
  0
VERTEX
  8
0
 10
61.2218
 20
449.421
 30
0.0
 40
0
 41
0
  0
VERTEX
  8
0
 10
61.2326
 20
448.856
 30
0.0
 40
0
 41
0
  0
VERTEX
  8
0
 10
61.2782
 20
448.106
 30
0.0
 40
0
 41
0
  0
VERTEX
  8
0
 10
61.3607
 20
447.362
 30
0.0
 40
0
 41
0
  0
VERTEX
  8
0
 10
61.4797
 20
446.625
 30
0.0
 40
0
 41
0
  0
VERTEX
  8
0
 10
61.6344
 20
445.897
 30
0.0
 40
0
 41
0
  0
VERTEX
  8
0
 10
61.8247
 20
445.179
 30
0.0
 40
0
 41
0
  0
VERTEX
  8
0
 10
62.0499
 20
444.472
 30
0.0
 40
0
 41
0
  0
VERTEX
  8
0
 10
62.3093
 20
443.778
 30
0.0
 40
0
 41
0
  0
VERTEX
  8
0
 10
62.6026
 20
443.096
 30
0.0
 40
0
 41
0
  0
VERTEX
  8
0
 10
62.9293
 20
442.429
 30
0.0
 40
0
 41
0
  0
VERTEX
  8
0
 10
63.2888
 20
441.779
 30
0.0
 40
0
 41
0
  0
VERTEX
  8
0
 10
63.6807
 20
441.147
 30
0.0
 40
0
 41
0
  0
VERTEX
  8
0
 10
64.1043
 20
440.533
 30
0.0
 40
0
 41
0
  0
VERTEX
  8
0
 10
64.5593
 20
439.939
 30
0.0
 40
0
 41
0
  0
VERTEX
  8
0
 10
65.045
 20
439.367
 30
0.0
 40
0
 41
0
  0
VERTEX
  8
0
 10
65.4286
 20
438.95
 30
0.0
 40
0
 41
0
  0
VERTEX
  8
0
 10
65.561
 20
438.815
 30
0.0
 40
0
 41
0
  0
VERTEX
  8
0
 10
65.6933
 20
438.682
 30
0.0
 40
0
 41
0
  0
VERTEX
  8
0
 10
66.1039
 20
438.292
 30
0.0
 40
0
 41
0
  0
VERTEX
  8
0
 10
66.6697
 20
437.799
 30
0.0
 40
0
 41
0
  0
VERTEX
  8
0
 10
67.2572
 20
437.335
 30
0.0
 40
0
 41
0
  0
VERTEX
  8
0
 10
67.8651
 20
436.903
 30
0.0
 40
0
 41
0
  0
VERTEX
  8
0
 10
68.4922
 20
436.501
 30
0.0
 40
0
 41
0
  0
VERTEX
  8
0
 10
69.1372
 20
436.133
 30
0.0
 40
0
 41
0
  0
VERTEX
  8
0
 10
69.7989
 20
435.797
 30
0.0
 40
0
 41
0
  0
VERTEX
  8
0
 10
70.4757
 20
435.494
 30
0.0
 40
0
 41
0
  0
VERTEX
  8
0
 10
71.1668
 20
435.225
 30
0.0
 40
0
 41
0
  0
VERTEX
  8
0
 10
71.8706
 20
434.989
 30
0.0
 40
0
 41
0
  0
VERTEX
  8
0
 10
72.5861
 20
434.789
 30
0.0
 40
0
 41
0
  0
VERTEX
  8
0
 10
73.3117
 20
434.624
 30
0.0
 40
0
 41
0
  0
VERTEX
  8
0
 10
74.0464
 20
434.494
 30
0.0
 40
0
 41
0
  0
VERTEX
  8
0
 10
74.7889
 20
434.401
 30
0.0
 40
0
 41
0
  0
VERTEX
  8
0
 10
75.5378
 20
434.344
 30
0.0
 40
0
 41
0
  0
VERTEX
  8
0
 10
76.1033
 20
434.326
 30
0.0
 40
0
 41
0
  0
VERTEX
  8
0
 10
76.2919
 20
434.326
 30
0.0
 40
0
 41
0
  0
VERTEX
  8
0
 10
154.368
 20
434.326
 30
0.0
 40
0
 41
0
  0
VERTEX
  8
0
 10
154.592
 20
434.326
 30
0.0
 40
0
 41
0
  0
VERTEX
  8
0
 10
155.261
 20
434.353
 30
0.0
 40
0
 41
0
  0
VERTEX
  8
0
 10
156.146
 20
434.431
 30
0.0
 40
0
 41
0
  0
VERTEX
  8
0
 10
157.019
 20
434.561
 30
0.0
 40
0
 41
0
  0
VERTEX
  8
0
 10
157.881
 20
434.74
 30
0.0
 40
0
 41
0
  0
VERTEX
  8
0
 10
158.726
 20
434.969
 30
0.0
 40
0
 41
0
  0
VERTEX
  8
0
 10
159.557
 20
435.247
 30
0.0
 40
0
 41
0
  0
VERTEX
  8
0
 10
160.367
 20
435.572
 30
0.0
 40
0
 41
0
  0
VERTEX
  8
0
 10
161.157
 20
435.942
 30
0.0
 40
0
 41
0
  0
VERTEX
  8
0
 10
161.925
 20
436.358
 30
0.0
 40
0
 41
0
  0
VERTEX
  8
0
 10
162.668
 20
436.818
 30
0.0
 40
0
 41
0
  0
VERTEX
  8
0
 10
163.383
 20
437.321
 30
0.0
 40
0
 41
0
  0
VERTEX
  8
0
 10
164.071
 20
437.865
 30
0.0
 40
0
 41
0
  0
VERTEX
  8
0
 10
164.726
 20
438.45
 30
0.0
 40
0
 41
0
  0
VERTEX
  8
0
 10
165.35
 20
439.076
 30
0.0
 40
0
 41
0
  0
VERTEX
  8
0
 10
165.939
 20
439.742
 30
0.0
 40
0
 41
0
  0
VERTEX
  8
0
 10
166.358
 20
440.264
 30
0.0
 40
0
 41
0
  0
VERTEX
  8
0
 10
166.49
 20
440.444
 30
0.0
 40
0
 41
0
  0
VERTEX
  8
0
 10
166.624
 20
440.624
 30
0.0
 40
0
 41
0
  0
VERTEX
  8
0
 10
167
 20
441.178
 30
0.0
 40
0
 41
0
  0
VERTEX
  8
0
 10
167.461
 20
441.936
 30
0.0
 40
0
 41
0
  0
VERTEX
  8
0
 10
167.876
 20
442.717
 30
0.0
 40
0
 41
0
  0
VERTEX
  8
0
 10
168.243
 20
443.515
 30
0.0
 40
0
 41
0
  0
VERTEX
  8
0
 10
168.561
 20
444.333
 30
0.0
 40
0
 41
0
  0
VERTEX
  8
0
 10
168.831
 20
445.165
 30
0.0
 40
0
 41
0
  0
VERTEX
  8
0
 10
169.051
 20
446.01
 30
0.0
 40
0
 41
0
  0
VERTEX
  8
0
 10
169.224
 20
446.865
 30
0.0
 40
0
 41
0
  0
VERTEX
  8
0
 10
169.344
 20
447.729
 30
0.0
 40
0
 41
0
  0
VERTEX
  8
0
 10
169.417
 20
448.6
 30
0.0
 40
0
 41
0
  0
VERTEX
  8
0
 10
169.438
 20
449.475
 30
0.0
 40
0
 41
0
  0
VERTEX
  8
0
 10
169.407
 20
450.351
 30
0.0
 40
0
 41
0
  0
VERTEX
  8
0
 10
169.325
 20
451.226
 30
0.0
 40
0
 41
0
  0
VERTEX
  8
0
 10
169.193
 20
452.1
 30
0.0
 40
0
 41
0
  0
VERTEX
  8
0
 10
169.007
 20
452.968
 30
0.0
 40
0
 41
0
  0
VERTEX
  8
0
 10
168.835
 20
453.617
 30
0.0
 40
0
 41
0
  0
VERTEX
  8
0
 10
168.769
 20
453.829
 30
0.0
 40
0
 41
0
  0
VERTEX
  8
0
 10
155.16
 20
498.024
 30
0.0
 40
0
 41
0
  0
VERTEX
  8
0
 10
155.117
 20
498.168
 30
0.0
 40
0
 41
0
  0
VERTEX
  8
0
 10
154.971
 20
498.596
 30
0.0
 40
0
 41
0
  0
VERTEX
  8
0
 10
154.76
 20
499.16
 30
0.0
 40
0
 41
0
  0
VERTEX
  8
0
 10
154.528
 20
499.713
 30
0.0
 40
0
 41
0
  0
VERTEX
  8
0
 10
154.274
 20
500.254
 30
0.0
 40
0
 41
0
  0
VERTEX
  8
0
 10
153.999
 20
500.786
 30
0.0
 40
0
 41
0
  0
VERTEX
  8
0
 10
153.703
 20
501.304
 30
0.0
 40
0
 41
0
  0
VERTEX
  8
0
 10
153.388
 20
501.811
 30
0.0
 40
0
 41
0
  0
VERTEX
  8
0
 10
153.051
 20
502.304
 30
0.0
 40
0
 41
0
  0
VERTEX
  8
0
 10
152.697
 20
502.783
 30
0.0
 40
0
 41
0
  0
VERTEX
  8
0
 10
152.324
 20
503.25
 30
0.0
 40
0
 41
0
  0
VERTEX
  8
0
 10
151.932
 20
503.7
 30
0.0
 40
0
 41
0
  0
VERTEX
  8
0
 10
151.522
 20
504.136
 30
0.0
 40
0
 41
0
  0
VERTEX
  8
0
 10
151.094
 20
504.554
 30
0.0
 40
0
 41
0
  0
VERTEX
  8
0
 10
150.65
 20
504.957
 30
0.0
 40
0
 41
0
  0
VERTEX
  8
0
 10
150.188
 20
505.343
 30
0.0
 40
0
 41
0
  0
VERTEX
  8
0
 10
149.831
 20
505.621
 30
0.0
 40
0
 41
0
  0
VERTEX
  8
0
 10
149.71
 20
505.711
 30
0.0
 40
0
 41
0
  0
VERTEX
  8
0
 10
149.589
 20
505.8
 30
0.0
 40
0
 41
0
  0
VERTEX
  8
0
 10
149.218
 20
506.06
 30
0.0
 40
0
 41
0
  0
VERTEX
  8
0
 10
148.714
 20
506.387
 30
0.0
 40
0
 41
0
  0
VERTEX
  8
0
 10
148.197
 20
506.693
 30
0.0
 40
0
 41
0
  0
VERTEX
  8
0
 10
147.671
 20
506.979
 30
0.0
 40
0
 41
0
  0
VERTEX
  8
0
 10
147.135
 20
507.243
 30
0.0
 40
0
 41
0
  0
VERTEX
  8
0
 10
146.589
 20
507.485
 30
0.0
 40
0
 41
0
  0
VERTEX
  8
0
 10
146.033
 20
507.704
 30
0.0
 40
0
 41
0
  0
VERTEX
  8
0
 10
145.471
 20
507.901
 30
0.0
 40
0
 41
0
  0
VERTEX
  8
0
 10
144.9
 20
508.078
 30
0.0
 40
0
 41
0
  0
VERTEX
  8
0
 10
144.324
 20
508.231
 30
0.0
 40
0
 41
0
  0
VERTEX
  8
0
 10
143.74
 20
508.36
 30
0.0
 40
0
 41
0
  0
VERTEX
  8
0
 10
143.153
 20
508.467
 30
0.0
 40
0
 41
0
  0
VERTEX
  8
0
 10
142.56
 20
508.55
 30
0.0
 40
0
 41
0
  0
VERTEX
  8
0
 10
141.962
 20
508.61
 30
0.0
 40
0
 41
0
  0
VERTEX
  8
0
 10
141.362
 20
508.646
 30
0.0
 40
0
 41
0
  0
VERTEX
  8
0
 10
140.91
 20
508.657
 30
0.0
 40
0
 41
0
  0
VERTEX
  8
0
 10
140.758
 20
508.657
 30
0.0
 40
0
 41
0
  0
VERTEX
  8
0
 10
76.9213
 20
508.657
 30
0.0
 40
0
 41
0
  0
VERTEX
  8
0
 10
76.7361
 20
508.657
 30
0.0
 40
0
 41
0
  0
VERTEX
  8
0
 10
76.181
 20
508.639
 30
0.0
 40
0
 41
0
  0
VERTEX
  8
0
 10
75.4456
 20
508.585
 30
0.0
 40
0
 41
0
  0
VERTEX
  8
0
 10
74.7162
 20
508.496
 30
0.0
 40
0
 41
0
  0
VERTEX
  8
0
 10
73.9944
 20
508.371
 30
0.0
 40
0
 41
0
  0
VERTEX
  8
0
 10
73.281
 20
508.211
 30
0.0
 40
0
 41
0
  0
VERTEX
  8
0
 10
72.5774
 20
508.018
 30
0.0
 40
0
 41
0
  0
VERTEX
  8
0
 10
71.8847
 20
507.79
 30
0.0
 40
0
 41
0
  0
VERTEX
  8
0
 10
71.2043
 20
507.531
 30
0.0
 40
0
 41
0
  0
VERTEX
  8
0
 10
70.5371
 20
507.239
 30
0.0
 40
0
 41
0
  0
VERTEX
  8
0
 10
69.8844
 20
506.914
 30
0.0
 40
0
 41
0
  0
VERTEX
  8
0
 10
69.2476
 20
506.557
 30
0.0
 40
0
 41
0
  0
VERTEX
  8
0
 10
68.6278
 20
506.169
 30
0.0
 40
0
 41
0
  0
VERTEX
  8
0
 10
68.0261
 20
505.753
 30
0.0
 40
0
 41
0
  0
VERTEX
  8
0
 10
67.4438
 20
505.304
 30
0.0
 40
0
 41
0
  0
VERTEX
  8
0
 10
66.8821
 20
504.826
 30
0.0
 40
0
 41
0
  0
VERTEX
  8
0
 10
66.4739
 20
504.45
 30
0.0
 40
0
 41
0
  0
VERTEX
  8
0
 10
66.3421
 20
504.319
 30
0.0
 40
0
 41
0
  0
VERTEX
  8
0
 10
66.2103
 20
504.19
 30
0.0
 40
0
 41
0
  0
VERTEX
  8
0
 10
65.8276
 20
503.787
 30
0.0
 40
0
 41
0
  0
VERTEX
  8
0
 10
65.3421
 20
503.232
 30
0.0
 40
0
 41
0
  0
VERTEX
  8
0
 10
64.8857
 20
502.656
 30
0.0
 40
0
 41
0
  0
VERTEX
  8
0
 10
64.4593
 20
502.061
 30
0.0
 40
0
 41
0
  0
VERTEX
  8
0
 10
64.0631
 20
501.446
 30
0.0
 40
0
 41
0
  0
VERTEX
  8
0
 10
63.6978
 20
500.814
 30
0.0
 40
0
 41
0
  0
VERTEX
  8
0
 10
63.3639
 20
500.167
 30
0.0
 40
0
 41
0
  0
VERTEX
  8
0
 10
63.0618
 20
499.504
 30
0.0
 40
0
 41
0
  0
VERTEX
  8
0
 10
62.7922
 20
498.826
 30
0.0
 40
0
 41
0
  0
VERTEX
  8
0
 10
62.5553
 20
498.137
 30
0.0
 40
0
 41
0
  0
VERTEX
  8
0
 10
62.3519
 20
497.436
 30
0.0
 40
0
 41
0
  0
VERTEX
  8
0
 10
62.1825
 20
496.726
 30
0.0
 40
0
 41
0
  0
VERTEX
  8
0
 10
62.0474
 20
496.006
 30
0.0
 40
0
 41
0
  0
VERTEX
  8
0
 10
61.9474
 20
495.278
 30
0.0
 40
0
 41
0
  0
VERTEX
  8
0
 10
61.8826
 20
494.543
 30
0.0
 40
0
 41
0
  0
VERTEX
  8
0
 10
61.8565
 20
493.989
 30
0.0
 40
0
 41
0
  0
VERTEX
  8
0
 10
61.8539
 20
493.803
 30
0.0
 40
0
 41
0
  0
VERTEX
  8
0
 10
61.2246
 20
449.61
 30
0.0
 40
0
 41
0
  0
SEQEND
 8
0
  0
POLYLINE
  8
0
 62
     0
 66
     1
 10
0
 20
0
 30
0.0
 70
     1
 40
0
 41
0
  0
VERTEX
  8
0
 10
66.7465
 20
595.715
 30
0.0
 40
0
 41
0
  0
VERTEX
  8
0
 10
66.6168
 20
595.715
 30
0.0
 40
0
 41
0
  0
VERTEX
  8
0
 10
66.2279
 20
595.701
 30
0.0
 40
0
 41
0
  0
VERTEX
  8
0
 10
65.7131
 20
595.662
 30
0.0
 40
0
 41
0
  0
VERTEX
  8
0
 10
65.2031
 20
595.596
 30
0.0
 40
0
 41
0
  0
VERTEX
  8
0
 10
64.6986
 20
595.504
 30
0.0
 40
0
 41
0
  0
VERTEX
  8
0
 10
64.2008
 20
595.387
 30
0.0
 40
0
 41
0
  0
VERTEX
  8
0
 10
63.7104
 20
595.246
 30
0.0
 40
0
 41
0
  0
VERTEX
  8
0
 10
63.2285
 20
595.079
 30
0.0
 40
0
 41
0
  0
VERTEX
  8
0
 10
62.756
 20
594.889
 30
0.0
 40
0
 41
0
  0
VERTEX
  8
0
 10
62.2936
 20
594.675
 30
0.0
 40
0
 41
0
  0
VERTEX
  8
0
 10
61.8425
 20
594.438
 30
0.0
 40
0
 41
0
  0
VERTEX
  8
0
 10
61.4035
 20
594.176
 30
0.0
 40
0
 41
0
  0
VERTEX
  8
0
 10
60.9775
 20
593.894
 30
0.0
 40
0
 41
0
  0
VERTEX
  8
0
 10
60.5654
 20
593.589
 30
0.0
 40
0
 41
0
  0
VERTEX
  8
0
 10
60.1682
 20
593.262
 30
0.0
 40
0
 41
0
  0
VERTEX
  8
0
 10
59.7868
 20
592.914
 30
0.0
 40
0
 41
0
  0
VERTEX
  8
0
 10
59.5108
 20
592.64
 30
0.0
 40
0
 41
0
  0
VERTEX
  8
0
 10
59.4221
 20
592.544
 30
0.0
 40
0
 41
0
  0
VERTEX
  8
0
 10
59.3333
 20
592.45
 30
0.0
 40
0
 41
0
  0
VERTEX
  8
0
 10
59.0769
 20
592.158
 30
0.0
 40
0
 41
0
  0
VERTEX
  8
0
 10
58.7536
 20
591.756
 30
0.0
 40
0
 41
0
  0
VERTEX
  8
0
 10
58.4526
 20
591.338
 30
0.0
 40
0
 41
0
  0
VERTEX
  8
0
 10
58.1743
 20
590.908
 30
0.0
 40
0
 41
0
  0
VERTEX
  8
0
 10
57.9189
 20
590.465
 30
0.0
 40
0
 41
0
  0
VERTEX
  8
0
 10
57.6867
 20
590.01
 30
0.0
 40
0
 41
0
  0
VERTEX
  8
0
 10
57.4782
 20
589.544
 30
0.0
 40
0
 41
0
  0
VERTEX
  8
0
 10
57.2936
 20
589.069
 30
0.0
 40
0
 41
0
  0
VERTEX
  8
0
 10
57.1333
 20
588.586
 30
0.0
 40
0
 41
0
  0
VERTEX
  8
0
 10
56.9978
 20
588.094
 30
0.0
 40
0
 41
0
  0
VERTEX
  8
0
 10
56.8871
 20
587.596
 30
0.0
 40
0
 41
0
  0
VERTEX
  8
0
 10
56.8018
 20
587.092
 30
0.0
 40
0
 41
0
  0
VERTEX
  8
0
 10
56.7421
 20
586.583
 30
0.0
 40
0
 41
0
  0
VERTEX
  8
0
 10
56.7085
 20
586.069
 30
0.0
 40
0
 41
0
  0
VERTEX
  8
0
 10
56.7013
 20
585.554
 30
0.0
 40
0
 41
0
  0
VERTEX
  8
0
 10
56.7125
 20
585.164
 30
0.0
 40
0
 41
0
  0
VERTEX
  8
0
 10
56.7207
 20
585.035
 30
0.0
 40
0
 41
0
  0
VERTEX
  8
0
 10
62.3794
 20
534.425
 30
0.0
 40
0
 41
0
  0
VERTEX
  8
0
 10
62.3768
 20
534.286
 30
0.0
 40
0
 41
0
  0
VERTEX
  8
0
 10
62.3846
 20
533.869
 30
0.0
 40
0
 41
0
  0
VERTEX
  8
0
 10
62.4203
 20
533.318
 30
0.0
 40
0
 41
0
  0
VERTEX
  8
0
 10
62.4858
 20
532.772
 30
0.0
 40
0
 41
0
  0
VERTEX
  8
0
 10
62.5808
 20
532.232
 30
0.0
 40
0
 41
0
  0
VERTEX
  8
0
 10
62.7049
 20
531.7
 30
0.0
 40
0
 41
0
  0
VERTEX
  8
0
 10
62.8572
 20
531.176
 30
0.0
 40
0
 41
0
  0
VERTEX
  8
0
 10
63.0375
 20
530.662
 30
0.0
 40
0
 41
0
  0
VERTEX
  8
0
 10
63.2451
 20
530.158
 30
0.0
 40
0
 41
0
  0
VERTEX
  8
0
 10
63.4797
 20
529.668
 30
0.0
 40
0
 41
0
  0
VERTEX
  8
0
 10
63.7408
 20
529.19
 30
0.0
 40
0
 41
0
  0
VERTEX
  8
0
 10
64.0278
 20
528.726
 30
0.0
 40
0
 41
0
  0
VERTEX
  8
0
 10
64.3401
 20
528.278
 30
0.0
 40
0
 41
0
  0
VERTEX
  8
0
 10
64.6775
 20
527.846
 30
0.0
 40
0
 41
0
  0
VERTEX
  8
0
 10
65.0393
 20
527.432
 30
0.0
 40
0
 41
0
  0
VERTEX
  8
0
 10
65.425
 20
527.036
 30
0.0
 40
0
 41
0
  0
VERTEX
  8
0
 10
65.7293
 20
526.751
 30
0.0
 40
0
 41
0
  0
VERTEX
  8
0
 10
65.8342
 20
526.66
 30
0.0
 40
0
 41
0
  0
VERTEX
  8
0
 10
65.9389
 20
526.569
 30
0.0
 40
0
 41
0
  0
VERTEX
  8
0
 10
66.2633
 20
526.307
 30
0.0
 40
0
 41
0
  0
VERTEX
  8
0
 10
66.709
 20
525.981
 30
0.0
 40
0
 41
0
  0
VERTEX
  8
0
 10
67.1697
 20
525.681
 30
0.0
 40
0
 41
0
  0
VERTEX
  8
0
 10
67.6446
 20
525.407
 30
0.0
 40
0
 41
0
  0
VERTEX
  8
0
 10
68.1322
 20
525.16
 30
0.0
 40
0
 41
0
  0
VERTEX
  8
0
 10
68.6314
 20
524.94
 30
0.0
 40
0
 41
0
  0
VERTEX
  8
0
 10
69.1411
 20
524.749
 30
0.0
 40
0
 41
0
  0
VERTEX
  8
0
 10
69.6601
 20
524.585
 30
0.0
 40
0
 41
0
  0
VERTEX
  8
0
 10
70.1872
 20
524.449
 30
0.0
 40
0
 41
0
  0
VERTEX
  8
0
 10
70.7213
 20
524.342
 30
0.0
 40
0
 41
0
  0
VERTEX
  8
0
 10
71.2611
 20
524.264
 30
0.0
 40
0
 41
0
  0
VERTEX
  8
0
 10
71.8054
 20
524.215
 30
0.0
 40
0
 41
0
  0
VERTEX
  8
0
 10
72.3532
 20
524.197
 30
0.0
 40
0
 41
0
  0
VERTEX
  8
0
 10
72.9032
 20
524.208
 30
0.0
 40
0
 41
0
  0
VERTEX
  8
0
 10
73.4542
 20
524.25
 30
0.0
 40
0
 41
0
  0
VERTEX
  8
0
 10
73.8679
 20
524.3
 30
0.0
 40
0
 41
0
  0
VERTEX
  8
0
 10
74.005
 20
524.322
 30
0.0
 40
0
 41
0
  0
VERTEX
  8
0
 10
137.209
 20
524.322
 30
0.0
 40
0
 41
0
  0
VERTEX
  8
0
 10
137.359
 20
524.322
 30
0.0
 40
0
 41
0
  0
VERTEX
  8
0
 10
137.809
 20
524.34
 30
0.0
 40
0
 41
0
  0
VERTEX
  8
0
 10
138.402
 20
524.393
 30
0.0
 40
0
 41
0
  0
VERTEX
  8
0
 10
138.987
 20
524.481
 30
0.0
 40
0
 41
0
  0
VERTEX
  8
0
 10
139.565
 20
524.603
 30
0.0
 40
0
 41
0
  0
VERTEX
  8
0
 10
140.133
 20
524.757
 30
0.0
 40
0
 41
0
  0
VERTEX
  8
0
 10
140.689
 20
524.944
 30
0.0
 40
0
 41
0
  0
VERTEX
  8
0
 10
141.233
 20
525.162
 30
0.0
 40
0
 41
0
  0
VERTEX
  8
0
 10
141.763
 20
525.412
 30
0.0
 40
0
 41
0
  0
VERTEX
  8
0
 10
142.276
 20
525.693
 30
0.0
 40
0
 41
0
  0
VERTEX
  8
0
 10
142.774
 20
526.003
 30
0.0
 40
0
 41
0
  0
VERTEX
  8
0
 10
143.251
 20
526.343
 30
0.0
 40
0
 41
0
  0
VERTEX
  8
0
 10
143.711
 20
526.71
 30
0.0
 40
0
 41
0
  0
VERTEX
  8
0
 10
144.15
 20
527.106
 30
0.0
 40
0
 41
0
  0
VERTEX
  8
0
 10
144.567
 20
527.526
 30
0.0
 40
0
 41
0
  0
VERTEX
  8
0
 10
144.958
 20
527.975
 30
0.0
 40
0
 41
0
  0
VERTEX
  8
0
 10
145.237
 20
528.328
 30
0.0
 40
0
 41
0
  0
VERTEX
  8
0
 10
145.326
 20
528.449
 30
0.0
 40
0
 41
0
  0
VERTEX
  8
0
 10
145.414
 20
528.569
 30
0.0
 40
0
 41
0
  0
VERTEX
  8
0
 10
145.665
 20
528.943
 30
0.0
 40
0
 41
0
  0
VERTEX
  8
0
 10
145.972
 20
529.454
 30
0.0
 40
0
 41
0
  0
VERTEX
  8
0
 10
146.246
 20
529.979
 30
0.0
 40
0
 41
0
  0
VERTEX
  8
0
 10
146.489
 20
530.518
 30
0.0
 40
0
 41
0
  0
VERTEX
  8
0
 10
146.697
 20
531.067
 30
0.0
 40
0
 41
0
  0
VERTEX
  8
0
 10
146.874
 20
531.626
 30
0.0
 40
0
 41
0
  0
VERTEX
  8
0
 10
147.018
 20
532.194
 30
0.0
 40
0
 41
0
  0
VERTEX
  8
0
 10
147.128
 20
532.769
 30
0.0
 40
0
 41
0
  0
VERTEX
  8
0
 10
147.204
 20
533.35
 30
0.0
 40
0
 41
0
  0
VERTEX
  8
0
 10
147.246
 20
533.935
 30
0.0
 40
0
 41
0
  0
VERTEX
  8
0
 10
147.254
 20
534.522
 30
0.0
 40
0
 41
0
  0
VERTEX
  8
0
 10
147.228
 20
535.11
 30
0.0
 40
0
 41
0
  0
VERTEX
  8
0
 10
147.167
 20
535.696
 30
0.0
 40
0
 41
0
  0
VERTEX
  8
0
 10
147.071
 20
536.281
 30
0.0
 40
0
 41
0
  0
VERTEX
  8
0
 10
146.94
 20
536.863
 30
0.0
 40
0
 41
0
  0
VERTEX
  8
0
 10
146.821
 20
537.296
 30
0.0
 40
0
 41
0
  0
VERTEX
  8
0
 10
146.775
 20
537.439
 30
0.0
 40
0
 41
0
  0
VERTEX
  8
0
 10
130.528
 20
588.049
 30
0.0
 40
0
 41
0
  0
VERTEX
  8
0
 10
130.503
 20
588.151
 30
0.0
 40
0
 41
0
  0
VERTEX
  8
0
 10
130.42
 20
588.456
 30
0.0
 40
0
 41
0
  0
VERTEX
  8
0
 10
130.295
 20
588.857
 30
0.0
 40
0
 41
0
  0
VERTEX
  8
0
 10
130.154
 20
589.251
 30
0.0
 40
0
 41
0
  0
VERTEX
  8
0
 10
129.997
 20
589.639
 30
0.0
 40
0
 41
0
  0
VERTEX
  8
0
 10
129.824
 20
590.018
 30
0.0
 40
0
 41
0
  0
VERTEX
  8
0
 10
129.636
 20
590.39
 30
0.0
 40
0
 41
0
  0
VERTEX
  8
0
 10
129.432
 20
590.753
 30
0.0
 40
0
 41
0
  0
VERTEX
  8
0
 10
129.214
 20
591.108
 30
0.0
 40
0
 41
0
  0
VERTEX
  8
0
 10
128.982
 20
591.453
 30
0.0
 40
0
 41
0
  0
VERTEX
  8
0
 10
128.735
 20
591.789
 30
0.0
 40
0
 41
0
  0
VERTEX
  8
0
 10
128.475
 20
592.114
 30
0.0
 40
0
 41
0
  0
VERTEX
  8
0
 10
128.2
 20
592.428
 30
0.0
 40
0
 41
0
  0
VERTEX
  8
0
 10
127.913
 20
592.731
 30
0.0
 40
0
 41
0
  0
VERTEX
  8
0
 10
127.612
 20
593.022
 30
0.0
 40
0
 41
0
  0
VERTEX
  8
0
 10
127.299
 20
593.303
 30
0.0
 40
0
 41
0
  0
VERTEX
  8
0
 10
127.056
 20
593.504
 30
0.0
 40
0
 41
0
  0
VERTEX
  8
0
 10
126.973
 20
593.569
 30
0.0
 40
0
 41
0
  0
VERTEX
  8
0
 10
126.808
 20
593.7
 30
0.0
 40
0
 41
0
  0
VERTEX
  8
0
 10
126.291
 20
594.061
 30
0.0
 40
0
 41
0
  0
VERTEX
  8
0
 10
125.574
 20
594.492
 30
0.0
 40
0
 41
0
  0
VERTEX
  8
0
 10
124.826
 20
594.86
 30
0.0
 40
0
 41
0
  0
VERTEX
  8
0
 10
124.051
 20
595.164
 30
0.0
 40
0
 41
0
  0
VERTEX
  8
0
 10
123.254
 20
595.403
 30
0.0
 40
0
 41
0
  0
VERTEX
  8
0
 10
122.438
 20
595.575
 30
0.0
 40
0
 41
0
  0
VERTEX
  8
0
 10
121.608
 20
595.681
 30
0.0
 40
0
 41
0
  0
VERTEX
  8
0
 10
120.978
 20
595.715
 30
0.0
 40
0
 41
0
  0
VERTEX
  8
0
 10
120.768
 20
595.715
 30
0.0
 40
0
 41
0
  0
VERTEX
  8
0
 10
66.7465
 20
595.715
 30
0.0
 40
0
 41
0
  0
SEQEND
 8
0
  0
POLYLINE
  8
0
 62
     0
 66
     1
 10
0
 20
0
 30
0.0
 70
     1
 40
0
 41
0
  0
VERTEX
  8
0
 10
85.1503
 20
90.7763
 30
0.0
 40
0
 41
0
  0
VERTEX
  8
0
 10
85.2361
 20
90.684
 30
0.0
 40
0
 41
0
  0
VERTEX
  8
0
 10
85.5026
 20
90.4161
 30
0.0
 40
0
 41
0
  0
VERTEX
  8
0
 10
85.871
 20
90.0756
 30
0.0
 40
0
 41
0
  0
VERTEX
  8
0
 10
86.2544
 20
89.7551
 30
0.0
 40
0
 41
0
  0
VERTEX
  8
0
 10
86.6521
 20
89.4551
 30
0.0
 40
0
 41
0
  0
VERTEX
  8
0
 10
87.0633
 20
89.176
 30
0.0
 40
0
 41
0
  0
VERTEX
  8
0
 10
87.4871
 20
88.9181
 30
0.0
 40
0
 41
0
  0
VERTEX
  8
0
 10
87.9226
 20
88.6817
 30
0.0
 40
0
 41
0
  0
VERTEX
  8
0
 10
88.3692
 20
88.4672
 30
0.0
 40
0
 41
0
  0
VERTEX
  8
0
 10
88.8257
 20
88.2753
 30
0.0
 40
0
 41
0
  0
VERTEX
  8
0
 10
89.2914
 20
88.106
 30
0.0
 40
0
 41
0
  0
VERTEX
  8
0
 10
89.7656
 20
87.9599
 30
0.0
 40
0
 41
0
  0
VERTEX
  8
0
 10
90.2471
 20
87.8371
 30
0.0
 40
0
 41
0
  0
VERTEX
  8
0
 10
90.7354
 20
87.7383
 30
0.0
 40
0
 41
0
  0
VERTEX
  8
0
 10
91.2296
 20
87.6639
 30
0.0
 40
0
 41
0
  0
VERTEX
  8
0
 10
91.7286
 20
87.6139
 30
0.0
 40
0
 41
0
  0
VERTEX
  8
0
 10
92.106
 20
87.5921
 30
0.0
 40
0
 41
0
  0
VERTEX
  8
0
 10
92.2319
 20
87.589
 30
0.0
 40
0
 41
0
  0
VERTEX
  8
0
 10
92.3578
 20
87.5861
 30
0.0
 40
0
 41
0
  0
VERTEX
  8
0
 10
92.7358
 20
87.5896
 30
0.0
 40
0
 41
0
  0
VERTEX
  8
0
 10
93.2367
 20
87.6153
 30
0.0
 40
0
 41
0
  0
VERTEX
  8
0
 10
93.7339
 20
87.6658
 30
0.0
 40
0
 41
0
  0
VERTEX
  8
0
 10
94.2264
 20
87.741
 30
0.0
 40
0
 41
0
  0
VERTEX
  8
0
 10
94.7133
 20
87.8401
 30
0.0
 40
0
 41
0
  0
VERTEX
  8
0
 10
95.194
 20
87.9633
 30
0.0
 40
0
 41
0
  0
VERTEX
  8
0
 10
95.6674
 20
88.1099
 30
0.0
 40
0
 41
0
  0
VERTEX
  8
0
 10
96.1326
 20
88.2796
 30
0.0
 40
0
 41
0
  0
VERTEX
  8
0
 10
96.5889
 20
88.4722
 30
0.0
 40
0
 41
0
  0
VERTEX
  8
0
 10
97.0354
 20
88.6872
 30
0.0
 40
0
 41
0
  0
VERTEX
  8
0
 10
97.4711
 20
88.9243
 30
0.0
 40
0
 41
0
  0
VERTEX
  8
0
 10
97.8953
 20
89.1833
 30
0.0
 40
0
 41
0
  0
VERTEX
  8
0
 10
98.3071
 20
89.4638
 30
0.0
 40
0
 41
0
  0
VERTEX
  8
0
 10
98.7056
 20
89.7653
 30
0.0
 40
0
 41
0
  0
VERTEX
  8
0
 10
99.09
 20
90.0876
 30
0.0
 40
0
 41
0
  0
VERTEX
  8
0
 10
99.3692
 20
90.3425
 30
0.0
 40
0
 41
0
  0
VERTEX
  8
0
 10
99.4593
 20
90.4304
 30
0.0
 40
0
 41
0
  0
VERTEX
  8
0
 10
99.5493
 20
90.5183
 30
0.0
 40
0
 41
0
  0
VERTEX
  8
0
 10
99.8108
 20
90.7914
 30
0.0
 40
0
 41
0
  0
VERTEX
  8
0
 10
100.142
 20
91.1678
 30
0.0
 40
0
 41
0
  0
VERTEX
  8
0
 10
100.453
 20
91.5588
 30
0.0
 40
0
 41
0
  0
VERTEX
  8
0
 10
100.744
 20
91.9638
 30
0.0
 40
0
 41
0
  0
VERTEX
  8
0
 10
101.013
 20
92.3815
 30
0.0
 40
0
 41
0
  0
VERTEX
  8
0
 10
101.261
 20
92.8114
 30
0.0
 40
0
 41
0
  0
VERTEX
  8
0
 10
101.486
 20
93.2525
 30
0.0
 40
0
 41
0
  0
VERTEX
  8
0
 10
101.69
 20
93.704
 30
0.0
 40
0
 41
0
  0
VERTEX
  8
0
 10
101.871
 20
94.1651
 30
0.0
 40
0
 41
0
  0
VERTEX
  8
0
 10
102.029
 20
94.6347
 30
0.0
 40
0
 41
0
  0
VERTEX
  8
0
 10
102.163
 20
95.1124
 30
0.0
 40
0
 41
0
  0
VERTEX
  8
0
 10
102.274
 20
95.5967
 30
0.0
 40
0
 41
0
  0
VERTEX
  8
0
 10
102.361
 20
96.0874
 30
0.0
 40
0
 41
0
  0
VERTEX
  8
0
 10
102.424
 20
96.5831
 30
0.0
 40
0
 41
0
  0
VERTEX
  8
0
 10
102.462
 20
97.0832
 30
0.0
 40
0
 41
0
  0
VERTEX
  8
0
 10
102.474
 20
97.461
 30
0.0
 40
0
 41
0
  0
VERTEX
  8
0
 10
102.474
 20
97.5869
 30
0.0
 40
0
 41
0
  0
VERTEX
  8
0
 10
102.474
 20
145.403
 30
0.0
 40
0
 41
0
  0
VERTEX
  8
0
 10
102.474
 20
145.526
 30
0.0
 40
0
 41
0
  0
VERTEX
  8
0
 10
102.462
 20
145.899
 30
0.0
 40
0
 41
0
  0
VERTEX
  8
0
 10
102.425
 20
146.392
 30
0.0
 40
0
 41
0
  0
VERTEX
  8
0
 10
102.365
 20
146.879
 30
0.0
 40
0
 41
0
  0
VERTEX
  8
0
 10
102.28
 20
147.364
 30
0.0
 40
0
 41
0
  0
VERTEX
  8
0
 10
102.173
 20
147.84
 30
0.0
 40
0
 41
0
  0
VERTEX
  8
0
 10
102.042
 20
148.311
 30
0.0
 40
0
 41
0
  0
VERTEX
  8
0
 10
101.889
 20
148.775
 30
0.0
 40
0
 41
0
  0
VERTEX
  8
0
 10
101.713
 20
149.231
 30
0.0
 40
0
 41
0
  0
VERTEX
  8
0
 10
101.515
 20
149.676
 30
0.0
 40
0
 41
0
  0
VERTEX
  8
0
 10
101.296
 20
150.112
 30
0.0
 40
0
 41
0
  0
VERTEX
  8
0
 10
101.056
 20
150.538
 30
0.0
 40
0
 41
0
  0
VERTEX
  8
0
 10
100.794
 20
150.951
 30
0.0
 40
0
 41
0
  0
VERTEX
  8
0
 10
100.512
 20
151.353
 30
0.0
 40
0
 41
0
  0
VERTEX
  8
0
 10
100.21
 20
151.742
 30
0.0
 40
0
 41
0
  0
VERTEX
  8
0
 10
99.8872
 20
152.115
 30
0.0
 40
0
 41
0
  0
VERTEX
  8
0
 10
99.6329
 20
152.388
 30
0.0
 40
0
 41
0
  0
VERTEX
  8
0
 10
99.5453
 20
152.475
 30
0.0
 40
0
 41
0
  0
VERTEX
  8
0
 10
99.4576
 20
152.563
 30
0.0
 40
0
 41
0
  0
VERTEX
  8
0
 10
99.1858
 20
152.817
 30
0.0
 40
0
 41
0
  0
VERTEX
  8
0
 10
98.8117
 20
153.139
 30
0.0
 40
0
 41
0
  0
VERTEX
  8
0
 10
98.4235
 20
153.442
 30
0.0
 40
0
 41
0
  0
VERTEX
  8
0
 10
98.0221
 20
153.724
 30
0.0
 40
0
 41
0
  0
VERTEX
  8
0
 10
97.6082
 20
153.985
 30
0.0
 40
0
 41
0
  0
VERTEX
  8
0
 10
97.1829
 20
154.225
 30
0.0
 40
0
 41
0
  0
VERTEX
  8
0
 10
96.7468
 20
154.444
 30
0.0
 40
0
 41
0
  0
VERTEX
  8
0
 10
96.3007
 20
154.643
 30
0.0
 40
0
 41
0
  0
VERTEX
  8
0
 10
95.8456
 20
154.818
 30
0.0
 40
0
 41
0
  0
VERTEX
  8
0
 10
95.3822
 20
154.972
 30
0.0
 40
0
 41
0
  0
VERTEX
  8
0
 10
94.9112
 20
155.103
 30
0.0
 40
0
 41
0
  0
VERTEX
  8
0
 10
94.4338
 20
155.21
 30
0.0
 40
0
 41
0
  0
VERTEX
  8
0
 10
93.9504
 20
155.294
 30
0.0
 40
0
 41
0
  0
VERTEX
  8
0
 10
93.4621
 20
155.356
 30
0.0
 40
0
 41
0
  0
VERTEX
  8
0
 10
92.9694
 20
155.392
 30
0.0
 40
0
 41
0
  0
VERTEX
  8
0
 10
92.5976
 20
155.404
 30
0.0
 40
0
 41
0
  0
VERTEX
  8
0
 10
92.4736
 20
155.404
 30
0.0
 40
0
 41
0
  0
VERTEX
  8
0
 10
48.0047
 20
155.404
 30
0.0
 40
0
 41
0
  0
VERTEX
  8
0
 10
47.8826
 20
155.404
 30
0.0
 40
0
 41
0
  0
VERTEX
  8
0
 10
47.5165
 20
155.392
 30
0.0
 40
0
 41
0
  0
VERTEX
  8
0
 10
47.0315
 20
155.357
 30
0.0
 40
0
 41
0
  0
VERTEX
  8
0
 10
46.5507
 20
155.297
 30
0.0
 40
0
 41
0
  0
VERTEX
  8
0
 10
46.0746
 20
155.215
 30
0.0
 40
0
 41
0
  0
VERTEX
  8
0
 10
45.6039
 20
155.111
 30
0.0
 40
0
 41
0
  0
VERTEX
  8
0
 10
45.1397
 20
154.985
 30
0.0
 40
0
 41
0
  0
VERTEX
  8
0
 10
44.6825
 20
154.836
 30
0.0
 40
0
 41
0
  0
VERTEX
  8
0
 10
44.2333
 20
154.665
 30
0.0
 40
0
 41
0
  0
VERTEX
  8
0
 10
43.7929
 20
154.474
 30
0.0
 40
0
 41
0
  0
VERTEX
  8
0
 10
43.3619
 20
154.261
 30
0.0
 40
0
 41
0
  0
VERTEX
  8
0
 10
42.9413
 20
154.028
 30
0.0
 40
0
 41
0
  0
VERTEX
  8
0
 10
42.5315
 20
153.774
 30
0.0
 40
0
 41
0
  0
VERTEX
  8
0
 10
42.1336
 20
153.499
 30
0.0
 40
0
 41
0
  0
VERTEX
  8
0
 10
41.7485
 20
153.206
 30
0.0
 40
0
 41
0
  0
VERTEX
  8
0
 10
41.3765
 20
152.892
 30
0.0
 40
0
 41
0
  0
VERTEX
  8
0
 10
41.1062
 20
152.644
 30
0.0
 40
0
 41
0
  0
VERTEX
  8
0
 10
41.019
 20
152.56
 30
0.0
 40
0
 41
0
  0
VERTEX
  8
0
 10
40.9317
 20
152.475
 30
0.0
 40
0
 41
0
  0
VERTEX
  8
0
 10
40.6781
 20
152.21
 30
0.0
 40
0
 41
0
  0
VERTEX
  8
0
 10
40.3558
 20
151.846
 30
0.0
 40
0
 41
0
  0
VERTEX
  8
0
 10
40.0526
 20
151.468
 30
0.0
 40
0
 41
0
  0
VERTEX
  8
0
 10
39.7692
 20
151.076
 30
0.0
 40
0
 41
0
  0
VERTEX
  8
0
 10
39.5053
 20
150.674
 30
0.0
 40
0
 41
0
  0
VERTEX
  8
0
 10
39.2617
 20
150.258
 30
0.0
 40
0
 41
0
  0
VERTEX
  8
0
 10
39.0385
 20
149.833
 30
0.0
 40
0
 41
0
  0
VERTEX
  8
0
 10
38.836
 20
149.397
 30
0.0
 40
0
 41
0
  0
VERTEX
  8
0
 10
38.6547
 20
148.951
 30
0.0
 40
0
 41
0
  0
VERTEX
  8
0
 10
38.495
 20
148.499
 30
0.0
 40
0
 41
0
  0
VERTEX
  8
0
 10
38.3571
 20
148.038
 30
0.0
 40
0
 41
0
  0
VERTEX
  8
0
 10
38.2414
 20
147.569
 30
0.0
 40
0
 41
0
  0
VERTEX
  8
0
 10
38.1481
 20
147.096
 30
0.0
 40
0
 41
0
  0
VERTEX
  8
0
 10
38.0776
 20
146.617
 30
0.0
 40
0
 41
0
  0
VERTEX
  8
0
 10
38.0304
 20
146.132
 30
0.0
 40
0
 41
0
  0
VERTEX
  8
0
 10
38.0097
 20
145.767
 30
0.0
 40
0
 41
0
  0
VERTEX
  8
0
 10
38.0068
 20
145.644
 30
0.0
 40
0
 41
0
  0
VERTEX
  8
0
 10
38.0038
 20
145.522
 30
0.0
 40
0
 41
0
  0
VERTEX
  8
0
 10
38.0068
 20
145.157
 30
0.0
 40
0
 41
0
  0
VERTEX
  8
0
 10
38.0307
 20
144.671
 30
0.0
 40
0
 41
0
  0
VERTEX
  8
0
 10
38.0778
 20
144.189
 30
0.0
 40
0
 41
0
  0
VERTEX
  8
0
 10
38.1481
 20
143.711
 30
0.0
 40
0
 41
0
  0
VERTEX
  8
0
 10
38.2411
 20
143.237
 30
0.0
 40
0
 41
0
  0
VERTEX
  8
0
 10
38.3565
 20
142.771
 30
0.0
 40
0
 41
0
  0
VERTEX
  8
0
 10
38.4942
 20
142.31
 30
0.0
 40
0
 41
0
  0
VERTEX
  8
0
 10
38.6538
 20
141.857
 30
0.0
 40
0
 41
0
  0
VERTEX
  8
0
 10
38.8349
 20
141.411
 30
0.0
 40
0
 41
0
  0
VERTEX
  8
0
 10
39.0372
 20
140.976
 30
0.0
 40
0
 41
0
  0
VERTEX
  8
0
 10
39.2606
 20
140.55
 30
0.0
 40
0
 41
0
  0
VERTEX
  8
0
 10
39.5046
 20
140.133
 30
0.0
 40
0
 41
0
  0
VERTEX
  8
0
 10
39.7689
 20
139.729
 30
0.0
 40
0
 41
0
  0
VERTEX
  8
0
 10
40.0533
 20
139.337
 30
0.0
 40
0
 41
0
  0
VERTEX
  8
0
 10
40.3576
 20
138.958
 30
0.0
 40
0
 41
0
  0
VERTEX
  8
0
 10
40.5982
 20
138.682
 30
0.0
 40
0
 41
0
  0
VERTEX
  8
0
 10
40.6814
 20
138.592
 30
0.0
 40
0
 41
0
  0
VERTEX
  8
0
 10
85.1503
 20
90.7763
 30
0.0
 40
0
 41
0
  0
SEQEND
 8
0
  0
POLYLINE
  8
0
 62
     0
 66
     1
 10
0
 20
0
 30
0.0
 70
     1
 40
0
 41
0
  0
VERTEX
  8
0
 10
68.5158
 20
35.1782
 30
0.0
 40
0
 41
0
  0
VERTEX
  8
0
 10
68.6757
 20
35.2094
 30
0.0
 40
0
 41
0
  0
VERTEX
  8
0
 10
69.1514
 20
35.3239
 30
0.0
 40
0
 41
0
  0
VERTEX
  8
0
 10
69.7714
 20
35.509
 30
0.0
 40
0
 41
0
  0
VERTEX
  8
0
 10
70.3744
 20
35.7324
 30
0.0
 40
0
 41
0
  0
VERTEX
  8
0
 10
70.959
 20
35.9926
 30
0.0
 40
0
 41
0
  0
VERTEX
  8
0
 10
71.5235
 20
36.2886
 30
0.0
 40
0
 41
0
  0
VERTEX
  8
0
 10
72.0665
 20
36.619
 30
0.0
 40
0
 41
0
  0
VERTEX
  8
0
 10
72.5865
 20
36.9825
 30
0.0
 40
0
 41
0
  0
VERTEX
  8
0
 10
73.0821
 20
37.3779
 30
0.0
 40
0
 41
0
  0
VERTEX
  8
0
 10
73.5515
 20
37.8038
 30
0.0
 40
0
 41
0
  0
VERTEX
  8
0
 10
73.9935
 20
38.2589
 30
0.0
 40
0
 41
0
  0
VERTEX
  8
0
 10
74.4065
 20
38.7422
 30
0.0
 40
0
 41
0
  0
VERTEX
  8
0
 10
74.7889
 20
39.2521
 30
0.0
 40
0
 41
0
  0
VERTEX
  8
0
 10
75.1393
 20
39.7875
 30
0.0
 40
0
 41
0
  0
VERTEX
  8
0
 10
75.4563
 20
40.3471
 30
0.0
 40
0
 41
0
  0
VERTEX
  8
0
 10
75.7381
 20
40.9296
 30
0.0
 40
0
 41
0
  0
VERTEX
  8
0
 10
75.9271
 20
41.3808
 30
0.0
 40
0
 41
0
  0
VERTEX
  8
0
 10
75.9835
 20
41.5336
 30
0.0
 40
0
 41
0
  0
VERTEX
  8
0
 10
76.0399
 20
41.6865
 30
0.0
 40
0
 41
0
  0
VERTEX
  8
0
 10
76.189
 20
42.1525
 30
0.0
 40
0
 41
0
  0
VERTEX
  8
0
 10
76.3529
 20
42.7785
 30
0.0
 40
0
 41
0
  0
VERTEX
  8
0
 10
76.4751
 20
43.4097
 30
0.0
 40
0
 41
0
  0
VERTEX
  8
0
 10
76.5562
 20
44.0446
 30
0.0
 40
0
 41
0
  0
VERTEX
  8
0
 10
76.5964
 20
44.6807
 30
0.0
 40
0
 41
0
  0
VERTEX
  8
0
 10
76.596
 20
45.3163
 30
0.0
 40
0
 41
0
  0
VERTEX
  8
0
 10
76.5554
 20
45.9494
 30
0.0
 40
0
 41
0
  0
VERTEX
  8
0
 10
76.4749
 20
46.5782
 30
0.0
 40
0
 41
0
  0
VERTEX
  8
0
 10
76.3547
 20
47.2006
 30
0.0
 40
0
 41
0
  0
VERTEX
  8
0
 10
76.1951
 20
47.8147
 30
0.0
 40
0
 41
0
  0
VERTEX
  8
0
 10
75.9967
 20
48.4185
 30
0.0
 40
0
 41
0
  0
VERTEX
  8
0
 10
75.7594
 20
49.0101
 30
0.0
 40
0
 41
0
  0
VERTEX
  8
0
 10
75.4839
 20
49.5876
 30
0.0
 40
0
 41
0
  0
VERTEX
  8
0
 10
75.1703
 20
50.149
 30
0.0
 40
0
 41
0
  0
VERTEX
  8
0
 10
74.8189
 20
50.6924
 30
0.0
 40
0
 41
0
  0
VERTEX
  8
0
 10
74.5314
 20
51.0883
 30
0.0
 40
0
 41
0
  0
VERTEX
  8
0
 10
74.43
 20
51.2158
 30
0.0
 40
0
 41
0
  0
VERTEX
  8
0
 10
38.8033
 20
96.0481
 30
0.0
 40
0
 41
0
  0
VERTEX
  8
0
 10
38.7225
 20
96.15
 30
0.0
 40
0
 41
0
  0
VERTEX
  8
0
 10
38.469
 20
96.4471
 30
0.0
 40
0
 41
0
  0
VERTEX
  8
0
 10
38.1161
 20
96.8264
 30
0.0
 40
0
 41
0
  0
VERTEX
  8
0
 10
37.7456
 20
97.1856
 30
0.0
 40
0
 41
0
  0
VERTEX
  8
0
 10
37.3582
 20
97.5239
 30
0.0
 40
0
 41
0
  0
VERTEX
  8
0
 10
36.955
 20
97.8412
 30
0.0
 40
0
 41
0
  0
VERTEX
  8
0
 10
36.5369
 20
98.1368
 30
0.0
 40
0
 41
0
  0
VERTEX
  8
0
 10
36.1047
 20
98.4104
 30
0.0
 40
0
 41
0
  0
VERTEX
  8
0
 10
35.6594
 20
98.6612
 30
0.0
 40
0
 41
0
  0
VERTEX
  8
0
 10
35.2019
 20
98.8892
 30
0.0
 40
0
 41
0
  0
VERTEX
  8
0
 10
34.7331
 20
99.0935
 30
0.0
 40
0
 41
0
  0
VERTEX
  8
0
 10
34.2538
 20
99.2738
 30
0.0
 40
0
 41
0
  0
VERTEX
  8
0
 10
33.7649
 20
99.4296
 30
0.0
 40
0
 41
0
  0
VERTEX
  8
0
 10
33.2675
 20
99.5604
 30
0.0
 40
0
 41
0
  0
VERTEX
  8
0
 10
32.7624
 20
99.6657
 30
0.0
 40
0
 41
0
  0
VERTEX
  8
0
 10
32.2504
 20
99.7451
 30
0.0
 40
0
 41
0
  0
VERTEX
  8
0
 10
31.8622
 20
99.7883
 30
0.0
 40
0
 41
0
  0
VERTEX
  8
0
 10
31.7325
 20
99.7981
 30
0.0
 40
0
 41
0
  0
VERTEX
  8
0
 10
31.6028
 20
99.8081
 30
0.0
 40
0
 41
0
  0
VERTEX
  8
0
 10
31.2125
 20
99.8242
 30
0.0
 40
0
 41
0
  0
VERTEX
  8
0
 10
30.6944
 20
99.8232
 30
0.0
 40
0
 41
0
  0
VERTEX
  8
0
 10
30.1792
 20
99.7954
 30
0.0
 40
0
 41
0
  0
VERTEX
  8
0
 10
29.6676
 20
99.7414
 30
0.0
 40
0
 41
0
  0
VERTEX
  8
0
 10
29.161
 20
99.6614
 30
0.0
 40
0
 41
0
  0
VERTEX
  8
0
 10
28.6599
 20
99.5557
 30
0.0
 40
0
 41
0
  0
VERTEX
  8
0
 10
28.1656
 20
99.4246
 30
0.0
 40
0
 41
0
  0
VERTEX
  8
0
 10
27.6788
 20
99.2686
 30
0.0
 40
0
 41
0
  0
VERTEX
  8
0
 10
27.2007
 20
99.0879
 30
0.0
 40
0
 41
0
  0
VERTEX
  8
0
 10
26.7321
 20
98.8829
 30
0.0
 40
0
 41
0
  0
VERTEX
  8
0
 10
26.274
 20
98.654
 30
0.0
 40
0
 41
0
  0
VERTEX
  8
0
 10
25.8275
 20
98.4013
 30
0.0
 40
0
 41
0
  0
VERTEX
  8
0
 10
25.3935
 20
98.1254
 30
0.0
 40
0
 41
0
  0
VERTEX
  8
0
 10
24.9728
 20
97.8265
 30
0.0
 40
0
 41
0
  0
VERTEX
  8
0
 10
24.5665
 20
97.505
 30
0.0
 40
0
 41
0
  0
VERTEX
  8
0
 10
24.2711
 20
97.2496
 30
0.0
 40
0
 41
0
  0
VERTEX
  8
0
 10
24.1757
 20
97.1611
 30
0.0
 40
0
 41
0
  0
VERTEX
  8
0
 10
24.0803
 20
97.0726
 30
0.0
 40
0
 41
0
  0
VERTEX
  8
0
 10
23.8032
 20
96.7975
 30
0.0
 40
0
 41
0
  0
VERTEX
  8
0
 10
23.4517
 20
96.4168
 30
0.0
 40
0
 41
0
  0
VERTEX
  8
0
 10
23.1218
 20
96.0201
 30
0.0
 40
0
 41
0
  0
VERTEX
  8
0
 10
22.8137
 20
95.6082
 30
0.0
 40
0
 41
0
  0
VERTEX
  8
0
 10
22.5281
 20
95.1821
 30
0.0
 40
0
 41
0
  0
VERTEX
  8
0
 10
22.2649
 20
94.7428
 30
0.0
 40
0
 41
0
  0
VERTEX
  8
0
 10
22.025
 20
94.2911
 30
0.0
 40
0
 41
0
  0
VERTEX
  8
0
 10
21.8085
 20
93.8281
 30
0.0
 40
0
 41
0
  0
VERTEX
  8
0
 10
21.6161
 20
93.3546
 30
0.0
 40
0
 41
0
  0
VERTEX
  8
0
 10
21.4479
 20
92.8715
 30
0.0
 40
0
 41
0
  0
VERTEX
  8
0
 10
21.3044
 20
92.38
 30
0.0
 40
0
 41
0
  0
VERTEX
  8
0
 10
21.1863
 20
91.8807
 30
0.0
 40
0
 41
0
  0
VERTEX
  8
0
 10
21.0935
 20
91.3747
 30
0.0
 40
0
 41
0
  0
VERTEX
  8
0
 10
21.0268
 20
90.8631
 30
0.0
 40
0
 41
0
  0
VERTEX
  8
0
 10
20.9865
 20
90.3467
 30
0.0
 40
0
 41
0
  0
VERTEX
  8
0
 10
20.9729
 20
89.9564
 30
0.0
 40
0
 41
0
  0
VERTEX
  8
0
 10
20.9729
 20
89.8261
 30
0.0
 40
0
 41
0
  0
VERTEX
  8
0
 10
20.9729
 20
38.0417
 30
0.0
 40
0
 41
0
  0
VERTEX
  8
0
 10
20.9729
 20
37.9021
 30
0.0
 40
0
 41
0
  0
VERTEX
  8
0
 10
20.9885
 20
37.4833
 30
0.0
 40
0
 41
0
  0
VERTEX
  8
0
 10
21.0349
 20
36.93
 30
0.0
 40
0
 41
0
  0
VERTEX
  8
0
 10
21.1114
 20
36.3825
 30
0.0
 40
0
 41
0
  0
VERTEX
  8
0
 10
21.2178
 20
35.8421
 30
0.0
 40
0
 41
0
  0
VERTEX
  8
0
 10
21.3532
 20
35.31
 30
0.0
 40
0
 41
0
  0
VERTEX
  8
0
 10
21.5174
 20
34.7871
 30
0.0
 40
0
 41
0
  0
VERTEX
  8
0
 10
21.7096
 20
34.2747
 30
0.0
 40
0
 41
0
  0
VERTEX
  8
0
 10
21.9293
 20
33.774
 30
0.0
 40
0
 41
0
  0
VERTEX
  8
0
 10
22.1761
 20
33.286
 30
0.0
 40
0
 41
0
  0
VERTEX
  8
0
 10
22.4493
 20
32.8118
 30
0.0
 40
0
 41
0
  0
VERTEX
  8
0
 10
22.7485
 20
32.3528
 30
0.0
 40
0
 41
0
  0
VERTEX
  8
0
 10
23.0732
 20
31.9099
 30
0.0
 40
0
 41
0
  0
VERTEX
  8
0
 10
23.4228
 20
31.4842
 30
0.0
 40
0
 41
0
  0
VERTEX
  8
0
 10
23.7967
 20
31.0771
 30
0.0
 40
0
 41
0
  0
VERTEX
  8
0
 10
24.1943
 20
30.6894
 30
0.0
 40
0
 41
0
  0
VERTEX
  8
0
 10
24.5075
 20
30.4113
 30
0.0
 40
0
 41
0
  0
VERTEX
  8
0
 10
24.6153
 20
30.3224
 30
0.0
 40
0
 41
0
  0
VERTEX
  8
0
 10
24.7229
 20
30.2338
 30
0.0
 40
0
 41
0
  0
VERTEX
  8
0
 10
25.0561
 20
29.9796
 30
0.0
 40
0
 41
0
  0
VERTEX
  8
0
 10
25.5126
 20
29.6635
 30
0.0
 40
0
 41
0
  0
VERTEX
  8
0
 10
25.9839
 20
29.3744
 30
0.0
 40
0
 41
0
  0
VERTEX
  8
0
 10
26.4686
 20
29.1129
 30
0.0
 40
0
 41
0
  0
VERTEX
  8
0
 10
26.9656
 20
28.8792
 30
0.0
 40
0
 41
0
  0
VERTEX
  8
0
 10
27.4735
 20
28.6733
 30
0.0
 40
0
 41
0
  0
VERTEX
  8
0
 10
27.9911
 20
28.496
 30
0.0
 40
0
 41
0
  0
VERTEX
  8
0
 10
28.5174
 20
28.3472
 30
0.0
 40
0
 41
0
  0
VERTEX
  8
0
 10
29.0508
 20
28.2275
 30
0.0
 40
0
 41
0
  0
VERTEX
  8
0
 10
29.5906
 20
28.1369
 30
0.0
 40
0
 41
0
  0
VERTEX
  8
0
 10
30.1351
 20
28.076
 30
0.0
 40
0
 41
0
  0
VERTEX
  8
0
 10
30.6835
 20
28.045
 30
0.0
 40
0
 41
0
  0
VERTEX
  8
0
 10
31.2343
 20
28.0442
 30
0.0
 40
0
 41
0
  0
VERTEX
  8
0
 10
31.7863
 20
28.0739
 30
0.0
 40
0
 41
0
  0
VERTEX
  8
0
 10
32.3383
 20
28.1344
 30
0.0
 40
0
 41
0
  0
VERTEX
  8
0
 10
32.7522
 20
28.1993
 30
0.0
 40
0
 41
0
  0
VERTEX
  8
0
 10
32.8892
 20
28.226
 30
0.0
 40
0
 41
0
  0
VERTEX
  8
0
 10
68.5158
 20
35.1782
 30
0.0
 40
0
 41
0
  0
SEQEND
 8
0
  0
POLYLINE
  8
0
 62
     0
 66
     1
 10
0
 20
0
 30
0.0
 70
     1
 40
0
 41
0
  0
VERTEX
  8
0
 10
168.769
 20
350.701
 30
0.0
 40
0
 41
0
  0
VERTEX
  8
0
 10
168.835
 20
350.914
 30
0.0
 40
0
 41
0
  0
VERTEX
  8
0
 10
169.007
 20
351.563
 30
0.0
 40
0
 41
0
  0
VERTEX
  8
0
 10
169.193
 20
352.431
 30
0.0
 40
0
 41
0
  0
VERTEX
  8
0
 10
169.325
 20
353.304
 30
0.0
 40
0
 41
0
  0
VERTEX
  8
0
 10
169.407
 20
354.181
 30
0.0
 40
0
 41
0
  0
VERTEX
  8
0
 10
169.438
 20
355.057
 30
0.0
 40
0
 41
0
  0
VERTEX
  8
0
 10
169.417
 20
355.931
 30
0.0
 40
0
 41
0
  0
VERTEX
  8
0
 10
169.344
 20
356.801
 30
0.0
 40
0
 41
0
  0
VERTEX
  8
0
 10
169.224
 20
357.665
 30
0.0
 40
0
 41
0
  0
VERTEX
  8
0
 10
169.051
 20
358.521
 30
0.0
 40
0
 41
0
  0
VERTEX
  8
0
 10
168.831
 20
359.367
 30
0.0
 40
0
 41
0
  0
VERTEX
  8
0
 10
168.561
 20
360.199
 30
0.0
 40
0
 41
0
  0
VERTEX
  8
0
 10
168.243
 20
361.015
 30
0.0
 40
0
 41
0
  0
VERTEX
  8
0
 10
167.876
 20
361.815
 30
0.0
 40
0
 41
0
  0
VERTEX
  8
0
 10
167.461
 20
362.594
 30
0.0
 40
0
 41
0
  0
VERTEX
  8
0
 10
167
 20
363.353
 30
0.0
 40
0
 41
0
  0
VERTEX
  8
0
 10
166.624
 20
363.907
 30
0.0
 40
0
 41
0
  0
VERTEX
  8
0
 10
166.49
 20
364.088
 30
0.0
 40
0
 41
0
  0
VERTEX
  8
0
 10
166.358
 20
364.267
 30
0.0
 40
0
 41
0
  0
VERTEX
  8
0
 10
165.939
 20
364.79
 30
0.0
 40
0
 41
0
  0
VERTEX
  8
0
 10
165.35
 20
365.454
 30
0.0
 40
0
 41
0
  0
VERTEX
  8
0
 10
164.726
 20
366.081
 30
0.0
 40
0
 41
0
  0
VERTEX
  8
0
 10
164.071
 20
366.667
 30
0.0
 40
0
 41
0
  0
VERTEX
  8
0
 10
163.383
 20
367.211
 30
0.0
 40
0
 41
0
  0
VERTEX
  8
0
 10
162.668
 20
367.714
 30
0.0
 40
0
 41
0
  0
VERTEX
  8
0
 10
161.925
 20
368.174
 30
0.0
 40
0
 41
0
  0
VERTEX
  8
0
 10
161.157
 20
368.589
 30
0.0
 40
0
 41
0
  0
VERTEX
  8
0
 10
160.367
 20
368.96
 30
0.0
 40
0
 41
0
  0
VERTEX
  8
0
 10
159.557
 20
369.283
 30
0.0
 40
0
 41
0
  0
VERTEX
  8
0
 10
158.726
 20
369.561
 30
0.0
 40
0
 41
0
  0
VERTEX
  8
0
 10
157.881
 20
369.79
 30
0.0
 40
0
 41
0
  0
VERTEX
  8
0
 10
157.019
 20
369.969
 30
0.0
 40
0
 41
0
  0
VERTEX
  8
0
 10
156.146
 20
370.1
 30
0.0
 40
0
 41
0
  0
VERTEX
  8
0
 10
155.261
 20
370.179
 30
0.0
 40
0
 41
0
  0
VERTEX
  8
0
 10
154.592
 20
370.206
 30
0.0
 40
0
 41
0
  0
VERTEX
  8
0
 10
154.368
 20
370.206
 30
0.0
 40
0
 41
0
  0
VERTEX
  8
0
 10
76.2919
 20
370.206
 30
0.0
 40
0
 41
0
  0
VERTEX
  8
0
 10
76.1033
 20
370.206
 30
0.0
 40
0
 41
0
  0
VERTEX
  8
0
 10
75.5378
 20
370.186
 30
0.0
 40
0
 41
0
  0
VERTEX
  8
0
 10
74.7889
 20
370.129
 30
0.0
 40
0
 41
0
  0
VERTEX
  8
0
 10
74.0464
 20
370.036
 30
0.0
 40
0
 41
0
  0
VERTEX
  8
0
 10
73.3117
 20
369.907
 30
0.0
 40
0
 41
0
  0
VERTEX
  8
0
 10
72.5861
 20
369.742
 30
0.0
 40
0
 41
0
  0
VERTEX
  8
0
 10
71.8706
 20
369.542
 30
0.0
 40
0
 41
0
  0
VERTEX
  8
0
 10
71.1668
 20
369.307
 30
0.0
 40
0
 41
0
  0
VERTEX
  8
0
 10
70.4757
 20
369.037
 30
0.0
 40
0
 41
0
  0
VERTEX
  8
0
 10
69.7989
 20
368.735
 30
0.0
 40
0
 41
0
  0
VERTEX
  8
0
 10
69.1372
 20
368.399
 30
0.0
 40
0
 41
0
  0
VERTEX
  8
0
 10
68.4922
 20
368.029
 30
0.0
 40
0
 41
0
  0
VERTEX
  8
0
 10
67.8651
 20
367.629
 30
0.0
 40
0
 41
0
  0
VERTEX
  8
0
 10
67.2572
 20
367.196
 30
0.0
 40
0
 41
0
  0
VERTEX
  8
0
 10
66.6697
 20
366.733
 30
0.0
 40
0
 41
0
  0
VERTEX
  8
0
 10
66.1039
 20
366.239
 30
0.0
 40
0
 41
0
  0
VERTEX
  8
0
 10
65.6933
 20
365.85
 30
0.0
 40
0
 41
0
  0
VERTEX
  8
0
 10
65.561
 20
365.715
 30
0.0
 40
0
 41
0
  0
VERTEX
  8
0
 10
65.4286
 20
365.581
 30
0.0
 40
0
 41
0
  0
VERTEX
  8
0
 10
65.045
 20
365.165
 30
0.0
 40
0
 41
0
  0
VERTEX
  8
0
 10
64.5593
 20
364.592
 30
0.0
 40
0
 41
0
  0
VERTEX
  8
0
 10
64.1043
 20
363.999
 30
0.0
 40
0
 41
0
  0
VERTEX
  8
0
 10
63.6807
 20
363.385
 30
0.0
 40
0
 41
0
  0
VERTEX
  8
0
 10
63.2888
 20
362.751
 30
0.0
 40
0
 41
0
  0
VERTEX
  8
0
 10
62.9293
 20
362.101
 30
0.0
 40
0
 41
0
  0
VERTEX
  8
0
 10
62.6026
 20
361.435
 30
0.0
 40
0
 41
0
  0
VERTEX
  8
0
 10
62.3093
 20
360.754
 30
0.0
 40
0
 41
0
  0
VERTEX
  8
0
 10
62.0499
 20
360.058
 30
0.0
 40
0
 41
0
  0
VERTEX
  8
0
 10
61.8247
 20
359.351
 30
0.0
 40
0
 41
0
  0
VERTEX
  8
0
 10
61.6344
 20
358.633
 30
0.0
 40
0
 41
0
  0
VERTEX
  8
0
 10
61.4797
 20
357.906
 30
0.0
 40
0
 41
0
  0
VERTEX
  8
0
 10
61.3607
 20
357.169
 30
0.0
 40
0
 41
0
  0
VERTEX
  8
0
 10
61.2782
 20
356.425
 30
0.0
 40
0
 41
0
  0
VERTEX
  8
0
 10
61.2326
 20
355.676
 30
0.0
 40
0
 41
0
  0
VERTEX
  8
0
 10
61.2218
 20
355.11
 30
0.0
 40
0
 41
0
  0
VERTEX
  8
0
 10
61.2246
 20
354.921
 30
0.0
 40
0
 41
0
  0
VERTEX
  8
0
 10
61.8539
 20
310.728
 30
0.0
 40
0
 41
0
  0
VERTEX
  8
0
 10
61.8565
 20
310.543
 30
0.0
 40
0
 41
0
  0
VERTEX
  8
0
 10
61.8826
 20
309.987
 30
0.0
 40
0
 41
0
  0
VERTEX
  8
0
 10
61.9474
 20
309.253
 30
0.0
 40
0
 41
0
  0
VERTEX
  8
0
 10
62.0474
 20
308.525
 30
0.0
 40
0
 41
0
  0
VERTEX
  8
0
 10
62.1825
 20
307.806
 30
0.0
 40
0
 41
0
  0
VERTEX
  8
0
 10
62.3519
 20
307.094
 30
0.0
 40
0
 41
0
  0
VERTEX
  8
0
 10
62.5553
 20
306.393
 30
0.0
 40
0
 41
0
  0
VERTEX
  8
0
 10
62.7922
 20
305.704
 30
0.0
 40
0
 41
0
  0
VERTEX
  8
0
 10
63.0618
 20
305.028
 30
0.0
 40
0
 41
0
  0
VERTEX
  8
0
 10
63.3639
 20
304.364
 30
0.0
 40
0
 41
0
  0
VERTEX
  8
0
 10
63.6978
 20
303.717
 30
0.0
 40
0
 41
0
  0
VERTEX
  8
0
 10
64.0631
 20
303.085
 30
0.0
 40
0
 41
0
  0
VERTEX
  8
0
 10
64.4593
 20
302.471
 30
0.0
 40
0
 41
0
  0
VERTEX
  8
0
 10
64.8857
 20
301.875
 30
0.0
 40
0
 41
0
  0
VERTEX
  8
0
 10
65.3421
 20
301.299
 30
0.0
 40
0
 41
0
  0
VERTEX
  8
0
 10
65.8276
 20
300.744
 30
0.0
 40
0
 41
0
  0
VERTEX
  8
0
 10
66.2103
 20
300.342
 30
0.0
 40
0
 41
0
  0
VERTEX
  8
0
 10
66.3421
 20
300.211
 30
0.0
 40
0
 41
0
  0
VERTEX
  8
0
 10
66.4739
 20
300.082
 30
0.0
 40
0
 41
0
  0
VERTEX
  8
0
 10
66.8821
 20
299.704
 30
0.0
 40
0
 41
0
  0
VERTEX
  8
0
 10
67.4438
 20
299.226
 30
0.0
 40
0
 41
0
  0
VERTEX
  8
0
 10
68.0261
 20
298.779
 30
0.0
 40
0
 41
0
  0
VERTEX
  8
0
 10
68.6278
 20
298.361
 30
0.0
 40
0
 41
0
  0
VERTEX
  8
0
 10
69.2476
 20
297.974
 30
0.0
 40
0
 41
0
  0
VERTEX
  8
0
 10
69.8844
 20
297.617
 30
0.0
 40
0
 41
0
  0
VERTEX
  8
0
 10
70.5371
 20
297.293
 30
0.0
 40
0
 41
0
  0
VERTEX
  8
0
 10
71.2043
 20
297
 30
0.0
 40
0
 41
0
  0
VERTEX
  8
0
 10
71.8847
 20
296.74
 30
0.0
 40
0
 41
0
  0
VERTEX
  8
0
 10
72.5774
 20
296.513
 30
0.0
 40
0
 41
0
  0
VERTEX
  8
0
 10
73.281
 20
296.319
 30
0.0
 40
0
 41
0
  0
VERTEX
  8
0
 10
73.9944
 20
296.16
 30
0.0
 40
0
 41
0
  0
VERTEX
  8
0
 10
74.7162
 20
296.036
 30
0.0
 40
0
 41
0
  0
VERTEX
  8
0
 10
75.4456
 20
295.946
 30
0.0
 40
0
 41
0
  0
VERTEX
  8
0
 10
76.181
 20
295.892
 30
0.0
 40
0
 41
0
  0
VERTEX
  8
0
 10
76.7361
 20
295.874
 30
0.0
 40
0
 41
0
  0
VERTEX
  8
0
 10
76.9213
 20
295.874
 30
0.0
 40
0
 41
0
  0
VERTEX
  8
0
 10
140.758
 20
295.874
 30
0.0
 40
0
 41
0
  0
VERTEX
  8
0
 10
140.91
 20
295.874
 30
0.0
 40
0
 41
0
  0
VERTEX
  8
0
 10
141.362
 20
295.886
 30
0.0
 40
0
 41
0
  0
VERTEX
  8
0
 10
141.962
 20
295.922
 30
0.0
 40
0
 41
0
  0
VERTEX
  8
0
 10
142.56
 20
295.982
 30
0.0
 40
0
 41
0
  0
VERTEX
  8
0
 10
143.153
 20
296.065
 30
0.0
 40
0
 41
0
  0
VERTEX
  8
0
 10
143.74
 20
296.171
 30
0.0
 40
0
 41
0
  0
VERTEX
  8
0
 10
144.324
 20
296.301
 30
0.0
 40
0
 41
0
  0
VERTEX
  8
0
 10
144.9
 20
296.454
 30
0.0
 40
0
 41
0
  0
VERTEX
  8
0
 10
145.471
 20
296.629
 30
0.0
 40
0
 41
0
  0
VERTEX
  8
0
 10
146.033
 20
296.826
 30
0.0
 40
0
 41
0
  0
VERTEX
  8
0
 10
146.589
 20
297.047
 30
0.0
 40
0
 41
0
  0
VERTEX
  8
0
 10
147.135
 20
297.289
 30
0.0
 40
0
 41
0
  0
VERTEX
  8
0
 10
147.671
 20
297.553
 30
0.0
 40
0
 41
0
  0
VERTEX
  8
0
 10
148.197
 20
297.838
 30
0.0
 40
0
 41
0
  0
VERTEX
  8
0
 10
148.714
 20
298.144
 30
0.0
 40
0
 41
0
  0
VERTEX
  8
0
 10
149.218
 20
298.472
 30
0.0
 40
0
 41
0
  0
VERTEX
  8
0
 10
149.589
 20
298.731
 30
0.0
 40
0
 41
0
  0
VERTEX
  8
0
 10
149.71
 20
298.819
 30
0.0
 40
0
 41
0
  0
VERTEX
  8
0
 10
149.831
 20
298.91
 30
0.0
 40
0
 41
0
  0
VERTEX
  8
0
 10
150.188
 20
299.188
 30
0.0
 40
0
 41
0
  0
VERTEX
  8
0
 10
150.65
 20
299.574
 30
0.0
 40
0
 41
0
  0
VERTEX
  8
0
 10
151.094
 20
299.976
 30
0.0
 40
0
 41
0
  0
VERTEX
  8
0
 10
151.522
 20
300.396
 30
0.0
 40
0
 41
0
  0
VERTEX
  8
0
 10
151.932
 20
300.831
 30
0.0
 40
0
 41
0
  0
VERTEX
  8
0
 10
152.324
 20
301.282
 30
0.0
 40
0
 41
0
  0
VERTEX
  8
0
 10
152.697
 20
301.747
 30
0.0
 40
0
 41
0
  0
VERTEX
  8
0
 10
153.051
 20
302.226
 30
0.0
 40
0
 41
0
  0
VERTEX
  8
0
 10
153.388
 20
302.719
 30
0.0
 40
0
 41
0
  0
VERTEX
  8
0
 10
153.703
 20
303.226
 30
0.0
 40
0
 41
0
  0
VERTEX
  8
0
 10
153.999
 20
303.746
 30
0.0
 40
0
 41
0
  0
VERTEX
  8
0
 10
154.274
 20
304.276
 30
0.0
 40
0
 41
0
  0
VERTEX
  8
0
 10
154.528
 20
304.818
 30
0.0
 40
0
 41
0
  0
VERTEX
  8
0
 10
154.76
 20
305.372
 30
0.0
 40
0
 41
0
  0
VERTEX
  8
0
 10
154.971
 20
305.935
 30
0.0
 40
0
 41
0
  0
VERTEX
  8
0
 10
155.117
 20
306.364
 30
0.0
 40
0
 41
0
  0
VERTEX
  8
0
 10
155.16
 20
306.507
 30
0.0
 40
0
 41
0
  0
VERTEX
  8
0
 10
168.769
 20
350.701
 30
0.0
 40
0
 41
0
  0
SEQEND
 8
0
  0
ENDSEC
  0
EOF
