  0
SECTION
  2
HEADER
  9
$ACADVER
  1
AC1009
  9
$EXTMIN
 10
0.0
 20
0.0
 30
0.0
  9
$EXTMAX
 10
1000.0
 20
1000.0
 30
0.0
  9
$FILLMODE
 70
 0
  9
$SPLFRAME
 70
 1
  0
ENDSEC
  0
SECTION
  2
TABLES
  0
TABLE
  2
LAYER
 70
1
  0
LAYER
  2
0
 70
     0
 62
     7
  6
CONTINUOUS
  0
ENDTAB
  0
ENDSEC
  0
SECTION
  2
ENTITIES
  0
POLYLINE
  8
0
 62
     0
 66
     1
 10
0
 20
0
 30
0.0
 70
     1
 40
0
 41
0
  0
VERTEX
  8
0
 10
80.8096
 20
883.356
 30
0.0
 40
0
 41
0
  0
VERTEX
  8
0
 10
81.4387
 20
879.144
 30
0.0
 40
0
 41
0
  0
VERTEX
  8
0
 10
82.0274
 20
874.792
 30
0.0
 40
0
 41
0
  0
VERTEX
  8
0
 10
82.5772
 20
870.307
 30
0.0
 40
0
 41
0
  0
VERTEX
  8
0
 10
83.0907
 20
865.701
 30
0.0
 40
0
 41
0
  0
VERTEX
  8
0
 10
83.5699
 20
860.981
 30
0.0
 40
0
 41
0
  0
VERTEX
  8
0
 10
84.0169
 20
856.157
 30
0.0
 40
0
 41
0
  0
VERTEX
  8
0
 10
84.4342
 20
851.239
 30
0.0
 40
0
 41
0
  0
VERTEX
  8
0
 10
84.8236
 20
846.235
 30
0.0
 40
0
 41
0
  0
VERTEX
  8
0
 10
85.1878
 20
841.156
 30
0.0
 40
0
 41
0
  0
VERTEX
  8
0
 10
85.5285
 20
836.008
 30
0.0
 40
0
 41
0
  0
VERTEX
  8
0
 10
85.8479
 20
830.804
 30
0.0
 40
0
 41
0
  0
VERTEX
  8
0
 10
86.1486
 20
825.553
 30
0.0
 40
0
 41
0
  0
VERTEX
  8
0
 10
86.4324
 20
820.261
 30
0.0
 40
0
 41
0
  0
VERTEX
  8
0
 10
86.7017
 20
814.94
 30
0.0
 40
0
 41
0
  0
VERTEX
  8
0
 10
86.9585
 20
809.599
 30
0.0
 40
0
 41
0
  0
VERTEX
  8
0
 10
87.2051
 20
804.247
 30
0.0
 40
0
 41
0
  0
VERTEX
  8
0
 10
87.4438
 20
798.893
 30
0.0
 40
0
 41
0
  0
VERTEX
  8
0
 10
87.6764
 20
793.546
 30
0.0
 40
0
 41
0
  0
VERTEX
  8
0
 10
87.9056
 20
788.217
 30
0.0
 40
0
 41
0
  0
VERTEX
  8
0
 10
88.1332
 20
782.912
 30
0.0
 40
0
 41
0
  0
VERTEX
  8
0
 10
88.3615
 20
777.644
 30
0.0
 40
0
 41
0
  0
VERTEX
  8
0
 10
88.5928
 20
772.421
 30
0.0
 40
0
 41
0
  0
VERTEX
  8
0
 10
88.8292
 20
767.251
 30
0.0
 40
0
 41
0
  0
VERTEX
  8
0
 10
89.0726
 20
762.144
 30
0.0
 40
0
 41
0
  0
VERTEX
  8
0
 10
89.3258
 20
757.111
 30
0.0
 40
0
 41
0
  0
VERTEX
  8
0
 10
89.5906
 20
752.16
 30
0.0
 40
0
 41
0
  0
VERTEX
  8
0
 10
89.869
 20
747.299
 30
0.0
 40
0
 41
0
  0
VERTEX
  8
0
 10
90.1636
 20
742.537
 30
0.0
 40
0
 41
0
  0
VERTEX
  8
0
 10
90.4764
 20
737.887
 30
0.0
 40
0
 41
0
  0
VERTEX
  8
0
 10
90.8096
 20
733.356
 30
0.0
 40
0
 41
0
  0
VERTEX
  8
0
 10
90.8096
 20
722.386
 30
0.0
 40
0
 41
0
  0
VERTEX
  8
0
 10
90.7904
 20
722.401
 30
0.0
 40
0
 41
0
  0
VERTEX
  8
0
 10
90.7712
 20
722.417
 30
0.0
 40
0
 41
0
  0
VERTEX
  8
0
 10
90.7329
 20
722.446
 30
0.0
 40
0
 41
0
  0
VERTEX
  8
0
 10
90.7139
 20
722.461
 30
0.0
 40
0
 41
0
  0
VERTEX
  8
0
 10
90.6947
 20
722.475
 30
0.0
 40
0
 41
0
  0
VERTEX
  8
0
 10
90.6756
 20
722.49
 30
0.0
 40
0
 41
0
  0
VERTEX
  8
0
 10
90.6564
 20
722.506
 30
0.0
 40
0
 41
0
  0
VERTEX
  8
0
 10
90.6372
 20
722.519
 30
0.0
 40
0
 41
0
  0
VERTEX
  8
0
 10
90.5796
 20
722.564
 30
0.0
 40
0
 41
0
  0
VERTEX
  8
0
 10
90.5411
 20
722.593
 30
0.0
 40
0
 41
0
  0
VERTEX
  8
0
 10
90.5218
 20
722.608
 30
0.0
 40
0
 41
0
  0
VERTEX
  8
0
 10
90.4832
 20
722.636
 30
0.0
 40
0
 41
0
  0
VERTEX
  8
0
 10
90.4444
 20
722.665
 30
0.0
 40
0
 41
0
  0
VERTEX
  8
0
 10
90.425
 20
722.679
 30
0.0
 40
0
 41
0
  0
VERTEX
  8
0
 10
90.4056
 20
722.694
 30
0.0
 40
0
 41
0
  0
VERTEX
  8
0
 10
90.3861
 20
722.708
 30
0.0
 40
0
 41
0
  0
VERTEX
  8
0
 10
90.3665
 20
722.722
 30
0.0
 40
0
 41
0
  0
VERTEX
  8
0
 10
90.3471
 20
722.736
 30
0.0
 40
0
 41
0
  0
VERTEX
  8
0
 10
90.3275
 20
722.75
 30
0.0
 40
0
 41
0
  0
VERTEX
  8
0
 10
90.3079
 20
722.764
 30
0.0
 40
0
 41
0
  0
VERTEX
  8
0
 10
90.2882
 20
722.778
 30
0.0
 40
0
 41
0
  0
VERTEX
  8
0
 10
90.2685
 20
722.792
 30
0.0
 40
0
 41
0
  0
VERTEX
  8
0
 10
90.2488
 20
722.806
 30
0.0
 40
0
 41
0
  0
VERTEX
  8
0
 10
90.229
 20
722.818
 30
0.0
 40
0
 41
0
  0
VERTEX
  8
0
 10
90.2094
 20
722.832
 30
0.0
 40
0
 41
0
  0
VERTEX
  8
0
 10
90.19
 20
722.844
 30
0.0
 40
0
 41
0
  0
VERTEX
  8
0
 10
90.1703
 20
722.858
 30
0.0
 40
0
 41
0
  0
VERTEX
  8
0
 10
90.1507
 20
722.871
 30
0.0
 40
0
 41
0
  0
VERTEX
  8
0
 10
90.131
 20
722.883
 30
0.0
 40
0
 41
0
  0
VERTEX
  8
0
 10
90.1111
 20
722.897
 30
0.0
 40
0
 41
0
  0
VERTEX
  8
0
 10
90.0914
 20
722.91
 30
0.0
 40
0
 41
0
  0
VERTEX
  8
0
 10
90.0714
 20
722.922
 30
0.0
 40
0
 41
0
  0
VERTEX
  8
0
 10
90.0515
 20
722.935
 30
0.0
 40
0
 41
0
  0
VERTEX
  8
0
 10
90.0315
 20
722.946
 30
0.0
 40
0
 41
0
  0
VERTEX
  8
0
 10
90.0114
 20
722.958
 30
0.0
 40
0
 41
0
  0
VERTEX
  8
0
 10
89.9913
 20
722.971
 30
0.0
 40
0
 41
0
  0
VERTEX
  8
0
 10
89.971
 20
722.982
 30
0.0
 40
0
 41
0
  0
VERTEX
  8
0
 10
89.9507
 20
722.994
 30
0.0
 40
0
 41
0
  0
VERTEX
  8
0
 10
89.9303
 20
723.006
 30
0.0
 40
0
 41
0
  0
VERTEX
  8
0
 10
89.9099
 20
723.017
 30
0.0
 40
0
 41
0
  0
VERTEX
  8
0
 10
89.8893
 20
723.028
 30
0.0
 40
0
 41
0
  0
VERTEX
  8
0
 10
89.8686
 20
723.039
 30
0.0
 40
0
 41
0
  0
VERTEX
  8
0
 10
89.8479
 20
723.05
 30
0.0
 40
0
 41
0
  0
VERTEX
  8
0
 10
89.8271
 20
723.061
 30
0.0
 40
0
 41
0
  0
VERTEX
  8
0
 10
89.8061
 20
723.071
 30
0.0
 40
0
 41
0
  0
VERTEX
  8
0
 10
89.7851
 20
723.082
 30
0.0
 40
0
 41
0
  0
VERTEX
  8
0
 10
89.764
 20
723.092
 30
0.0
 40
0
 41
0
  0
VERTEX
  8
0
 10
89.7428
 20
723.101
 30
0.0
 40
0
 41
0
  0
VERTEX
  8
0
 10
89.7214
 20
723.111
 30
0.0
 40
0
 41
0
  0
VERTEX
  8
0
 10
89.7
 20
723.121
 30
0.0
 40
0
 41
0
  0
VERTEX
  8
0
 10
89.6785
 20
723.131
 30
0.0
 40
0
 41
0
  0
VERTEX
  8
0
 10
89.6568
 20
723.139
 30
0.0
 40
0
 41
0
  0
VERTEX
  8
0
 10
89.635
 20
723.149
 30
0.0
 40
0
 41
0
  0
VERTEX
  8
0
 10
89.6131
 20
723.157
 30
0.0
 40
0
 41
0
  0
VERTEX
  8
0
 10
89.591
 20
723.165
 30
0.0
 40
0
 41
0
  0
VERTEX
  8
0
 10
89.5674
 20
723.175
 30
0.0
 40
0
 41
0
  0
VERTEX
  8
0
 10
89.5435
 20
723.183
 30
0.0
 40
0
 41
0
  0
VERTEX
  8
0
 10
89.5194
 20
723.192
 30
0.0
 40
0
 41
0
  0
VERTEX
  8
0
 10
89.4953
 20
723.2
 30
0.0
 40
0
 41
0
  0
VERTEX
  8
0
 10
89.471
 20
723.207
 30
0.0
 40
0
 41
0
  0
VERTEX
  8
0
 10
89.4465
 20
723.215
 30
0.0
 40
0
 41
0
  0
VERTEX
  8
0
 10
89.4221
 20
723.222
 30
0.0
 40
0
 41
0
  0
VERTEX
  8
0
 10
89.3974
 20
723.229
 30
0.0
 40
0
 41
0
  0
VERTEX
  8
0
 10
89.3726
 20
723.236
 30
0.0
 40
0
 41
0
  0
VERTEX
  8
0
 10
89.3478
 20
723.243
 30
0.0
 40
0
 41
0
  0
VERTEX
  8
0
 10
89.3228
 20
723.25
 30
0.0
 40
0
 41
0
  0
VERTEX
  8
0
 10
89.2978
 20
723.256
 30
0.0
 40
0
 41
0
  0
VERTEX
  8
0
 10
89.2726
 20
723.262
 30
0.0
 40
0
 41
0
  0
VERTEX
  8
0
 10
89.2474
 20
723.268
 30
0.0
 40
0
 41
0
  0
VERTEX
  8
0
 10
89.2219
 20
723.274
 30
0.0
 40
0
 41
0
  0
VERTEX
  8
0
 10
89.1967
 20
723.281
 30
0.0
 40
0
 41
0
  0
VERTEX
  8
0
 10
89.1711
 20
723.286
 30
0.0
 40
0
 41
0
  0
VERTEX
  8
0
 10
89.1456
 20
723.292
 30
0.0
 40
0
 41
0
  0
VERTEX
  8
0
 10
89.12
 20
723.296
 30
0.0
 40
0
 41
0
  0
VERTEX
  8
0
 10
89.0943
 20
723.301
 30
0.0
 40
0
 41
0
  0
VERTEX
  8
0
 10
89.0686
 20
723.307
 30
0.0
 40
0
 41
0
  0
VERTEX
  8
0
 10
89.0428
 20
723.313
 30
0.0
 40
0
 41
0
  0
VERTEX
  8
0
 10
89.0169
 20
723.317
 30
0.0
 40
0
 41
0
  0
VERTEX
  8
0
 10
88.9911
 20
723.322
 30
0.0
 40
0
 41
0
  0
VERTEX
  8
0
 10
88.9653
 20
723.326
 30
0.0
 40
0
 41
0
  0
VERTEX
  8
0
 10
88.9393
 20
723.332
 30
0.0
 40
0
 41
0
  0
VERTEX
  8
0
 10
88.9135
 20
723.336
 30
0.0
 40
0
 41
0
  0
VERTEX
  8
0
 10
88.8874
 20
723.342
 30
0.0
 40
0
 41
0
  0
VERTEX
  8
0
 10
88.8615
 20
723.346
 30
0.0
 40
0
 41
0
  0
VERTEX
  8
0
 10
88.8096
 20
723.356
 30
0.0
 40
0
 41
0
  0
VERTEX
  8
0
 10
88.7881
 20
723.354
 30
0.0
 40
0
 41
0
  0
VERTEX
  8
0
 10
88.7453
 20
723.353
 30
0.0
 40
0
 41
0
  0
VERTEX
  8
0
 10
88.7025
 20
723.35
 30
0.0
 40
0
 41
0
  0
VERTEX
  8
0
 10
88.6811
 20
723.349
 30
0.0
 40
0
 41
0
  0
VERTEX
  8
0
 10
88.6597
 20
723.347
 30
0.0
 40
0
 41
0
  0
VERTEX
  8
0
 10
88.6385
 20
723.347
 30
0.0
 40
0
 41
0
  0
VERTEX
  8
0
 10
88.6172
 20
723.346
 30
0.0
 40
0
 41
0
  0
VERTEX
  8
0
 10
88.596
 20
723.344
 30
0.0
 40
0
 41
0
  0
VERTEX
  8
0
 10
88.5747
 20
723.343
 30
0.0
 40
0
 41
0
  0
VERTEX
  8
0
 10
88.5536
 20
723.34
 30
0.0
 40
0
 41
0
  0
VERTEX
  8
0
 10
88.5325
 20
723.339
 30
0.0
 40
0
 41
0
  0
VERTEX
  8
0
 10
88.5114
 20
723.338
 30
0.0
 40
0
 41
0
  0
VERTEX
  8
0
 10
88.4904
 20
723.335
 30
0.0
 40
0
 41
0
  0
VERTEX
  8
0
 10
88.4694
 20
723.333
 30
0.0
 40
0
 41
0
  0
VERTEX
  8
0
 10
88.4486
 20
723.331
 30
0.0
 40
0
 41
0
  0
VERTEX
  8
0
 10
88.4278
 20
723.328
 30
0.0
 40
0
 41
0
  0
VERTEX
  8
0
 10
88.4071
 20
723.325
 30
0.0
 40
0
 41
0
  0
VERTEX
  8
0
 10
88.3864
 20
723.322
 30
0.0
 40
0
 41
0
  0
VERTEX
  8
0
 10
88.3658
 20
723.319
 30
0.0
 40
0
 41
0
  0
VERTEX
  8
0
 10
88.3454
 20
723.317
 30
0.0
 40
0
 41
0
  0
VERTEX
  8
0
 10
88.325
 20
723.313
 30
0.0
 40
0
 41
0
  0
VERTEX
  8
0
 10
88.3047
 20
723.31
 30
0.0
 40
0
 41
0
  0
VERTEX
  8
0
 10
88.2844
 20
723.306
 30
0.0
 40
0
 41
0
  0
VERTEX
  8
0
 10
88.2644
 20
723.301
 30
0.0
 40
0
 41
0
  0
VERTEX
  8
0
 10
88.2444
 20
723.297
 30
0.0
 40
0
 41
0
  0
VERTEX
  8
0
 10
88.2244
 20
723.292
 30
0.0
 40
0
 41
0
  0
VERTEX
  8
0
 10
88.2047
 20
723.287
 30
0.0
 40
0
 41
0
  0
VERTEX
  8
0
 10
88.1851
 20
723.282
 30
0.0
 40
0
 41
0
  0
VERTEX
  8
0
 10
88.1671
 20
723.276
 30
0.0
 40
0
 41
0
  0
VERTEX
  8
0
 10
88.1493
 20
723.271
 30
0.0
 40
0
 41
0
  0
VERTEX
  8
0
 10
88.1314
 20
723.265
 30
0.0
 40
0
 41
0
  0
VERTEX
  8
0
 10
88.1137
 20
723.26
 30
0.0
 40
0
 41
0
  0
VERTEX
  8
0
 10
88.0963
 20
723.253
 30
0.0
 40
0
 41
0
  0
VERTEX
  8
0
 10
88.0787
 20
723.247
 30
0.0
 40
0
 41
0
  0
VERTEX
  8
0
 10
88.0614
 20
723.24
 30
0.0
 40
0
 41
0
  0
VERTEX
  8
0
 10
88.0442
 20
723.233
 30
0.0
 40
0
 41
0
  0
VERTEX
  8
0
 10
88.0269
 20
723.226
 30
0.0
 40
0
 41
0
  0
VERTEX
  8
0
 10
88.0099
 20
723.219
 30
0.0
 40
0
 41
0
  0
VERTEX
  8
0
 10
87.9929
 20
723.213
 30
0.0
 40
0
 41
0
  0
VERTEX
  8
0
 10
87.9761
 20
723.204
 30
0.0
 40
0
 41
0
  0
VERTEX
  8
0
 10
87.9593
 20
723.196
 30
0.0
 40
0
 41
0
  0
VERTEX
  8
0
 10
87.9428
 20
723.189
 30
0.0
 40
0
 41
0
  0
VERTEX
  8
0
 10
87.9261
 20
723.181
 30
0.0
 40
0
 41
0
  0
VERTEX
  8
0
 10
87.9097
 20
723.172
 30
0.0
 40
0
 41
0
  0
VERTEX
  8
0
 10
87.8933
 20
723.164
 30
0.0
 40
0
 41
0
  0
VERTEX
  8
0
 10
87.8771
 20
723.154
 30
0.0
 40
0
 41
0
  0
VERTEX
  8
0
 10
87.861
 20
723.146
 30
0.0
 40
0
 41
0
  0
VERTEX
  8
0
 10
87.845
 20
723.136
 30
0.0
 40
0
 41
0
  0
VERTEX
  8
0
 10
87.829
 20
723.126
 30
0.0
 40
0
 41
0
  0
VERTEX
  8
0
 10
87.8132
 20
723.118
 30
0.0
 40
0
 41
0
  0
VERTEX
  8
0
 10
87.7975
 20
723.108
 30
0.0
 40
0
 41
0
  0
VERTEX
  8
0
 10
87.7819
 20
723.099
 30
0.0
 40
0
 41
0
  0
VERTEX
  8
0
 10
87.7664
 20
723.089
 30
0.0
 40
0
 41
0
  0
VERTEX
  8
0
 10
87.751
 20
723.078
 30
0.0
 40
0
 41
0
  0
VERTEX
  8
0
 10
87.7356
 20
723.068
 30
0.0
 40
0
 41
0
  0
VERTEX
  8
0
 10
87.7204
 20
723.057
 30
0.0
 40
0
 41
0
  0
VERTEX
  8
0
 10
87.7053
 20
723.047
 30
0.0
 40
0
 41
0
  0
VERTEX
  8
0
 10
87.6903
 20
723.036
 30
0.0
 40
0
 41
0
  0
VERTEX
  8
0
 10
87.6743
 20
723.025
 30
0.0
 40
0
 41
0
  0
VERTEX
  8
0
 10
87.6585
 20
723.014
 30
0.0
 40
0
 41
0
  0
VERTEX
  8
0
 10
87.6426
 20
723.001
 30
0.0
 40
0
 41
0
  0
VERTEX
  8
0
 10
87.6269
 20
722.99
 30
0.0
 40
0
 41
0
  0
VERTEX
  8
0
 10
87.6114
 20
722.978
 30
0.0
 40
0
 41
0
  0
VERTEX
  8
0
 10
87.596
 20
722.965
 30
0.0
 40
0
 41
0
  0
VERTEX
  8
0
 10
87.5806
 20
722.953
 30
0.0
 40
0
 41
0
  0
VERTEX
  8
0
 10
87.5653
 20
722.94
 30
0.0
 40
0
 41
0
  0
VERTEX
  8
0
 10
87.5501
 20
722.928
 30
0.0
 40
0
 41
0
  0
VERTEX
  8
0
 10
87.535
 20
722.914
 30
0.0
 40
0
 41
0
  0
VERTEX
  8
0
 10
87.5199
 20
722.901
 30
0.0
 40
0
 41
0
  0
VERTEX
  8
0
 10
87.5047
 20
722.887
 30
0.0
 40
0
 41
0
  0
VERTEX
  8
0
 10
87.4899
 20
722.874
 30
0.0
 40
0
 41
0
  0
VERTEX
  8
0
 10
87.4749
 20
722.86
 30
0.0
 40
0
 41
0
  0
VERTEX
  8
0
 10
87.4599
 20
722.846
 30
0.0
 40
0
 41
0
  0
VERTEX
  8
0
 10
87.445
 20
722.832
 30
0.0
 40
0
 41
0
  0
VERTEX
  8
0
 10
87.4301
 20
722.817
 30
0.0
 40
0
 41
0
  0
VERTEX
  8
0
 10
87.4153
 20
722.801
 30
0.0
 40
0
 41
0
  0
VERTEX
  8
0
 10
87.4004
 20
722.786
 30
0.0
 40
0
 41
0
  0
VERTEX
  8
0
 10
87.3857
 20
722.771
 30
0.0
 40
0
 41
0
  0
VERTEX
  8
0
 10
87.3708
 20
722.754
 30
0.0
 40
0
 41
0
  0
VERTEX
  8
0
 10
87.356
 20
722.739
 30
0.0
 40
0
 41
0
  0
VERTEX
  8
0
 10
87.3411
 20
722.722
 30
0.0
 40
0
 41
0
  0
VERTEX
  8
0
 10
87.3263
 20
722.706
 30
0.0
 40
0
 41
0
  0
VERTEX
  8
0
 10
87.3114
 20
722.688
 30
0.0
 40
0
 41
0
  0
VERTEX
  8
0
 10
87.2964
 20
722.671
 30
0.0
 40
0
 41
0
  0
VERTEX
  8
0
 10
87.2815
 20
722.653
 30
0.0
 40
0
 41
0
  0
VERTEX
  8
0
 10
87.2664
 20
722.635
 30
0.0
 40
0
 41
0
  0
VERTEX
  8
0
 10
87.2514
 20
722.615
 30
0.0
 40
0
 41
0
  0
VERTEX
  8
0
 10
87.2362
 20
722.597
 30
0.0
 40
0
 41
0
  0
VERTEX
  8
0
 10
87.2211
 20
722.578
 30
0.0
 40
0
 41
0
  0
VERTEX
  8
0
 10
87.1993
 20
722.549
 30
0.0
 40
0
 41
0
  0
VERTEX
  8
0
 10
87.1774
 20
722.519
 30
0.0
 40
0
 41
0
  0
VERTEX
  8
0
 10
87.1553
 20
722.49
 30
0.0
 40
0
 41
0
  0
VERTEX
  8
0
 10
87.1329
 20
722.458
 30
0.0
 40
0
 41
0
  0
VERTEX
  8
0
 10
87.1106
 20
722.428
 30
0.0
 40
0
 41
0
  0
VERTEX
  8
0
 10
87.0882
 20
722.394
 30
0.0
 40
0
 41
0
  0
VERTEX
  8
0
 10
87.0656
 20
722.363
 30
0.0
 40
0
 41
0
  0
VERTEX
  8
0
 10
87.0429
 20
722.328
 30
0.0
 40
0
 41
0
  0
VERTEX
  8
0
 10
87.0203
 20
722.294
 30
0.0
 40
0
 41
0
  0
VERTEX
  8
0
 10
86.9975
 20
722.26
 30
0.0
 40
0
 41
0
  0
VERTEX
  8
0
 10
86.9747
 20
722.224
 30
0.0
 40
0
 41
0
  0
VERTEX
  8
0
 10
86.9519
 20
722.188
 30
0.0
 40
0
 41
0
  0
VERTEX
  8
0
 10
86.929
 20
722.151
 30
0.0
 40
0
 41
0
  0
VERTEX
  8
0
 10
86.9063
 20
722.114
 30
0.0
 40
0
 41
0
  0
VERTEX
  8
0
 10
86.8835
 20
722.078
 30
0.0
 40
0
 41
0
  0
VERTEX
  8
0
 10
86.8606
 20
722.039
 30
0.0
 40
0
 41
0
  0
VERTEX
  8
0
 10
86.8379
 20
722.001
 30
0.0
 40
0
 41
0
  0
VERTEX
  8
0
 10
86.8153
 20
721.963
 30
0.0
 40
0
 41
0
  0
VERTEX
  8
0
 10
86.7926
 20
721.924
 30
0.0
 40
0
 41
0
  0
VERTEX
  8
0
 10
86.77
 20
721.885
 30
0.0
 40
0
 41
0
  0
VERTEX
  8
0
 10
86.7476
 20
721.846
 30
0.0
 40
0
 41
0
  0
VERTEX
  8
0
 10
86.7253
 20
721.806
 30
0.0
 40
0
 41
0
  0
VERTEX
  8
0
 10
86.7031
 20
721.767
 30
0.0
 40
0
 41
0
  0
VERTEX
  8
0
 10
86.681
 20
721.726
 30
0.0
 40
0
 41
0
  0
VERTEX
  8
0
 10
86.659
 20
721.686
 30
0.0
 40
0
 41
0
  0
VERTEX
  8
0
 10
86.6374
 20
721.646
 30
0.0
 40
0
 41
0
  0
VERTEX
  8
0
 10
86.6157
 20
721.606
 30
0.0
 40
0
 41
0
  0
VERTEX
  8
0
 10
86.5943
 20
721.565
 30
0.0
 40
0
 41
0
  0
VERTEX
  8
0
 10
86.5732
 20
721.525
 30
0.0
 40
0
 41
0
  0
VERTEX
  8
0
 10
86.5521
 20
721.485
 30
0.0
 40
0
 41
0
  0
VERTEX
  8
0
 10
86.5314
 20
721.444
 30
0.0
 40
0
 41
0
  0
VERTEX
  8
0
 10
86.5103
 20
721.404
 30
0.0
 40
0
 41
0
  0
VERTEX
  8
0
 10
86.4894
 20
721.363
 30
0.0
 40
0
 41
0
  0
VERTEX
  8
0
 10
86.469
 20
721.321
 30
0.0
 40
0
 41
0
  0
VERTEX
  8
0
 10
86.4486
 20
721.281
 30
0.0
 40
0
 41
0
  0
VERTEX
  8
0
 10
86.4286
 20
721.24
 30
0.0
 40
0
 41
0
  0
VERTEX
  8
0
 10
86.4088
 20
721.199
 30
0.0
 40
0
 41
0
  0
VERTEX
  8
0
 10
86.3892
 20
721.158
 30
0.0
 40
0
 41
0
  0
VERTEX
  8
0
 10
86.3697
 20
721.117
 30
0.0
 40
0
 41
0
  0
VERTEX
  8
0
 10
86.3506
 20
721.076
 30
0.0
 40
0
 41
0
  0
VERTEX
  8
0
 10
86.3315
 20
721.036
 30
0.0
 40
0
 41
0
  0
VERTEX
  8
0
 10
86.3126
 20
720.994
 30
0.0
 40
0
 41
0
  0
VERTEX
  8
0
 10
86.294
 20
720.954
 30
0.0
 40
0
 41
0
  0
VERTEX
  8
0
 10
86.2756
 20
720.914
 30
0.0
 40
0
 41
0
  0
VERTEX
  8
0
 10
86.2571
 20
720.872
 30
0.0
 40
0
 41
0
  0
VERTEX
  8
0
 10
86.2389
 20
720.832
 30
0.0
 40
0
 41
0
  0
VERTEX
  8
0
 10
86.2207
 20
720.79
 30
0.0
 40
0
 41
0
  0
VERTEX
  8
0
 10
86.2028
 20
720.749
 30
0.0
 40
0
 41
0
  0
VERTEX
  8
0
 10
86.1849
 20
720.707
 30
0.0
 40
0
 41
0
  0
VERTEX
  8
0
 10
86.1671
 20
720.667
 30
0.0
 40
0
 41
0
  0
VERTEX
  8
0
 10
86.1493
 20
720.625
 30
0.0
 40
0
 41
0
  0
VERTEX
  8
0
 10
86.1317
 20
720.582
 30
0.0
 40
0
 41
0
  0
VERTEX
  8
0
 10
86.1142
 20
720.54
 30
0.0
 40
0
 41
0
  0
VERTEX
  8
0
 10
86.0967
 20
720.499
 30
0.0
 40
0
 41
0
  0
VERTEX
  8
0
 10
86.0792
 20
720.456
 30
0.0
 40
0
 41
0
  0
VERTEX
  8
0
 10
86.0618
 20
720.412
 30
0.0
 40
0
 41
0
  0
VERTEX
  8
0
 10
86.0443
 20
720.369
 30
0.0
 40
0
 41
0
  0
VERTEX
  8
0
 10
86.0268
 20
720.326
 30
0.0
 40
0
 41
0
  0
VERTEX
  8
0
 10
86.0094
 20
720.282
 30
0.0
 40
0
 41
0
  0
VERTEX
  8
0
 10
85.9921
 20
720.239
 30
0.0
 40
0
 41
0
  0
VERTEX
  8
0
 10
85.9746
 20
720.194
 30
0.0
 40
0
 41
0
  0
VERTEX
  8
0
 10
85.9571
 20
720.15
 30
0.0
 40
0
 41
0
  0
VERTEX
  8
0
 10
85.9361
 20
720.096
 30
0.0
 40
0
 41
0
  0
VERTEX
  8
0
 10
85.9151
 20
720.042
 30
0.0
 40
0
 41
0
  0
VERTEX
  8
0
 10
85.894
 20
719.986
 30
0.0
 40
0
 41
0
  0
VERTEX
  8
0
 10
85.8729
 20
719.931
 30
0.0
 40
0
 41
0
  0
VERTEX
  8
0
 10
85.8517
 20
719.875
 30
0.0
 40
0
 41
0
  0
VERTEX
  8
0
 10
85.8304
 20
719.818
 30
0.0
 40
0
 41
0
  0
VERTEX
  8
0
 10
85.809
 20
719.761
 30
0.0
 40
0
 41
0
  0
VERTEX
  8
0
 10
85.7876
 20
719.704
 30
0.0
 40
0
 41
0
  0
VERTEX
  8
0
 10
85.7664
 20
719.646
 30
0.0
 40
0
 41
0
  0
VERTEX
  8
0
 10
85.7449
 20
719.588
 30
0.0
 40
0
 41
0
  0
VERTEX
  8
0
 10
85.7233
 20
719.528
 30
0.0
 40
0
 41
0
  0
VERTEX
  8
0
 10
85.7019
 20
719.468
 30
0.0
 40
0
 41
0
  0
VERTEX
  8
0
 10
85.6803
 20
719.408
 30
0.0
 40
0
 41
0
  0
VERTEX
  8
0
 10
85.6588
 20
719.347
 30
0.0
 40
0
 41
0
  0
VERTEX
  8
0
 10
85.6372
 20
719.286
 30
0.0
 40
0
 41
0
  0
VERTEX
  8
0
 10
85.6156
 20
719.225
 30
0.0
 40
0
 41
0
  0
VERTEX
  8
0
 10
85.594
 20
719.162
 30
0.0
 40
0
 41
0
  0
VERTEX
  8
0
 10
85.5725
 20
719.1
 30
0.0
 40
0
 41
0
  0
VERTEX
  8
0
 10
85.5508
 20
719.037
 30
0.0
 40
0
 41
0
  0
VERTEX
  8
0
 10
85.5293
 20
718.974
 30
0.0
 40
0
 41
0
  0
VERTEX
  8
0
 10
85.5078
 20
718.91
 30
0.0
 40
0
 41
0
  0
VERTEX
  8
0
 10
85.4862
 20
718.846
 30
0.0
 40
0
 41
0
  0
VERTEX
  8
0
 10
85.4647
 20
718.782
 30
0.0
 40
0
 41
0
  0
VERTEX
  8
0
 10
85.4433
 20
718.717
 30
0.0
 40
0
 41
0
  0
VERTEX
  8
0
 10
85.4219
 20
718.65
 30
0.0
 40
0
 41
0
  0
VERTEX
  8
0
 10
85.4006
 20
718.585
 30
0.0
 40
0
 41
0
  0
VERTEX
  8
0
 10
85.3792
 20
718.518
 30
0.0
 40
0
 41
0
  0
VERTEX
  8
0
 10
85.3579
 20
718.451
 30
0.0
 40
0
 41
0
  0
VERTEX
  8
0
 10
85.3367
 20
718.383
 30
0.0
 40
0
 41
0
  0
VERTEX
  8
0
 10
85.3156
 20
718.317
 30
0.0
 40
0
 41
0
  0
VERTEX
  8
0
 10
85.2944
 20
718.249
 30
0.0
 40
0
 41
0
  0
VERTEX
  8
0
 10
85.2681
 20
718.162
 30
0.0
 40
0
 41
0
  0
VERTEX
  8
0
 10
85.2419
 20
718.076
 30
0.0
 40
0
 41
0
  0
VERTEX
  8
0
 10
85.2158
 20
717.989
 30
0.0
 40
0
 41
0
  0
VERTEX
  8
0
 10
85.1899
 20
717.901
 30
0.0
 40
0
 41
0
  0
VERTEX
  8
0
 10
85.164
 20
717.813
 30
0.0
 40
0
 41
0
  0
VERTEX
  8
0
 10
85.1383
 20
717.724
 30
0.0
 40
0
 41
0
  0
VERTEX
  8
0
 10
85.1126
 20
717.635
 30
0.0
 40
0
 41
0
  0
VERTEX
  8
0
 10
85.0871
 20
717.544
 30
0.0
 40
0
 41
0
  0
VERTEX
  8
0
 10
85.0617
 20
717.454
 30
0.0
 40
0
 41
0
  0
VERTEX
  8
0
 10
85.0364
 20
717.363
 30
0.0
 40
0
 41
0
  0
VERTEX
  8
0
 10
85.0111
 20
717.271
 30
0.0
 40
0
 41
0
  0
VERTEX
  8
0
 10
84.9861
 20
717.178
 30
0.0
 40
0
 41
0
  0
VERTEX
  8
0
 10
84.9611
 20
717.085
 30
0.0
 40
0
 41
0
  0
VERTEX
  8
0
 10
84.9361
 20
716.992
 30
0.0
 40
0
 41
0
  0
VERTEX
  8
0
 10
84.9112
 20
716.897
 30
0.0
 40
0
 41
0
  0
VERTEX
  8
0
 10
84.8865
 20
716.801
 30
0.0
 40
0
 41
0
  0
VERTEX
  8
0
 10
84.8618
 20
716.706
 30
0.0
 40
0
 41
0
  0
VERTEX
  8
0
 10
84.8372
 20
716.61
 30
0.0
 40
0
 41
0
  0
VERTEX
  8
0
 10
84.8126
 20
716.512
 30
0.0
 40
0
 41
0
  0
VERTEX
  8
0
 10
84.7882
 20
716.415
 30
0.0
 40
0
 41
0
  0
VERTEX
  8
0
 10
84.7639
 20
716.317
 30
0.0
 40
0
 41
0
  0
VERTEX
  8
0
 10
84.7396
 20
716.218
 30
0.0
 40
0
 41
0
  0
VERTEX
  8
0
 10
84.7153
 20
716.118
 30
0.0
 40
0
 41
0
  0
VERTEX
  8
0
 10
84.6911
 20
716.018
 30
0.0
 40
0
 41
0
  0
VERTEX
  8
0
 10
84.6671
 20
715.917
 30
0.0
 40
0
 41
0
  0
VERTEX
  8
0
 10
84.6429
 20
715.815
 30
0.0
 40
0
 41
0
  0
VERTEX
  8
0
 10
84.619
 20
715.714
 30
0.0
 40
0
 41
0
  0
VERTEX
  8
0
 10
84.595
 20
715.611
 30
0.0
 40
0
 41
0
  0
VERTEX
  8
0
 10
84.5711
 20
715.507
 30
0.0
 40
0
 41
0
  0
VERTEX
  8
0
 10
84.5474
 20
715.403
 30
0.0
 40
0
 41
0
  0
VERTEX
  8
0
 10
84.5235
 20
715.299
 30
0.0
 40
0
 41
0
  0
VERTEX
  8
0
 10
84.4958
 20
715.175
 30
0.0
 40
0
 41
0
  0
VERTEX
  8
0
 10
84.4682
 20
715.051
 30
0.0
 40
0
 41
0
  0
VERTEX
  8
0
 10
84.4407
 20
714.928
 30
0.0
 40
0
 41
0
  0
VERTEX
  8
0
 10
84.4133
 20
714.803
 30
0.0
 40
0
 41
0
  0
VERTEX
  8
0
 10
84.386
 20
714.676
 30
0.0
 40
0
 41
0
  0
VERTEX
  8
0
 10
84.3586
 20
714.549
 30
0.0
 40
0
 41
0
  0
VERTEX
  8
0
 10
84.3314
 20
714.421
 30
0.0
 40
0
 41
0
  0
VERTEX
  8
0
 10
84.304
 20
714.292
 30
0.0
 40
0
 41
0
  0
VERTEX
  8
0
 10
84.2769
 20
714.161
 30
0.0
 40
0
 41
0
  0
VERTEX
  8
0
 10
84.2497
 20
714.031
 30
0.0
 40
0
 41
0
  0
VERTEX
  8
0
 10
84.2228
 20
713.9
 30
0.0
 40
0
 41
0
  0
VERTEX
  8
0
 10
84.1957
 20
713.767
 30
0.0
 40
0
 41
0
  0
VERTEX
  8
0
 10
84.1689
 20
713.633
 30
0.0
 40
0
 41
0
  0
VERTEX
  8
0
 10
84.1419
 20
713.499
 30
0.0
 40
0
 41
0
  0
VERTEX
  8
0
 10
84.1151
 20
713.364
 30
0.0
 40
0
 41
0
  0
VERTEX
  8
0
 10
84.0883
 20
713.228
 30
0.0
 40
0
 41
0
  0
VERTEX
  8
0
 10
84.0617
 20
713.09
 30
0.0
 40
0
 41
0
  0
VERTEX
  8
0
 10
84.035
 20
712.953
 30
0.0
 40
0
 41
0
  0
VERTEX
  8
0
 10
84.0085
 20
712.814
 30
0.0
 40
0
 41
0
  0
VERTEX
  8
0
 10
83.9819
 20
712.674
 30
0.0
 40
0
 41
0
  0
VERTEX
  8
0
 10
83.9554
 20
712.533
 30
0.0
 40
0
 41
0
  0
VERTEX
  8
0
 10
83.929
 20
712.392
 30
0.0
 40
0
 41
0
  0
VERTEX
  8
0
 10
83.9028
 20
712.25
 30
0.0
 40
0
 41
0
  0
VERTEX
  8
0
 10
83.8764
 20
712.106
 30
0.0
 40
0
 41
0
  0
VERTEX
  8
0
 10
83.8501
 20
711.963
 30
0.0
 40
0
 41
0
  0
VERTEX
  8
0
 10
83.824
 20
711.817
 30
0.0
 40
0
 41
0
  0
VERTEX
  8
0
 10
83.7979
 20
711.671
 30
0.0
 40
0
 41
0
  0
VERTEX
  8
0
 10
83.7718
 20
711.524
 30
0.0
 40
0
 41
0
  0
VERTEX
  8
0
 10
83.7458
 20
711.376
 30
0.0
 40
0
 41
0
  0
VERTEX
  8
0
 10
83.72
 20
711.228
 30
0.0
 40
0
 41
0
  0
VERTEX
  8
0
 10
83.6885
 20
711.046
 30
0.0
 40
0
 41
0
  0
VERTEX
  8
0
 10
83.6572
 20
710.863
 30
0.0
 40
0
 41
0
  0
VERTEX
  8
0
 10
83.626
 20
710.678
 30
0.0
 40
0
 41
0
  0
VERTEX
  8
0
 10
83.5947
 20
710.492
 30
0.0
 40
0
 41
0
  0
VERTEX
  8
0
 10
83.5637
 20
710.306
 30
0.0
 40
0
 41
0
  0
VERTEX
  8
0
 10
83.5328
 20
710.117
 30
0.0
 40
0
 41
0
  0
VERTEX
  8
0
 10
83.5019
 20
709.926
 30
0.0
 40
0
 41
0
  0
VERTEX
  8
0
 10
83.4711
 20
709.736
 30
0.0
 40
0
 41
0
  0
VERTEX
  8
0
 10
83.4404
 20
709.544
 30
0.0
 40
0
 41
0
  0
VERTEX
  8
0
 10
83.4099
 20
709.35
 30
0.0
 40
0
 41
0
  0
VERTEX
  8
0
 10
83.3793
 20
709.156
 30
0.0
 40
0
 41
0
  0
VERTEX
  8
0
 10
83.349
 20
708.96
 30
0.0
 40
0
 41
0
  0
VERTEX
  8
0
 10
83.3188
 20
708.761
 30
0.0
 40
0
 41
0
  0
VERTEX
  8
0
 10
83.2885
 20
708.563
 30
0.0
 40
0
 41
0
  0
VERTEX
  8
0
 10
83.2583
 20
708.363
 30
0.0
 40
0
 41
0
  0
VERTEX
  8
0
 10
83.2285
 20
708.162
 30
0.0
 40
0
 41
0
  0
VERTEX
  8
0
 10
83.1985
 20
707.96
 30
0.0
 40
0
 41
0
  0
VERTEX
  8
0
 10
83.1687
 20
707.756
 30
0.0
 40
0
 41
0
  0
VERTEX
  8
0
 10
83.139
 20
707.55
 30
0.0
 40
0
 41
0
  0
VERTEX
  8
0
 10
83.1094
 20
707.344
 30
0.0
 40
0
 41
0
  0
VERTEX
  8
0
 10
83.08
 20
707.136
 30
0.0
 40
0
 41
0
  0
VERTEX
  8
0
 10
83.0507
 20
706.928
 30
0.0
 40
0
 41
0
  0
VERTEX
  8
0
 10
83.0214
 20
706.718
 30
0.0
 40
0
 41
0
  0
VERTEX
  8
0
 10
82.9924
 20
706.507
 30
0.0
 40
0
 41
0
  0
VERTEX
  8
0
 10
82.9633
 20
706.294
 30
0.0
 40
0
 41
0
  0
VERTEX
  8
0
 10
82.9344
 20
706.081
 30
0.0
 40
0
 41
0
  0
VERTEX
  8
0
 10
82.9056
 20
705.865
 30
0.0
 40
0
 41
0
  0
VERTEX
  8
0
 10
82.8769
 20
705.65
 30
0.0
 40
0
 41
0
  0
VERTEX
  8
0
 10
82.8485
 20
705.432
 30
0.0
 40
0
 41
0
  0
VERTEX
  8
0
 10
82.82
 20
705.214
 30
0.0
 40
0
 41
0
  0
VERTEX
  8
0
 10
82.7917
 20
704.994
 30
0.0
 40
0
 41
0
  0
VERTEX
  8
0
 10
82.7575
 20
704.725
 30
0.0
 40
0
 41
0
  0
VERTEX
  8
0
 10
82.7235
 20
704.456
 30
0.0
 40
0
 41
0
  0
VERTEX
  8
0
 10
82.6896
 20
704.183
 30
0.0
 40
0
 41
0
  0
VERTEX
  8
0
 10
82.6558
 20
703.91
 30
0.0
 40
0
 41
0
  0
VERTEX
  8
0
 10
82.6224
 20
703.633
 30
0.0
 40
0
 41
0
  0
VERTEX
  8
0
 10
82.589
 20
703.356
 30
0.0
 40
0
 41
0
  0
VERTEX
  8
0
 10
82.5558
 20
703.076
 30
0.0
 40
0
 41
0
  0
VERTEX
  8
0
 10
82.5229
 20
702.796
 30
0.0
 40
0
 41
0
  0
VERTEX
  8
0
 10
82.4901
 20
702.512
 30
0.0
 40
0
 41
0
  0
VERTEX
  8
0
 10
82.4574
 20
702.226
 30
0.0
 40
0
 41
0
  0
VERTEX
  8
0
 10
82.4249
 20
701.939
 30
0.0
 40
0
 41
0
  0
VERTEX
  8
0
 10
82.3925
 20
701.65
 30
0.0
 40
0
 41
0
  0
VERTEX
  8
0
 10
82.3604
 20
701.36
 30
0.0
 40
0
 41
0
  0
VERTEX
  8
0
 10
82.3283
 20
701.067
 30
0.0
 40
0
 41
0
  0
VERTEX
  8
0
 10
82.2964
 20
700.771
 30
0.0
 40
0
 41
0
  0
VERTEX
  8
0
 10
82.2647
 20
700.474
 30
0.0
 40
0
 41
0
  0
VERTEX
  8
0
 10
82.2331
 20
700.174
 30
0.0
 40
0
 41
0
  0
VERTEX
  8
0
 10
82.2017
 20
699.872
 30
0.0
 40
0
 41
0
  0
VERTEX
  8
0
 10
82.1704
 20
699.568
 30
0.0
 40
0
 41
0
  0
VERTEX
  8
0
 10
82.1392
 20
699.262
 30
0.0
 40
0
 41
0
  0
VERTEX
  8
0
 10
82.1082
 20
698.954
 30
0.0
 40
0
 41
0
  0
VERTEX
  8
0
 10
82.0772
 20
698.644
 30
0.0
 40
0
 41
0
  0
VERTEX
  8
0
 10
82.0465
 20
698.332
 30
0.0
 40
0
 41
0
  0
VERTEX
  8
0
 10
82.0158
 20
698.017
 30
0.0
 40
0
 41
0
  0
VERTEX
  8
0
 10
81.9854
 20
697.699
 30
0.0
 40
0
 41
0
  0
VERTEX
  8
0
 10
81.955
 20
697.379
 30
0.0
 40
0
 41
0
  0
VERTEX
  8
0
 10
81.9247
 20
697.058
 30
0.0
 40
0
 41
0
  0
VERTEX
  8
0
 10
81.8946
 20
696.733
 30
0.0
 40
0
 41
0
  0
VERTEX
  8
0
 10
81.8646
 20
696.407
 30
0.0
 40
0
 41
0
  0
VERTEX
  8
0
 10
81.8347
 20
696.078
 30
0.0
 40
0
 41
0
  0
VERTEX
  8
0
 10
81.805
 20
695.747
 30
0.0
 40
0
 41
0
  0
VERTEX
  8
0
 10
81.7674
 20
695.322
 30
0.0
 40
0
 41
0
  0
VERTEX
  8
0
 10
81.7297
 20
694.893
 30
0.0
 40
0
 41
0
  0
VERTEX
  8
0
 10
81.6925
 20
694.46
 30
0.0
 40
0
 41
0
  0
VERTEX
  8
0
 10
81.6553
 20
694.024
 30
0.0
 40
0
 41
0
  0
VERTEX
  8
0
 10
81.6183
 20
693.583
 30
0.0
 40
0
 41
0
  0
VERTEX
  8
0
 10
81.5817
 20
693.14
 30
0.0
 40
0
 41
0
  0
VERTEX
  8
0
 10
81.545
 20
692.693
 30
0.0
 40
0
 41
0
  0
VERTEX
  8
0
 10
81.5086
 20
692.243
 30
0.0
 40
0
 41
0
  0
VERTEX
  8
0
 10
81.4725
 20
691.789
 30
0.0
 40
0
 41
0
  0
VERTEX
  8
0
 10
81.4365
 20
691.333
 30
0.0
 40
0
 41
0
  0
VERTEX
  8
0
 10
81.4007
 20
690.874
 30
0.0
 40
0
 41
0
  0
VERTEX
  8
0
 10
81.3651
 20
690.412
 30
0.0
 40
0
 41
0
  0
VERTEX
  8
0
 10
81.3297
 20
689.949
 30
0.0
 40
0
 41
0
  0
VERTEX
  8
0
 10
81.2944
 20
689.481
 30
0.0
 40
0
 41
0
  0
VERTEX
  8
0
 10
81.2596
 20
689.012
 30
0.0
 40
0
 41
0
  0
VERTEX
  8
0
 10
81.2247
 20
688.54
 30
0.0
 40
0
 41
0
  0
VERTEX
  8
0
 10
81.1903
 20
688.067
 30
0.0
 40
0
 41
0
  0
VERTEX
  8
0
 10
81.156
 20
687.592
 30
0.0
 40
0
 41
0
  0
VERTEX
  8
0
 10
81.1218
 20
687.115
 30
0.0
 40
0
 41
0
  0
VERTEX
  8
0
 10
81.0879
 20
686.636
 30
0.0
 40
0
 41
0
  0
VERTEX
  8
0
 10
81.0543
 20
686.156
 30
0.0
 40
0
 41
0
  0
VERTEX
  8
0
 10
81.0208
 20
685.674
 30
0.0
 40
0
 41
0
  0
VERTEX
  8
0
 10
80.9876
 20
685.192
 30
0.0
 40
0
 41
0
  0
VERTEX
  8
0
 10
80.9546
 20
684.707
 30
0.0
 40
0
 41
0
  0
VERTEX
  8
0
 10
80.9219
 20
684.222
 30
0.0
 40
0
 41
0
  0
VERTEX
  8
0
 10
80.8894
 20
683.736
 30
0.0
 40
0
 41
0
  0
VERTEX
  8
0
 10
80.8571
 20
683.249
 30
0.0
 40
0
 41
0
  0
VERTEX
  8
0
 10
80.8251
 20
682.761
 30
0.0
 40
0
 41
0
  0
VERTEX
  8
0
 10
80.7933
 20
682.274
 30
0.0
 40
0
 41
0
  0
VERTEX
  8
0
 10
80.7618
 20
681.786
 30
0.0
 40
0
 41
0
  0
VERTEX
  8
0
 10
80.7306
 20
681.297
 30
0.0
 40
0
 41
0
  0
VERTEX
  8
0
 10
80.6949
 20
680.733
 30
0.0
 40
0
 41
0
  0
VERTEX
  8
0
 10
80.6594
 20
680.169
 30
0.0
 40
0
 41
0
  0
VERTEX
  8
0
 10
80.6243
 20
679.604
 30
0.0
 40
0
 41
0
  0
VERTEX
  8
0
 10
80.5894
 20
679.037
 30
0.0
 40
0
 41
0
  0
VERTEX
  8
0
 10
80.5549
 20
678.468
 30
0.0
 40
0
 41
0
  0
VERTEX
  8
0
 10
80.5204
 20
677.896
 30
0.0
 40
0
 41
0
  0
VERTEX
  8
0
 10
80.4864
 20
677.321
 30
0.0
 40
0
 41
0
  0
VERTEX
  8
0
 10
80.4524
 20
676.74
 30
0.0
 40
0
 41
0
  0
VERTEX
  8
0
 10
80.4186
 20
676.156
 30
0.0
 40
0
 41
0
  0
VERTEX
  8
0
 10
80.3851
 20
675.567
 30
0.0
 40
0
 41
0
  0
VERTEX
  8
0
 10
80.3517
 20
674.971
 30
0.0
 40
0
 41
0
  0
VERTEX
  8
0
 10
80.3183
 20
674.369
 30
0.0
 40
0
 41
0
  0
VERTEX
  8
0
 10
80.2851
 20
673.761
 30
0.0
 40
0
 41
0
  0
VERTEX
  8
0
 10
80.2521
 20
673.146
 30
0.0
 40
0
 41
0
  0
VERTEX
  8
0
 10
80.219
 20
672.522
 30
0.0
 40
0
 41
0
  0
VERTEX
  8
0
 10
80.186
 20
671.89
 30
0.0
 40
0
 41
0
  0
VERTEX
  8
0
 10
80.1531
 20
671.249
 30
0.0
 40
0
 41
0
  0
VERTEX
  8
0
 10
80.1201
 20
670.599
 30
0.0
 40
0
 41
0
  0
VERTEX
  8
0
 10
80.0874
 20
669.938
 30
0.0
 40
0
 41
0
  0
VERTEX
  8
0
 10
80.0543
 20
669.267
 30
0.0
 40
0
 41
0
  0
VERTEX
  8
0
 10
80.0214
 20
668.583
 30
0.0
 40
0
 41
0
  0
VERTEX
  8
0
 10
79.9883
 20
667.889
 30
0.0
 40
0
 41
0
  0
VERTEX
  8
0
 10
79.9551
 20
667.182
 30
0.0
 40
0
 41
0
  0
VERTEX
  8
0
 10
79.9219
 20
666.463
 30
0.0
 40
0
 41
0
  0
VERTEX
  8
0
 10
79.8886
 20
665.728
 30
0.0
 40
0
 41
0
  0
VERTEX
  8
0
 10
79.8551
 20
664.981
 30
0.0
 40
0
 41
0
  0
VERTEX
  8
0
 10
79.8215
 20
664.219
 30
0.0
 40
0
 41
0
  0
VERTEX
  8
0
 10
79.7878
 20
663.442
 30
0.0
 40
0
 41
0
  0
VERTEX
  8
0
 10
79.7538
 20
662.649
 30
0.0
 40
0
 41
0
  0
VERTEX
  8
0
 10
79.7196
 20
661.839
 30
0.0
 40
0
 41
0
  0
VERTEX
  8
0
 10
79.6583
 20
660.36
 30
0.0
 40
0
 41
0
  0
VERTEX
  8
0
 10
79.5963
 20
658.825
 30
0.0
 40
0
 41
0
  0
VERTEX
  8
0
 10
79.5333
 20
657.236
 30
0.0
 40
0
 41
0
  0
VERTEX
  8
0
 10
79.4697
 20
655.596
 30
0.0
 40
0
 41
0
  0
VERTEX
  8
0
 10
79.4054
 20
653.906
 30
0.0
 40
0
 41
0
  0
VERTEX
  8
0
 10
79.3403
 20
652.168
 30
0.0
 40
0
 41
0
  0
VERTEX
  8
0
 10
79.2746
 20
650.385
 30
0.0
 40
0
 41
0
  0
VERTEX
  8
0
 10
79.2083
 20
648.557
 30
0.0
 40
0
 41
0
  0
VERTEX
  8
0
 10
79.1414
 20
646.689
 30
0.0
 40
0
 41
0
  0
VERTEX
  8
0
 10
79.0739
 20
644.782
 30
0.0
 40
0
 41
0
  0
VERTEX
  8
0
 10
79.0058
 20
642.839
 30
0.0
 40
0
 41
0
  0
VERTEX
  8
0
 10
78.9374
 20
640.86
 30
0.0
 40
0
 41
0
  0
VERTEX
  8
0
 10
78.8683
 20
638.849
 30
0.0
 40
0
 41
0
  0
VERTEX
  8
0
 10
78.7989
 20
636.807
 30
0.0
 40
0
 41
0
  0
VERTEX
  8
0
 10
78.7292
 20
634.738
 30
0.0
 40
0
 41
0
  0
VERTEX
  8
0
 10
78.659
 20
632.642
 30
0.0
 40
0
 41
0
  0
VERTEX
  8
0
 10
78.5885
 20
630.521
 30
0.0
 40
0
 41
0
  0
VERTEX
  8
0
 10
78.5176
 20
628.379
 30
0.0
 40
0
 41
0
  0
VERTEX
  8
0
 10
78.4464
 20
626.218
 30
0.0
 40
0
 41
0
  0
VERTEX
  8
0
 10
78.3751
 20
624.039
 30
0.0
 40
0
 41
0
  0
VERTEX
  8
0
 10
78.3036
 20
621.844
 30
0.0
 40
0
 41
0
  0
VERTEX
  8
0
 10
78.2318
 20
619.637
 30
0.0
 40
0
 41
0
  0
VERTEX
  8
0
 10
78.1599
 20
617.419
 30
0.0
 40
0
 41
0
  0
VERTEX
  8
0
 10
78.0879
 20
615.192
 30
0.0
 40
0
 41
0
  0
VERTEX
  8
0
 10
78.0158
 20
612.957
 30
0.0
 40
0
 41
0
  0
VERTEX
  8
0
 10
77.9438
 20
610.719
 30
0.0
 40
0
 41
0
  0
VERTEX
  8
0
 10
77.8715
 20
608.478
 30
0.0
 40
0
 41
0
  0
VERTEX
  8
0
 10
77.7993
 20
606.236
 30
0.0
 40
0
 41
0
  0
VERTEX
  8
0
 10
77.7272
 20
603.997
 30
0.0
 40
0
 41
0
  0
VERTEX
  8
0
 10
77.6553
 20
601.761
 30
0.0
 40
0
 41
0
  0
VERTEX
  8
0
 10
77.5833
 20
599.532
 30
0.0
 40
0
 41
0
  0
VERTEX
  8
0
 10
77.5065
 20
597.156
 30
0.0
 40
0
 41
0
  0
VERTEX
  8
0
 10
77.43
 20
594.79
 30
0.0
 40
0
 41
0
  0
VERTEX
  8
0
 10
77.3536
 20
592.438
 30
0.0
 40
0
 41
0
  0
VERTEX
  8
0
 10
77.2774
 20
590.096
 30
0.0
 40
0
 41
0
  0
VERTEX
  8
0
 10
77.2014
 20
587.765
 30
0.0
 40
0
 41
0
  0
VERTEX
  8
0
 10
77.1256
 20
585.446
 30
0.0
 40
0
 41
0
  0
VERTEX
  8
0
 10
77.0499
 20
583.135
 30
0.0
 40
0
 41
0
  0
VERTEX
  8
0
 10
76.9743
 20
580.835
 30
0.0
 40
0
 41
0
  0
VERTEX
  8
0
 10
76.8989
 20
578.544
 30
0.0
 40
0
 41
0
  0
VERTEX
  8
0
 10
76.8238
 20
576.262
 30
0.0
 40
0
 41
0
  0
VERTEX
  8
0
 10
76.7486
 20
573.989
 30
0.0
 40
0
 41
0
  0
VERTEX
  8
0
 10
76.6737
 20
571.724
 30
0.0
 40
0
 41
0
  0
VERTEX
  8
0
 10
76.5989
 20
569.465
 30
0.0
 40
0
 41
0
  0
VERTEX
  8
0
 10
76.5242
 20
567.215
 30
0.0
 40
0
 41
0
  0
VERTEX
  8
0
 10
76.4497
 20
564.972
 30
0.0
 40
0
 41
0
  0
VERTEX
  8
0
 10
76.3751
 20
562.735
 30
0.0
 40
0
 41
0
  0
VERTEX
  8
0
 10
76.3008
 20
560.504
 30
0.0
 40
0
 41
0
  0
VERTEX
  8
0
 10
76.2265
 20
558.279
 30
0.0
 40
0
 41
0
  0
VERTEX
  8
0
 10
76.1524
 20
556.058
 30
0.0
 40
0
 41
0
  0
VERTEX
  8
0
 10
76.0782
 20
553.843
 30
0.0
 40
0
 41
0
  0
VERTEX
  8
0
 10
76.0042
 20
551.633
 30
0.0
 40
0
 41
0
  0
VERTEX
  8
0
 10
75.9303
 20
549.426
 30
0.0
 40
0
 41
0
  0
VERTEX
  8
0
 10
75.8564
 20
547.224
 30
0.0
 40
0
 41
0
  0
VERTEX
  8
0
 10
75.7825
 20
545.024
 30
0.0
 40
0
 41
0
  0
VERTEX
  8
0
 10
75.7087
 20
542.826
 30
0.0
 40
0
 41
0
  0
VERTEX
  8
0
 10
75.635
 20
540.632
 30
0.0
 40
0
 41
0
  0
VERTEX
  8
0
 10
75.5613
 20
538.439
 30
0.0
 40
0
 41
0
  0
VERTEX
  8
0
 10
75.4875
 20
536.249
 30
0.0
 40
0
 41
0
  0
VERTEX
  8
0
 10
75.4139
 20
534.06
 30
0.0
 40
0
 41
0
  0
VERTEX
  8
0
 10
75.3403
 20
531.871
 30
0.0
 40
0
 41
0
  0
VERTEX
  8
0
 10
75.2665
 20
529.682
 30
0.0
 40
0
 41
0
  0
VERTEX
  8
0
 10
75.2343
 20
528.94
 30
0.0
 40
0
 41
0
  0
VERTEX
  8
0
 10
75.2021
 20
528.199
 30
0.0
 40
0
 41
0
  0
VERTEX
  8
0
 10
75.1699
 20
527.457
 30
0.0
 40
0
 41
0
  0
VERTEX
  8
0
 10
75.1374
 20
526.714
 30
0.0
 40
0
 41
0
  0
VERTEX
  8
0
 10
75.1049
 20
525.971
 30
0.0
 40
0
 41
0
  0
VERTEX
  8
0
 10
75.0724
 20
525.229
 30
0.0
 40
0
 41
0
  0
VERTEX
  8
0
 10
75.0394
 20
524.485
 30
0.0
 40
0
 41
0
  0
VERTEX
  8
0
 10
75.0065
 20
523.742
 30
0.0
 40
0
 41
0
  0
VERTEX
  8
0
 10
74.9733
 20
522.996
 30
0.0
 40
0
 41
0
  0
VERTEX
  8
0
 10
74.9399
 20
522.251
 30
0.0
 40
0
 41
0
  0
VERTEX
  8
0
 10
74.9061
 20
521.504
 30
0.0
 40
0
 41
0
  0
VERTEX
  8
0
 10
74.8721
 20
520.757
 30
0.0
 40
0
 41
0
  0
VERTEX
  8
0
 10
74.8378
 20
520.01
 30
0.0
 40
0
 41
0
  0
VERTEX
  8
0
 10
74.8031
 20
519.26
 30
0.0
 40
0
 41
0
  0
VERTEX
  8
0
 10
74.7679
 20
518.51
 30
0.0
 40
0
 41
0
  0
VERTEX
  8
0
 10
74.7324
 20
517.758
 30
0.0
 40
0
 41
0
  0
VERTEX
  8
0
 10
74.6964
 20
517.006
 30
0.0
 40
0
 41
0
  0
VERTEX
  8
0
 10
74.66
 20
516.251
 30
0.0
 40
0
 41
0
  0
VERTEX
  8
0
 10
74.6231
 20
515.496
 30
0.0
 40
0
 41
0
  0
VERTEX
  8
0
 10
74.5856
 20
514.738
 30
0.0
 40
0
 41
0
  0
VERTEX
  8
0
 10
74.5476
 20
513.979
 30
0.0
 40
0
 41
0
  0
VERTEX
  8
0
 10
74.509
 20
513.218
 30
0.0
 40
0
 41
0
  0
VERTEX
  8
0
 10
74.4697
 20
512.456
 30
0.0
 40
0
 41
0
  0
VERTEX
  8
0
 10
74.43
 20
511.692
 30
0.0
 40
0
 41
0
  0
VERTEX
  8
0
 10
74.3894
 20
510.925
 30
0.0
 40
0
 41
0
  0
VERTEX
  8
0
 10
74.3483
 20
510.157
 30
0.0
 40
0
 41
0
  0
VERTEX
  8
0
 10
74.3064
 20
509.386
 30
0.0
 40
0
 41
0
  0
VERTEX
  8
0
 10
74.2638
 20
508.614
 30
0.0
 40
0
 41
0
  0
VERTEX
  8
0
 10
74.2203
 20
507.839
 30
0.0
 40
0
 41
0
  0
VERTEX
  8
0
 10
74.1761
 20
507.061
 30
0.0
 40
0
 41
0
  0
VERTEX
  8
0
 10
74.1321
 20
506.299
 30
0.0
 40
0
 41
0
  0
VERTEX
  8
0
 10
74.0874
 20
505.536
 30
0.0
 40
0
 41
0
  0
VERTEX
  8
0
 10
74.0419
 20
504.769
 30
0.0
 40
0
 41
0
  0
VERTEX
  8
0
 10
73.9957
 20
504.004
 30
0.0
 40
0
 41
0
  0
VERTEX
  8
0
 10
73.9488
 20
503.236
 30
0.0
 40
0
 41
0
  0
VERTEX
  8
0
 10
73.9011
 20
502.468
 30
0.0
 40
0
 41
0
  0
VERTEX
  8
0
 10
73.8529
 20
501.7
 30
0.0
 40
0
 41
0
  0
VERTEX
  8
0
 10
73.804
 20
500.933
 30
0.0
 40
0
 41
0
  0
VERTEX
  8
0
 10
73.7547
 20
500.167
 30
0.0
 40
0
 41
0
  0
VERTEX
  8
0
 10
73.7047
 20
499.401
 30
0.0
 40
0
 41
0
  0
VERTEX
  8
0
 10
73.6542
 20
498.637
 30
0.0
 40
0
 41
0
  0
VERTEX
  8
0
 10
73.6031
 20
497.875
 30
0.0
 40
0
 41
0
  0
VERTEX
  8
0
 10
73.5515
 20
497.117
 30
0.0
 40
0
 41
0
  0
VERTEX
  8
0
 10
73.4994
 20
496.36
 30
0.0
 40
0
 41
0
  0
VERTEX
  8
0
 10
73.4471
 20
495.606
 30
0.0
 40
0
 41
0
  0
VERTEX
  8
0
 10
73.3942
 20
494.856
 30
0.0
 40
0
 41
0
  0
VERTEX
  8
0
 10
73.3408
 20
494.108
 30
0.0
 40
0
 41
0
  0
VERTEX
  8
0
 10
73.2872
 20
493.367
 30
0.0
 40
0
 41
0
  0
VERTEX
  8
0
 10
73.2332
 20
492.629
 30
0.0
 40
0
 41
0
  0
VERTEX
  8
0
 10
73.1789
 20
491.897
 30
0.0
 40
0
 41
0
  0
VERTEX
  8
0
 10
73.1243
 20
491.171
 30
0.0
 40
0
 41
0
  0
VERTEX
  8
0
 10
73.0694
 20
490.45
 30
0.0
 40
0
 41
0
  0
VERTEX
  8
0
 10
73.0142
 20
489.735
 30
0.0
 40
0
 41
0
  0
VERTEX
  8
0
 10
72.9589
 20
489.026
 30
0.0
 40
0
 41
0
  0
VERTEX
  8
0
 10
72.9033
 20
488.325
 30
0.0
 40
0
 41
0
  0
VERTEX
  8
0
 10
72.8475
 20
487.632
 30
0.0
 40
0
 41
0
  0
VERTEX
  8
0
 10
72.7917
 20
486.946
 30
0.0
 40
0
 41
0
  0
VERTEX
  8
0
 10
72.7357
 20
486.268
 30
0.0
 40
0
 41
0
  0
VERTEX
  8
0
 10
72.6796
 20
485.599
 30
0.0
 40
0
 41
0
  0
VERTEX
  8
0
 10
72.6233
 20
484.939
 30
0.0
 40
0
 41
0
  0
VERTEX
  8
0
 10
72.5843
 20
484.485
 30
0.0
 40
0
 41
0
  0
VERTEX
  8
0
 10
72.5451
 20
484.036
 30
0.0
 40
0
 41
0
  0
VERTEX
  8
0
 10
72.506
 20
483.592
 30
0.0
 40
0
 41
0
  0
VERTEX
  8
0
 10
72.4669
 20
483.153
 30
0.0
 40
0
 41
0
  0
VERTEX
  8
0
 10
72.4279
 20
482.718
 30
0.0
 40
0
 41
0
  0
VERTEX
  8
0
 10
72.389
 20
482.29
 30
0.0
 40
0
 41
0
  0
VERTEX
  8
0
 10
72.3501
 20
481.867
 30
0.0
 40
0
 41
0
  0
VERTEX
  8
0
 10
72.3115
 20
481.45
 30
0.0
 40
0
 41
0
  0
VERTEX
  8
0
 10
72.2731
 20
481.037
 30
0.0
 40
0
 41
0
  0
VERTEX
  8
0
 10
72.2349
 20
480.633
 30
0.0
 40
0
 41
0
  0
VERTEX
  8
0
 10
72.1967
 20
480.233
 30
0.0
 40
0
 41
0
  0
VERTEX
  8
0
 10
72.159
 20
479.84
 30
0.0
 40
0
 41
0
  0
VERTEX
  8
0
 10
72.1215
 20
479.454
 30
0.0
 40
0
 41
0
  0
VERTEX
  8
0
 10
72.0843
 20
479.075
 30
0.0
 40
0
 41
0
  0
VERTEX
  8
0
 10
72.0474
 20
478.703
 30
0.0
 40
0
 41
0
  0
VERTEX
  8
0
 10
72.011
 20
478.338
 30
0.0
 40
0
 41
0
  0
VERTEX
  8
0
 10
71.9749
 20
477.981
 30
0.0
 40
0
 41
0
  0
VERTEX
  8
0
 10
71.9392
 20
477.629
 30
0.0
 40
0
 41
0
  0
VERTEX
  8
0
 10
71.904
 20
477.286
 30
0.0
 40
0
 41
0
  0
VERTEX
  8
0
 10
71.8692
 20
476.951
 30
0.0
 40
0
 41
0
  0
VERTEX
  8
0
 10
71.835
 20
476.625
 30
0.0
 40
0
 41
0
  0
VERTEX
  8
0
 10
71.8012
 20
476.307
 30
0.0
 40
0
 41
0
  0
VERTEX
  8
0
 10
71.7681
 20
475.996
 30
0.0
 40
0
 41
0
  0
VERTEX
  8
0
 10
71.7356
 20
475.694
 30
0.0
 40
0
 41
0
  0
VERTEX
  8
0
 10
71.7036
 20
475.401
 30
0.0
 40
0
 41
0
  0
VERTEX
  8
0
 10
71.6722
 20
475.117
 30
0.0
 40
0
 41
0
  0
VERTEX
  8
0
 10
71.6417
 20
474.842
 30
0.0
 40
0
 41
0
  0
VERTEX
  8
0
 10
71.6117
 20
474.576
 30
0.0
 40
0
 41
0
  0
VERTEX
  8
0
 10
71.5824
 20
474.319
 30
0.0
 40
0
 41
0
  0
VERTEX
  8
0
 10
71.554
 20
474.072
 30
0.0
 40
0
 41
0
  0
VERTEX
  8
0
 10
71.5263
 20
473.836
 30
0.0
 40
0
 41
0
  0
VERTEX
  8
0
 10
71.5125
 20
473.719
 30
0.0
 40
0
 41
0
  0
VERTEX
  8
0
 10
71.4989
 20
473.606
 30
0.0
 40
0
 41
0
  0
VERTEX
  8
0
 10
71.4856
 20
473.493
 30
0.0
 40
0
 41
0
  0
VERTEX
  8
0
 10
71.4724
 20
473.385
 30
0.0
 40
0
 41
0
  0
VERTEX
  8
0
 10
71.4593
 20
473.278
 30
0.0
 40
0
 41
0
  0
VERTEX
  8
0
 10
71.4467
 20
473.172
 30
0.0
 40
0
 41
0
  0
VERTEX
  8
0
 10
71.434
 20
473.071
 30
0.0
 40
0
 41
0
  0
VERTEX
  8
0
 10
71.4215
 20
472.969
 30
0.0
 40
0
 41
0
  0
VERTEX
  8
0
 10
71.4092
 20
472.872
 30
0.0
 40
0
 41
0
  0
VERTEX
  8
0
 10
71.3971
 20
472.775
 30
0.0
 40
0
 41
0
  0
VERTEX
  8
0
 10
71.3851
 20
472.681
 30
0.0
 40
0
 41
0
  0
VERTEX
  8
0
 10
71.3733
 20
472.588
 30
0.0
 40
0
 41
0
  0
VERTEX
  8
0
 10
71.3615
 20
472.496
 30
0.0
 40
0
 41
0
  0
VERTEX
  8
0
 10
71.35
 20
472.407
 30
0.0
 40
0
 41
0
  0
VERTEX
  8
0
 10
71.3386
 20
472.318
 30
0.0
 40
0
 41
0
  0
VERTEX
  8
0
 10
71.3271
 20
472.232
 30
0.0
 40
0
 41
0
  0
VERTEX
  8
0
 10
71.316
 20
472.146
 30
0.0
 40
0
 41
0
  0
VERTEX
  8
0
 10
71.3049
 20
472.063
 30
0.0
 40
0
 41
0
  0
VERTEX
  8
0
 10
71.2937
 20
471.979
 30
0.0
 40
0
 41
0
  0
VERTEX
  8
0
 10
71.2828
 20
471.897
 30
0.0
 40
0
 41
0
  0
VERTEX
  8
0
 10
71.2718
 20
471.815
 30
0.0
 40
0
 41
0
  0
VERTEX
  8
0
 10
71.2611
 20
471.735
 30
0.0
 40
0
 41
0
  0
VERTEX
  8
0
 10
71.2503
 20
471.656
 30
0.0
 40
0
 41
0
  0
VERTEX
  8
0
 10
71.2396
 20
471.576
 30
0.0
 40
0
 41
0
  0
VERTEX
  8
0
 10
71.2289
 20
471.499
 30
0.0
 40
0
 41
0
  0
VERTEX
  8
0
 10
71.2183
 20
471.421
 30
0.0
 40
0
 41
0
  0
VERTEX
  8
0
 10
71.2078
 20
471.343
 30
0.0
 40
0
 41
0
  0
VERTEX
  8
0
 10
71.1972
 20
471.267
 30
0.0
 40
0
 41
0
  0
VERTEX
  8
0
 10
71.1867
 20
471.19
 30
0.0
 40
0
 41
0
  0
VERTEX
  8
0
 10
71.1761
 20
471.113
 30
0.0
 40
0
 41
0
  0
VERTEX
  8
0
 10
71.1657
 20
471.036
 30
0.0
 40
0
 41
0
  0
VERTEX
  8
0
 10
71.1611
 20
470.971
 30
0.0
 40
0
 41
0
  0
VERTEX
  8
0
 10
76.1611
 20
470.971
 30
0.0
 40
0
 41
0
  0
VERTEX
  8
0
 10
76.1611
 20
466.971
 30
0.0
 40
0
 41
0
  0
VERTEX
  8
0
 10
71.1611
 20
464.356
 30
0.0
 40
0
 41
0
  0
VERTEX
  8
0
 10
0.809517
 20
464.356
 30
0.0
 40
0
 41
0
  0
VERTEX
  8
0
 10
0.809517
 20
752.178
 30
0.0
 40
0
 41
0
  0
VERTEX
  8
0
 10
0.830458
 20
757.69
 30
0.0
 40
0
 41
0
  0
VERTEX
  8
0
 10
0.866536
 20
763.183
 30
0.0
 40
0
 41
0
  0
VERTEX
  8
0
 10
0.921007
 20
768.654
 30
0.0
 40
0
 41
0
  0
VERTEX
  8
0
 10
0.996907
 20
774.099
 30
0.0
 40
0
 41
0
  0
VERTEX
  8
0
 10
1.09744
 20
779.512
 30
0.0
 40
0
 41
0
  0
VERTEX
  8
0
 10
1.22575
 20
784.892
 30
0.0
 40
0
 41
0
  0
VERTEX
  8
0
 10
1.38493
 20
790.232
 30
0.0
 40
0
 41
0
  0
VERTEX
  8
0
 10
1.57818
 20
795.529
 30
0.0
 40
0
 41
0
  0
VERTEX
  8
0
 10
1.8086
 20
800.781
 30
0.0
 40
0
 41
0
  0
VERTEX
  8
0
 10
2.07937
 20
805.982
 30
0.0
 40
0
 41
0
  0
VERTEX
  8
0
 10
2.39361
 20
811.129
 30
0.0
 40
0
 41
0
  0
VERTEX
  8
0
 10
2.7545
 20
816.218
 30
0.0
 40
0
 41
0
  0
VERTEX
  8
0
 10
3.16521
 20
821.244
 30
0.0
 40
0
 41
0
  0
VERTEX
  8
0
 10
3.62879
 20
826.204
 30
0.0
 40
0
 41
0
  0
VERTEX
  8
0
 10
4.14844
 20
831.094
 30
0.0
 40
0
 41
0
  0
VERTEX
  8
0
 10
4.72726
 20
835.911
 30
0.0
 40
0
 41
0
  0
VERTEX
  8
0
 10
5.36849
 20
840.65
 30
0.0
 40
0
 41
0
  0
VERTEX
  8
0
 10
6.07519
 20
845.306
 30
0.0
 40
0
 41
0
  0
VERTEX
  8
0
 10
6.85058
 20
849.876
 30
0.0
 40
0
 41
0
  0
VERTEX
  8
0
 10
7.69769
 20
854.357
 30
0.0
 40
0
 41
0
  0
VERTEX
  8
0
 10
8.61979
 20
858.744
 30
0.0
 40
0
 41
0
  0
VERTEX
  8
0
 10
9.61996
 20
863.033
 30
0.0
 40
0
 41
0
  0
VERTEX
  8
0
 10
10.7013
 20
867.221
 30
0.0
 40
0
 41
0
  0
VERTEX
  8
0
 10
11.8671
 20
871.303
 30
0.0
 40
0
 41
0
  0
VERTEX
  8
0
 10
13.1204
 20
875.275
 30
0.0
 40
0
 41
0
  0
VERTEX
  8
0
 10
14.4643
 20
879.133
 30
0.0
 40
0
 41
0
  0
VERTEX
  8
0
 10
15.9021
 20
882.875
 30
0.0
 40
0
 41
0
  0
VERTEX
  8
0
 10
17.4367
 20
886.496
 30
0.0
 40
0
 41
0
  0
VERTEX
  8
0
 10
19.0715
 20
889.99
 30
0.0
 40
0
 41
0
  0
VERTEX
  8
0
 10
20.8096
 20
893.356
 30
0.0
 40
0
 41
0
  0
VERTEX
  8
0
 10
21.0399
 20
893.749
 30
0.0
 40
0
 41
0
  0
VERTEX
  8
0
 10
21.2704
 20
894.143
 30
0.0
 40
0
 41
0
  0
VERTEX
  8
0
 10
21.5014
 20
894.536
 30
0.0
 40
0
 41
0
  0
VERTEX
  8
0
 10
21.7328
 20
894.931
 30
0.0
 40
0
 41
0
  0
VERTEX
  8
0
 10
21.965
 20
895.324
 30
0.0
 40
0
 41
0
  0
VERTEX
  8
0
 10
22.1981
 20
895.718
 30
0.0
 40
0
 41
0
  0
VERTEX
  8
0
 10
22.4321
 20
896.111
 30
0.0
 40
0
 41
0
  0
VERTEX
  8
0
 10
22.6674
 20
896.506
 30
0.0
 40
0
 41
0
  0
VERTEX
  8
0
 10
22.9042
 20
896.899
 30
0.0
 40
0
 41
0
  0
VERTEX
  8
0
 10
23.1424
 20
897.293
 30
0.0
 40
0
 41
0
  0
VERTEX
  8
0
 10
23.3825
 20
897.686
 30
0.0
 40
0
 41
0
  0
VERTEX
  8
0
 10
23.6244
 20
898.081
 30
0.0
 40
0
 41
0
  0
VERTEX
  8
0
 10
23.8686
 20
898.474
 30
0.0
 40
0
 41
0
  0
VERTEX
  8
0
 10
24.115
 20
898.868
 30
0.0
 40
0
 41
0
  0
VERTEX
  8
0
 10
24.3639
 20
899.261
 30
0.0
 40
0
 41
0
  0
VERTEX
  8
0
 10
24.6154
 20
899.656
 30
0.0
 40
0
 41
0
  0
VERTEX
  8
0
 10
24.8697
 20
900.049
 30
0.0
 40
0
 41
0
  0
VERTEX
  8
0
 10
25.1269
 20
900.443
 30
0.0
 40
0
 41
0
  0
VERTEX
  8
0
 10
25.3875
 20
900.836
 30
0.0
 40
0
 41
0
  0
VERTEX
  8
0
 10
25.6513
 20
901.231
 30
0.0
 40
0
 41
0
  0
VERTEX
  8
0
 10
25.9186
 20
901.624
 30
0.0
 40
0
 41
0
  0
VERTEX
  8
0
 10
26.1897
 20
902.018
 30
0.0
 40
0
 41
0
  0
VERTEX
  8
0
 10
26.4646
 20
902.411
 30
0.0
 40
0
 41
0
  0
VERTEX
  8
0
 10
26.7436
 20
902.806
 30
0.0
 40
0
 41
0
  0
VERTEX
  8
0
 10
27.0267
 20
903.199
 30
0.0
 40
0
 41
0
  0
VERTEX
  8
0
 10
27.3143
 20
903.593
 30
0.0
 40
0
 41
0
  0
VERTEX
  8
0
 10
27.6064
 20
903.986
 30
0.0
 40
0
 41
0
  0
VERTEX
  8
0
 10
27.9033
 20
904.381
 30
0.0
 40
0
 41
0
  0
VERTEX
  8
0
 10
28.2051
 20
904.774
 30
0.0
 40
0
 41
0
  0
VERTEX
  8
0
 10
28.5121
 20
905.168
 30
0.0
 40
0
 41
0
  0
VERTEX
  8
0
 10
28.8292
 20
905.567
 30
0.0
 40
0
 41
0
  0
VERTEX
  8
0
 10
29.1512
 20
905.967
 30
0.0
 40
0
 41
0
  0
VERTEX
  8
0
 10
29.4781
 20
906.367
 30
0.0
 40
0
 41
0
  0
VERTEX
  8
0
 10
29.809
 20
906.764
 30
0.0
 40
0
 41
0
  0
VERTEX
  8
0
 10
30.1438
 20
907.161
 30
0.0
 40
0
 41
0
  0
VERTEX
  8
0
 10
30.4819
 20
907.556
 30
0.0
 40
0
 41
0
  0
VERTEX
  8
0
 10
30.8229
 20
907.949
 30
0.0
 40
0
 41
0
  0
VERTEX
  8
0
 10
31.1667
 20
908.34
 30
0.0
 40
0
 41
0
  0
VERTEX
  8
0
 10
31.5124
 20
908.728
 30
0.0
 40
0
 41
0
  0
VERTEX
  8
0
 10
31.8599
 20
909.114
 30
0.0
 40
0
 41
0
  0
VERTEX
  8
0
 10
32.2088
 20
909.496
 30
0.0
 40
0
 41
0
  0
VERTEX
  8
0
 10
32.5583
 20
909.875
 30
0.0
 40
0
 41
0
  0
VERTEX
  8
0
 10
32.9086
 20
910.25
 30
0.0
 40
0
 41
0
  0
VERTEX
  8
0
 10
33.2587
 20
910.621
 30
0.0
 40
0
 41
0
  0
VERTEX
  8
0
 10
33.6088
 20
910.986
 30
0.0
 40
0
 41
0
  0
VERTEX
  8
0
 10
33.9578
 20
911.349
 30
0.0
 40
0
 41
0
  0
VERTEX
  8
0
 10
34.3058
 20
911.704
 30
0.0
 40
0
 41
0
  0
VERTEX
  8
0
 10
34.6522
 20
912.056
 30
0.0
 40
0
 41
0
  0
VERTEX
  8
0
 10
34.9965
 20
912.4
 30
0.0
 40
0
 41
0
  0
VERTEX
  8
0
 10
35.3385
 20
912.739
 30
0.0
 40
0
 41
0
  0
VERTEX
  8
0
 10
35.6776
 20
913.071
 30
0.0
 40
0
 41
0
  0
VERTEX
  8
0
 10
36.0135
 20
913.397
 30
0.0
 40
0
 41
0
  0
VERTEX
  8
0
 10
36.3457
 20
913.715
 30
0.0
 40
0
 41
0
  0
VERTEX
  8
0
 10
36.6738
 20
914.026
 30
0.0
 40
0
 41
0
  0
VERTEX
  8
0
 10
36.9975
 20
914.331
 30
0.0
 40
0
 41
0
  0
VERTEX
  8
0
 10
37.3163
 20
914.626
 30
0.0
 40
0
 41
0
  0
VERTEX
  8
0
 10
37.6296
 20
914.913
 30
0.0
 40
0
 41
0
  0
VERTEX
  8
0
 10
37.9372
 20
915.192
 30
0.0
 40
0
 41
0
  0
VERTEX
  8
0
 10
38.2389
 20
915.461
 30
0.0
 40
0
 41
0
  0
VERTEX
  8
0
 10
38.5339
 20
915.721
 30
0.0
 40
0
 41
0
  0
VERTEX
  8
0
 10
38.8219
 20
915.971
 30
0.0
 40
0
 41
0
  0
VERTEX
  8
0
 10
39.0004
 20
916.125
 30
0.0
 40
0
 41
0
  0
VERTEX
  8
0
 10
39.1764
 20
916.275
 30
0.0
 40
0
 41
0
  0
VERTEX
  8
0
 10
39.3501
 20
916.421
 30
0.0
 40
0
 41
0
  0
VERTEX
  8
0
 10
39.5217
 20
916.564
 30
0.0
 40
0
 41
0
  0
VERTEX
  8
0
 10
39.6913
 20
916.704
 30
0.0
 40
0
 41
0
  0
VERTEX
  8
0
 10
39.8589
 20
916.842
 30
0.0
 40
0
 41
0
  0
VERTEX
  8
0
 10
40.0247
 20
916.975
 30
0.0
 40
0
 41
0
  0
VERTEX
  8
0
 10
40.189
 20
917.107
 30
0.0
 40
0
 41
0
  0
VERTEX
  8
0
 10
40.3519
 20
917.236
 30
0.0
 40
0
 41
0
  0
VERTEX
  8
0
 10
40.5133
 20
917.363
 30
0.0
 40
0
 41
0
  0
VERTEX
  8
0
 10
40.6736
 20
917.486
 30
0.0
 40
0
 41
0
  0
VERTEX
  8
0
 10
40.8329
 20
917.608
 30
0.0
 40
0
 41
0
  0
VERTEX
  8
0
 10
40.9911
 20
917.728
 30
0.0
 40
0
 41
0
  0
VERTEX
  8
0
 10
41.1486
 20
917.846
 30
0.0
 40
0
 41
0
  0
VERTEX
  8
0
 10
41.3056
 20
917.961
 30
0.0
 40
0
 41
0
  0
VERTEX
  8
0
 10
41.4618
 20
918.075
 30
0.0
 40
0
 41
0
  0
VERTEX
  8
0
 10
41.6178
 20
918.188
 30
0.0
 40
0
 41
0
  0
VERTEX
  8
0
 10
41.7735
 20
918.299
 30
0.0
 40
0
 41
0
  0
VERTEX
  8
0
 10
41.929
 20
918.408
 30
0.0
 40
0
 41
0
  0
VERTEX
  8
0
 10
42.0846
 20
918.518
 30
0.0
 40
0
 41
0
  0
VERTEX
  8
0
 10
42.2403
 20
918.625
 30
0.0
 40
0
 41
0
  0
VERTEX
  8
0
 10
42.3963
 20
918.732
 30
0.0
 40
0
 41
0
  0
VERTEX
  8
0
 10
42.5528
 20
918.837
 30
0.0
 40
0
 41
0
  0
VERTEX
  8
0
 10
42.7097
 20
918.943
 30
0.0
 40
0
 41
0
  0
VERTEX
  8
0
 10
42.8674
 20
919.047
 30
0.0
 40
0
 41
0
  0
VERTEX
  8
0
 10
43.026
 20
919.151
 30
0.0
 40
0
 41
0
  0
VERTEX
  8
0
 10
43.1854
 20
919.256
 30
0.0
 40
0
 41
0
  0
VERTEX
  8
0
 10
43.346
 20
919.358
 30
0.0
 40
0
 41
0
  0
VERTEX
  8
0
 10
43.5079
 20
919.462
 30
0.0
 40
0
 41
0
  0
VERTEX
  8
0
 10
43.6711
 20
919.567
 30
0.0
 40
0
 41
0
  0
VERTEX
  8
0
 10
43.8358
 20
919.671
 30
0.0
 40
0
 41
0
  0
VERTEX
  8
0
 10
44.0069
 20
919.778
 30
0.0
 40
0
 41
0
  0
VERTEX
  8
0
 10
44.1796
 20
919.885
 30
0.0
 40
0
 41
0
  0
VERTEX
  8
0
 10
44.3536
 20
919.992
 30
0.0
 40
0
 41
0
  0
VERTEX
  8
0
 10
44.5292
 20
920.1
 30
0.0
 40
0
 41
0
  0
VERTEX
  8
0
 10
44.706
 20
920.207
 30
0.0
 40
0
 41
0
  0
VERTEX
  8
0
 10
44.8842
 20
920.314
 30
0.0
 40
0
 41
0
  0
VERTEX
  8
0
 10
45.0636
 20
920.421
 30
0.0
 40
0
 41
0
  0
VERTEX
  8
0
 10
45.2442
 20
920.528
 30
0.0
 40
0
 41
0
  0
VERTEX
  8
0
 10
45.426
 20
920.633
 30
0.0
 40
0
 41
0
  0
VERTEX
  8
0
 10
45.6089
 20
920.74
 30
0.0
 40
0
 41
0
  0
VERTEX
  8
0
 10
45.7929
 20
920.844
 30
0.0
 40
0
 41
0
  0
VERTEX
  8
0
 10
45.9779
 20
920.95
 30
0.0
 40
0
 41
0
  0
VERTEX
  8
0
 10
46.1638
 20
921.054
 30
0.0
 40
0
 41
0
  0
VERTEX
  8
0
 10
46.3507
 20
921.158
 30
0.0
 40
0
 41
0
  0
VERTEX
  8
0
 10
46.5383
 20
921.261
 30
0.0
 40
0
 41
0
  0
VERTEX
  8
0
 10
46.7269
 20
921.364
 30
0.0
 40
0
 41
0
  0
VERTEX
  8
0
 10
46.9161
 20
921.465
 30
0.0
 40
0
 41
0
  0
VERTEX
  8
0
 10
47.1062
 20
921.565
 30
0.0
 40
0
 41
0
  0
VERTEX
  8
0
 10
47.2969
 20
921.665
 30
0.0
 40
0
 41
0
  0
VERTEX
  8
0
 10
47.4882
 20
921.764
 30
0.0
 40
0
 41
0
  0
VERTEX
  8
0
 10
47.6801
 20
921.863
 30
0.0
 40
0
 41
0
  0
VERTEX
  8
0
 10
47.8725
 20
921.958
 30
0.0
 40
0
 41
0
  0
VERTEX
  8
0
 10
48.0654
 20
922.054
 30
0.0
 40
0
 41
0
  0
VERTEX
  8
0
 10
48.2587
 20
922.147
 30
0.0
 40
0
 41
0
  0
VERTEX
  8
0
 10
48.4524
 20
922.24
 30
0.0
 40
0
 41
0
  0
VERTEX
  8
0
 10
48.6464
 20
922.332
 30
0.0
 40
0
 41
0
  0
VERTEX
  8
0
 10
48.8406
 20
922.422
 30
0.0
 40
0
 41
0
  0
VERTEX
  8
0
 10
49.0351
 20
922.511
 30
0.0
 40
0
 41
0
  0
VERTEX
  8
0
 10
49.2297
 20
922.597
 30
0.0
 40
0
 41
0
  0
VERTEX
  8
0
 10
49.4246
 20
922.683
 30
0.0
 40
0
 41
0
  0
VERTEX
  8
0
 10
49.6194
 20
922.767
 30
0.0
 40
0
 41
0
  0
VERTEX
  8
0
 10
49.8065
 20
922.846
 30
0.0
 40
0
 41
0
  0
VERTEX
  8
0
 10
49.9936
 20
922.922
 30
0.0
 40
0
 41
0
  0
VERTEX
  8
0
 10
50.1807
 20
922.999
 30
0.0
 40
0
 41
0
  0
VERTEX
  8
0
 10
50.3679
 20
923.072
 30
0.0
 40
0
 41
0
  0
VERTEX
  8
0
 10
50.5551
 20
923.144
 30
0.0
 40
0
 41
0
  0
VERTEX
  8
0
 10
50.7424
 20
923.215
 30
0.0
 40
0
 41
0
  0
VERTEX
  8
0
 10
50.9296
 20
923.285
 30
0.0
 40
0
 41
0
  0
VERTEX
  8
0
 10
51.1168
 20
923.353
 30
0.0
 40
0
 41
0
  0
VERTEX
  8
0
 10
51.304
 20
923.418
 30
0.0
 40
0
 41
0
  0
VERTEX
  8
0
 10
51.4914
 20
923.483
 30
0.0
 40
0
 41
0
  0
VERTEX
  8
0
 10
51.6786
 20
923.546
 30
0.0
 40
0
 41
0
  0
VERTEX
  8
0
 10
51.8658
 20
923.607
 30
0.0
 40
0
 41
0
  0
VERTEX
  8
0
 10
52.0529
 20
923.667
 30
0.0
 40
0
 41
0
  0
VERTEX
  8
0
 10
52.2401
 20
923.724
 30
0.0
 40
0
 41
0
  0
VERTEX
  8
0
 10
52.4272
 20
923.779
 30
0.0
 40
0
 41
0
  0
VERTEX
  8
0
 10
52.6142
 20
923.835
 30
0.0
 40
0
 41
0
  0
VERTEX
  8
0
 10
52.8011
 20
923.887
 30
0.0
 40
0
 41
0
  0
VERTEX
  8
0
 10
52.9881
 20
923.938
 30
0.0
 40
0
 41
0
  0
VERTEX
  8
0
 10
53.1749
 20
923.988
 30
0.0
 40
0
 41
0
  0
VERTEX
  8
0
 10
53.3615
 20
924.035
 30
0.0
 40
0
 41
0
  0
VERTEX
  8
0
 10
53.5482
 20
924.081
 30
0.0
 40
0
 41
0
  0
VERTEX
  8
0
 10
53.7347
 20
924.125
 30
0.0
 40
0
 41
0
  0
VERTEX
  8
0
 10
53.9211
 20
924.168
 30
0.0
 40
0
 41
0
  0
VERTEX
  8
0
 10
54.1074
 20
924.208
 30
0.0
 40
0
 41
0
  0
VERTEX
  8
0
 10
54.2935
 20
924.247
 30
0.0
 40
0
 41
0
  0
VERTEX
  8
0
 10
54.4796
 20
924.285
 30
0.0
 40
0
 41
0
  0
VERTEX
  8
0
 10
54.6654
 20
924.319
 30
0.0
 40
0
 41
0
  0
VERTEX
  8
0
 10
54.8511
 20
924.353
 30
0.0
 40
0
 41
0
  0
VERTEX
  8
0
 10
55.0367
 20
924.385
 30
0.0
 40
0
 41
0
  0
VERTEX
  8
0
 10
55.2219
 20
924.415
 30
0.0
 40
0
 41
0
  0
VERTEX
  8
0
 10
55.4072
 20
924.443
 30
0.0
 40
0
 41
0
  0
VERTEX
  8
0
 10
55.5771
 20
924.468
 30
0.0
 40
0
 41
0
  0
VERTEX
  8
0
 10
55.7468
 20
924.49
 30
0.0
 40
0
 41
0
  0
VERTEX
  8
0
 10
55.9161
 20
924.511
 30
0.0
 40
0
 41
0
  0
VERTEX
  8
0
 10
56.0854
 20
924.532
 30
0.0
 40
0
 41
0
  0
VERTEX
  8
0
 10
56.2543
 20
924.55
 30
0.0
 40
0
 41
0
  0
VERTEX
  8
0
 10
56.4231
 20
924.565
 30
0.0
 40
0
 41
0
  0
VERTEX
  8
0
 10
56.5914
 20
924.581
 30
0.0
 40
0
 41
0
  0
VERTEX
  8
0
 10
56.7594
 20
924.593
 30
0.0
 40
0
 41
0
  0
VERTEX
  8
0
 10
56.9272
 20
924.606
 30
0.0
 40
0
 41
0
  0
VERTEX
  8
0
 10
57.0947
 20
924.615
 30
0.0
 40
0
 41
0
  0
VERTEX
  8
0
 10
57.2617
 20
924.624
 30
0.0
 40
0
 41
0
  0
VERTEX
  8
0
 10
57.4283
 20
924.629
 30
0.0
 40
0
 41
0
  0
VERTEX
  8
0
 10
57.5946
 20
924.635
 30
0.0
 40
0
 41
0
  0
VERTEX
  8
0
 10
57.7603
 20
924.637
 30
0.0
 40
0
 41
0
  0
VERTEX
  8
0
 10
57.9257
 20
924.639
 30
0.0
 40
0
 41
0
  0
VERTEX
  8
0
 10
58.0906
 20
924.639
 30
0.0
 40
0
 41
0
  0
VERTEX
  8
0
 10
58.2549
 20
924.636
 30
0.0
 40
0
 41
0
  0
VERTEX
  8
0
 10
58.4187
 20
924.632
 30
0.0
 40
0
 41
0
  0
VERTEX
  8
0
 10
58.5821
 20
924.626
 30
0.0
 40
0
 41
0
  0
VERTEX
  8
0
 10
58.7449
 20
924.619
 30
0.0
 40
0
 41
0
  0
VERTEX
  8
0
 10
58.9071
 20
924.61
 30
0.0
 40
0
 41
0
  0
VERTEX
  8
0
 10
59.0686
 20
924.599
 30
0.0
 40
0
 41
0
  0
VERTEX
  8
0
 10
59.2297
 20
924.586
 30
0.0
 40
0
 41
0
  0
VERTEX
  8
0
 10
59.39
 20
924.571
 30
0.0
 40
0
 41
0
  0
VERTEX
  8
0
 10
59.5497
 20
924.554
 30
0.0
 40
0
 41
0
  0
VERTEX
  8
0
 10
59.7087
 20
924.536
 30
0.0
 40
0
 41
0
  0
VERTEX
  8
0
 10
59.8671
 20
924.515
 30
0.0
 40
0
 41
0
  0
VERTEX
  8
0
 10
60.0247
 20
924.493
 30
0.0
 40
0
 41
0
  0
VERTEX
  8
0
 10
60.1815
 20
924.469
 30
0.0
 40
0
 41
0
  0
VERTEX
  8
0
 10
60.3378
 20
924.443
 30
0.0
 40
0
 41
0
  0
VERTEX
  8
0
 10
60.4861
 20
924.417
 30
0.0
 40
0
 41
0
  0
VERTEX
  8
0
 10
60.6337
 20
924.389
 30
0.0
 40
0
 41
0
  0
VERTEX
  8
0
 10
60.7807
 20
924.358
 30
0.0
 40
0
 41
0
  0
VERTEX
  8
0
 10
60.9269
 20
924.326
 30
0.0
 40
0
 41
0
  0
VERTEX
  8
0
 10
61.0724
 20
924.293
 30
0.0
 40
0
 41
0
  0
VERTEX
  8
0
 10
61.2171
 20
924.258
 30
0.0
 40
0
 41
0
  0
VERTEX
  8
0
 10
61.3611
 20
924.221
 30
0.0
 40
0
 41
0
  0
VERTEX
  8
0
 10
61.5042
 20
924.183
 30
0.0
 40
0
 41
0
  0
VERTEX
  8
0
 10
61.6465
 20
924.143
 30
0.0
 40
0
 41
0
  0
VERTEX
  8
0
 10
61.7882
 20
924.101
 30
0.0
 40
0
 41
0
  0
VERTEX
  8
0
 10
61.9289
 20
924.058
 30
0.0
 40
0
 41
0
  0
VERTEX
  8
0
 10
62.0689
 20
924.014
 30
0.0
 40
0
 41
0
  0
VERTEX
  8
0
 10
62.2081
 20
923.969
 30
0.0
 40
0
 41
0
  0
VERTEX
  8
0
 10
62.3463
 20
923.922
 30
0.0
 40
0
 41
0
  0
VERTEX
  8
0
 10
62.4836
 20
923.874
 30
0.0
 40
0
 41
0
  0
VERTEX
  8
0
 10
62.6203
 20
923.824
 30
0.0
 40
0
 41
0
  0
VERTEX
  8
0
 10
62.7558
 20
923.772
 30
0.0
 40
0
 41
0
  0
VERTEX
  8
0
 10
62.8907
 20
923.719
 30
0.0
 40
0
 41
0
  0
VERTEX
  8
0
 10
63.0246
 20
923.665
 30
0.0
 40
0
 41
0
  0
VERTEX
  8
0
 10
63.1575
 20
923.611
 30
0.0
 40
0
 41
0
  0
VERTEX
  8
0
 10
63.2896
 20
923.554
 30
0.0
 40
0
 41
0
  0
VERTEX
  8
0
 10
63.4207
 20
923.497
 30
0.0
 40
0
 41
0
  0
VERTEX
  8
0
 10
63.551
 20
923.439
 30
0.0
 40
0
 41
0
  0
VERTEX
  8
0
 10
63.6801
 20
923.379
 30
0.0
 40
0
 41
0
  0
VERTEX
  8
0
 10
63.8085
 20
923.318
 30
0.0
 40
0
 41
0
  0
VERTEX
  8
0
 10
63.9358
 20
923.257
 30
0.0
 40
0
 41
0
  0
VERTEX
  8
0
 10
64.0621
 20
923.193
 30
0.0
 40
0
 41
0
  0
VERTEX
  8
0
 10
64.1875
 20
923.129
 30
0.0
 40
0
 41
0
  0
VERTEX
  8
0
 10
64.3118
 20
923.064
 30
0.0
 40
0
 41
0
  0
VERTEX
  8
0
 10
64.4351
 20
922.999
 30
0.0
 40
0
 41
0
  0
VERTEX
  8
0
 10
64.5575
 20
922.932
 30
0.0
 40
0
 41
0
  0
VERTEX
  8
0
 10
64.6746
 20
922.867
 30
0.0
 40
0
 41
0
  0
VERTEX
  8
0
 10
64.7908
 20
922.8
 30
0.0
 40
0
 41
0
  0
VERTEX
  8
0
 10
64.9063
 20
922.732
 30
0.0
 40
0
 41
0
  0
VERTEX
  8
0
 10
65.0208
 20
922.664
 30
0.0
 40
0
 41
0
  0
VERTEX
  8
0
 10
65.1347
 20
922.594
 30
0.0
 40
0
 41
0
  0
VERTEX
  8
0
 10
65.2479
 20
922.524
 30
0.0
 40
0
 41
0
  0
VERTEX
  8
0
 10
65.3604
 20
922.451
 30
0.0
 40
0
 41
0
  0
VERTEX
  8
0
 10
65.4722
 20
922.379
 30
0.0
 40
0
 41
0
  0
VERTEX
  8
0
 10
65.5836
 20
922.304
 30
0.0
 40
0
 41
0
  0
VERTEX
  8
0
 10
65.6944
 20
922.228
 30
0.0
 40
0
 41
0
  0
VERTEX
  8
0
 10
65.8047
 20
922.151
 30
0.0
 40
0
 41
0
  0
VERTEX
  8
0
 10
65.9146
 20
922.072
 30
0.0
 40
0
 41
0
  0
VERTEX
  8
0
 10
66.024
 20
921.993
 30
0.0
 40
0
 41
0
  0
VERTEX
  8
0
 10
66.1332
 20
921.911
 30
0.0
 40
0
 41
0
  0
VERTEX
  8
0
 10
66.2419
 20
921.828
 30
0.0
 40
0
 41
0
  0
VERTEX
  8
0
 10
66.3504
 20
921.743
 30
0.0
 40
0
 41
0
  0
VERTEX
  8
0
 10
66.4587
 20
921.656
 30
0.0
 40
0
 41
0
  0
VERTEX
  8
0
 10
66.5668
 20
921.568
 30
0.0
 40
0
 41
0
  0
VERTEX
  8
0
 10
66.6749
 20
921.478
 30
0.0
 40
0
 41
0
  0
VERTEX
  8
0
 10
66.7826
 20
921.386
 30
0.0
 40
0
 41
0
  0
VERTEX
  8
0
 10
66.8904
 20
921.293
 30
0.0
 40
0
 41
0
  0
VERTEX
  8
0
 10
66.9981
 20
921.197
 30
0.0
 40
0
 41
0
  0
VERTEX
  8
0
 10
67.1058
 20
921.099
 30
0.0
 40
0
 41
0
  0
VERTEX
  8
0
 10
67.2136
 20
921
 30
0.0
 40
0
 41
0
  0
VERTEX
  8
0
 10
67.3215
 20
920.899
 30
0.0
 40
0
 41
0
  0
VERTEX
  8
0
 10
67.4296
 20
920.794
 30
0.0
 40
0
 41
0
  0
VERTEX
  8
0
 10
67.5379
 20
920.689
 30
0.0
 40
0
 41
0
  0
VERTEX
  8
0
 10
67.6464
 20
920.581
 30
0.0
 40
0
 41
0
  0
VERTEX
  8
0
 10
67.7551
 20
920.471
 30
0.0
 40
0
 41
0
  0
VERTEX
  8
0
 10
67.8642
 20
920.358
 30
0.0
 40
0
 41
0
  0
VERTEX
  8
0
 10
67.9735
 20
920.243
 30
0.0
 40
0
 41
0
  0
VERTEX
  8
0
 10
68.1231
 20
920.083
 30
0.0
 40
0
 41
0
  0
VERTEX
  8
0
 10
68.2732
 20
919.918
 30
0.0
 40
0
 41
0
  0
VERTEX
  8
0
 10
68.4237
 20
919.75
 30
0.0
 40
0
 41
0
  0
VERTEX
  8
0
 10
68.5747
 20
919.578
 30
0.0
 40
0
 41
0
  0
VERTEX
  8
0
 10
68.726
 20
919.401
 30
0.0
 40
0
 41
0
  0
VERTEX
  8
0
 10
68.8775
 20
919.221
 30
0.0
 40
0
 41
0
  0
VERTEX
  8
0
 10
69.0292
 20
919.036
 30
0.0
 40
0
 41
0
  0
VERTEX
  8
0
 10
69.181
 20
918.849
 30
0.0
 40
0
 41
0
  0
VERTEX
  8
0
 10
69.3328
 20
918.657
 30
0.0
 40
0
 41
0
  0
VERTEX
  8
0
 10
69.4846
 20
918.462
 30
0.0
 40
0
 41
0
  0
VERTEX
  8
0
 10
69.6363
 20
918.262
 30
0.0
 40
0
 41
0
  0
VERTEX
  8
0
 10
69.7878
 20
918.061
 30
0.0
 40
0
 41
0
  0
VERTEX
  8
0
 10
69.939
 20
917.856
 30
0.0
 40
0
 41
0
  0
VERTEX
  8
0
 10
70.09
 20
917.646
 30
0.0
 40
0
 41
0
  0
VERTEX
  8
0
 10
70.2404
 20
917.435
 30
0.0
 40
0
 41
0
  0
VERTEX
  8
0
 10
70.3904
 20
917.219
 30
0.0
 40
0
 41
0
  0
VERTEX
  8
0
 10
70.54
 20
917.001
 30
0.0
 40
0
 41
0
  0
VERTEX
  8
0
 10
70.6889
 20
916.779
 30
0.0
 40
0
 41
0
  0
VERTEX
  8
0
 10
70.8371
 20
916.556
 30
0.0
 40
0
 41
0
  0
VERTEX
  8
0
 10
70.9846
 20
916.328
 30
0.0
 40
0
 41
0
  0
VERTEX
  8
0
 10
71.1311
 20
916.099
 30
0.0
 40
0
 41
0
  0
VERTEX
  8
0
 10
71.2768
 20
915.865
 30
0.0
 40
0
 41
0
  0
VERTEX
  8
0
 10
71.4217
 20
915.631
 30
0.0
 40
0
 41
0
  0
VERTEX
  8
0
 10
71.5653
 20
915.393
 30
0.0
 40
0
 41
0
  0
VERTEX
  8
0
 10
71.7079
 20
915.153
 30
0.0
 40
0
 41
0
  0
VERTEX
  8
0
 10
71.8493
 20
914.91
 30
0.0
 40
0
 41
0
  0
VERTEX
  8
0
 10
71.9894
 20
914.665
 30
0.0
 40
0
 41
0
  0
VERTEX
  8
0
 10
72.1282
 20
914.418
 30
0.0
 40
0
 41
0
  0
VERTEX
  8
0
 10
72.2657
 20
914.168
 30
0.0
 40
0
 41
0
  0
VERTEX
  8
0
 10
72.4015
 20
913.917
 30
0.0
 40
0
 41
0
  0
VERTEX
  8
0
 10
72.5618
 20
913.614
 30
0.0
 40
0
 41
0
  0
VERTEX
  8
0
 10
72.72
 20
913.307
 30
0.0
 40
0
 41
0
  0
VERTEX
  8
0
 10
72.876
 20
912.999
 30
0.0
 40
0
 41
0
  0
VERTEX
  8
0
 10
73.0297
 20
912.688
 30
0.0
 40
0
 41
0
  0
VERTEX
  8
0
 10
73.1814
 20
912.374
 30
0.0
 40
0
 41
0
  0
VERTEX
  8
0
 10
73.331
 20
912.058
 30
0.0
 40
0
 41
0
  0
VERTEX
  8
0
 10
73.4785
 20
911.739
 30
0.0
 40
0
 41
0
  0
VERTEX
  8
0
 10
73.6238
 20
911.418
 30
0.0
 40
0
 41
0
  0
VERTEX
  8
0
 10
73.7672
 20
911.096
 30
0.0
 40
0
 41
0
  0
VERTEX
  8
0
 10
73.9085
 20
910.771
 30
0.0
 40
0
 41
0
  0
VERTEX
  8
0
 10
74.0479
 20
910.443
 30
0.0
 40
0
 41
0
  0
VERTEX
  8
0
 10
74.1853
 20
910.114
 30
0.0
 40
0
 41
0
  0
VERTEX
  8
0
 10
74.3207
 20
909.783
 30
0.0
 40
0
 41
0
  0
VERTEX
  8
0
 10
74.4542
 20
909.451
 30
0.0
 40
0
 41
0
  0
VERTEX
  8
0
 10
74.5856
 20
909.117
 30
0.0
 40
0
 41
0
  0
VERTEX
  8
0
 10
74.7153
 20
908.781
 30
0.0
 40
0
 41
0
  0
VERTEX
  8
0
 10
74.8429
 20
908.443
 30
0.0
 40
0
 41
0
  0
VERTEX
  8
0
 10
74.9688
 20
908.106
 30
0.0
 40
0
 41
0
  0
VERTEX
  8
0
 10
75.0928
 20
907.765
 30
0.0
 40
0
 41
0
  0
VERTEX
  8
0
 10
75.215
 20
907.424
 30
0.0
 40
0
 41
0
  0
VERTEX
  8
0
 10
75.3353
 20
907.082
 30
0.0
 40
0
 41
0
  0
VERTEX
  8
0
 10
75.4539
 20
906.739
 30
0.0
 40
0
 41
0
  0
VERTEX
  8
0
 10
75.5707
 20
906.394
 30
0.0
 40
0
 41
0
  0
VERTEX
  8
0
 10
75.6858
 20
906.05
 30
0.0
 40
0
 41
0
  0
VERTEX
  8
0
 10
75.7992
 20
905.704
 30
0.0
 40
0
 41
0
  0
VERTEX
  8
0
 10
75.9107
 20
905.358
 30
0.0
 40
0
 41
0
  0
VERTEX
  8
0
 10
76.0207
 20
905.011
 30
0.0
 40
0
 41
0
  0
VERTEX
  8
0
 10
76.129
 20
904.664
 30
0.0
 40
0
 41
0
  0
VERTEX
  8
0
 10
76.2356
 20
904.317
 30
0.0
 40
0
 41
0
  0
VERTEX
  8
0
 10
76.3406
 20
903.969
 30
0.0
 40
0
 41
0
  0
VERTEX
  8
0
 10
76.4439
 20
903.621
 30
0.0
 40
0
 41
0
  0
VERTEX
  8
0
 10
76.5435
 20
903.281
 30
0.0
 40
0
 41
0
  0
VERTEX
  8
0
 10
76.6417
 20
902.939
 30
0.0
 40
0
 41
0
  0
VERTEX
  8
0
 10
76.7383
 20
902.599
 30
0.0
 40
0
 41
0
  0
VERTEX
  8
0
 10
76.8339
 20
902.257
 30
0.0
 40
0
 41
0
  0
VERTEX
  8
0
 10
76.9279
 20
901.917
 30
0.0
 40
0
 41
0
  0
VERTEX
  8
0
 10
77.0208
 20
901.575
 30
0.0
 40
0
 41
0
  0
VERTEX
  8
0
 10
77.1125
 20
901.233
 30
0.0
 40
0
 41
0
  0
VERTEX
  8
0
 10
77.2031
 20
900.892
 30
0.0
 40
0
 41
0
  0
VERTEX
  8
0
 10
77.2925
 20
900.55
 30
0.0
 40
0
 41
0
  0
VERTEX
  8
0
 10
77.381
 20
900.208
 30
0.0
 40
0
 41
0
  0
VERTEX
  8
0
 10
77.4683
 20
899.867
 30
0.0
 40
0
 41
0
  0
VERTEX
  8
0
 10
77.5547
 20
899.525
 30
0.0
 40
0
 41
0
  0
VERTEX
  8
0
 10
77.6404
 20
899.182
 30
0.0
 40
0
 41
0
  0
VERTEX
  8
0
 10
77.725
 20
898.84
 30
0.0
 40
0
 41
0
  0
VERTEX
  8
0
 10
77.809
 20
898.497
 30
0.0
 40
0
 41
0
  0
VERTEX
  8
0
 10
77.8921
 20
898.156
 30
0.0
 40
0
 41
0
  0
VERTEX
  8
0
 10
77.9747
 20
897.813
 30
0.0
 40
0
 41
0
  0
VERTEX
  8
0
 10
78.0565
 20
897.469
 30
0.0
 40
0
 41
0
  0
VERTEX
  8
0
 10
78.1378
 20
897.128
 30
0.0
 40
0
 41
0
  0
VERTEX
  8
0
 10
78.2185
 20
896.785
 30
0.0
 40
0
 41
0
  0
VERTEX
  8
0
 10
78.2986
 20
896.442
 30
0.0
 40
0
 41
0
  0
VERTEX
  8
0
 10
78.3783
 20
896.099
 30
0.0
 40
0
 41
0
  0
VERTEX
  8
0
 10
78.4578
 20
895.756
 30
0.0
 40
0
 41
0
  0
VERTEX
  8
0
 10
78.5367
 20
895.412
 30
0.0
 40
0
 41
0
  0
VERTEX
  8
0
 10
78.6154
 20
895.071
 30
0.0
 40
0
 41
0
  0
VERTEX
  8
0
 10
78.6939
 20
894.728
 30
0.0
 40
0
 41
0
  0
VERTEX
  8
0
 10
78.7722
 20
894.385
 30
0.0
 40
0
 41
0
  0
VERTEX
  8
0
 10
78.8503
 20
894.042
 30
0.0
 40
0
 41
0
  0
VERTEX
  8
0
 10
78.9283
 20
893.699
 30
0.0
 40
0
 41
0
  0
VERTEX
  8
0
 10
79.0063
 20
893.356
 30
0.0
 40
0
 41
0
  0
VERTEX
  8
0
 10
79.0717
 20
893.039
 30
0.0
 40
0
 41
0
  0
VERTEX
  8
0
 10
79.1365
 20
892.722
 30
0.0
 40
0
 41
0
  0
VERTEX
  8
0
 10
79.2011
 20
892.403
 30
0.0
 40
0
 41
0
  0
VERTEX
  8
0
 10
79.2654
 20
892.083
 30
0.0
 40
0
 41
0
  0
VERTEX
  8
0
 10
79.3292
 20
891.762
 30
0.0
 40
0
 41
0
  0
VERTEX
  8
0
 10
79.3926
 20
891.44
 30
0.0
 40
0
 41
0
  0
VERTEX
  8
0
 10
79.4557
 20
891.117
 30
0.0
 40
0
 41
0
  0
VERTEX
  8
0
 10
79.5183
 20
890.792
 30
0.0
 40
0
 41
0
  0
VERTEX
  8
0
 10
79.5807
 20
890.465
 30
0.0
 40
0
 41
0
  0
VERTEX
  8
0
 10
79.6426
 20
890.139
 30
0.0
 40
0
 41
0
  0
VERTEX
  8
0
 10
79.7043
 20
889.811
 30
0.0
 40
0
 41
0
  0
VERTEX
  8
0
 10
79.7656
 20
889.481
 30
0.0
 40
0
 41
0
  0
VERTEX
  8
0
 10
79.8264
 20
889.15
 30
0.0
 40
0
 41
0
  0
VERTEX
  8
0
 10
79.8869
 20
888.818
 30
0.0
 40
0
 41
0
  0
VERTEX
  8
0
 10
79.9472
 20
888.486
 30
0.0
 40
0
 41
0
  0
VERTEX
  8
0
 10
80.0069
 20
888.151
 30
0.0
 40
0
 41
0
  0
VERTEX
  8
0
 10
80.0665
 20
887.817
 30
0.0
 40
0
 41
0
  0
VERTEX
  8
0
 10
80.1256
 20
887.481
 30
0.0
 40
0
 41
0
  0
VERTEX
  8
0
 10
80.1844
 20
887.142
 30
0.0
 40
0
 41
0
  0
VERTEX
  8
0
 10
80.2429
 20
886.804
 30
0.0
 40
0
 41
0
  0
VERTEX
  8
0
 10
80.301
 20
886.464
 30
0.0
 40
0
 41
0
  0
VERTEX
  8
0
 10
80.3588
 20
886.122
 30
0.0
 40
0
 41
0
  0
VERTEX
  8
0
 10
80.4163
 20
885.781
 30
0.0
 40
0
 41
0
  0
VERTEX
  8
0
 10
80.4735
 20
885.438
 30
0.0
 40
0
 41
0
  0
VERTEX
  8
0
 10
80.5303
 20
885.093
 30
0.0
 40
0
 41
0
  0
VERTEX
  8
0
 10
80.5867
 20
884.747
 30
0.0
 40
0
 41
0
  0
VERTEX
  8
0
 10
80.6429
 20
884.401
 30
0.0
 40
0
 41
0
  0
VERTEX
  8
0
 10
80.6988
 20
884.054
 30
0.0
 40
0
 41
0
  0
VERTEX
  8
0
 10
80.7543
 20
883.706
 30
0.0
 40
0
 41
0
  0
VERTEX
  8
0
 10
80.8096
 20
883.356
 30
0.0
 40
0
 41
0
  0
SEQEND
 8
0
  0
POLYLINE
  8
0
 62
     0
 66
     1
 10
0
 20
0
 30
0.0
 70
     1
 40
0
 41
0
  0
VERTEX
  8
0
 10
55.2475
 20
725.769
 30
0.0
 40
0
 41
0
  0
VERTEX
  8
0
 10
55.2078
 20
725.769
 30
0.0
 40
0
 41
0
  0
VERTEX
  8
0
 10
55.089
 20
725.778
 30
0.0
 40
0
 41
0
  0
VERTEX
  8
0
 10
54.9351
 20
725.8
 30
0.0
 40
0
 41
0
  0
VERTEX
  8
0
 10
54.7865
 20
725.839
 30
0.0
 40
0
 41
0
  0
VERTEX
  8
0
 10
54.6442
 20
725.89
 30
0.0
 40
0
 41
0
  0
VERTEX
  8
0
 10
54.5086
 20
725.956
 30
0.0
 40
0
 41
0
  0
VERTEX
  8
0
 10
54.3808
 20
726.033
 30
0.0
 40
0
 41
0
  0
VERTEX
  8
0
 10
54.2615
 20
726.124
 30
0.0
 40
0
 41
0
  0
VERTEX
  8
0
 10
54.1514
 20
726.224
 30
0.0
 40
0
 41
0
  0
VERTEX
  8
0
 10
54.0514
 20
726.333
 30
0.0
 40
0
 41
0
  0
VERTEX
  8
0
 10
53.9622
 20
726.453
 30
0.0
 40
0
 41
0
  0
VERTEX
  8
0
 10
53.8846
 20
726.581
 30
0.0
 40
0
 41
0
  0
VERTEX
  8
0
 10
53.8193
 20
726.715
 30
0.0
 40
0
 41
0
  0
VERTEX
  8
0
 10
53.7671
 20
726.858
 30
0.0
 40
0
 41
0
  0
VERTEX
  8
0
 10
53.7289
 20
727.007
 30
0.0
 40
0
 41
0
  0
VERTEX
  8
0
 10
53.7054
 20
727.161
 30
0.0
 40
0
 41
0
  0
VERTEX
  8
0
 10
53.6975
 20
727.279
 30
0.0
 40
0
 41
0
  0
VERTEX
  8
0
 10
53.6975
 20
727.319
 30
0.0
 40
0
 41
0
  0
VERTEX
  8
0
 10
53.6975
 20
727.358
 30
0.0
 40
0
 41
0
  0
VERTEX
  8
0
 10
53.7054
 20
727.478
 30
0.0
 40
0
 41
0
  0
VERTEX
  8
0
 10
53.7289
 20
727.632
 30
0.0
 40
0
 41
0
  0
VERTEX
  8
0
 10
53.7671
 20
727.781
 30
0.0
 40
0
 41
0
  0
VERTEX
  8
0
 10
53.8193
 20
727.922
 30
0.0
 40
0
 41
0
  0
VERTEX
  8
0
 10
53.8846
 20
728.058
 30
0.0
 40
0
 41
0
  0
VERTEX
  8
0
 10
53.9622
 20
728.186
 30
0.0
 40
0
 41
0
  0
VERTEX
  8
0
 10
54.0514
 20
728.306
 30
0.0
 40
0
 41
0
  0
VERTEX
  8
0
 10
54.1514
 20
728.415
 30
0.0
 40
0
 41
0
  0
VERTEX
  8
0
 10
54.2615
 20
728.515
 30
0.0
 40
0
 41
0
  0
VERTEX
  8
0
 10
54.3808
 20
728.604
 30
0.0
 40
0
 41
0
  0
VERTEX
  8
0
 10
54.5086
 20
728.682
 30
0.0
 40
0
 41
0
  0
VERTEX
  8
0
 10
54.6442
 20
728.747
 30
0.0
 40
0
 41
0
  0
VERTEX
  8
0
 10
54.7865
 20
728.8
 30
0.0
 40
0
 41
0
  0
VERTEX
  8
0
 10
54.9351
 20
728.838
 30
0.0
 40
0
 41
0
  0
VERTEX
  8
0
 10
55.089
 20
728.861
 30
0.0
 40
0
 41
0
  0
VERTEX
  8
0
 10
55.2078
 20
728.869
 30
0.0
 40
0
 41
0
  0
VERTEX
  8
0
 10
55.2475
 20
728.869
 30
0.0
 40
0
 41
0
  0
VERTEX
  8
0
 10
55.2871
 20
728.869
 30
0.0
 40
0
 41
0
  0
VERTEX
  8
0
 10
55.406
 20
728.861
 30
0.0
 40
0
 41
0
  0
VERTEX
  8
0
 10
55.5599
 20
728.838
 30
0.0
 40
0
 41
0
  0
VERTEX
  8
0
 10
55.7083
 20
728.8
 30
0.0
 40
0
 41
0
  0
VERTEX
  8
0
 10
55.8508
 20
728.747
 30
0.0
 40
0
 41
0
  0
VERTEX
  8
0
 10
55.9863
 20
728.682
 30
0.0
 40
0
 41
0
  0
VERTEX
  8
0
 10
56.114
 20
728.604
 30
0.0
 40
0
 41
0
  0
VERTEX
  8
0
 10
56.2333
 20
728.515
 30
0.0
 40
0
 41
0
  0
VERTEX
  8
0
 10
56.3435
 20
728.415
 30
0.0
 40
0
 41
0
  0
VERTEX
  8
0
 10
56.4435
 20
728.306
 30
0.0
 40
0
 41
0
  0
VERTEX
  8
0
 10
56.5328
 20
728.186
 30
0.0
 40
0
 41
0
  0
VERTEX
  8
0
 10
56.6104
 20
728.058
 30
0.0
 40
0
 41
0
  0
VERTEX
  8
0
 10
56.6756
 20
727.922
 30
0.0
 40
0
 41
0
  0
VERTEX
  8
0
 10
56.7278
 20
727.781
 30
0.0
 40
0
 41
0
  0
VERTEX
  8
0
 10
56.766
 20
727.632
 30
0.0
 40
0
 41
0
  0
VERTEX
  8
0
 10
56.7894
 20
727.478
 30
0.0
 40
0
 41
0
  0
VERTEX
  8
0
 10
56.7975
 20
727.358
 30
0.0
 40
0
 41
0
  0
VERTEX
  8
0
 10
56.7975
 20
727.319
 30
0.0
 40
0
 41
0
  0
VERTEX
  8
0
 10
56.7975
 20
727.279
 30
0.0
 40
0
 41
0
  0
VERTEX
  8
0
 10
56.7894
 20
727.161
 30
0.0
 40
0
 41
0
  0
VERTEX
  8
0
 10
56.766
 20
727.007
 30
0.0
 40
0
 41
0
  0
VERTEX
  8
0
 10
56.7278
 20
726.858
 30
0.0
 40
0
 41
0
  0
VERTEX
  8
0
 10
56.6756
 20
726.715
 30
0.0
 40
0
 41
0
  0
VERTEX
  8
0
 10
56.6104
 20
726.581
 30
0.0
 40
0
 41
0
  0
VERTEX
  8
0
 10
56.5328
 20
726.453
 30
0.0
 40
0
 41
0
  0
VERTEX
  8
0
 10
56.4435
 20
726.333
 30
0.0
 40
0
 41
0
  0
VERTEX
  8
0
 10
56.3435
 20
726.224
 30
0.0
 40
0
 41
0
  0
VERTEX
  8
0
 10
56.2333
 20
726.124
 30
0.0
 40
0
 41
0
  0
VERTEX
  8
0
 10
56.114
 20
726.033
 30
0.0
 40
0
 41
0
  0
VERTEX
  8
0
 10
55.9863
 20
725.956
 30
0.0
 40
0
 41
0
  0
VERTEX
  8
0
 10
55.8508
 20
725.89
 30
0.0
 40
0
 41
0
  0
VERTEX
  8
0
 10
55.7083
 20
725.839
 30
0.0
 40
0
 41
0
  0
VERTEX
  8
0
 10
55.5599
 20
725.8
 30
0.0
 40
0
 41
0
  0
VERTEX
  8
0
 10
55.406
 20
725.778
 30
0.0
 40
0
 41
0
  0
VERTEX
  8
0
 10
55.2871
 20
725.769
 30
0.0
 40
0
 41
0
  0
VERTEX
  8
0
 10
55.2475
 20
725.769
 30
0.0
 40
0
 41
0
  0
SEQEND
 8
0
  0
POLYLINE
  8
0
 62
     0
 66
     1
 10
0
 20
0
 30
0.0
 70
     1
 40
0
 41
0
  0
VERTEX
  8
0
 10
55.3096
 20
476.081
 30
0.0
 40
0
 41
0
  0
VERTEX
  8
0
 10
55.2711
 20
476.081
 30
0.0
 40
0
 41
0
  0
VERTEX
  8
0
 10
55.1561
 20
476.089
 30
0.0
 40
0
 41
0
  0
VERTEX
  8
0
 10
55.0072
 20
476.111
 30
0.0
 40
0
 41
0
  0
VERTEX
  8
0
 10
54.8635
 20
476.149
 30
0.0
 40
0
 41
0
  0
VERTEX
  8
0
 10
54.7256
 20
476.199
 30
0.0
 40
0
 41
0
  0
VERTEX
  8
0
 10
54.5944
 20
476.262
 30
0.0
 40
0
 41
0
  0
VERTEX
  8
0
 10
54.4708
 20
476.338
 30
0.0
 40
0
 41
0
  0
VERTEX
  8
0
 10
54.3554
 20
476.424
 30
0.0
 40
0
 41
0
  0
VERTEX
  8
0
 10
54.2487
 20
476.521
 30
0.0
 40
0
 41
0
  0
VERTEX
  8
0
 10
54.1521
 20
476.626
 30
0.0
 40
0
 41
0
  0
VERTEX
  8
0
 10
54.0657
 20
476.743
 30
0.0
 40
0
 41
0
  0
VERTEX
  8
0
 10
53.9906
 20
476.867
 30
0.0
 40
0
 41
0
  0
VERTEX
  8
0
 10
53.9274
 20
476.997
 30
0.0
 40
0
 41
0
  0
VERTEX
  8
0
 10
53.8769
 20
477.135
 30
0.0
 40
0
 41
0
  0
VERTEX
  8
0
 10
53.84
 20
477.279
 30
0.0
 40
0
 41
0
  0
VERTEX
  8
0
 10
53.8172
 20
477.428
 30
0.0
 40
0
 41
0
  0
VERTEX
  8
0
 10
53.8096
 20
477.543
 30
0.0
 40
0
 41
0
  0
VERTEX
  8
0
 10
53.8096
 20
477.581
 30
0.0
 40
0
 41
0
  0
VERTEX
  8
0
 10
53.8096
 20
477.619
 30
0.0
 40
0
 41
0
  0
VERTEX
  8
0
 10
53.8172
 20
477.735
 30
0.0
 40
0
 41
0
  0
VERTEX
  8
0
 10
53.84
 20
477.883
 30
0.0
 40
0
 41
0
  0
VERTEX
  8
0
 10
53.8769
 20
478.028
 30
0.0
 40
0
 41
0
  0
VERTEX
  8
0
 10
53.9274
 20
478.165
 30
0.0
 40
0
 41
0
  0
VERTEX
  8
0
 10
53.9906
 20
478.296
 30
0.0
 40
0
 41
0
  0
VERTEX
  8
0
 10
54.0657
 20
478.419
 30
0.0
 40
0
 41
0
  0
VERTEX
  8
0
 10
54.1521
 20
478.535
 30
0.0
 40
0
 41
0
  0
VERTEX
  8
0
 10
54.2487
 20
478.642
 30
0.0
 40
0
 41
0
  0
VERTEX
  8
0
 10
54.3554
 20
478.739
 30
0.0
 40
0
 41
0
  0
VERTEX
  8
0
 10
54.4708
 20
478.825
 30
0.0
 40
0
 41
0
  0
VERTEX
  8
0
 10
54.5944
 20
478.9
 30
0.0
 40
0
 41
0
  0
VERTEX
  8
0
 10
54.7256
 20
478.964
 30
0.0
 40
0
 41
0
  0
VERTEX
  8
0
 10
54.8635
 20
479.014
 30
0.0
 40
0
 41
0
  0
VERTEX
  8
0
 10
55.0072
 20
479.05
 30
0.0
 40
0
 41
0
  0
VERTEX
  8
0
 10
55.1561
 20
479.074
 30
0.0
 40
0
 41
0
  0
VERTEX
  8
0
 10
55.2711
 20
479.081
 30
0.0
 40
0
 41
0
  0
VERTEX
  8
0
 10
55.3096
 20
479.081
 30
0.0
 40
0
 41
0
  0
VERTEX
  8
0
 10
55.3478
 20
479.081
 30
0.0
 40
0
 41
0
  0
VERTEX
  8
0
 10
55.4628
 20
479.074
 30
0.0
 40
0
 41
0
  0
VERTEX
  8
0
 10
55.6118
 20
479.05
 30
0.0
 40
0
 41
0
  0
VERTEX
  8
0
 10
55.7556
 20
479.014
 30
0.0
 40
0
 41
0
  0
VERTEX
  8
0
 10
55.8933
 20
478.964
 30
0.0
 40
0
 41
0
  0
VERTEX
  8
0
 10
56.0244
 20
478.9
 30
0.0
 40
0
 41
0
  0
VERTEX
  8
0
 10
56.1482
 20
478.825
 30
0.0
 40
0
 41
0
  0
VERTEX
  8
0
 10
56.2636
 20
478.739
 30
0.0
 40
0
 41
0
  0
VERTEX
  8
0
 10
56.3701
 20
478.642
 30
0.0
 40
0
 41
0
  0
VERTEX
  8
0
 10
56.4669
 20
478.535
 30
0.0
 40
0
 41
0
  0
VERTEX
  8
0
 10
56.5533
 20
478.419
 30
0.0
 40
0
 41
0
  0
VERTEX
  8
0
 10
56.6285
 20
478.296
 30
0.0
 40
0
 41
0
  0
VERTEX
  8
0
 10
56.6917
 20
478.165
 30
0.0
 40
0
 41
0
  0
VERTEX
  8
0
 10
56.7421
 20
478.028
 30
0.0
 40
0
 41
0
  0
VERTEX
  8
0
 10
56.779
 20
477.883
 30
0.0
 40
0
 41
0
  0
VERTEX
  8
0
 10
56.8018
 20
477.735
 30
0.0
 40
0
 41
0
  0
VERTEX
  8
0
 10
56.8096
 20
477.619
 30
0.0
 40
0
 41
0
  0
VERTEX
  8
0
 10
56.8096
 20
477.581
 30
0.0
 40
0
 41
0
  0
VERTEX
  8
0
 10
56.8096
 20
477.543
 30
0.0
 40
0
 41
0
  0
VERTEX
  8
0
 10
56.8018
 20
477.428
 30
0.0
 40
0
 41
0
  0
VERTEX
  8
0
 10
56.779
 20
477.279
 30
0.0
 40
0
 41
0
  0
VERTEX
  8
0
 10
56.7421
 20
477.135
 30
0.0
 40
0
 41
0
  0
VERTEX
  8
0
 10
56.6917
 20
476.997
 30
0.0
 40
0
 41
0
  0
VERTEX
  8
0
 10
56.6285
 20
476.867
 30
0.0
 40
0
 41
0
  0
VERTEX
  8
0
 10
56.5533
 20
476.743
 30
0.0
 40
0
 41
0
  0
VERTEX
  8
0
 10
56.4669
 20
476.626
 30
0.0
 40
0
 41
0
  0
VERTEX
  8
0
 10
56.3701
 20
476.521
 30
0.0
 40
0
 41
0
  0
VERTEX
  8
0
 10
56.2636
 20
476.424
 30
0.0
 40
0
 41
0
  0
VERTEX
  8
0
 10
56.1482
 20
476.338
 30
0.0
 40
0
 41
0
  0
VERTEX
  8
0
 10
56.0244
 20
476.262
 30
0.0
 40
0
 41
0
  0
VERTEX
  8
0
 10
55.8933
 20
476.199
 30
0.0
 40
0
 41
0
  0
VERTEX
  8
0
 10
55.7556
 20
476.149
 30
0.0
 40
0
 41
0
  0
VERTEX
  8
0
 10
55.6118
 20
476.111
 30
0.0
 40
0
 41
0
  0
VERTEX
  8
0
 10
55.4628
 20
476.089
 30
0.0
 40
0
 41
0
  0
VERTEX
  8
0
 10
55.3478
 20
476.081
 30
0.0
 40
0
 41
0
  0
VERTEX
  8
0
 10
55.3096
 20
476.081
 30
0.0
 40
0
 41
0
  0
SEQEND
 8
0
  0
POLYLINE
  8
0
 62
     0
 66
     1
 10
0
 20
0
 30
0.0
 70
     1
 40
0
 41
0
  0
VERTEX
  8
0
 10
10
 20
41.2904
 30
0.0
 40
0
 41
0
  0
VERTEX
  8
0
 10
9.37067
 20
45.5017
 30
0.0
 40
0
 41
0
  0
VERTEX
  8
0
 10
8.78217
 20
49.8539
 30
0.0
 40
0
 41
0
  0
VERTEX
  8
0
 10
8.23232
 20
54.3381
 30
0.0
 40
0
 41
0
  0
VERTEX
  8
0
 10
7.71886
 20
58.9446
 30
0.0
 40
0
 41
0
  0
VERTEX
  8
0
 10
7.23969
 20
63.6644
 30
0.0
 40
0
 41
0
  0
VERTEX
  8
0
 10
6.79254
 20
68.4882
 30
0.0
 40
0
 41
0
  0
VERTEX
  8
0
 10
6.37532
 20
73.4065
 30
0.0
 40
0
 41
0
  0
VERTEX
  8
0
 10
5.98579
 20
78.4104
 30
0.0
 40
0
 41
0
  0
VERTEX
  8
0
 10
5.62181
 20
83.4901
 30
0.0
 40
0
 41
0
  0
VERTEX
  8
0
 10
5.28108
 20
88.6368
 30
0.0
 40
0
 41
0
  0
VERTEX
  8
0
 10
4.96153
 20
93.841
 30
0.0
 40
0
 41
0
  0
VERTEX
  8
0
 10
4.66097
 20
99.0932
 30
0.0
 40
0
 41
0
  0
VERTEX
  8
0
 10
4.37711
 20
104.384
 30
0.0
 40
0
 41
0
  0
VERTEX
  8
0
 10
4.10792
 20
109.705
 30
0.0
 40
0
 41
0
  0
VERTEX
  8
0
 10
3.85101
 20
115.047
 30
0.0
 40
0
 41
0
  0
VERTEX
  8
0
 10
3.60444
 20
120.399
 30
0.0
 40
0
 41
0
  0
VERTEX
  8
0
 10
3.36583
 20
125.753
 30
0.0
 40
0
 41
0
  0
VERTEX
  8
0
 10
3.13308
 20
131.099
 30
0.0
 40
0
 41
0
  0
VERTEX
  8
0
 10
2.90397
 20
136.429
 30
0.0
 40
0
 41
0
  0
VERTEX
  8
0
 10
2.67632
 20
141.733
 30
0.0
 40
0
 41
0
  0
VERTEX
  8
0
 10
2.44797
 20
147.001
 30
0.0
 40
0
 41
0
  0
VERTEX
  8
0
 10
2.21674
 20
152.225
 30
0.0
 40
0
 41
0
  0
VERTEX
  8
0
 10
1.98042
 20
157.394
 30
0.0
 40
0
 41
0
  0
VERTEX
  8
0
 10
1.73676
 20
162.5
 30
0.0
 40
0
 41
0
  0
VERTEX
  8
0
 10
1.48372
 20
167.535
 30
0.0
 40
0
 41
0
  0
VERTEX
  8
0
 10
1.21902
 20
172.486
 30
0.0
 40
0
 41
0
  0
VERTEX
  8
0
 10
0.940483
 20
177.347
 30
0.0
 40
0
 41
0
  0
VERTEX
  8
0
 10
0.645887
 20
182.108
 30
0.0
 40
0
 41
0
  0
VERTEX
  8
0
 10
0.333171
 20
186.758
 30
0.0
 40
0
 41
0
  0
VERTEX
  8
0
 10
0
 20
191.29
 30
0.0
 40
0
 41
0
  0
VERTEX
  8
0
 10
0
 20
202.26
 30
0.0
 40
0
 41
0
  0
VERTEX
  8
0
 10
0.0190972
 20
202.244
 30
0.0
 40
0
 41
0
  0
VERTEX
  8
0
 10
0.0382488
 20
202.229
 30
0.0
 40
0
 41
0
  0
VERTEX
  8
0
 10
0.057346
 20
202.215
 30
0.0
 40
0
 41
0
  0
VERTEX
  8
0
 10
0.0764974
 20
202.2
 30
0.0
 40
0
 41
0
  0
VERTEX
  8
0
 10
0.0956489
 20
202.185
 30
0.0
 40
0
 41
0
  0
VERTEX
  8
0
 10
0.133952
 20
202.156
 30
0.0
 40
0
 41
0
  0
VERTEX
  8
0
 10
0.172254
 20
202.126
 30
0.0
 40
0
 41
0
  0
VERTEX
  8
0
 10
0.191461
 20
202.111
 30
0.0
 40
0
 41
0
  0
VERTEX
  8
0
 10
0.210667
 20
202.096
 30
0.0
 40
0
 41
0
  0
VERTEX
  8
0
 10
0.229872
 20
202.082
 30
0.0
 40
0
 41
0
  0
VERTEX
  8
0
 10
0.249132
 20
202.067
 30
0.0
 40
0
 41
0
  0
VERTEX
  8
0
 10
0.268392
 20
202.053
 30
0.0
 40
0
 41
0
  0
VERTEX
  8
0
 10
0.287706
 20
202.038
 30
0.0
 40
0
 41
0
  0
VERTEX
  8
0
 10
0.306967
 20
202.024
 30
0.0
 40
0
 41
0
  0
VERTEX
  8
0
 10
0.326335
 20
202.008
 30
0.0
 40
0
 41
0
  0
VERTEX
  8
0
 10
0.345649
 20
201.994
 30
0.0
 40
0
 41
0
  0
VERTEX
  8
0
 10
0.365072
 20
201.981
 30
0.0
 40
0
 41
0
  0
VERTEX
  8
0
 10
0.38444
 20
201.967
 30
0.0
 40
0
 41
0
  0
VERTEX
  8
0
 10
0.403917
 20
201.951
 30
0.0
 40
0
 41
0
  0
VERTEX
  8
0
 10
0.423394
 20
201.938
 30
0.0
 40
0
 41
0
  0
VERTEX
  8
0
 10
0.442871
 20
201.924
 30
0.0
 40
0
 41
0
  0
VERTEX
  8
0
 10
0.462403
 20
201.91
 30
0.0
 40
0
 41
0
  0
VERTEX
  8
0
 10
0.481987
 20
201.896
 30
0.0
 40
0
 41
0
  0
VERTEX
  8
0
 10
0.501628
 20
201.882
 30
0.0
 40
0
 41
0
  0
VERTEX
  8
0
 10
0.521268
 20
201.868
 30
0.0
 40
0
 41
0
  0
VERTEX
  8
0
 10
0.540961
 20
201.854
 30
0.0
 40
0
 41
0
  0
VERTEX
  8
0
 10
0.56071
 20
201.84
 30
0.0
 40
0
 41
0
  0
VERTEX
  8
0
 10
0.580513
 20
201.826
 30
0.0
 40
0
 41
0
  0
VERTEX
  8
0
 10
0.600043
 20
201.814
 30
0.0
 40
0
 41
0
  0
VERTEX
  8
0
 10
0.619575
 20
201.8
 30
0.0
 40
0
 41
0
  0
VERTEX
  8
0
 10
0.63916
 20
201.788
 30
0.0
 40
0
 41
0
  0
VERTEX
  8
0
 10
0.658854
 20
201.775
 30
0.0
 40
0
 41
0
  0
VERTEX
  8
0
 10
0.678549
 20
201.761
 30
0.0
 40
0
 41
0
  0
VERTEX
  8
0
 10
0.698351
 20
201.749
 30
0.0
 40
0
 41
0
  0
VERTEX
  8
0
 10
0.718153
 20
201.736
 30
0.0
 40
0
 41
0
  0
VERTEX
  8
0
 10
0.738064
 20
201.724
 30
0.0
 40
0
 41
0
  0
VERTEX
  8
0
 10
0.757975
 20
201.711
 30
0.0
 40
0
 41
0
  0
VERTEX
  8
0
 10
0.777994
 20
201.7
 30
0.0
 40
0
 41
0
  0
VERTEX
  8
0
 10
0.798122
 20
201.688
 30
0.0
 40
0
 41
0
  0
VERTEX
  8
0
 10
0.818251
 20
201.675
 30
0.0
 40
0
 41
0
  0
VERTEX
  8
0
 10
0.838488
 20
201.664
 30
0.0
 40
0
 41
0
  0
VERTEX
  8
0
 10
0.858832
 20
201.651
 30
0.0
 40
0
 41
0
  0
VERTEX
  8
0
 10
0.879232
 20
201.64
 30
0.0
 40
0
 41
0
  0
VERTEX
  8
0
 10
0.899685
 20
201.629
 30
0.0
 40
0
 41
0
  0
VERTEX
  8
0
 10
0.920247
 20
201.618
 30
0.0
 40
0
 41
0
  0
VERTEX
  8
0
 10
0.940864
 20
201.607
 30
0.0
 40
0
 41
0
  0
VERTEX
  8
0
 10
0.961643
 20
201.596
 30
0.0
 40
0
 41
0
  0
VERTEX
  8
0
 10
0.982476
 20
201.585
 30
0.0
 40
0
 41
0
  0
VERTEX
  8
0
 10
1.00336
 20
201.575
 30
0.0
 40
0
 41
0
  0
VERTEX
  8
0
 10
1.02441
 20
201.564
 30
0.0
 40
0
 41
0
  0
VERTEX
  8
0
 10
1.04552
 20
201.554
 30
0.0
 40
0
 41
0
  0
VERTEX
  8
0
 10
1.06673
 20
201.544
 30
0.0
 40
0
 41
0
  0
VERTEX
  8
0
 10
1.08811
 20
201.535
 30
0.0
 40
0
 41
0
  0
VERTEX
  8
0
 10
1.10954
 20
201.525
 30
0.0
 40
0
 41
0
  0
VERTEX
  8
0
 10
1.13108
 20
201.515
 30
0.0
 40
0
 41
0
  0
VERTEX
  8
0
 10
1.15272
 20
201.506
 30
0.0
 40
0
 41
0
  0
VERTEX
  8
0
 10
1.17453
 20
201.497
 30
0.0
 40
0
 41
0
  0
VERTEX
  8
0
 10
1.1964
 20
201.489
 30
0.0
 40
0
 41
0
  0
VERTEX
  8
0
 10
1.21843
 20
201.481
 30
0.0
 40
0
 41
0
  0
VERTEX
  8
0
 10
1.24219
 20
201.471
 30
0.0
 40
0
 41
0
  0
VERTEX
  8
0
 10
1.26606
 20
201.462
 30
0.0
 40
0
 41
0
  0
VERTEX
  8
0
 10
1.29004
 20
201.454
 30
0.0
 40
0
 41
0
  0
VERTEX
  8
0
 10
1.31424
 20
201.446
 30
0.0
 40
0
 41
0
  0
VERTEX
  8
0
 10
1.33849
 20
201.439
 30
0.0
 40
0
 41
0
  0
VERTEX
  8
0
 10
1.3629
 20
201.431
 30
0.0
 40
0
 41
0
  0
VERTEX
  8
0
 10
1.38742
 20
201.424
 30
0.0
 40
0
 41
0
  0
VERTEX
  8
0
 10
1.41211
 20
201.417
 30
0.0
 40
0
 41
0
  0
VERTEX
  8
0
 10
1.43685
 20
201.41
 30
0.0
 40
0
 41
0
  0
VERTEX
  8
0
 10
1.46175
 20
201.403
 30
0.0
 40
0
 41
0
  0
VERTEX
  8
0
 10
1.48671
 20
201.396
 30
0.0
 40
0
 41
0
  0
VERTEX
  8
0
 10
1.51178
 20
201.39
 30
0.0
 40
0
 41
0
  0
VERTEX
  8
0
 10
1.53689
 20
201.383
 30
0.0
 40
0
 41
0
  0
VERTEX
  8
0
 10
1.56218
 20
201.378
 30
0.0
 40
0
 41
0
  0
VERTEX
  8
0
 10
1.58751
 20
201.371
 30
0.0
 40
0
 41
0
  0
VERTEX
  8
0
 10
1.6129
 20
201.365
 30
0.0
 40
0
 41
0
  0
VERTEX
  8
0
 10
1.6384
 20
201.36
 30
0.0
 40
0
 41
0
  0
VERTEX
  8
0
 10
1.6639
 20
201.354
 30
0.0
 40
0
 41
0
  0
VERTEX
  8
0
 10
1.68951
 20
201.349
 30
0.0
 40
0
 41
0
  0
VERTEX
  8
0
 10
1.71522
 20
201.344
 30
0.0
 40
0
 41
0
  0
VERTEX
  8
0
 10
1.74094
 20
201.339
 30
0.0
 40
0
 41
0
  0
VERTEX
  8
0
 10
1.76671
 20
201.333
 30
0.0
 40
0
 41
0
  0
VERTEX
  8
0
 10
1.79249
 20
201.329
 30
0.0
 40
0
 41
0
  0
VERTEX
  8
0
 10
1.81836
 20
201.324
 30
0.0
 40
0
 41
0
  0
VERTEX
  8
0
 10
1.84424
 20
201.319
 30
0.0
 40
0
 41
0
  0
VERTEX
  8
0
 10
1.87017
 20
201.314
 30
0.0
 40
0
 41
0
  0
VERTEX
  8
0
 10
1.89611
 20
201.31
 30
0.0
 40
0
 41
0
  0
VERTEX
  8
0
 10
1.92204
 20
201.304
 30
0.0
 40
0
 41
0
  0
VERTEX
  8
0
 10
1.97401
 20
201.296
 30
0.0
 40
0
 41
0
  0
VERTEX
  8
0
 10
2
 20
201.29
 30
0.0
 40
0
 41
0
  0
VERTEX
  8
0
 10
2.04286
 20
201.293
 30
0.0
 40
0
 41
0
  0
VERTEX
  8
0
 10
2.06424
 20
201.293
 30
0.0
 40
0
 41
0
  0
VERTEX
  8
0
 10
2.08567
 20
201.294
 30
0.0
 40
0
 41
0
  0
VERTEX
  8
0
 10
2.10704
 20
201.296
 30
0.0
 40
0
 41
0
  0
VERTEX
  8
0
 10
2.12842
 20
201.297
 30
0.0
 40
0
 41
0
  0
VERTEX
  8
0
 10
2.14974
 20
201.297
 30
0.0
 40
0
 41
0
  0
VERTEX
  8
0
 10
2.17106
 20
201.299
 30
0.0
 40
0
 41
0
  0
VERTEX
  8
0
 10
2.19233
 20
201.3
 30
0.0
 40
0
 41
0
  0
VERTEX
  8
0
 10
2.21354
 20
201.301
 30
0.0
 40
0
 41
0
  0
VERTEX
  8
0
 10
2.23475
 20
201.303
 30
0.0
 40
0
 41
0
  0
VERTEX
  8
0
 10
2.25592
 20
201.304
 30
0.0
 40
0
 41
0
  0
VERTEX
  8
0
 10
2.27701
 20
201.307
 30
0.0
 40
0
 41
0
  0
VERTEX
  8
0
 10
2.29807
 20
201.308
 30
0.0
 40
0
 41
0
  0
VERTEX
  8
0
 10
2.31907
 20
201.311
 30
0.0
 40
0
 41
0
  0
VERTEX
  8
0
 10
2.34
 20
201.313
 30
0.0
 40
0
 41
0
  0
VERTEX
  8
0
 10
2.36083
 20
201.315
 30
0.0
 40
0
 41
0
  0
VERTEX
  8
0
 10
2.38167
 20
201.318
 30
0.0
 40
0
 41
0
  0
VERTEX
  8
0
 10
2.4024
 20
201.319
 30
0.0
 40
0
 41
0
  0
VERTEX
  8
0
 10
2.42307
 20
201.322
 30
0.0
 40
0
 41
0
  0
VERTEX
  8
0
 10
2.44362
 20
201.326
 30
0.0
 40
0
 41
0
  0
VERTEX
  8
0
 10
2.46408
 20
201.329
 30
0.0
 40
0
 41
0
  0
VERTEX
  8
0
 10
2.48449
 20
201.333
 30
0.0
 40
0
 41
0
  0
VERTEX
  8
0
 10
2.50478
 20
201.336
 30
0.0
 40
0
 41
0
  0
VERTEX
  8
0
 10
2.52501
 20
201.34
 30
0.0
 40
0
 41
0
  0
VERTEX
  8
0
 10
2.54508
 20
201.344
 30
0.0
 40
0
 41
0
  0
VERTEX
  8
0
 10
2.56511
 20
201.349
 30
0.0
 40
0
 41
0
  0
VERTEX
  8
0
 10
2.58496
 20
201.354
 30
0.0
 40
0
 41
0
  0
VERTEX
  8
0
 10
2.60476
 20
201.358
 30
0.0
 40
0
 41
0
  0
VERTEX
  8
0
 10
2.6244
 20
201.364
 30
0.0
 40
0
 41
0
  0
VERTEX
  8
0
 10
2.64236
 20
201.369
 30
0.0
 40
0
 41
0
  0
VERTEX
  8
0
 10
2.66026
 20
201.375
 30
0.0
 40
0
 41
0
  0
VERTEX
  8
0
 10
2.67806
 20
201.381
 30
0.0
 40
0
 41
0
  0
VERTEX
  8
0
 10
2.69569
 20
201.386
 30
0.0
 40
0
 41
0
  0
VERTEX
  8
0
 10
2.71326
 20
201.392
 30
0.0
 40
0
 41
0
  0
VERTEX
  8
0
 10
2.73074
 20
201.399
 30
0.0
 40
0
 41
0
  0
VERTEX
  8
0
 10
2.7481
 20
201.406
 30
0.0
 40
0
 41
0
  0
VERTEX
  8
0
 10
2.7654
 20
201.413
 30
0.0
 40
0
 41
0
  0
VERTEX
  8
0
 10
2.78256
 20
201.419
 30
0.0
 40
0
 41
0
  0
VERTEX
  8
0
 10
2.79958
 20
201.426
 30
0.0
 40
0
 41
0
  0
VERTEX
  8
0
 10
2.81657
 20
201.433
 30
0.0
 40
0
 41
0
  0
VERTEX
  8
0
 10
2.83339
 20
201.442
 30
0.0
 40
0
 41
0
  0
VERTEX
  8
0
 10
2.85015
 20
201.449
 30
0.0
 40
0
 41
0
  0
VERTEX
  8
0
 10
2.86681
 20
201.457
 30
0.0
 40
0
 41
0
  0
VERTEX
  8
0
 10
2.88336
 20
201.465
 30
0.0
 40
0
 41
0
  0
VERTEX
  8
0
 10
2.89979
 20
201.474
 30
0.0
 40
0
 41
0
  0
VERTEX
  8
0
 10
2.91613
 20
201.482
 30
0.0
 40
0
 41
0
  0
VERTEX
  8
0
 10
2.93235
 20
201.492
 30
0.0
 40
0
 41
0
  0
VERTEX
  8
0
 10
2.94846
 20
201.5
 30
0.0
 40
0
 41
0
  0
VERTEX
  8
0
 10
2.96451
 20
201.51
 30
0.0
 40
0
 41
0
  0
VERTEX
  8
0
 10
2.98047
 20
201.518
 30
0.0
 40
0
 41
0
  0
VERTEX
  8
0
 10
2.99625
 20
201.528
 30
0.0
 40
0
 41
0
  0
VERTEX
  8
0
 10
3.01199
 20
201.538
 30
0.0
 40
0
 41
0
  0
VERTEX
  8
0
 10
3.02761
 20
201.547
 30
0.0
 40
0
 41
0
  0
VERTEX
  8
0
 10
3.04312
 20
201.557
 30
0.0
 40
0
 41
0
  0
VERTEX
  8
0
 10
3.05854
 20
201.568
 30
0.0
 40
0
 41
0
  0
VERTEX
  8
0
 10
3.07389
 20
201.578
 30
0.0
 40
0
 41
0
  0
VERTEX
  8
0
 10
3.08908
 20
201.587
 30
0.0
 40
0
 41
0
  0
VERTEX
  8
0
 10
3.10422
 20
201.599
 30
0.0
 40
0
 41
0
  0
VERTEX
  8
0
 10
3.11919
 20
201.61
 30
0.0
 40
0
 41
0
  0
VERTEX
  8
0
 10
3.13519
 20
201.621
 30
0.0
 40
0
 41
0
  0
VERTEX
  8
0
 10
3.1511
 20
201.632
 30
0.0
 40
0
 41
0
  0
VERTEX
  8
0
 10
3.16683
 20
201.644
 30
0.0
 40
0
 41
0
  0
VERTEX
  8
0
 10
3.18251
 20
201.656
 30
0.0
 40
0
 41
0
  0
VERTEX
  8
0
 10
3.19803
 20
201.668
 30
0.0
 40
0
 41
0
  0
VERTEX
  8
0
 10
3.21349
 20
201.681
 30
0.0
 40
0
 41
0
  0
VERTEX
  8
0
 10
3.22889
 20
201.693
 30
0.0
 40
0
 41
0
  0
VERTEX
  8
0
 10
3.24419
 20
201.706
 30
0.0
 40
0
 41
0
  0
VERTEX
  8
0
 10
3.25944
 20
201.718
 30
0.0
 40
0
 41
0
  0
VERTEX
  8
0
 10
3.27458
 20
201.731
 30
0.0
 40
0
 41
0
  0
VERTEX
  8
0
 10
3.28965
 20
201.744
 30
0.0
 40
0
 41
0
  0
VERTEX
  8
0
 10
3.30474
 20
201.758
 30
0.0
 40
0
 41
0
  0
VERTEX
  8
0
 10
3.31972
 20
201.772
 30
0.0
 40
0
 41
0
  0
VERTEX
  8
0
 10
3.33469
 20
201.786
 30
0.0
 40
0
 41
0
  0
VERTEX
  8
0
 10
3.34961
 20
201.8
 30
0.0
 40
0
 41
0
  0
VERTEX
  8
0
 10
3.36447
 20
201.814
 30
0.0
 40
0
 41
0
  0
VERTEX
  8
0
 10
3.37935
 20
201.829
 30
0.0
 40
0
 41
0
  0
VERTEX
  8
0
 10
3.39421
 20
201.844
 30
0.0
 40
0
 41
0
  0
VERTEX
  8
0
 10
3.40901
 20
201.86
 30
0.0
 40
0
 41
0
  0
VERTEX
  8
0
 10
3.42383
 20
201.875
 30
0.0
 40
0
 41
0
  0
VERTEX
  8
0
 10
3.43869
 20
201.89
 30
0.0
 40
0
 41
0
  0
VERTEX
  8
0
 10
3.4535
 20
201.907
 30
0.0
 40
0
 41
0
  0
VERTEX
  8
0
 10
3.46838
 20
201.924
 30
0.0
 40
0
 41
0
  0
VERTEX
  8
0
 10
3.48324
 20
201.94
 30
0.0
 40
0
 41
0
  0
VERTEX
  8
0
 10
3.49815
 20
201.957
 30
0.0
 40
0
 41
0
  0
VERTEX
  8
0
 10
3.51307
 20
201.975
 30
0.0
 40
0
 41
0
  0
VERTEX
  8
0
 10
3.52806
 20
201.993
 30
0.0
 40
0
 41
0
  0
VERTEX
  8
0
 10
3.54308
 20
202.011
 30
0.0
 40
0
 41
0
  0
VERTEX
  8
0
 10
3.55811
 20
202.031
 30
0.0
 40
0
 41
0
  0
VERTEX
  8
0
 10
3.57324
 20
202.049
 30
0.0
 40
0
 41
0
  0
VERTEX
  8
0
 10
3.58843
 20
202.068
 30
0.0
 40
0
 41
0
  0
VERTEX
  8
0
 10
3.61025
 20
202.097
 30
0.0
 40
0
 41
0
  0
VERTEX
  8
0
 10
3.63222
 20
202.126
 30
0.0
 40
0
 41
0
  0
VERTEX
  8
0
 10
3.65429
 20
202.156
 30
0.0
 40
0
 41
0
  0
VERTEX
  8
0
 10
3.67654
 20
202.186
 30
0.0
 40
0
 41
0
  0
VERTEX
  8
0
 10
3.69889
 20
202.218
 30
0.0
 40
0
 41
0
  0
VERTEX
  8
0
 10
3.72136
 20
202.25
 30
0.0
 40
0
 41
0
  0
VERTEX
  8
0
 10
3.74393
 20
202.283
 30
0.0
 40
0
 41
0
  0
VERTEX
  8
0
 10
3.76654
 20
202.317
 30
0.0
 40
0
 41
0
  0
VERTEX
  8
0
 10
3.78922
 20
202.351
 30
0.0
 40
0
 41
0
  0
VERTEX
  8
0
 10
3.81201
 20
202.386
 30
0.0
 40
0
 41
0
  0
VERTEX
  8
0
 10
3.83479
 20
202.422
 30
0.0
 40
0
 41
0
  0
VERTEX
  8
0
 10
3.85758
 20
202.458
 30
0.0
 40
0
 41
0
  0
VERTEX
  8
0
 10
3.88043
 20
202.494
 30
0.0
 40
0
 41
0
  0
VERTEX
  8
0
 10
3.90326
 20
202.531
 30
0.0
 40
0
 41
0
  0
VERTEX
  8
0
 10
3.92606
 20
202.568
 30
0.0
 40
0
 41
0
  0
VERTEX
  8
0
 10
3.94883
 20
202.606
 30
0.0
 40
0
 41
0
  0
VERTEX
  8
0
 10
3.97163
 20
202.644
 30
0.0
 40
0
 41
0
  0
VERTEX
  8
0
 10
3.99431
 20
202.683
 30
0.0
 40
0
 41
0
  0
VERTEX
  8
0
 10
4.01693
 20
202.722
 30
0.0
 40
0
 41
0
  0
VERTEX
  8
0
 10
4.03944
 20
202.761
 30
0.0
 40
0
 41
0
  0
VERTEX
  8
0
 10
4.0619
 20
202.8
 30
0.0
 40
0
 41
0
  0
VERTEX
  8
0
 10
4.08421
 20
202.84
 30
0.0
 40
0
 41
0
  0
VERTEX
  8
0
 10
4.10644
 20
202.879
 30
0.0
 40
0
 41
0
  0
VERTEX
  8
0
 10
4.12853
 20
202.919
 30
0.0
 40
0
 41
0
  0
VERTEX
  8
0
 10
4.15044
 20
202.96
 30
0.0
 40
0
 41
0
  0
VERTEX
  8
0
 10
4.17219
 20
203
 30
0.0
 40
0
 41
0
  0
VERTEX
  8
0
 10
4.19379
 20
203.04
 30
0.0
 40
0
 41
0
  0
VERTEX
  8
0
 10
4.21517
 20
203.081
 30
0.0
 40
0
 41
0
  0
VERTEX
  8
0
 10
4.23639
 20
203.121
 30
0.0
 40
0
 41
0
  0
VERTEX
  8
0
 10
4.25738
 20
203.161
 30
0.0
 40
0
 41
0
  0
VERTEX
  8
0
 10
4.2781
 20
203.201
 30
0.0
 40
0
 41
0
  0
VERTEX
  8
0
 10
4.29921
 20
203.242
 30
0.0
 40
0
 41
0
  0
VERTEX
  8
0
 10
4.31999
 20
203.283
 30
0.0
 40
0
 41
0
  0
VERTEX
  8
0
 10
4.34056
 20
203.324
 30
0.0
 40
0
 41
0
  0
VERTEX
  8
0
 10
4.36083
 20
203.365
 30
0.0
 40
0
 41
0
  0
VERTEX
  8
0
 10
4.38092
 20
203.406
 30
0.0
 40
0
 41
0
  0
VERTEX
  8
0
 10
4.40076
 20
203.447
 30
0.0
 40
0
 41
0
  0
VERTEX
  8
0
 10
4.42036
 20
203.487
 30
0.0
 40
0
 41
0
  0
VERTEX
  8
0
 10
4.43978
 20
203.528
 30
0.0
 40
0
 41
0
  0
VERTEX
  8
0
 10
4.45899
 20
203.569
 30
0.0
 40
0
 41
0
  0
VERTEX
  8
0
 10
4.47797
 20
203.61
 30
0.0
 40
0
 41
0
  0
VERTEX
  8
0
 10
4.49681
 20
203.65
 30
0.0
 40
0
 41
0
  0
VERTEX
  8
0
 10
4.51551
 20
203.692
 30
0.0
 40
0
 41
0
  0
VERTEX
  8
0
 10
4.53401
 20
203.732
 30
0.0
 40
0
 41
0
  0
VERTEX
  8
0
 10
4.5524
 20
203.774
 30
0.0
 40
0
 41
0
  0
VERTEX
  8
0
 10
4.57064
 20
203.814
 30
0.0
 40
0
 41
0
  0
VERTEX
  8
0
 10
4.58871
 20
203.856
 30
0.0
 40
0
 41
0
  0
VERTEX
  8
0
 10
4.60672
 20
203.897
 30
0.0
 40
0
 41
0
  0
VERTEX
  8
0
 10
4.62462
 20
203.938
 30
0.0
 40
0
 41
0
  0
VERTEX
  8
0
 10
4.64242
 20
203.979
 30
0.0
 40
0
 41
0
  0
VERTEX
  8
0
 10
4.6601
 20
204.021
 30
0.0
 40
0
 41
0
  0
VERTEX
  8
0
 10
4.67774
 20
204.063
 30
0.0
 40
0
 41
0
  0
VERTEX
  8
0
 10
4.69532
 20
204.106
 30
0.0
 40
0
 41
0
  0
VERTEX
  8
0
 10
4.71283
 20
204.147
 30
0.0
 40
0
 41
0
  0
VERTEX
  8
0
 10
4.73031
 20
204.19
 30
0.0
 40
0
 41
0
  0
VERTEX
  8
0
 10
4.74778
 20
204.233
 30
0.0
 40
0
 41
0
  0
VERTEX
  8
0
 10
4.76519
 20
204.276
 30
0.0
 40
0
 41
0
  0
VERTEX
  8
0
 10
4.78261
 20
204.319
 30
0.0
 40
0
 41
0
  0
VERTEX
  8
0
 10
4.80003
 20
204.362
 30
0.0
 40
0
 41
0
  0
VERTEX
  8
0
 10
4.81749
 20
204.407
 30
0.0
 40
0
 41
0
  0
VERTEX
  8
0
 10
4.8349
 20
204.451
 30
0.0
 40
0
 41
0
  0
VERTEX
  8
0
 10
4.85243
 20
204.496
 30
0.0
 40
0
 41
0
  0
VERTEX
  8
0
 10
4.87337
 20
204.55
 30
0.0
 40
0
 41
0
  0
VERTEX
  8
0
 10
4.89437
 20
204.604
 30
0.0
 40
0
 41
0
  0
VERTEX
  8
0
 10
4.91542
 20
204.66
 30
0.0
 40
0
 41
0
  0
VERTEX
  8
0
 10
4.93658
 20
204.715
 30
0.0
 40
0
 41
0
  0
VERTEX
  8
0
 10
4.95779
 20
204.771
 30
0.0
 40
0
 41
0
  0
VERTEX
  8
0
 10
4.97906
 20
204.828
 30
0.0
 40
0
 41
0
  0
VERTEX
  8
0
 10
5.00038
 20
204.885
 30
0.0
 40
0
 41
0
  0
VERTEX
  8
0
 10
5.02175
 20
204.942
 30
0.0
 40
0
 41
0
  0
VERTEX
  8
0
 10
5.04318
 20
205
 30
0.0
 40
0
 41
0
  0
VERTEX
  8
0
 10
5.06467
 20
205.058
 30
0.0
 40
0
 41
0
  0
VERTEX
  8
0
 10
5.08615
 20
205.118
 30
0.0
 40
0
 41
0
  0
VERTEX
  8
0
 10
5.10764
 20
205.178
 30
0.0
 40
0
 41
0
  0
VERTEX
  8
0
 10
5.12918
 20
205.237
 30
0.0
 40
0
 41
0
  0
VERTEX
  8
0
 10
5.15072
 20
205.299
 30
0.0
 40
0
 41
0
  0
VERTEX
  8
0
 10
5.17231
 20
205.36
 30
0.0
 40
0
 41
0
  0
VERTEX
  8
0
 10
5.19385
 20
205.421
 30
0.0
 40
0
 41
0
  0
VERTEX
  8
0
 10
5.21544
 20
205.483
 30
0.0
 40
0
 41
0
  0
VERTEX
  8
0
 10
5.23703
 20
205.546
 30
0.0
 40
0
 41
0
  0
VERTEX
  8
0
 10
5.25857
 20
205.608
 30
0.0
 40
0
 41
0
  0
VERTEX
  8
0
 10
5.28017
 20
205.671
 30
0.0
 40
0
 41
0
  0
VERTEX
  8
0
 10
5.30171
 20
205.735
 30
0.0
 40
0
 41
0
  0
VERTEX
  8
0
 10
5.32319
 20
205.8
 30
0.0
 40
0
 41
0
  0
VERTEX
  8
0
 10
5.34467
 20
205.864
 30
0.0
 40
0
 41
0
  0
VERTEX
  8
0
 10
5.36615
 20
205.929
 30
0.0
 40
0
 41
0
  0
VERTEX
  8
0
 10
5.38758
 20
205.994
 30
0.0
 40
0
 41
0
  0
VERTEX
  8
0
 10
5.40896
 20
206.061
 30
0.0
 40
0
 41
0
  0
VERTEX
  8
0
 10
5.43028
 20
206.128
 30
0.0
 40
0
 41
0
  0
VERTEX
  8
0
 10
5.45156
 20
206.194
 30
0.0
 40
0
 41
0
  0
VERTEX
  8
0
 10
5.47276
 20
206.261
 30
0.0
 40
0
 41
0
  0
VERTEX
  8
0
 10
5.49393
 20
206.329
 30
0.0
 40
0
 41
0
  0
VERTEX
  8
0
 10
5.51503
 20
206.397
 30
0.0
 40
0
 41
0
  0
VERTEX
  8
0
 10
5.54135
 20
206.483
 30
0.0
 40
0
 41
0
  0
VERTEX
  8
0
 10
5.56754
 20
206.569
 30
0.0
 40
0
 41
0
  0
VERTEX
  8
0
 10
5.59364
 20
206.657
 30
0.0
 40
0
 41
0
  0
VERTEX
  8
0
 10
5.61963
 20
206.744
 30
0.0
 40
0
 41
0
  0
VERTEX
  8
0
 10
5.64546
 20
206.832
 30
0.0
 40
0
 41
0
  0
VERTEX
  8
0
 10
5.67122
 20
206.921
 30
0.0
 40
0
 41
0
  0
VERTEX
  8
0
 10
5.69683
 20
207.011
 30
0.0
 40
0
 41
0
  0
VERTEX
  8
0
 10
5.72239
 20
207.101
 30
0.0
 40
0
 41
0
  0
VERTEX
  8
0
 10
5.74778
 20
207.192
 30
0.0
 40
0
 41
0
  0
VERTEX
  8
0
 10
5.77311
 20
207.283
 30
0.0
 40
0
 41
0
  0
VERTEX
  8
0
 10
5.79833
 20
207.375
 30
0.0
 40
0
 41
0
  0
VERTEX
  8
0
 10
5.82346
 20
207.468
 30
0.0
 40
0
 41
0
  0
VERTEX
  8
0
 10
5.84847
 20
207.561
 30
0.0
 40
0
 41
0
  0
VERTEX
  8
0
 10
5.87343
 20
207.654
 30
0.0
 40
0
 41
0
  0
VERTEX
  8
0
 10
5.89828
 20
207.749
 30
0.0
 40
0
 41
0
  0
VERTEX
  8
0
 10
5.92301
 20
207.844
 30
0.0
 40
0
 41
0
  0
VERTEX
  8
0
 10
5.94769
 20
207.94
 30
0.0
 40
0
 41
0
  0
VERTEX
  8
0
 10
5.97228
 20
208.036
 30
0.0
 40
0
 41
0
  0
VERTEX
  8
0
 10
5.99681
 20
208.133
 30
0.0
 40
0
 41
0
  0
VERTEX
  8
0
 10
6.02126
 20
208.231
 30
0.0
 40
0
 41
0
  0
VERTEX
  8
0
 10
6.04563
 20
208.329
 30
0.0
 40
0
 41
0
  0
VERTEX
  8
0
 10
6.06993
 20
208.428
 30
0.0
 40
0
 41
0
  0
VERTEX
  8
0
 10
6.09418
 20
208.528
 30
0.0
 40
0
 41
0
  0
VERTEX
  8
0
 10
6.11838
 20
208.628
 30
0.0
 40
0
 41
0
  0
VERTEX
  8
0
 10
6.14247
 20
208.728
 30
0.0
 40
0
 41
0
  0
VERTEX
  8
0
 10
6.1665
 20
208.831
 30
0.0
 40
0
 41
0
  0
VERTEX
  8
0
 10
6.19054
 20
208.932
 30
0.0
 40
0
 41
0
  0
VERTEX
  8
0
 10
6.21446
 20
209.035
 30
0.0
 40
0
 41
0
  0
VERTEX
  8
0
 10
6.23839
 20
209.139
 30
0.0
 40
0
 41
0
  0
VERTEX
  8
0
 10
6.26221
 20
209.243
 30
0.0
 40
0
 41
0
  0
VERTEX
  8
0
 10
6.28603
 20
209.347
 30
0.0
 40
0
 41
0
  0
VERTEX
  8
0
 10
6.31364
 20
209.469
 30
0.0
 40
0
 41
0
  0
VERTEX
  8
0
 10
6.34119
 20
209.593
 30
0.0
 40
0
 41
0
  0
VERTEX
  8
0
 10
6.36871
 20
209.718
 30
0.0
 40
0
 41
0
  0
VERTEX
  8
0
 10
6.39615
 20
209.843
 30
0.0
 40
0
 41
0
  0
VERTEX
  8
0
 10
6.42356
 20
209.969
 30
0.0
 40
0
 41
0
  0
VERTEX
  8
0
 10
6.4509
 20
210.097
 30
0.0
 40
0
 41
0
  0
VERTEX
  8
0
 10
6.47819
 20
210.225
 30
0.0
 40
0
 41
0
  0
VERTEX
  8
0
 10
6.50543
 20
210.354
 30
0.0
 40
0
 41
0
  0
VERTEX
  8
0
 10
6.53256
 20
210.483
 30
0.0
 40
0
 41
0
  0
VERTEX
  8
0
 10
6.55968
 20
210.615
 30
0.0
 40
0
 41
0
  0
VERTEX
  8
0
 10
6.58675
 20
210.746
 30
0.0
 40
0
 41
0
  0
VERTEX
  8
0
 10
6.61372
 20
210.879
 30
0.0
 40
0
 41
0
  0
VERTEX
  8
0
 10
6.64068
 20
211.013
 30
0.0
 40
0
 41
0
  0
VERTEX
  8
0
 10
6.66754
 20
211.147
 30
0.0
 40
0
 41
0
  0
VERTEX
  8
0
 10
6.69433
 20
211.282
 30
0.0
 40
0
 41
0
  0
VERTEX
  8
0
 10
6.72108
 20
211.418
 30
0.0
 40
0
 41
0
  0
VERTEX
  8
0
 10
6.74778
 20
211.556
 30
0.0
 40
0
 41
0
  0
VERTEX
  8
0
 10
6.77447
 20
211.693
 30
0.0
 40
0
 41
0
  0
VERTEX
  8
0
 10
6.801
 20
211.832
 30
0.0
 40
0
 41
0
  0
VERTEX
  8
0
 10
6.82753
 20
211.972
 30
0.0
 40
0
 41
0
  0
VERTEX
  8
0
 10
6.854
 20
212.112
 30
0.0
 40
0
 41
0
  0
VERTEX
  8
0
 10
6.88043
 20
212.254
 30
0.0
 40
0
 41
0
  0
VERTEX
  8
0
 10
6.90679
 20
212.396
 30
0.0
 40
0
 41
0
  0
VERTEX
  8
0
 10
6.93306
 20
212.539
 30
0.0
 40
0
 41
0
  0
VERTEX
  8
0
 10
6.95931
 20
212.683
 30
0.0
 40
0
 41
0
  0
VERTEX
  8
0
 10
6.98546
 20
212.829
 30
0.0
 40
0
 41
0
  0
VERTEX
  8
0
 10
7.01156
 20
212.975
 30
0.0
 40
0
 41
0
  0
VERTEX
  8
0
 10
7.03765
 20
213.122
 30
0.0
 40
0
 41
0
  0
VERTEX
  8
0
 10
7.06364
 20
213.269
 30
0.0
 40
0
 41
0
  0
VERTEX
  8
0
 10
7.08957
 20
213.418
 30
0.0
 40
0
 41
0
  0
VERTEX
  8
0
 10
7.12099
 20
213.6
 30
0.0
 40
0
 41
0
  0
VERTEX
  8
0
 10
7.15229
 20
213.783
 30
0.0
 40
0
 41
0
  0
VERTEX
  8
0
 10
7.18354
 20
213.968
 30
0.0
 40
0
 41
0
  0
VERTEX
  8
0
 10
7.21468
 20
214.154
 30
0.0
 40
0
 41
0
  0
VERTEX
  8
0
 10
7.24576
 20
214.34
 30
0.0
 40
0
 41
0
  0
VERTEX
  8
0
 10
7.27669
 20
214.529
 30
0.0
 40
0
 41
0
  0
VERTEX
  8
0
 10
7.30757
 20
214.718
 30
0.0
 40
0
 41
0
  0
VERTEX
  8
0
 10
7.33837
 20
214.91
 30
0.0
 40
0
 41
0
  0
VERTEX
  8
0
 10
7.36903
 20
215.101
 30
0.0
 40
0
 41
0
  0
VERTEX
  8
0
 10
7.39963
 20
215.296
 30
0.0
 40
0
 41
0
  0
VERTEX
  8
0
 10
7.43012
 20
215.49
 30
0.0
 40
0
 41
0
  0
VERTEX
  8
0
 10
7.4605
 20
215.686
 30
0.0
 40
0
 41
0
  0
VERTEX
  8
0
 10
7.49083
 20
215.883
 30
0.0
 40
0
 41
0
  0
VERTEX
  8
0
 10
7.521
 20
216.082
 30
0.0
 40
0
 41
0
  0
VERTEX
  8
0
 10
7.55111
 20
216.282
 30
0.0
 40
0
 41
0
  0
VERTEX
  8
0
 10
7.58111
 20
216.483
 30
0.0
 40
0
 41
0
  0
VERTEX
  8
0
 10
7.611
 20
216.686
 30
0.0
 40
0
 41
0
  0
VERTEX
  8
0
 10
7.64079
 20
216.89
 30
0.0
 40
0
 41
0
  0
VERTEX
  8
0
 10
7.67046
 20
217.094
 30
0.0
 40
0
 41
0
  0
VERTEX
  8
0
 10
7.70003
 20
217.301
 30
0.0
 40
0
 41
0
  0
VERTEX
  8
0
 10
7.72949
 20
217.508
 30
0.0
 40
0
 41
0
  0
VERTEX
  8
0
 10
7.75885
 20
217.718
 30
0.0
 40
0
 41
0
  0
VERTEX
  8
0
 10
7.78803
 20
217.928
 30
0.0
 40
0
 41
0
  0
VERTEX
  8
0
 10
7.81717
 20
218.139
 30
0.0
 40
0
 41
0
  0
VERTEX
  8
0
 10
7.84619
 20
218.351
 30
0.0
 40
0
 41
0
  0
VERTEX
  8
0
 10
7.87511
 20
218.565
 30
0.0
 40
0
 41
0
  0
VERTEX
  8
0
 10
7.90386
 20
218.781
 30
0.0
 40
0
 41
0
  0
VERTEX
  8
0
 10
7.93257
 20
218.996
 30
0.0
 40
0
 41
0
  0
VERTEX
  8
0
 10
7.9611
 20
219.214
 30
0.0
 40
0
 41
0
  0
VERTEX
  8
0
 10
7.98953
 20
219.432
 30
0.0
 40
0
 41
0
  0
VERTEX
  8
0
 10
8.01785
 20
219.651
 30
0.0
 40
0
 41
0
  0
VERTEX
  8
0
 10
8.05203
 20
219.921
 30
0.0
 40
0
 41
0
  0
VERTEX
  8
0
 10
8.0861
 20
220.19
 30
0.0
 40
0
 41
0
  0
VERTEX
  8
0
 10
8.11996
 20
220.462
 30
0.0
 40
0
 41
0
  0
VERTEX
  8
0
 10
8.1536
 20
220.736
 30
0.0
 40
0
 41
0
  0
VERTEX
  8
0
 10
8.18713
 20
221.013
 30
0.0
 40
0
 41
0
  0
VERTEX
  8
0
 10
8.22043
 20
221.29
 30
0.0
 40
0
 41
0
  0
VERTEX
  8
0
 10
8.25364
 20
221.569
 30
0.0
 40
0
 41
0
  0
VERTEX
  8
0
 10
8.28663
 20
221.85
 30
0.0
 40
0
 41
0
  0
VERTEX
  8
0
 10
8.31944
 20
222.133
 30
0.0
 40
0
 41
0
  0
VERTEX
  8
0
 10
8.35211
 20
222.419
 30
0.0
 40
0
 41
0
  0
VERTEX
  8
0
 10
8.3846
 20
222.706
 30
0.0
 40
0
 41
0
  0
VERTEX
  8
0
 10
8.41694
 20
222.996
 30
0.0
 40
0
 41
0
  0
VERTEX
  8
0
 10
8.44917
 20
223.286
 30
0.0
 40
0
 41
0
  0
VERTEX
  8
0
 10
8.48118
 20
223.579
 30
0.0
 40
0
 41
0
  0
VERTEX
  8
0
 10
8.51307
 20
223.875
 30
0.0
 40
0
 41
0
  0
VERTEX
  8
0
 10
8.54482
 20
224.172
 30
0.0
 40
0
 41
0
  0
VERTEX
  8
0
 10
8.57639
 20
224.472
 30
0.0
 40
0
 41
0
  0
VERTEX
  8
0
 10
8.60786
 20
224.774
 30
0.0
 40
0
 41
0
  0
VERTEX
  8
0
 10
8.63917
 20
225.078
 30
0.0
 40
0
 41
0
  0
VERTEX
  8
0
 10
8.67031
 20
225.383
 30
0.0
 40
0
 41
0
  0
VERTEX
  8
0
 10
8.70133
 20
225.692
 30
0.0
 40
0
 41
0
  0
VERTEX
  8
0
 10
8.73226
 20
226.001
 30
0.0
 40
0
 41
0
  0
VERTEX
  8
0
 10
8.76297
 20
226.314
 30
0.0
 40
0
 41
0
  0
VERTEX
  8
0
 10
8.79362
 20
226.629
 30
0.0
 40
0
 41
0
  0
VERTEX
  8
0
 10
8.82411
 20
226.946
 30
0.0
 40
0
 41
0
  0
VERTEX
  8
0
 10
8.85449
 20
227.265
 30
0.0
 40
0
 41
0
  0
VERTEX
  8
0
 10
8.88471
 20
227.588
 30
0.0
 40
0
 41
0
  0
VERTEX
  8
0
 10
8.91487
 20
227.912
 30
0.0
 40
0
 41
0
  0
VERTEX
  8
0
 10
8.94488
 20
228.239
 30
0.0
 40
0
 41
0
  0
VERTEX
  8
0
 10
8.97478
 20
228.568
 30
0.0
 40
0
 41
0
  0
VERTEX
  8
0
 10
9.0045
 20
228.899
 30
0.0
 40
0
 41
0
  0
VERTEX
  8
0
 10
9.04221
 20
229.324
 30
0.0
 40
0
 41
0
  0
VERTEX
  8
0
 10
9.07969
 20
229.753
 30
0.0
 40
0
 41
0
  0
VERTEX
  8
0
 10
9.11703
 20
230.186
 30
0.0
 40
0
 41
0
  0
VERTEX
  8
0
 10
9.15419
 20
230.622
 30
0.0
 40
0
 41
0
  0
VERTEX
  8
0
 10
9.19114
 20
231.063
 30
0.0
 40
0
 41
0
  0
VERTEX
  8
0
 10
9.22792
 20
231.506
 30
0.0
 40
0
 41
0
  0
VERTEX
  8
0
 10
9.26449
 20
231.953
 30
0.0
 40
0
 41
0
  0
VERTEX
  8
0
 10
9.30083
 20
232.403
 30
0.0
 40
0
 41
0
  0
VERTEX
  8
0
 10
9.33708
 20
232.856
 30
0.0
 40
0
 41
0
  0
VERTEX
  8
0
 10
9.37304
 20
233.313
 30
0.0
 40
0
 41
0
  0
VERTEX
  8
0
 10
9.40886
 20
233.771
 30
0.0
 40
0
 41
0
  0
VERTEX
  8
0
 10
9.44444
 20
234.233
 30
0.0
 40
0
 41
0
  0
VERTEX
  8
0
 10
9.47982
 20
234.697
 30
0.0
 40
0
 41
0
  0
VERTEX
  8
0
 10
9.51497
 20
235.164
 30
0.0
 40
0
 41
0
  0
VERTEX
  8
0
 10
9.54997
 20
235.633
 30
0.0
 40
0
 41
0
  0
VERTEX
  8
0
 10
9.58475
 20
236.106
 30
0.0
 40
0
 41
0
  0
VERTEX
  8
0
 10
9.61925
 20
236.578
 30
0.0
 40
0
 41
0
  0
VERTEX
  8
0
 10
9.6536
 20
237.054
 30
0.0
 40
0
 41
0
  0
VERTEX
  8
0
 10
9.68772
 20
237.531
 30
0.0
 40
0
 41
0
  0
VERTEX
  8
0
 10
9.72157
 20
238.01
 30
0.0
 40
0
 41
0
  0
VERTEX
  8
0
 10
9.75521
 20
238.49
 30
0.0
 40
0
 41
0
  0
VERTEX
  8
0
 10
9.78868
 20
238.971
 30
0.0
 40
0
 41
0
  0
VERTEX
  8
0
 10
9.82189
 20
239.454
 30
0.0
 40
0
 41
0
  0
VERTEX
  8
0
 10
9.85482
 20
239.939
 30
0.0
 40
0
 41
0
  0
VERTEX
  8
0
 10
9.88758
 20
240.424
 30
0.0
 40
0
 41
0
  0
VERTEX
  8
0
 10
9.92008
 20
240.91
 30
0.0
 40
0
 41
0
  0
VERTEX
  8
0
 10
9.95231
 20
241.396
 30
0.0
 40
0
 41
0
  0
VERTEX
  8
0
 10
9.98438
 20
241.883
 30
0.0
 40
0
 41
0
  0
VERTEX
  8
0
 10
10.0161
 20
242.372
 30
0.0
 40
0
 41
0
  0
VERTEX
  8
0
 10
10.0476
 20
242.86
 30
0.0
 40
0
 41
0
  0
VERTEX
  8
0
 10
10.0789
 20
243.349
 30
0.0
 40
0
 41
0
  0
VERTEX
  8
0
 10
10.1147
 20
243.911
 30
0.0
 40
0
 41
0
  0
VERTEX
  8
0
 10
10.1501
 20
244.475
 30
0.0
 40
0
 41
0
  0
VERTEX
  8
0
 10
10.1852
 20
245.04
 30
0.0
 40
0
 41
0
  0
VERTEX
  8
0
 10
10.2201
 20
245.608
 30
0.0
 40
0
 41
0
  0
VERTEX
  8
0
 10
10.2547
 20
246.178
 30
0.0
 40
0
 41
0
  0
VERTEX
  8
0
 10
10.2891
 20
246.75
 30
0.0
 40
0
 41
0
  0
VERTEX
  8
0
 10
10.3232
 20
247.325
 30
0.0
 40
0
 41
0
  0
VERTEX
  8
0
 10
10.3571
 20
247.906
 30
0.0
 40
0
 41
0
  0
VERTEX
  8
0
 10
10.3908
 20
248.489
 30
0.0
 40
0
 41
0
  0
VERTEX
  8
0
 10
10.4244
 20
249.079
 30
0.0
 40
0
 41
0
  0
VERTEX
  8
0
 10
10.4578
 20
249.674
 30
0.0
 40
0
 41
0
  0
VERTEX
  8
0
 10
10.4912
 20
250.275
 30
0.0
 40
0
 41
0
  0
VERTEX
  8
0
 10
10.5244
 20
250.883
 30
0.0
 40
0
 41
0
  0
VERTEX
  8
0
 10
10.5575
 20
251.5
 30
0.0
 40
0
 41
0
  0
VERTEX
  8
0
 10
10.5905
 20
252.124
 30
0.0
 40
0
 41
0
  0
VERTEX
  8
0
 10
10.6234
 20
252.756
 30
0.0
 40
0
 41
0
  0
VERTEX
  8
0
 10
10.6564
 20
253.396
 30
0.0
 40
0
 41
0
  0
VERTEX
  8
0
 10
10.6893
 20
254.047
 30
0.0
 40
0
 41
0
  0
VERTEX
  8
0
 10
10.7222
 20
254.708
 30
0.0
 40
0
 41
0
  0
VERTEX
  8
0
 10
10.7552
 20
255.379
 30
0.0
 40
0
 41
0
  0
VERTEX
  8
0
 10
10.7881
 20
256.063
 30
0.0
 40
0
 41
0
  0
VERTEX
  8
0
 10
10.8212
 20
256.757
 30
0.0
 40
0
 41
0
  0
VERTEX
  8
0
 10
10.8543
 20
257.464
 30
0.0
 40
0
 41
0
  0
VERTEX
  8
0
 10
10.8875
 20
258.183
 30
0.0
 40
0
 41
0
  0
VERTEX
  8
0
 10
10.9208
 20
258.917
 30
0.0
 40
0
 41
0
  0
VERTEX
  8
0
 10
10.9543
 20
259.665
 30
0.0
 40
0
 41
0
  0
VERTEX
  8
0
 10
10.988
 20
260.426
 30
0.0
 40
0
 41
0
  0
VERTEX
  8
0
 10
11.0217
 20
261.204
 30
0.0
 40
0
 41
0
  0
VERTEX
  8
0
 10
11.0557
 20
261.997
 30
0.0
 40
0
 41
0
  0
VERTEX
  8
0
 10
11.0899
 20
262.806
 30
0.0
 40
0
 41
0
  0
VERTEX
  8
0
 10
11.1512
 20
264.286
 30
0.0
 40
0
 41
0
  0
VERTEX
  8
0
 10
11.2133
 20
265.819
 30
0.0
 40
0
 41
0
  0
VERTEX
  8
0
 10
11.2761
 20
267.408
 30
0.0
 40
0
 41
0
  0
VERTEX
  8
0
 10
11.3397
 20
269.05
 30
0.0
 40
0
 41
0
  0
VERTEX
  8
0
 10
11.4041
 20
270.74
 30
0.0
 40
0
 41
0
  0
VERTEX
  8
0
 10
11.4691
 20
272.478
 30
0.0
 40
0
 41
0
  0
VERTEX
  8
0
 10
11.5348
 20
274.261
 30
0.0
 40
0
 41
0
  0
VERTEX
  8
0
 10
11.6012
 20
276.089
 30
0.0
 40
0
 41
0
  0
VERTEX
  8
0
 10
11.6681
 20
277.957
 30
0.0
 40
0
 41
0
  0
VERTEX
  8
0
 10
11.7356
 20
279.864
 30
0.0
 40
0
 41
0
  0
VERTEX
  8
0
 10
11.8036
 20
281.807
 30
0.0
 40
0
 41
0
  0
VERTEX
  8
0
 10
11.8721
 20
283.786
 30
0.0
 40
0
 41
0
  0
VERTEX
  8
0
 10
11.9411
 20
285.797
 30
0.0
 40
0
 41
0
  0
VERTEX
  8
0
 10
12.0105
 20
287.839
 30
0.0
 40
0
 41
0
  0
VERTEX
  8
0
 10
12.0803
 20
289.908
 30
0.0
 40
0
 41
0
  0
VERTEX
  8
0
 10
12.1506
 20
292.004
 30
0.0
 40
0
 41
0
  0
VERTEX
  8
0
 10
12.2211
 20
294.125
 30
0.0
 40
0
 41
0
  0
VERTEX
  8
0
 10
12.2919
 20
296.267
 30
0.0
 40
0
 41
0
  0
VERTEX
  8
0
 10
12.3631
 20
298.428
 30
0.0
 40
0
 41
0
  0
VERTEX
  8
0
 10
12.4344
 20
300.607
 30
0.0
 40
0
 41
0
  0
VERTEX
  8
0
 10
12.506
 20
302.801
 30
0.0
 40
0
 41
0
  0
VERTEX
  8
0
 10
12.5777
 20
305.008
 30
0.0
 40
0
 41
0
  0
VERTEX
  8
0
 10
12.6496
 20
307.226
 30
0.0
 40
0
 41
0
  0
VERTEX
  8
0
 10
12.7216
 20
309.454
 30
0.0
 40
0
 41
0
  0
VERTEX
  8
0
 10
12.7937
 20
311.688
 30
0.0
 40
0
 41
0
  0
VERTEX
  8
0
 10
12.8658
 20
313.926
 30
0.0
 40
0
 41
0
  0
VERTEX
  8
0
 10
12.938
 20
316.168
 30
0.0
 40
0
 41
0
  0
VERTEX
  8
0
 10
13.0101
 20
318.41
 30
0.0
 40
0
 41
0
  0
VERTEX
  8
0
 10
13.0823
 20
320.649
 30
0.0
 40
0
 41
0
  0
VERTEX
  8
0
 10
13.1542
 20
322.885
 30
0.0
 40
0
 41
0
  0
VERTEX
  8
0
 10
13.2261
 20
325.114
 30
0.0
 40
0
 41
0
  0
VERTEX
  8
0
 10
13.303
 20
327.49
 30
0.0
 40
0
 41
0
  0
VERTEX
  8
0
 10
13.3795
 20
329.856
 30
0.0
 40
0
 41
0
  0
VERTEX
  8
0
 10
13.4559
 20
332.208
 30
0.0
 40
0
 41
0
  0
VERTEX
  8
0
 10
13.5321
 20
334.55
 30
0.0
 40
0
 41
0
  0
VERTEX
  8
0
 10
13.6081
 20
336.881
 30
0.0
 40
0
 41
0
  0
VERTEX
  8
0
 10
13.684
 20
339.2
 30
0.0
 40
0
 41
0
  0
VERTEX
  8
0
 10
13.7597
 20
341.51
 30
0.0
 40
0
 41
0
  0
VERTEX
  8
0
 10
13.8352
 20
343.811
 30
0.0
 40
0
 41
0
  0
VERTEX
  8
0
 10
13.9106
 20
346.101
 30
0.0
 40
0
 41
0
  0
VERTEX
  8
0
 10
13.9858
 20
348.383
 30
0.0
 40
0
 41
0
  0
VERTEX
  8
0
 10
14.0608
 20
350.657
 30
0.0
 40
0
 41
0
  0
VERTEX
  8
0
 10
14.1358
 20
352.922
 30
0.0
 40
0
 41
0
  0
VERTEX
  8
0
 10
14.2106
 20
355.181
 30
0.0
 40
0
 41
0
  0
VERTEX
  8
0
 10
14.2853
 20
357.431
 30
0.0
 40
0
 41
0
  0
VERTEX
  8
0
 10
14.3599
 20
359.674
 30
0.0
 40
0
 41
0
  0
VERTEX
  8
0
 10
14.4343
 20
361.911
 30
0.0
 40
0
 41
0
  0
VERTEX
  8
0
 10
14.5088
 20
364.142
 30
0.0
 40
0
 41
0
  0
VERTEX
  8
0
 10
14.5829
 20
366.367
 30
0.0
 40
0
 41
0
  0
VERTEX
  8
0
 10
14.6571
 20
368.588
 30
0.0
 40
0
 41
0
  0
VERTEX
  8
0
 10
14.7313
 20
370.803
 30
0.0
 40
0
 41
0
  0
VERTEX
  8
0
 10
14.8053
 20
373.013
 30
0.0
 40
0
 41
0
  0
VERTEX
  8
0
 10
14.8792
 20
375.219
 30
0.0
 40
0
 41
0
  0
VERTEX
  8
0
 10
14.9532
 20
377.422
 30
0.0
 40
0
 41
0
  0
VERTEX
  8
0
 10
15.0269
 20
379.622
 30
0.0
 40
0
 41
0
  0
VERTEX
  8
0
 10
15.1008
 20
381.819
 30
0.0
 40
0
 41
0
  0
VERTEX
  8
0
 10
15.1746
 20
384.014
 30
0.0
 40
0
 41
0
  0
VERTEX
  8
0
 10
15.2483
 20
386.206
 30
0.0
 40
0
 41
0
  0
VERTEX
  8
0
 10
15.3219
 20
388.397
 30
0.0
 40
0
 41
0
  0
VERTEX
  8
0
 10
15.3956
 20
390.586
 30
0.0
 40
0
 41
0
  0
VERTEX
  8
0
 10
15.4693
 20
392.775
 30
0.0
 40
0
 41
0
  0
VERTEX
  8
0
 10
15.5429
 20
394.964
 30
0.0
 40
0
 41
0
  0
VERTEX
  8
0
 10
15.5751
 20
395.706
 30
0.0
 40
0
 41
0
  0
VERTEX
  8
0
 10
15.6074
 20
396.447
 30
0.0
 40
0
 41
0
  0
VERTEX
  8
0
 10
15.6397
 20
397.189
 30
0.0
 40
0
 41
0
  0
VERTEX
  8
0
 10
15.6721
 20
397.932
 30
0.0
 40
0
 41
0
  0
VERTEX
  8
0
 10
15.7046
 20
398.674
 30
0.0
 40
0
 41
0
  0
VERTEX
  8
0
 10
15.7372
 20
399.417
 30
0.0
 40
0
 41
0
  0
VERTEX
  8
0
 10
15.77
 20
400.161
 30
0.0
 40
0
 41
0
  0
VERTEX
  8
0
 10
15.8029
 20
400.904
 30
0.0
 40
0
 41
0
  0
VERTEX
  8
0
 10
15.8361
 20
401.649
 30
0.0
 40
0
 41
0
  0
VERTEX
  8
0
 10
15.8696
 20
402.394
 30
0.0
 40
0
 41
0
  0
VERTEX
  8
0
 10
15.9033
 20
403.14
 30
0.0
 40
0
 41
0
  0
VERTEX
  8
0
 10
15.9374
 20
403.888
 30
0.0
 40
0
 41
0
  0
VERTEX
  8
0
 10
15.9718
 20
404.636
 30
0.0
 40
0
 41
0
  0
VERTEX
  8
0
 10
16.0065
 20
405.385
 30
0.0
 40
0
 41
0
  0
VERTEX
  8
0
 10
16.0417
 20
406.136
 30
0.0
 40
0
 41
0
  0
VERTEX
  8
0
 10
16.0771
 20
406.888
 30
0.0
 40
0
 41
0
  0
VERTEX
  8
0
 10
16.1131
 20
407.64
 30
0.0
 40
0
 41
0
  0
VERTEX
  8
0
 10
16.1496
 20
408.394
 30
0.0
 40
0
 41
0
  0
VERTEX
  8
0
 10
16.1865
 20
409.15
 30
0.0
 40
0
 41
0
  0
VERTEX
  8
0
 10
16.2239
 20
409.907
 30
0.0
 40
0
 41
0
  0
VERTEX
  8
0
 10
16.2619
 20
410.667
 30
0.0
 40
0
 41
0
  0
VERTEX
  8
0
 10
16.3006
 20
411.428
 30
0.0
 40
0
 41
0
  0
VERTEX
  8
0
 10
16.3397
 20
412.19
 30
0.0
 40
0
 41
0
  0
VERTEX
  8
0
 10
16.3796
 20
412.954
 30
0.0
 40
0
 41
0
  0
VERTEX
  8
0
 10
16.42
 20
413.721
 30
0.0
 40
0
 41
0
  0
VERTEX
  8
0
 10
16.4612
 20
414.489
 30
0.0
 40
0
 41
0
  0
VERTEX
  8
0
 10
16.5031
 20
415.26
 30
0.0
 40
0
 41
0
  0
VERTEX
  8
0
 10
16.5457
 20
416.032
 30
0.0
 40
0
 41
0
  0
VERTEX
  8
0
 10
16.5892
 20
416.807
 30
0.0
 40
0
 41
0
  0
VERTEX
  8
0
 10
16.6335
 20
417.585
 30
0.0
 40
0
 41
0
  0
VERTEX
  8
0
 10
16.6774
 20
418.346
 30
0.0
 40
0
 41
0
  0
VERTEX
  8
0
 10
16.7221
 20
419.11
 30
0.0
 40
0
 41
0
  0
VERTEX
  8
0
 10
16.7676
 20
419.875
 30
0.0
 40
0
 41
0
  0
VERTEX
  8
0
 10
16.8139
 20
420.642
 30
0.0
 40
0
 41
0
  0
VERTEX
  8
0
 10
16.8608
 20
421.41
 30
0.0
 40
0
 41
0
  0
VERTEX
  8
0
 10
16.9083
 20
422.178
 30
0.0
 40
0
 41
0
  0
VERTEX
  8
0
 10
16.9565
 20
422.944
 30
0.0
 40
0
 41
0
  0
VERTEX
  8
0
 10
17.0054
 20
423.713
 30
0.0
 40
0
 41
0
  0
VERTEX
  8
0
 10
17.0549
 20
424.479
 30
0.0
 40
0
 41
0
  0
VERTEX
  8
0
 10
17.1049
 20
425.244
 30
0.0
 40
0
 41
0
  0
VERTEX
  8
0
 10
17.1553
 20
426.008
 30
0.0
 40
0
 41
0
  0
VERTEX
  8
0
 10
17.2064
 20
426.769
 30
0.0
 40
0
 41
0
  0
VERTEX
  8
0
 10
17.2579
 20
427.529
 30
0.0
 40
0
 41
0
  0
VERTEX
  8
0
 10
17.31
 20
428.286
 30
0.0
 40
0
 41
0
  0
VERTEX
  8
0
 10
17.3625
 20
429.04
 30
0.0
 40
0
 41
0
  0
VERTEX
  8
0
 10
17.4154
 20
429.79
 30
0.0
 40
0
 41
0
  0
VERTEX
  8
0
 10
17.4686
 20
430.536
 30
0.0
 40
0
 41
0
  0
VERTEX
  8
0
 10
17.5224
 20
431.279
 30
0.0
 40
0
 41
0
  0
VERTEX
  8
0
 10
17.5762
 20
432.017
 30
0.0
 40
0
 41
0
  0
VERTEX
  8
0
 10
17.6306
 20
432.749
 30
0.0
 40
0
 41
0
  0
VERTEX
  8
0
 10
17.6853
 20
433.475
 30
0.0
 40
0
 41
0
  0
VERTEX
  8
0
 10
17.7401
 20
434.196
 30
0.0
 40
0
 41
0
  0
VERTEX
  8
0
 10
17.7953
 20
434.911
 30
0.0
 40
0
 41
0
  0
VERTEX
  8
0
 10
17.8507
 20
435.619
 30
0.0
 40
0
 41
0
  0
VERTEX
  8
0
 10
17.9063
 20
436.321
 30
0.0
 40
0
 41
0
  0
VERTEX
  8
0
 10
17.9619
 20
437.014
 30
0.0
 40
0
 41
0
  0
VERTEX
  8
0
 10
18.0178
 20
437.7
 30
0.0
 40
0
 41
0
  0
VERTEX
  8
0
 10
18.0739
 20
438.378
 30
0.0
 40
0
 41
0
  0
VERTEX
  8
0
 10
18.13
 20
439.047
 30
0.0
 40
0
 41
0
  0
VERTEX
  8
0
 10
18.1861
 20
439.707
 30
0.0
 40
0
 41
0
  0
VERTEX
  8
0
 10
18.2253
 20
440.161
 30
0.0
 40
0
 41
0
  0
VERTEX
  8
0
 10
18.2644
 20
440.61
 30
0.0
 40
0
 41
0
  0
VERTEX
  8
0
 10
18.3035
 20
441.054
 30
0.0
 40
0
 41
0
  0
VERTEX
  8
0
 10
18.3425
 20
441.493
 30
0.0
 40
0
 41
0
  0
VERTEX
  8
0
 10
18.3815
 20
441.926
 30
0.0
 40
0
 41
0
  0
VERTEX
  8
0
 10
18.4206
 20
442.356
 30
0.0
 40
0
 41
0
  0
VERTEX
  8
0
 10
18.4593
 20
442.779
 30
0.0
 40
0
 41
0
  0
VERTEX
  8
0
 10
18.4979
 20
443.196
 30
0.0
 40
0
 41
0
  0
VERTEX
  8
0
 10
18.5364
 20
443.607
 30
0.0
 40
0
 41
0
  0
VERTEX
  8
0
 10
18.5747
 20
444.013
 30
0.0
 40
0
 41
0
  0
VERTEX
  8
0
 10
18.6128
 20
444.412
 30
0.0
 40
0
 41
0
  0
VERTEX
  8
0
 10
18.6506
 20
444.804
 30
0.0
 40
0
 41
0
  0
VERTEX
  8
0
 10
18.6881
 20
445.19
 30
0.0
 40
0
 41
0
  0
VERTEX
  8
0
 10
18.7251
 20
445.569
 30
0.0
 40
0
 41
0
  0
VERTEX
  8
0
 10
18.7621
 20
445.943
 30
0.0
 40
0
 41
0
  0
VERTEX
  8
0
 10
18.7986
 20
446.308
 30
0.0
 40
0
 41
0
  0
VERTEX
  8
0
 10
18.8346
 20
446.665
 30
0.0
 40
0
 41
0
  0
VERTEX
  8
0
 10
18.8703
 20
447.017
 30
0.0
 40
0
 41
0
  0
VERTEX
  8
0
 10
18.9056
 20
447.358
 30
0.0
 40
0
 41
0
  0
VERTEX
  8
0
 10
18.9403
 20
447.693
 30
0.0
 40
0
 41
0
  0
VERTEX
  8
0
 10
18.9746
 20
448.021
 30
0.0
 40
0
 41
0
  0
VERTEX
  8
0
 10
19.0082
 20
448.339
 30
0.0
 40
0
 41
0
  0
VERTEX
  8
0
 10
19.0414
 20
448.65
 30
0.0
 40
0
 41
0
  0
VERTEX
  8
0
 10
19.0739
 20
448.951
 30
0.0
 40
0
 41
0
  0
VERTEX
  8
0
 10
19.106
 20
449.244
 30
0.0
 40
0
 41
0
  0
VERTEX
  8
0
 10
19.1372
 20
449.529
 30
0.0
 40
0
 41
0
  0
VERTEX
  8
0
 10
19.1679
 20
449.804
 30
0.0
 40
0
 41
0
  0
VERTEX
  8
0
 10
19.1978
 20
450.069
 30
0.0
 40
0
 41
0
  0
VERTEX
  8
0
 10
19.2271
 20
450.326
 30
0.0
 40
0
 41
0
  0
VERTEX
  8
0
 10
19.2556
 20
450.572
 30
0.0
 40
0
 41
0
  0
VERTEX
  8
0
 10
19.2832
 20
450.81
 30
0.0
 40
0
 41
0
  0
VERTEX
  8
0
 10
19.2971
 20
450.926
 30
0.0
 40
0
 41
0
  0
VERTEX
  8
0
 10
19.3106
 20
451.04
 30
0.0
 40
0
 41
0
  0
VERTEX
  8
0
 10
19.3239
 20
451.153
 30
0.0
 40
0
 41
0
  0
VERTEX
  8
0
 10
19.3371
 20
451.261
 30
0.0
 40
0
 41
0
  0
VERTEX
  8
0
 10
19.3501
 20
451.368
 30
0.0
 40
0
 41
0
  0
VERTEX
  8
0
 10
19.3629
 20
451.472
 30
0.0
 40
0
 41
0
  0
VERTEX
  8
0
 10
19.3756
 20
451.575
 30
0.0
 40
0
 41
0
  0
VERTEX
  8
0
 10
19.3879
 20
451.675
 30
0.0
 40
0
 41
0
  0
VERTEX
  8
0
 10
19.4003
 20
451.774
 30
0.0
 40
0
 41
0
  0
VERTEX
  8
0
 10
19.4124
 20
451.871
 30
0.0
 40
0
 41
0
  0
VERTEX
  8
0
 10
19.4243
 20
451.965
 30
0.0
 40
0
 41
0
  0
VERTEX
  8
0
 10
19.4363
 20
452.058
 30
0.0
 40
0
 41
0
  0
VERTEX
  8
0
 10
19.4479
 20
452.149
 30
0.0
 40
0
 41
0
  0
VERTEX
  8
0
 10
19.4596
 20
452.239
 30
0.0
 40
0
 41
0
  0
VERTEX
  8
0
 10
19.471
 20
452.326
 30
0.0
 40
0
 41
0
  0
VERTEX
  8
0
 10
19.4824
 20
452.414
 30
0.0
 40
0
 41
0
  0
VERTEX
  8
0
 10
19.4936
 20
452.5
 30
0.0
 40
0
 41
0
  0
VERTEX
  8
0
 10
19.5047
 20
452.583
 30
0.0
 40
0
 41
0
  0
VERTEX
  8
0
 10
19.5158
 20
452.667
 30
0.0
 40
0
 41
0
  0
VERTEX
  8
0
 10
19.5268
 20
452.749
 30
0.0
 40
0
 41
0
  0
VERTEX
  8
0
 10
19.5376
 20
452.831
 30
0.0
 40
0
 41
0
  0
VERTEX
  8
0
 10
19.5485
 20
452.911
 30
0.0
 40
0
 41
0
  0
VERTEX
  8
0
 10
19.5592
 20
452.99
 30
0.0
 40
0
 41
0
  0
VERTEX
  8
0
 10
19.5699
 20
453.069
 30
0.0
 40
0
 41
0
  0
VERTEX
  8
0
 10
19.5806
 20
453.147
 30
0.0
 40
0
 41
0
  0
VERTEX
  8
0
 10
19.5911
 20
453.225
 30
0.0
 40
0
 41
0
  0
VERTEX
  8
0
 10
19.6017
 20
453.303
 30
0.0
 40
0
 41
0
  0
VERTEX
  8
0
 10
19.6124
 20
453.379
 30
0.0
 40
0
 41
0
  0
VERTEX
  8
0
 10
19.6228
 20
453.456
 30
0.0
 40
0
 41
0
  0
VERTEX
  8
0
 10
19.6333
 20
453.532
 30
0.0
 40
0
 41
0
  0
VERTEX
  8
0
 10
19.6439
 20
453.608
 30
0.0
 40
0
 41
0
  0
VERTEX
  8
0
 10
19.6483
 20
453.674
 30
0.0
 40
0
 41
0
  0
VERTEX
  8
0
 10
14.6483
 20
453.674
 30
0.0
 40
0
 41
0
  0
VERTEX
  8
0
 10
14.6483
 20
457.674
 30
0.0
 40
0
 41
0
  0
VERTEX
  8
0
 10
19.6483
 20
460.29
 30
0.0
 40
0
 41
0
  0
VERTEX
  8
0
 10
90
 20
460.29
 30
0.0
 40
0
 41
0
  0
VERTEX
  8
0
 10
90
 20
172.468
 30
0.0
 40
0
 41
0
  0
VERTEX
  8
0
 10
89.979
 20
166.956
 30
0.0
 40
0
 41
0
  0
VERTEX
  8
0
 10
89.9429
 20
161.462
 30
0.0
 40
0
 41
0
  0
VERTEX
  8
0
 10
89.8885
 20
155.992
 30
0.0
 40
0
 41
0
  0
VERTEX
  8
0
 10
89.8126
 20
150.547
 30
0.0
 40
0
 41
0
  0
VERTEX
  8
0
 10
89.7121
 20
145.133
 30
0.0
 40
0
 41
0
  0
VERTEX
  8
0
 10
89.5837
 20
139.754
 30
0.0
 40
0
 41
0
  0
VERTEX
  8
0
 10
89.4246
 20
134.414
 30
0.0
 40
0
 41
0
  0
VERTEX
  8
0
 10
89.2314
 20
129.116
 30
0.0
 40
0
 41
0
  0
VERTEX
  8
0
 10
89.001
 20
123.865
 30
0.0
 40
0
 41
0
  0
VERTEX
  8
0
 10
88.7301
 20
118.663
 30
0.0
 40
0
 41
0
  0
VERTEX
  8
0
 10
88.4158
 20
113.516
 30
0.0
 40
0
 41
0
  0
VERTEX
  8
0
 10
88.055
 20
108.428
 30
0.0
 40
0
 41
0
  0
VERTEX
  8
0
 10
87.6443
 20
103.401
 30
0.0
 40
0
 41
0
  0
VERTEX
  8
0
 10
87.1807
 20
98.4408
 30
0.0
 40
0
 41
0
  0
VERTEX
  8
0
 10
86.6611
 20
93.5506
 30
0.0
 40
0
 41
0
  0
VERTEX
  8
0
 10
86.0822
 20
88.7342
 30
0.0
 40
0
 41
0
  0
VERTEX
  8
0
 10
85.441
 20
83.996
 30
0.0
 40
0
 41
0
  0
VERTEX
  8
0
 10
84.7343
 20
79.3396
 30
0.0
 40
0
 41
0
  0
VERTEX
  8
0
 10
83.9589
 20
74.7692
 30
0.0
 40
0
 41
0
  0
VERTEX
  8
0
 10
83.1118
 20
70.2885
 30
0.0
 40
0
 41
0
  0
VERTEX
  8
0
 10
82.1897
 20
65.9015
 30
0.0
 40
0
 41
0
  0
VERTEX
  8
0
 10
81.1896
 20
61.6124
 30
0.0
 40
0
 41
0
  0
VERTEX
  8
0
 10
80.1082
 20
57.4249
 30
0.0
 40
0
 41
0
  0
VERTEX
  8
0
 10
78.9424
 20
53.3429
 30
0.0
 40
0
 41
0
  0
VERTEX
  8
0
 10
77.6892
 20
49.3706
 30
0.0
 40
0
 41
0
  0
VERTEX
  8
0
 10
76.3453
 20
45.5118
 30
0.0
 40
0
 41
0
  0
VERTEX
  8
0
 10
74.9075
 20
41.7704
 30
0.0
 40
0
 41
0
  0
VERTEX
  8
0
 10
73.3728
 20
38.1504
 30
0.0
 40
0
 41
0
  0
VERTEX
  8
0
 10
71.7381
 20
34.6558
 30
0.0
 40
0
 41
0
  0
VERTEX
  8
0
 10
70
 20
31.2904
 30
0.0
 40
0
 41
0
  0
VERTEX
  8
0
 10
69.7696
 20
30.8968
 30
0.0
 40
0
 41
0
  0
VERTEX
  8
0
 10
69.539
 20
30.5029
 30
0.0
 40
0
 41
0
  0
VERTEX
  8
0
 10
69.3081
 20
30.1093
 30
0.0
 40
0
 41
0
  0
VERTEX
  8
0
 10
69.0767
 20
29.7156
 30
0.0
 40
0
 41
0
  0
VERTEX
  8
0
 10
68.8444
 20
29.3218
 30
0.0
 40
0
 41
0
  0
VERTEX
  8
0
 10
68.6115
 20
28.9281
 30
0.0
 40
0
 41
0
  0
VERTEX
  8
0
 10
68.3774
 20
28.5343
 30
0.0
 40
0
 41
0
  0
VERTEX
  8
0
 10
68.1421
 20
28.1406
 30
0.0
 40
0
 41
0
  0
VERTEX
  8
0
 10
67.9054
 20
27.7468
 30
0.0
 40
0
 41
0
  0
VERTEX
  8
0
 10
67.6671
 20
27.3531
 30
0.0
 40
0
 41
0
  0
VERTEX
  8
0
 10
67.4269
 20
26.9593
 30
0.0
 40
0
 41
0
  0
VERTEX
  8
0
 10
67.185
 20
26.5657
 30
0.0
 40
0
 41
0
  0
VERTEX
  8
0
 10
66.9408
 20
26.1719
 30
0.0
 40
0
 41
0
  0
VERTEX
  8
0
 10
66.6944
 20
25.7782
 30
0.0
 40
0
 41
0
  0
VERTEX
  8
0
 10
66.4456
 20
25.3844
 30
0.0
 40
0
 41
0
  0
VERTEX
  8
0
 10
66.1942
 20
24.9907
 30
0.0
 40
0
 41
0
  0
VERTEX
  8
0
 10
65.9397
 20
24.5969
 30
0.0
 40
0
 41
0
  0
VERTEX
  8
0
 10
65.6825
 20
24.2032
 30
0.0
 40
0
 41
0
  0
VERTEX
  8
0
 10
65.4219
 20
23.8094
 30
0.0
 40
0
 41
0
  0
VERTEX
  8
0
 10
65.1582
 20
23.4157
 30
0.0
 40
0
 41
0
  0
VERTEX
  8
0
 10
64.8908
 20
23.0219
 30
0.0
 40
0
 41
0
  0
VERTEX
  8
0
 10
64.6199
 20
22.6282
 30
0.0
 40
0
 41
0
  0
VERTEX
  8
0
 10
64.3449
 20
22.2344
 30
0.0
 40
0
 41
0
  0
VERTEX
  8
0
 10
64.066
 20
21.8407
 30
0.0
 40
0
 41
0
  0
VERTEX
  8
0
 10
63.7828
 20
21.4469
 30
0.0
 40
0
 41
0
  0
VERTEX
  8
0
 10
63.4953
 20
21.0532
 30
0.0
 40
0
 41
0
  0
VERTEX
  8
0
 10
63.2031
 20
20.6594
 30
0.0
 40
0
 41
0
  0
VERTEX
  8
0
 10
62.9063
 20
20.2657
 30
0.0
 40
0
 41
0
  0
VERTEX
  8
0
 10
62.6044
 20
19.8719
 30
0.0
 40
0
 41
0
  0
VERTEX
  8
0
 10
62.2975
 20
19.4782
 30
0.0
 40
0
 41
0
  0
VERTEX
  8
0
 10
61.9804
 20
19.0782
 30
0.0
 40
0
 41
0
  0
VERTEX
  8
0
 10
61.6582
 20
18.6786
 30
0.0
 40
0
 41
0
  0
VERTEX
  8
0
 10
61.3315
 20
18.2796
 30
0.0
 40
0
 41
0
  0
VERTEX
  8
0
 10
61.0006
 20
17.8815
 30
0.0
 40
0
 41
0
  0
VERTEX
  8
0
 10
60.6657
 20
17.4849
 30
0.0
 40
0
 41
0
  0
VERTEX
  8
0
 10
60.3276
 20
17.0897
 30
0.0
 40
0
 41
0
  0
VERTEX
  8
0
 10
59.9865
 20
16.6965
 30
0.0
 40
0
 41
0
  0
VERTEX
  8
0
 10
59.6429
 20
16.3056
 30
0.0
 40
0
 41
0
  0
VERTEX
  8
0
 10
59.2971
 20
15.9172
 30
0.0
 40
0
 41
0
  0
VERTEX
  8
0
 10
58.9496
 20
15.5317
 30
0.0
 40
0
 41
0
  0
VERTEX
  8
0
 10
58.6008
 20
15.1493
 30
0.0
 40
0
 41
0
  0
VERTEX
  8
0
 10
58.2511
 20
14.7706
 30
0.0
 40
0
 41
0
  0
VERTEX
  8
0
 10
57.901
 20
14.3957
 30
0.0
 40
0
 41
0
  0
VERTEX
  8
0
 10
57.5507
 20
14.025
 30
0.0
 40
0
 41
0
  0
VERTEX
  8
0
 10
57.2008
 20
13.6589
 30
0.0
 40
0
 41
0
  0
VERTEX
  8
0
 10
56.8517
 20
13.2974
 30
0.0
 40
0
 41
0
  0
VERTEX
  8
0
 10
56.5038
 20
12.9412
 30
0.0
 40
0
 41
0
  0
VERTEX
  8
0
 10
56.1574
 20
12.5905
 30
0.0
 40
0
 41
0
  0
VERTEX
  8
0
 10
55.8131
 20
12.2454
 30
0.0
 40
0
 41
0
  0
VERTEX
  8
0
 10
55.471
 20
11.9066
 30
0.0
 40
0
 41
0
  0
VERTEX
  8
0
 10
55.1319
 20
11.5742
 30
0.0
 40
0
 41
0
  0
VERTEX
  8
0
 10
54.7961
 20
11.2485
 30
0.0
 40
0
 41
0
  0
VERTEX
  8
0
 10
54.4639
 20
10.9298
 30
0.0
 40
0
 41
0
  0
VERTEX
  8
0
 10
54.1357
 20
10.6187
 30
0.0
 40
0
 41
0
  0
VERTEX
  8
0
 10
53.8121
 20
10.3151
 30
0.0
 40
0
 41
0
  0
VERTEX
  8
0
 10
53.4933
 20
10.0198
 30
0.0
 40
0
 41
0
  0
VERTEX
  8
0
 10
53.1799
 20
9.73253
 30
0.0
 40
0
 41
0
  0
VERTEX
  8
0
 10
52.8722
 20
9.45421
 30
0.0
 40
0
 41
0
  0
VERTEX
  8
0
 10
52.5707
 20
9.18479
 30
0.0
 40
0
 41
0
  0
VERTEX
  8
0
 10
52.2757
 20
8.92469
 30
0.0
 40
0
 41
0
  0
VERTEX
  8
0
 10
51.9875
 20
8.67415
 30
0.0
 40
0
 41
0
  0
VERTEX
  8
0
 10
51.809
 20
8.52083
 30
0.0
 40
0
 41
0
  0
VERTEX
  8
0
 10
51.6331
 20
8.3711
 30
0.0
 40
0
 41
0
  0
VERTEX
  8
0
 10
51.4593
 20
8.22461
 30
0.0
 40
0
 41
0
  0
VERTEX
  8
0
 10
51.2878
 20
8.08149
 30
0.0
 40
0
 41
0
  0
VERTEX
  8
0
 10
51.1183
 20
7.9414
 30
0.0
 40
0
 41
0
  0
VERTEX
  8
0
 10
50.9507
 20
7.80436
 30
0.0
 40
0
 41
0
  0
VERTEX
  8
0
 10
50.7847
 20
7.67025
 30
0.0
 40
0
 41
0
  0
VERTEX
  8
0
 10
50.6204
 20
7.53874
 30
0.0
 40
0
 41
0
  0
VERTEX
  8
0
 10
50.4576
 20
7.40994
 30
0.0
 40
0
 41
0
  0
VERTEX
  8
0
 10
50.2961
 20
7.28353
 30
0.0
 40
0
 41
0
  0
VERTEX
  8
0
 10
50.1358
 20
7.1595
 30
0.0
 40
0
 41
0
  0
VERTEX
  8
0
 10
49.9767
 20
7.03776
 30
0.0
 40
0
 41
0
  0
VERTEX
  8
0
 10
49.8183
 20
6.91808
 30
0.0
 40
0
 41
0
  0
VERTEX
  8
0
 10
49.6608
 20
6.80024
 30
0.0
 40
0
 41
0
  0
VERTEX
  8
0
 10
49.504
 20
6.68435
 30
0.0
 40
0
 41
0
  0
VERTEX
  8
0
 10
49.3476
 20
6.57021
 30
0.0
 40
0
 41
0
  0
VERTEX
  8
0
 10
49.1917
 20
6.45757
 30
0.0
 40
0
 41
0
  0
VERTEX
  8
0
 10
49.0361
 20
6.34646
 30
0.0
 40
0
 41
0
  0
VERTEX
  8
0
 10
48.8806
 20
6.23654
 30
0.0
 40
0
 41
0
  0
VERTEX
  8
0
 10
48.725
 20
6.12804
 30
0.0
 40
0
 41
0
  0
VERTEX
  8
0
 10
48.5692
 20
6.0204
 30
0.0
 40
0
 41
0
  0
VERTEX
  8
0
 10
48.4132
 20
5.91385
 30
0.0
 40
0
 41
0
  0
VERTEX
  8
0
 10
48.2568
 20
5.80806
 30
0.0
 40
0
 41
0
  0
VERTEX
  8
0
 10
48.0997
 20
5.70281
 30
0.0
 40
0
 41
0
  0
VERTEX
  8
0
 10
47.9421
 20
5.59831
 30
0.0
 40
0
 41
0
  0
VERTEX
  8
0
 10
47.7836
 20
5.49414
 30
0.0
 40
0
 41
0
  0
VERTEX
  8
0
 10
47.624
 20
5.39031
 30
0.0
 40
0
 41
0
  0
VERTEX
  8
0
 10
47.4635
 20
5.28668
 30
0.0
 40
0
 41
0
  0
VERTEX
  8
0
 10
47.3017
 20
5.18294
 30
0.0
 40
0
 41
0
  0
VERTEX
  8
0
 10
47.1383
 20
5.07921
 30
0.0
 40
0
 41
0
  0
VERTEX
  8
0
 10
46.9738
 20
4.97537
 30
0.0
 40
0
 41
0
  0
VERTEX
  8
0
 10
46.8026
 20
4.86817
 30
0.0
 40
0
 41
0
  0
VERTEX
  8
0
 10
46.63
 20
4.76085
 30
0.0
 40
0
 41
0
  0
VERTEX
  8
0
 10
46.4558
 20
4.65354
 30
0.0
 40
0
 41
0
  0
VERTEX
  8
0
 10
46.2804
 20
4.54622
 30
0.0
 40
0
 41
0
  0
VERTEX
  8
0
 10
46.1035
 20
4.43892
 30
0.0
 40
0
 41
0
  0
VERTEX
  8
0
 10
45.9254
 20
4.33192
 30
0.0
 40
0
 41
0
  0
VERTEX
  8
0
 10
45.746
 20
4.22493
 30
0.0
 40
0
 41
0
  0
VERTEX
  8
0
 10
45.5653
 20
4.11838
 30
0.0
 40
0
 41
0
  0
VERTEX
  8
0
 10
45.3835
 20
4.01193
 30
0.0
 40
0
 41
0
  0
VERTEX
  8
0
 10
45.2006
 20
3.90603
 30
0.0
 40
0
 41
0
  0
VERTEX
  8
0
 10
45.0167
 20
3.80057
 30
0.0
 40
0
 41
0
  0
VERTEX
  8
0
 10
44.8317
 20
3.69553
 30
0.0
 40
0
 41
0
  0
VERTEX
  8
0
 10
44.6457
 20
3.59115
 30
0.0
 40
0
 41
0
  0
VERTEX
  8
0
 10
44.4589
 20
3.48742
 30
0.0
 40
0
 41
0
  0
VERTEX
  8
0
 10
44.2711
 20
3.38433
 30
0.0
 40
0
 41
0
  0
VERTEX
  8
0
 10
44.0826
 20
3.28201
 30
0.0
 40
0
 41
0
  0
VERTEX
  8
0
 10
43.8933
 20
3.18044
 30
0.0
 40
0
 41
0
  0
VERTEX
  8
0
 10
43.7033
 20
3.07975
 30
0.0
 40
0
 41
0
  0
VERTEX
  8
0
 10
43.5126
 20
2.98004
 30
0.0
 40
0
 41
0
  0
VERTEX
  8
0
 10
43.3212
 20
2.88129
 30
0.0
 40
0
 41
0
  0
VERTEX
  8
0
 10
43.1294
 20
2.78375
 30
0.0
 40
0
 41
0
  0
VERTEX
  8
0
 10
42.9369
 20
2.68718
 30
0.0
 40
0
 41
0
  0
VERTEX
  8
0
 10
42.7442
 20
2.59179
 30
0.0
 40
0
 41
0
  0
VERTEX
  8
0
 10
42.5508
 20
2.49772
 30
0.0
 40
0
 41
0
  0
VERTEX
  8
0
 10
42.3571
 20
2.40483
 30
0.0
 40
0
 41
0
  0
VERTEX
  8
0
 10
42.1632
 20
2.31347
 30
0.0
 40
0
 41
0
  0
VERTEX
  8
0
 10
41.9689
 20
2.22342
 30
0.0
 40
0
 41
0
  0
VERTEX
  8
0
 10
41.7744
 20
2.13499
 30
0.0
 40
0
 41
0
  0
VERTEX
  8
0
 10
41.5797
 20
2.04796
 30
0.0
 40
0
 41
0
  0
VERTEX
  8
0
 10
41.3849
 20
1.96257
 30
0.0
 40
0
 41
0
  0
VERTEX
  8
0
 10
41.19
 20
1.8789
 30
0.0
 40
0
 41
0
  0
VERTEX
  8
0
 10
41.0031
 20
1.80012
 30
0.0
 40
0
 41
0
  0
VERTEX
  8
0
 10
40.816
 20
1.7231
 30
0.0
 40
0
 41
0
  0
VERTEX
  8
0
 10
40.6288
 20
1.64735
 30
0.0
 40
0
 41
0
  0
VERTEX
  8
0
 10
40.4417
 20
1.57335
 30
0.0
 40
0
 41
0
  0
VERTEX
  8
0
 10
40.2544
 20
1.50097
 30
0.0
 40
0
 41
0
  0
VERTEX
  8
0
 10
40.0672
 20
1.43013
 30
0.0
 40
0
 41
0
  0
VERTEX
  8
0
 10
39.8799
 20
1.36089
 30
0.0
 40
0
 41
0
  0
VERTEX
  8
0
 10
39.6926
 20
1.29329
 30
0.0
 40
0
 41
0
  0
VERTEX
  8
0
 10
39.5054
 20
1.22721
 30
0.0
 40
0
 41
0
  0
VERTEX
  8
0
 10
39.3182
 20
1.16287
 30
0.0
 40
0
 41
0
  0
VERTEX
  8
0
 10
39.131
 20
1.10015
 30
0.0
 40
0
 41
0
  0
VERTEX
  8
0
 10
38.9437
 20
1.03906
 30
0.0
 40
0
 41
0
  0
VERTEX
  8
0
 10
38.7565
 20
0.979601
 30
0.0
 40
0
 41
0
  0
VERTEX
  8
0
 10
38.5694
 20
0.921767
 30
0.0
 40
0
 41
0
  0
VERTEX
  8
0
 10
38.3824
 20
0.865668
 30
0.0
 40
0
 41
0
  0
VERTEX
  8
0
 10
38.1953
 20
0.811199
 30
0.0
 40
0
 41
0
  0
VERTEX
  8
0
 10
38.0083
 20
0.758464
 30
0.0
 40
0
 41
0
  0
VERTEX
  8
0
 10
37.8214
 20
0.707465
 30
0.0
 40
0
 41
0
  0
VERTEX
  8
0
 10
37.6347
 20
0.658203
 30
0.0
 40
0
 41
0
  0
VERTEX
  8
0
 10
37.4479
 20
0.61046
 30
0.0
 40
0
 41
0
  0
VERTEX
  8
0
 10
37.2613
 20
0.564561
 30
0.0
 40
0
 41
0
  0
VERTEX
  8
0
 10
37.0749
 20
0.5204
 30
0.0
 40
0
 41
0
  0
VERTEX
  8
0
 10
36.8883
 20
0.477974
 30
0.0
 40
0
 41
0
  0
VERTEX
  8
0
 10
36.7021
 20
0.437283
 30
0.0
 40
0
 41
0
  0
VERTEX
  8
0
 10
36.516
 20
0.398329
 30
0.0
 40
0
 41
0
  0
VERTEX
  8
0
 10
36.33
 20
0.361219
 30
0.0
 40
0
 41
0
  0
VERTEX
  8
0
 10
36.1442
 20
0.325738
 30
0.0
 40
0
 41
0
  0
VERTEX
  8
0
 10
35.9583
 20
0.292101
 30
0.0
 40
0
 41
0
  0
VERTEX
  8
0
 10
35.7728
 20
0.260308
 30
0.0
 40
0
 41
0
  0
VERTEX
  8
0
 10
35.5875
 20
0.230251
 30
0.0
 40
0
 41
0
  0
VERTEX
  8
0
 10
35.4022
 20
0.202149
 30
0.0
 40
0
 41
0
  0
VERTEX
  8
0
 10
35.2324
 20
0.177843
 30
0.0
 40
0
 41
0
  0
VERTEX
  8
0
 10
35.0628
 20
0.155057
 30
0.0
 40
0
 41
0
  0
VERTEX
  8
0
 10
34.8933
 20
0.133898
 30
0.0
 40
0
 41
0
  0
VERTEX
  8
0
 10
34.7242
 20
0.114258
 30
0.0
 40
0
 41
0
  0
VERTEX
  8
0
 10
34.5551
 20
0.0963542
 30
0.0
 40
0
 41
0
  0
VERTEX
  8
0
 10
34.3864
 20
0.0799696
 30
0.0
 40
0
 41
0
  0
VERTEX
  8
0
 10
34.2181
 20
0.0651042
 30
0.0
 40
0
 41
0
  0
VERTEX
  8
0
 10
34.05
 20
0.0519749
 30
0.0
 40
0
 41
0
  0
VERTEX
  8
0
 10
33.8822
 20
0.0404731
 30
0.0
 40
0
 41
0
  0
VERTEX
  8
0
 10
33.7149
 20
0.030599
 30
0.0
 40
0
 41
0
  0
VERTEX
  8
0
 10
33.5478
 20
0.022461
 30
0.0
 40
0
 41
0
  0
VERTEX
  8
0
 10
33.3812
 20
0.0159506
 30
0.0
 40
0
 41
0
  0
VERTEX
  8
0
 10
33.215
 20
0.0111762
 30
0.0
 40
0
 41
0
  0
VERTEX
  8
0
 10
33.0492
 20
0.00802951
 30
0.0
 40
0
 41
0
  0
VERTEX
  8
0
 10
32.8839
 20
0.00672743
 30
0.0
 40
0
 41
0
  0
VERTEX
  8
0
 10
32.719
 20
0.00716146
 30
0.0
 40
0
 41
0
  0
VERTEX
  8
0
 10
32.5546
 20
0.0092231
 30
0.0
 40
0
 41
0
  0
VERTEX
  8
0
 10
32.3907
 20
0.0130208
 30
0.0
 40
0
 41
0
  0
VERTEX
  8
0
 10
32.2275
 20
0.0187717
 30
0.0
 40
0
 41
0
  0
VERTEX
  8
0
 10
32.0647
 20
0.0262588
 30
0.0
 40
0
 41
0
  0
VERTEX
  8
0
 10
31.9025
 20
0.0354818
 30
0.0
 40
0
 41
0
  0
VERTEX
  8
0
 10
31.7408
 20
0.0465494
 30
0.0
 40
0
 41
0
  0
VERTEX
  8
0
 10
31.5799
 20
0.0594618
 30
0.0
 40
0
 41
0
  0
VERTEX
  8
0
 10
31.4194
 20
0.0742188
 30
0.0
 40
0
 41
0
  0
VERTEX
  8
0
 10
31.2597
 20
0.0908203
 30
0.0
 40
0
 41
0
  0
VERTEX
  8
0
 10
31.1007
 20
0.109267
 30
0.0
 40
0
 41
0
  0
VERTEX
  8
0
 10
30.9425
 20
0.129557
 30
0.0
 40
0
 41
0
  0
VERTEX
  8
0
 10
30.7847
 20
0.15191
 30
0.0
 40
0
 41
0
  0
VERTEX
  8
0
 10
30.6279
 20
0.175999
 30
0.0
 40
0
 41
0
  0
VERTEX
  8
0
 10
30.4718
 20
0.202149
 30
0.0
 40
0
 41
0
  0
VERTEX
  8
0
 10
30.3233
 20
0.228842
 30
0.0
 40
0
 41
0
  0
VERTEX
  8
0
 10
30.1757
 20
0.257269
 30
0.0
 40
0
 41
0
  0
VERTEX
  8
0
 10
30.0288
 20
0.287326
 30
0.0
 40
0
 41
0
  0
VERTEX
  8
0
 10
29.8825
 20
0.319228
 30
0.0
 40
0
 41
0
  0
VERTEX
  8
0
 10
29.7371
 20
0.352756
 30
0.0
 40
0
 41
0
  0
VERTEX
  8
0
 10
29.5924
 20
0.387804
 30
0.0
 40
0
 41
0
  0
VERTEX
  8
0
 10
29.4485
 20
0.424479
 30
0.0
 40
0
 41
0
  0
VERTEX
  8
0
 10
29.3053
 20
0.462782
 30
0.0
 40
0
 41
0
  0
VERTEX
  8
0
 10
29.1629
 20
0.502604
 30
0.0
 40
0
 41
0
  0
VERTEX
  8
0
 10
29.0214
 20
0.544054
 30
0.0
 40
0
 41
0
  0
VERTEX
  8
0
 10
28.8806
 20
0.586806
 30
0.0
 40
0
 41
0
  0
VERTEX
  8
0
 10
28.7406
 20
0.631076
 30
0.0
 40
0
 41
0
  0
VERTEX
  8
0
 10
28.6015
 20
0.676867
 30
0.0
 40
0
 41
0
  0
VERTEX
  8
0
 10
28.4633
 20
0.724067
 30
0.0
 40
0
 41
0
  0
VERTEX
  8
0
 10
28.3258
 20
0.772461
 30
0.0
 40
0
 41
0
  0
VERTEX
  8
0
 10
28.1893
 20
0.822374
 30
0.0
 40
0
 41
0
  0
VERTEX
  8
0
 10
28.0536
 20
0.873589
 30
0.0
 40
0
 41
0
  0
VERTEX
  8
0
 10
27.9189
 20
0.926107
 30
0.0
 40
0
 41
0
  0
VERTEX
  8
0
 10
27.785
 20
0.979818
 30
0.0
 40
0
 41
0
  0
VERTEX
  8
0
 10
27.6519
 20
1.03483
 30
0.0
 40
0
 41
0
  0
VERTEX
  8
0
 10
27.5199
 20
1.09104
 30
0.0
 40
0
 41
0
  0
VERTEX
  8
0
 10
27.3888
 20
1.14844
 30
0.0
 40
0
 41
0
  0
VERTEX
  8
0
 10
27.2586
 20
1.20692
 30
0.0
 40
0
 41
0
  0
VERTEX
  8
0
 10
27.1293
 20
1.2666
 30
0.0
 40
0
 41
0
  0
VERTEX
  8
0
 10
27.001
 20
1.32737
 30
0.0
 40
0
 41
0
  0
VERTEX
  8
0
 10
26.8738
 20
1.38921
 30
0.0
 40
0
 41
0
  0
VERTEX
  8
0
 10
26.7474
 20
1.45226
 30
0.0
 40
0
 41
0
  0
VERTEX
  8
0
 10
26.6221
 20
1.51606
 30
0.0
 40
0
 41
0
  0
VERTEX
  8
0
 10
26.4976
 20
1.58106
 30
0.0
 40
0
 41
0
  0
VERTEX
  8
0
 10
26.3743
 20
1.64692
 30
0.0
 40
0
 41
0
  0
VERTEX
  8
0
 10
26.2519
 20
1.71376
 30
0.0
 40
0
 41
0
  0
VERTEX
  8
0
 10
26.1349
 20
1.77919
 30
0.0
 40
0
 41
0
  0
VERTEX
  8
0
 10
26.0187
 20
1.8456
 30
0.0
 40
0
 41
0
  0
VERTEX
  8
0
 10
25.9033
 20
1.91297
 30
0.0
 40
0
 41
0
  0
VERTEX
  8
0
 10
25.7888
 20
1.98144
 30
0.0
 40
0
 41
0
  0
VERTEX
  8
0
 10
25.6749
 20
2.05111
 30
0.0
 40
0
 41
0
  0
VERTEX
  8
0
 10
25.5617
 20
2.12175
 30
0.0
 40
0
 41
0
  0
VERTEX
  8
0
 10
25.4492
 20
2.19368
 30
0.0
 40
0
 41
0
  0
VERTEX
  8
0
 10
25.3372
 20
2.26693
 30
0.0
 40
0
 41
0
  0
VERTEX
  8
0
 10
25.2258
 20
2.34136
 30
0.0
 40
0
 41
0
  0
VERTEX
  8
0
 10
25.1151
 20
2.4171
 30
0.0
 40
0
 41
0
  0
VERTEX
  8
0
 10
25.0047
 20
2.49447
 30
0.0
 40
0
 41
0
  0
VERTEX
  8
0
 10
24.8949
 20
2.57303
 30
0.0
 40
0
 41
0
  0
VERTEX
  8
0
 10
24.7854
 20
2.6531
 30
0.0
 40
0
 41
0
  0
VERTEX
  8
0
 10
24.6764
 20
2.73481
 30
0.0
 40
0
 41
0
  0
VERTEX
  8
0
 10
24.5675
 20
2.81803
 30
0.0
 40
0
 41
0
  0
VERTEX
  8
0
 10
24.459
 20
2.903
 30
0.0
 40
0
 41
0
  0
VERTEX
  8
0
 10
24.3507
 20
2.98947
 30
0.0
 40
0
 41
0
  0
VERTEX
  8
0
 10
24.2426
 20
3.07781
 30
0.0
 40
0
 41
0
  0
VERTEX
  8
0
 10
24.1347
 20
3.16775
 30
0.0
 40
0
 41
0
  0
VERTEX
  8
0
 10
24.0268
 20
3.25956
 30
0.0
 40
0
 41
0
  0
VERTEX
  8
0
 10
23.9192
 20
3.35331
 30
0.0
 40
0
 41
0
  0
VERTEX
  8
0
 10
23.8114
 20
3.44879
 30
0.0
 40
0
 41
0
  0
VERTEX
  8
0
 10
23.7036
 20
3.54644
 30
0.0
 40
0
 41
0
  0
VERTEX
  8
0
 10
23.5958
 20
3.64594
 30
0.0
 40
0
 41
0
  0
VERTEX
  8
0
 10
23.4879
 20
3.7475
 30
0.0
 40
0
 41
0
  0
VERTEX
  8
0
 10
23.3799
 20
3.85113
 30
0.0
 40
0
 41
0
  0
VERTEX
  8
0
 10
23.2717
 20
3.95692
 30
0.0
 40
0
 41
0
  0
VERTEX
  8
0
 10
23.1632
 20
4.065
 30
0.0
 40
0
 41
0
  0
VERTEX
  8
0
 10
23.0544
 20
4.17524
 30
0.0
 40
0
 41
0
  0
VERTEX
  8
0
 10
22.9454
 20
4.28776
 30
0.0
 40
0
 41
0
  0
VERTEX
  8
0
 10
22.836
 20
4.40256
 30
0.0
 40
0
 41
0
  0
VERTEX
  8
0
 10
22.6864
 20
4.56272
 30
0.0
 40
0
 41
0
  0
VERTEX
  8
0
 10
22.5362
 20
4.72711
 30
0.0
 40
0
 41
0
  0
VERTEX
  8
0
 10
22.3857
 20
4.89551
 30
0.0
 40
0
 41
0
  0
VERTEX
  8
0
 10
22.2347
 20
5.06803
 30
0.0
 40
0
 41
0
  0
VERTEX
  8
0
 10
22.0835
 20
5.24447
 30
0.0
 40
0
 41
0
  0
VERTEX
  8
0
 10
21.9319
 20
5.42492
 30
0.0
 40
0
 41
0
  0
VERTEX
  8
0
 10
21.7803
 20
5.60906
 30
0.0
 40
0
 41
0
  0
VERTEX
  8
0
 10
21.6285
 20
5.79699
 30
0.0
 40
0
 41
0
  0
VERTEX
  8
0
 10
21.4767
 20
5.98861
 30
0.0
 40
0
 41
0
  0
VERTEX
  8
0
 10
21.3249
 20
6.18381
 30
0.0
 40
0
 41
0
  0
VERTEX
  8
0
 10
21.1732
 20
6.38249
 30
0.0
 40
0
 41
0
  0
VERTEX
  8
0
 10
21.0217
 20
6.58475
 30
0.0
 40
0
 41
0
  0
VERTEX
  8
0
 10
20.8706
 20
6.79025
 30
0.0
 40
0
 41
0
  0
VERTEX
  8
0
 10
20.7196
 20
6.99914
 30
0.0
 40
0
 41
0
  0
VERTEX
  8
0
 10
20.569
 20
7.21115
 30
0.0
 40
0
 41
0
  0
VERTEX
  8
0
 10
20.419
 20
7.42632
 30
0.0
 40
0
 41
0
  0
VERTEX
  8
0
 10
20.2696
 20
7.64475
 30
0.0
 40
0
 41
0
  0
VERTEX
  8
0
 10
20.1206
 20
7.866
 30
0.0
 40
0
 41
0
  0
VERTEX
  8
0
 10
19.9725
 20
8.09017
 30
0.0
 40
0
 41
0
  0
VERTEX
  8
0
 10
19.825
 20
8.31739
 30
0.0
 40
0
 41
0
  0
VERTEX
  8
0
 10
19.6783
 20
8.54719
 30
0.0
 40
0
 41
0
  0
VERTEX
  8
0
 10
19.5326
 20
8.77983
 30
0.0
 40
0
 41
0
  0
VERTEX
  8
0
 10
19.3879
 20
9.01497
 30
0.0
 40
0
 41
0
  0
VERTEX
  8
0
 10
19.2442
 20
9.25282
 30
0.0
 40
0
 41
0
  0
VERTEX
  8
0
 10
19.1017
 20
9.49317
 30
0.0
 40
0
 41
0
  0
VERTEX
  8
0
 10
18.9603
 20
9.73579
 30
0.0
 40
0
 41
0
  0
VERTEX
  8
0
 10
18.82
 20
9.98079
 30
0.0
 40
0
 41
0
  0
VERTEX
  8
0
 10
18.6813
 20
10.2281
 30
0.0
 40
0
 41
0
  0
VERTEX
  8
0
 10
18.5439
 20
10.4775
 30
0.0
 40
0
 41
0
  0
VERTEX
  8
0
 10
18.4079
 20
10.7291
 30
0.0
 40
0
 41
0
  0
VERTEX
  8
0
 10
18.2476
 20
11.0321
 30
0.0
 40
0
 41
0
  0
VERTEX
  8
0
 10
18.0896
 20
11.338
 30
0.0
 40
0
 41
0
  0
VERTEX
  8
0
 10
17.9336
 20
11.6466
 30
0.0
 40
0
 41
0
  0
VERTEX
  8
0
 10
17.7797
 20
11.9577
 30
0.0
 40
0
 41
0
  0
VERTEX
  8
0
 10
17.6282
 20
12.2715
 30
0.0
 40
0
 41
0
  0
VERTEX
  8
0
 10
17.4786
 20
12.5877
 30
0.0
 40
0
 41
0
  0
VERTEX
  8
0
 10
17.3311
 20
12.9063
 30
0.0
 40
0
 41
0
  0
VERTEX
  8
0
 10
17.1857
 20
13.2271
 30
0.0
 40
0
 41
0
  0
VERTEX
  8
0
 10
17.0424
 20
13.5501
 30
0.0
 40
0
 41
0
  0
VERTEX
  8
0
 10
16.901
 20
13.8752
 30
0.0
 40
0
 41
0
  0
VERTEX
  8
0
 10
16.7617
 20
14.2022
 30
0.0
 40
0
 41
0
  0
VERTEX
  8
0
 10
16.6243
 20
14.5314
 30
0.0
 40
0
 41
0
  0
VERTEX
  8
0
 10
16.4889
 20
14.8622
 30
0.0
 40
0
 41
0
  0
VERTEX
  8
0
 10
16.3554
 20
15.1947
 30
0.0
 40
0
 41
0
  0
VERTEX
  8
0
 10
16.2239
 20
15.529
 30
0.0
 40
0
 41
0
  0
VERTEX
  8
0
 10
16.0943
 20
15.8647
 30
0.0
 40
0
 41
0
  0
VERTEX
  8
0
 10
15.9665
 20
16.2019
 30
0.0
 40
0
 41
0
  0
VERTEX
  8
0
 10
15.8407
 20
16.5404
 30
0.0
 40
0
 41
0
  0
VERTEX
  8
0
 10
15.7167
 20
16.8803
 30
0.0
 40
0
 41
0
  0
VERTEX
  8
0
 10
15.5944
 20
17.2214
 30
0.0
 40
0
 41
0
  0
VERTEX
  8
0
 10
15.4742
 20
17.5635
 30
0.0
 40
0
 41
0
  0
VERTEX
  8
0
 10
15.3556
 20
17.9065
 30
0.0
 40
0
 41
0
  0
VERTEX
  8
0
 10
15.2387
 20
18.2506
 30
0.0
 40
0
 41
0
  0
VERTEX
  8
0
 10
15.1238
 20
18.5956
 30
0.0
 40
0
 41
0
  0
VERTEX
  8
0
 10
15.0104
 20
18.941
 30
0.0
 40
0
 41
0
  0
VERTEX
  8
0
 10
14.8987
 20
19.2872
 30
0.0
 40
0
 41
0
  0
VERTEX
  8
0
 10
14.7888
 20
19.634
 30
0.0
 40
0
 41
0
  0
VERTEX
  8
0
 10
14.6806
 20
19.9813
 30
0.0
 40
0
 41
0
  0
VERTEX
  8
0
 10
14.5739
 20
20.3289
 30
0.0
 40
0
 41
0
  0
VERTEX
  8
0
 10
14.469
 20
20.6767
 30
0.0
 40
0
 41
0
  0
VERTEX
  8
0
 10
14.3656
 20
21.0247
 30
0.0
 40
0
 41
0
  0
VERTEX
  8
0
 10
14.266
 20
21.3653
 30
0.0
 40
0
 41
0
  0
VERTEX
  8
0
 10
14.1679
 20
21.7061
 30
0.0
 40
0
 41
0
  0
VERTEX
  8
0
 10
14.0711
 20
22.0469
 30
0.0
 40
0
 41
0
  0
VERTEX
  8
0
 10
13.9757
 20
22.3881
 30
0.0
 40
0
 41
0
  0
VERTEX
  8
0
 10
13.8816
 20
22.7292
 30
0.0
 40
0
 41
0
  0
VERTEX
  8
0
 10
13.7887
 20
23.0706
 30
0.0
 40
0
 41
0
  0
VERTEX
  8
0
 10
13.697
 20
23.4121
 30
0.0
 40
0
 41
0
  0
VERTEX
  8
0
 10
13.6064
 20
23.7536
 30
0.0
 40
0
 41
0
  0
VERTEX
  8
0
 10
13.517
 20
24.0954
 30
0.0
 40
0
 41
0
  0
VERTEX
  8
0
 10
13.4286
 20
24.4372
 30
0.0
 40
0
 41
0
  0
VERTEX
  8
0
 10
13.3412
 20
24.7792
 30
0.0
 40
0
 41
0
  0
VERTEX
  8
0
 10
13.2547
 20
25.1212
 30
0.0
 40
0
 41
0
  0
VERTEX
  8
0
 10
13.1692
 20
25.4635
 30
0.0
 40
0
 41
0
  0
VERTEX
  8
0
 10
13.0844
 20
25.8057
 30
0.0
 40
0
 41
0
  0
VERTEX
  8
0
 10
13.0005
 20
26.1481
 30
0.0
 40
0
 41
0
  0
VERTEX
  8
0
 10
12.9173
 20
26.4906
 30
0.0
 40
0
 41
0
  0
VERTEX
  8
0
 10
12.8348
 20
26.8331
 30
0.0
 40
0
 41
0
  0
VERTEX
  8
0
 10
12.753
 20
27.1756
 30
0.0
 40
0
 41
0
  0
VERTEX
  8
0
 10
12.6718
 20
27.5183
 30
0.0
 40
0
 41
0
  0
VERTEX
  8
0
 10
12.5911
 20
27.861
 30
0.0
 40
0
 41
0
  0
VERTEX
  8
0
 10
12.5108
 20
28.2039
 30
0.0
 40
0
 41
0
  0
VERTEX
  8
0
 10
12.4311
 20
28.5467
 30
0.0
 40
0
 41
0
  0
VERTEX
  8
0
 10
12.3518
 20
28.8896
 30
0.0
 40
0
 41
0
  0
VERTEX
  8
0
 10
12.2727
 20
29.2324
 30
0.0
 40
0
 41
0
  0
VERTEX
  8
0
 10
12.1941
 20
29.5754
 30
0.0
 40
0
 41
0
  0
VERTEX
  8
0
 10
12.1156
 20
29.9185
 30
0.0
 40
0
 41
0
  0
VERTEX
  8
0
 10
12.0373
 20
30.2614
 30
0.0
 40
0
 41
0
  0
VERTEX
  8
0
 10
11.9592
 20
30.6044
 30
0.0
 40
0
 41
0
  0
VERTEX
  8
0
 10
11.8812
 20
30.9474
 30
0.0
 40
0
 41
0
  0
VERTEX
  8
0
 10
11.8032
 20
31.2904
 30
0.0
 40
0
 41
0
  0
VERTEX
  8
0
 10
11.7379
 20
31.6067
 30
0.0
 40
0
 41
0
  0
VERTEX
  8
0
 10
11.6729
 20
31.924
 30
0.0
 40
0
 41
0
  0
VERTEX
  8
0
 10
11.6083
 20
32.2425
 30
0.0
 40
0
 41
0
  0
VERTEX
  8
0
 10
11.5442
 20
32.5624
 30
0.0
 40
0
 41
0
  0
VERTEX
  8
0
 10
11.4803
 20
32.8835
 30
0.0
 40
0
 41
0
  0
VERTEX
  8
0
 10
11.4169
 20
33.2057
 30
0.0
 40
0
 41
0
  0
VERTEX
  8
0
 10
11.3538
 20
33.5292
 30
0.0
 40
0
 41
0
  0
VERTEX
  8
0
 10
11.2911
 20
33.8539
 30
0.0
 40
0
 41
0
  0
VERTEX
  8
0
 10
11.2288
 20
34.1797
 30
0.0
 40
0
 41
0
  0
VERTEX
  8
0
 10
11.1668
 20
34.5068
 30
0.0
 40
0
 41
0
  0
VERTEX
  8
0
 10
11.1052
 20
34.8351
 30
0.0
 40
0
 41
0
  0
VERTEX
  8
0
 10
11.0439
 20
35.1644
 30
0.0
 40
0
 41
0
  0
VERTEX
  8
0
 10
10.9831
 20
35.4951
 30
0.0
 40
0
 41
0
  0
VERTEX
  8
0
 10
10.9225
 20
35.8269
 30
0.0
 40
0
 41
0
  0
VERTEX
  8
0
 10
10.8624
 20
36.1599
 30
0.0
 40
0
 41
0
  0
VERTEX
  8
0
 10
10.8025
 20
36.494
 30
0.0
 40
0
 41
0
  0
VERTEX
  8
0
 10
10.743
 20
36.8293
 30
0.0
 40
0
 41
0
  0
VERTEX
  8
0
 10
10.6839
 20
37.1657
 30
0.0
 40
0
 41
0
  0
VERTEX
  8
0
 10
10.6251
 20
37.5032
 30
0.0
 40
0
 41
0
  0
VERTEX
  8
0
 10
10.5666
 20
37.8419
 30
0.0
 40
0
 41
0
  0
VERTEX
  8
0
 10
10.5085
 20
38.1818
 30
0.0
 40
0
 41
0
  0
VERTEX
  8
0
 10
10.4507
 20
38.5228
 30
0.0
 40
0
 41
0
  0
VERTEX
  8
0
 10
10.3932
 20
38.8649
 30
0.0
 40
0
 41
0
  0
VERTEX
  8
0
 10
10.3361
 20
39.2081
 30
0.0
 40
0
 41
0
  0
VERTEX
  8
0
 10
10.2793
 20
39.5524
 30
0.0
 40
0
 41
0
  0
VERTEX
  8
0
 10
10.2228
 20
39.8978
 30
0.0
 40
0
 41
0
  0
VERTEX
  8
0
 10
10.1666
 20
40.2443
 30
0.0
 40
0
 41
0
  0
VERTEX
  8
0
 10
10.1108
 20
40.5919
 30
0.0
 40
0
 41
0
  0
VERTEX
  8
0
 10
10.0552
 20
40.9407
 30
0.0
 40
0
 41
0
  0
VERTEX
  8
0
 10
10
 20
41.2904
 30
0.0
 40
0
 41
0
  0
SEQEND
 8
0
  0
POLYLINE
  8
0
 62
     0
 66
     1
 10
0
 20
0
 30
0.0
 70
     1
 40
0
 41
0
  0
VERTEX
  8
0
 10
35.5619
 20
198.876
 30
0.0
 40
0
 41
0
  0
VERTEX
  8
0
 10
35.6017
 20
198.876
 30
0.0
 40
0
 41
0
  0
VERTEX
  8
0
 10
35.7204
 20
198.868
 30
0.0
 40
0
 41
0
  0
VERTEX
  8
0
 10
35.8743
 20
198.844
 30
0.0
 40
0
 41
0
  0
VERTEX
  8
0
 10
36.0229
 20
198.807
 30
0.0
 40
0
 41
0
  0
VERTEX
  8
0
 10
36.1653
 20
198.754
 30
0.0
 40
0
 41
0
  0
VERTEX
  8
0
 10
36.3008
 20
198.689
 30
0.0
 40
0
 41
0
  0
VERTEX
  8
0
 10
36.4286
 20
198.611
 30
0.0
 40
0
 41
0
  0
VERTEX
  8
0
 10
36.5479
 20
198.522
 30
0.0
 40
0
 41
0
  0
VERTEX
  8
0
 10
36.6581
 20
198.422
 30
0.0
 40
0
 41
0
  0
VERTEX
  8
0
 10
36.7581
 20
198.313
 30
0.0
 40
0
 41
0
  0
VERTEX
  8
0
 10
36.8472
 20
198.193
 30
0.0
 40
0
 41
0
  0
VERTEX
  8
0
 10
36.9249
 20
198.065
 30
0.0
 40
0
 41
0
  0
VERTEX
  8
0
 10
36.9901
 20
197.929
 30
0.0
 40
0
 41
0
  0
VERTEX
  8
0
 10
37.0422
 20
197.788
 30
0.0
 40
0
 41
0
  0
VERTEX
  8
0
 10
37.0804
 20
197.639
 30
0.0
 40
0
 41
0
  0
VERTEX
  8
0
 10
37.1039
 20
197.485
 30
0.0
 40
0
 41
0
  0
VERTEX
  8
0
 10
37.1119
 20
197.367
 30
0.0
 40
0
 41
0
  0
VERTEX
  8
0
 10
37.1119
 20
197.326
 30
0.0
 40
0
 41
0
  0
VERTEX
  8
0
 10
37.1119
 20
197.288
 30
0.0
 40
0
 41
0
  0
VERTEX
  8
0
 10
37.1039
 20
197.168
 30
0.0
 40
0
 41
0
  0
VERTEX
  8
0
 10
37.0804
 20
197.014
 30
0.0
 40
0
 41
0
  0
VERTEX
  8
0
 10
37.0422
 20
196.865
 30
0.0
 40
0
 41
0
  0
VERTEX
  8
0
 10
36.9901
 20
196.724
 30
0.0
 40
0
 41
0
  0
VERTEX
  8
0
 10
36.9249
 20
196.587
 30
0.0
 40
0
 41
0
  0
VERTEX
  8
0
 10
36.8472
 20
196.46
 30
0.0
 40
0
 41
0
  0
VERTEX
  8
0
 10
36.7581
 20
196.34
 30
0.0
 40
0
 41
0
  0
VERTEX
  8
0
 10
36.6581
 20
196.231
 30
0.0
 40
0
 41
0
  0
VERTEX
  8
0
 10
36.5479
 20
196.131
 30
0.0
 40
0
 41
0
  0
VERTEX
  8
0
 10
36.4286
 20
196.042
 30
0.0
 40
0
 41
0
  0
VERTEX
  8
0
 10
36.3008
 20
195.964
 30
0.0
 40
0
 41
0
  0
VERTEX
  8
0
 10
36.1653
 20
195.899
 30
0.0
 40
0
 41
0
  0
VERTEX
  8
0
 10
36.0229
 20
195.846
 30
0.0
 40
0
 41
0
  0
VERTEX
  8
0
 10
35.8743
 20
195.808
 30
0.0
 40
0
 41
0
  0
VERTEX
  8
0
 10
35.7204
 20
195.785
 30
0.0
 40
0
 41
0
  0
VERTEX
  8
0
 10
35.6017
 20
195.776
 30
0.0
 40
0
 41
0
  0
VERTEX
  8
0
 10
35.5619
 20
195.776
 30
0.0
 40
0
 41
0
  0
VERTEX
  8
0
 10
35.5224
 20
195.776
 30
0.0
 40
0
 41
0
  0
VERTEX
  8
0
 10
35.4035
 20
195.785
 30
0.0
 40
0
 41
0
  0
VERTEX
  8
0
 10
35.2496
 20
195.808
 30
0.0
 40
0
 41
0
  0
VERTEX
  8
0
 10
35.1011
 20
195.846
 30
0.0
 40
0
 41
0
  0
VERTEX
  8
0
 10
34.9586
 20
195.899
 30
0.0
 40
0
 41
0
  0
VERTEX
  8
0
 10
34.8232
 20
195.964
 30
0.0
 40
0
 41
0
  0
VERTEX
  8
0
 10
34.6954
 20
196.042
 30
0.0
 40
0
 41
0
  0
VERTEX
  8
0
 10
34.576
 20
196.131
 30
0.0
 40
0
 41
0
  0
VERTEX
  8
0
 10
34.466
 20
196.231
 30
0.0
 40
0
 41
0
  0
VERTEX
  8
0
 10
34.3658
 20
196.34
 30
0.0
 40
0
 41
0
  0
VERTEX
  8
0
 10
34.2767
 20
196.46
 30
0.0
 40
0
 41
0
  0
VERTEX
  8
0
 10
34.199
 20
196.587
 30
0.0
 40
0
 41
0
  0
VERTEX
  8
0
 10
34.1337
 20
196.724
 30
0.0
 40
0
 41
0
  0
VERTEX
  8
0
 10
34.0817
 20
196.865
 30
0.0
 40
0
 41
0
  0
VERTEX
  8
0
 10
34.0435
 20
197.014
 30
0.0
 40
0
 41
0
  0
VERTEX
  8
0
 10
34.02
 20
197.168
 30
0.0
 40
0
 41
0
  0
VERTEX
  8
0
 10
34.0119
 20
197.288
 30
0.0
 40
0
 41
0
  0
VERTEX
  8
0
 10
34.0119
 20
197.326
 30
0.0
 40
0
 41
0
  0
VERTEX
  8
0
 10
34.0119
 20
197.367
 30
0.0
 40
0
 41
0
  0
VERTEX
  8
0
 10
34.02
 20
197.485
 30
0.0
 40
0
 41
0
  0
VERTEX
  8
0
 10
34.0435
 20
197.639
 30
0.0
 40
0
 41
0
  0
VERTEX
  8
0
 10
34.0817
 20
197.788
 30
0.0
 40
0
 41
0
  0
VERTEX
  8
0
 10
34.1337
 20
197.929
 30
0.0
 40
0
 41
0
  0
VERTEX
  8
0
 10
34.199
 20
198.065
 30
0.0
 40
0
 41
0
  0
VERTEX
  8
0
 10
34.2767
 20
198.193
 30
0.0
 40
0
 41
0
  0
VERTEX
  8
0
 10
34.3658
 20
198.313
 30
0.0
 40
0
 41
0
  0
VERTEX
  8
0
 10
34.466
 20
198.422
 30
0.0
 40
0
 41
0
  0
VERTEX
  8
0
 10
34.576
 20
198.522
 30
0.0
 40
0
 41
0
  0
VERTEX
  8
0
 10
34.6954
 20
198.611
 30
0.0
 40
0
 41
0
  0
VERTEX
  8
0
 10
34.8232
 20
198.689
 30
0.0
 40
0
 41
0
  0
VERTEX
  8
0
 10
34.9586
 20
198.754
 30
0.0
 40
0
 41
0
  0
VERTEX
  8
0
 10
35.1011
 20
198.807
 30
0.0
 40
0
 41
0
  0
VERTEX
  8
0
 10
35.2496
 20
198.844
 30
0.0
 40
0
 41
0
  0
VERTEX
  8
0
 10
35.4035
 20
198.868
 30
0.0
 40
0
 41
0
  0
VERTEX
  8
0
 10
35.5224
 20
198.876
 30
0.0
 40
0
 41
0
  0
VERTEX
  8
0
 10
35.5619
 20
198.876
 30
0.0
 40
0
 41
0
  0
SEQEND
 8
0
  0
POLYLINE
  8
0
 62
     0
 66
     1
 10
0
 20
0
 30
0.0
 70
     1
 40
0
 41
0
  0
VERTEX
  8
0
 10
35.5
 20
448.564
 30
0.0
 40
0
 41
0
  0
VERTEX
  8
0
 10
35.5383
 20
448.564
 30
0.0
 40
0
 41
0
  0
VERTEX
  8
0
 10
35.6533
 20
448.557
 30
0.0
 40
0
 41
0
  0
VERTEX
  8
0
 10
35.8024
 20
448.535
 30
0.0
 40
0
 41
0
  0
VERTEX
  8
0
 10
35.946
 20
448.497
 30
0.0
 40
0
 41
0
  0
VERTEX
  8
0
 10
36.0839
 20
448.447
 30
0.0
 40
0
 41
0
  0
VERTEX
  8
0
 10
36.215
 20
448.383
 30
0.0
 40
0
 41
0
  0
VERTEX
  8
0
 10
36.3386
 20
448.308
 30
0.0
 40
0
 41
0
  0
VERTEX
  8
0
 10
36.4542
 20
448.222
 30
0.0
 40
0
 41
0
  0
VERTEX
  8
0
 10
36.5607
 20
448.125
 30
0.0
 40
0
 41
0
  0
VERTEX
  8
0
 10
36.6575
 20
448.018
 30
0.0
 40
0
 41
0
  0
VERTEX
  8
0
 10
36.7438
 20
447.903
 30
0.0
 40
0
 41
0
  0
VERTEX
  8
0
 10
36.8189
 20
447.779
 30
0.0
 40
0
 41
0
  0
VERTEX
  8
0
 10
36.8821
 20
447.649
 30
0.0
 40
0
 41
0
  0
VERTEX
  8
0
 10
36.9325
 20
447.511
 30
0.0
 40
0
 41
0
  0
VERTEX
  8
0
 10
36.9694
 20
447.367
 30
0.0
 40
0
 41
0
  0
VERTEX
  8
0
 10
36.9922
 20
447.218
 30
0.0
 40
0
 41
0
  0
VERTEX
  8
0
 10
37
 20
447.103
 30
0.0
 40
0
 41
0
  0
VERTEX
  8
0
 10
37
 20
447.064
 30
0.0
 40
0
 41
0
  0
VERTEX
  8
0
 10
37
 20
447.026
 30
0.0
 40
0
 41
0
  0
VERTEX
  8
0
 10
36.9922
 20
446.911
 30
0.0
 40
0
 41
0
  0
VERTEX
  8
0
 10
36.9694
 20
446.763
 30
0.0
 40
0
 41
0
  0
VERTEX
  8
0
 10
36.9325
 20
446.618
 30
0.0
 40
0
 41
0
  0
VERTEX
  8
0
 10
36.8821
 20
446.481
 30
0.0
 40
0
 41
0
  0
VERTEX
  8
0
 10
36.8189
 20
446.35
 30
0.0
 40
0
 41
0
  0
VERTEX
  8
0
 10
36.7438
 20
446.226
 30
0.0
 40
0
 41
0
  0
VERTEX
  8
0
 10
36.6575
 20
446.11
 30
0.0
 40
0
 41
0
  0
VERTEX
  8
0
 10
36.5607
 20
446.004
 30
0.0
 40
0
 41
0
  0
VERTEX
  8
0
 10
36.4542
 20
445.907
 30
0.0
 40
0
 41
0
  0
VERTEX
  8
0
 10
36.3386
 20
445.821
 30
0.0
 40
0
 41
0
  0
VERTEX
  8
0
 10
36.215
 20
445.746
 30
0.0
 40
0
 41
0
  0
VERTEX
  8
0
 10
36.0839
 20
445.682
 30
0.0
 40
0
 41
0
  0
VERTEX
  8
0
 10
35.946
 20
445.632
 30
0.0
 40
0
 41
0
  0
VERTEX
  8
0
 10
35.8024
 20
445.594
 30
0.0
 40
0
 41
0
  0
VERTEX
  8
0
 10
35.6533
 20
445.572
 30
0.0
 40
0
 41
0
  0
VERTEX
  8
0
 10
35.5383
 20
445.564
 30
0.0
 40
0
 41
0
  0
VERTEX
  8
0
 10
35.5
 20
445.564
 30
0.0
 40
0
 41
0
  0
VERTEX
  8
0
 10
35.4617
 20
445.564
 30
0.0
 40
0
 41
0
  0
VERTEX
  8
0
 10
35.3467
 20
445.572
 30
0.0
 40
0
 41
0
  0
VERTEX
  8
0
 10
35.1976
 20
445.594
 30
0.0
 40
0
 41
0
  0
VERTEX
  8
0
 10
35.0539
 20
445.632
 30
0.0
 40
0
 41
0
  0
VERTEX
  8
0
 10
34.9161
 20
445.682
 30
0.0
 40
0
 41
0
  0
VERTEX
  8
0
 10
34.785
 20
445.746
 30
0.0
 40
0
 41
0
  0
VERTEX
  8
0
 10
34.6613
 20
445.821
 30
0.0
 40
0
 41
0
  0
VERTEX
  8
0
 10
34.5458
 20
445.907
 30
0.0
 40
0
 41
0
  0
VERTEX
  8
0
 10
34.4393
 20
446.004
 30
0.0
 40
0
 41
0
  0
VERTEX
  8
0
 10
34.3425
 20
446.11
 30
0.0
 40
0
 41
0
  0
VERTEX
  8
0
 10
34.2561
 20
446.226
 30
0.0
 40
0
 41
0
  0
VERTEX
  8
0
 10
34.181
 20
446.35
 30
0.0
 40
0
 41
0
  0
VERTEX
  8
0
 10
34.1178
 20
446.481
 30
0.0
 40
0
 41
0
  0
VERTEX
  8
0
 10
34.0674
 20
446.618
 30
0.0
 40
0
 41
0
  0
VERTEX
  8
0
 10
34.0304
 20
446.763
 30
0.0
 40
0
 41
0
  0
VERTEX
  8
0
 10
34.0076
 20
446.911
 30
0.0
 40
0
 41
0
  0
VERTEX
  8
0
 10
34
 20
447.026
 30
0.0
 40
0
 41
0
  0
VERTEX
  8
0
 10
34
 20
447.064
 30
0.0
 40
0
 41
0
  0
VERTEX
  8
0
 10
34
 20
447.103
 30
0.0
 40
0
 41
0
  0
VERTEX
  8
0
 10
34.0076
 20
447.218
 30
0.0
 40
0
 41
0
  0
VERTEX
  8
0
 10
34.0304
 20
447.367
 30
0.0
 40
0
 41
0
  0
VERTEX
  8
0
 10
34.0674
 20
447.511
 30
0.0
 40
0
 41
0
  0
VERTEX
  8
0
 10
34.1178
 20
447.649
 30
0.0
 40
0
 41
0
  0
VERTEX
  8
0
 10
34.181
 20
447.779
 30
0.0
 40
0
 41
0
  0
VERTEX
  8
0
 10
34.2561
 20
447.903
 30
0.0
 40
0
 41
0
  0
VERTEX
  8
0
 10
34.3425
 20
448.018
 30
0.0
 40
0
 41
0
  0
VERTEX
  8
0
 10
34.4393
 20
448.125
 30
0.0
 40
0
 41
0
  0
VERTEX
  8
0
 10
34.5458
 20
448.222
 30
0.0
 40
0
 41
0
  0
VERTEX
  8
0
 10
34.6613
 20
448.308
 30
0.0
 40
0
 41
0
  0
VERTEX
  8
0
 10
34.785
 20
448.383
 30
0.0
 40
0
 41
0
  0
VERTEX
  8
0
 10
34.9161
 20
448.447
 30
0.0
 40
0
 41
0
  0
VERTEX
  8
0
 10
35.0539
 20
448.497
 30
0.0
 40
0
 41
0
  0
VERTEX
  8
0
 10
35.1976
 20
448.535
 30
0.0
 40
0
 41
0
  0
VERTEX
  8
0
 10
35.3467
 20
448.557
 30
0.0
 40
0
 41
0
  0
VERTEX
  8
0
 10
35.4617
 20
448.564
 30
0.0
 40
0
 41
0
  0
VERTEX
  8
0
 10
35.5
 20
448.564
 30
0.0
 40
0
 41
0
  0
SEQEND
 8
0
  0
ENDSEC
  0
EOF
